<?xml version="1.0" encoding="utf-8"?>
<!-- Generator: Adobe Illustrator 25.2.1, SVG Export Plug-In . SVG Version: 6.00 Build 0)  -->
<svg version="1.1" id="Layer_1" xmlns="http://www.w3.org/2000/svg" xmlns:xlink="http://www.w3.org/1999/xlink" x="0px" y="0px"
	 viewBox="0 0 130 130" style="enable-background:new 0 0 130 130;" xml:space="preserve">
<style type="text/css">
	.st0{fill:#65C8FF;}
	.st1{fill:#FFFFFF;}
</style>
<g>
	<g>
		<g>
			<polygon class="st0" points="67.2,32.7 64.8,30.2 76.9,18.1 81,16.5 79.4,20.6 			"/>
			<polygon class="st0" points="67.3,30.2 64.8,32.7 52.7,20.6 51.1,16.5 55.2,18.1 			"/>
		</g>
		<g>
			<polygon class="st1" points="67.6,47.9 64.5,44.8 79.8,29.4 85,27.4 82.9,32.6 			"/>
			<polygon class="st1" points="67.6,44.8 64.5,47.9 49.2,32.6 47.1,27.4 52.3,29.4 			"/>
		</g>
		<polygon class="st1" points="70.4,72.1 61.7,72.1 61.7,13.4 66,3.2 70.4,13.4 		"/>
	</g>
	<g>
		<g>
			<polygon class="st0" points="64.8,96.7 67.3,99.2 55.2,111.3 51.1,112.9 52.7,108.9 			"/>
			<polygon class="st0" points="64.8,99.2 67.2,96.7 79.4,108.9 81,112.9 76.9,111.3 			"/>
		</g>
		<g>
			<polygon class="st1" points="64.5,81.5 67.6,84.6 52.3,100 47.1,102.1 49.2,96.9 			"/>
			<polygon class="st1" points="64.5,84.6 67.6,81.5 82.9,96.9 85,102.1 79.8,100 			"/>
		</g>
		<polygon class="st1" points="61.7,57.3 70.4,57.3 70.4,116 66,126.2 61.7,116 		"/>
	</g>
</g>
<g>
	<g>
		<g>
			<polygon class="st0" points="37.7,79.7 36.8,83 20.3,78.6 16.8,75.9 21.2,75.2 			"/>
			<polygon class="st0" points="35.6,80.9 38.9,81.8 34.5,98.3 31.7,101.8 31.1,97.4 			"/>
		</g>
		<g>
			<polygon class="st1" points="50.7,71.8 49.6,76 28.6,70.4 24.2,67 29.8,66.2 			"/>
			<polygon class="st1" points="48,73.3 52.2,74.4 46.6,95.4 43.2,99.8 42.4,94.3 			"/>
		</g>
		<polygon class="st1" points="70.2,57.3 74.6,64.8 23.8,94.2 12.8,95.5 19.4,86.6 		"/>
	</g>
	<g>
		<g>
			<polygon class="st0" points="94.4,49.7 95.3,46.4 111.8,50.8 115.3,53.5 110.9,54.2 			"/>
			<polygon class="st0" points="96.5,48.6 93.2,47.7 97.6,31.1 100.3,27.6 101,32 			"/>
		</g>
		<g>
			<polygon class="st1" points="81.4,57.6 82.5,53.4 103.5,59 107.9,62.4 102.3,63.2 			"/>
			<polygon class="st1" points="84.1,56.1 79.8,55 85.5,34 88.9,29.6 89.7,35.2 			"/>
		</g>
		<polygon class="st1" points="61.8,72.2 57.5,64.6 108.3,35.3 119.3,34 112.7,42.8 		"/>
	</g>
</g>
<g>
	<g>
		<g>
			<polygon class="st0" points="93.2,81.8 96.5,80.9 101,97.4 100.3,101.8 97.6,98.3 			"/>
			<polygon class="st0" points="95.3,83 94.4,79.7 110.9,75.2 115.3,75.9 111.8,78.6 			"/>
		</g>
		<g>
			<polygon class="st1" points="79.8,74.4 84.1,73.3 89.7,94.3 88.9,99.8 85.5,95.4 			"/>
			<polygon class="st1" points="82.5,76 81.4,71.8 102.3,66.2 107.9,67 103.5,70.4 			"/>
		</g>
		<polygon class="st1" points="57.5,64.8 61.8,57.3 112.7,86.6 119.3,95.5 108.3,94.2 		"/>
	</g>
	<g>
		<g>
			<polygon class="st0" points="38.9,47.7 35.6,48.6 31.1,32 31.7,27.6 34.5,31.1 			"/>
			<polygon class="st0" points="36.8,46.4 37.7,49.7 21.2,54.2 16.8,53.5 20.3,50.8 			"/>
		</g>
		<g>
			<polygon class="st1" points="52.2,55 48,56.1 42.4,35.2 43.2,29.6 46.6,34 			"/>
			<polygon class="st1" points="49.6,53.4 50.7,57.6 29.8,63.2 24.2,62.4 28.6,59 			"/>
		</g>
		<polygon class="st1" points="74.6,64.6 70.2,72.2 19.4,42.8 12.8,34 23.8,35.3 		"/>
	</g>
</g>
</svg>
