<svg version="1" xmlns="http://www.w3.org/2000/svg" width="933.333" height="933.333" viewBox="0 0 700.000000 700.000000"><path d="M316 33c0 .5-.6.7-1.3.4-1.4-.5-5.7 3-5.8 4.9 0 .7-.2 2-.4 3.1-.8 4.2 3.6 10.6 6 8.6.8-.6 1.3-1.7 1.1-2.3-.1-.7-.1-.9.1-.4.3.4.9.5 1.4.1.5-.3.9-.1.9.4 0 .6-.7 1.2-1.5 1.6-3.6 1.3-.8 2.1 8 2.2 6.6.1 9.2-.2 8.8-1-.5-.8-.3-.8.8 0 2 1.5 11.9 1.6 13.7.1 1.2-.9 1.4-.9.8 0-1 1.7 29.2 1.6 31.3-.1 1.1-.8 1.3-.8.8.1-.6.9 20.3 1.2 87.8 1.3 77.9 0 88.8-.1 91.5-1.5 3-1.6 4.8-4 4.4-6.3-.1-.6-.2-2.4-.3-3.8 0-1.4-1.4-3.9-3-5.5l-3-2.9h-94.3c-71.3.1-94.6.4-95.7 1.3-.8.7-1.2.7-.8.1.4-.7-1.4-1.1-5.4-1.2-4.4-.1-5.8.2-5.2 1.1.5.9.3.9-.8.1-1.9-1.5-16-1.6-17.8-.1-1.2.9-1.3.9-.7 0 .5-1-.3-1.2-3.3-1.1-2.6.1-3.8.5-3.4 1.2.4.6-.2.4-1.2-.4-1.7-1.3-1.8-1.3-1.3.1.4.9.1 1.6-.7 1.6-.7 0-1.1-.5-.9-1.2.3-.7-1.5-1.1-5.1-1.3-3-.1-5.5.3-5.5.8zm9 2.5c1.4 1.9 1.4 1.9-.2.6-1-.7-1.8-1.8-1.8-2.4 0-.6.1-.8.3-.6.1.2.9 1.3 1.7 2.4zm15.7-.7c-2.1 2.3-5.2 2.5-6.9.4-1.1-1.5-1.1-1.5.2-.5 1.8 1.4 4.5 1.2 6.2-.5 1.9-1.9 2.3-1.4.5.6zm33.9.8c.1.9 0 1.3-.4 1-.3-.4-.7-1.4-.8-2.2-.1-.9 0-1.3.4-1 .3.4.7 1.4.8 2.2zm-53.4.7c-.7.8-.9 1.7-.5 2 .3.4.1.7-.5.7-.7 0-1.2-.2-1.2-.5 0-1 2.4-4.4 2.9-4 .2.3-.1 1.1-.7 1.8zm-6.2 0c0 .5-.7.6-1.6.3-1.2-.5-1.4-.1-.9 1.7.5 1.9.4 2-.5.4-.6-.9-.9-2.1-.6-2.5.7-1.2 3.6-1.1 3.6.1zm3-.3c0 .5-.2 1-.4 1-.3 0-.8-.5-1.1-1-.3-.6-.1-1 .4-1 .6 0 1.1.4 1.1 1zm14.5 1c-.3.4 0 1.1.5 1.3.6.3.5.4-.1.3-.7-.1-1.3-1-1.5-1.9-.1-.9.2-1.5.7-1.1.5.3.7.9.4 1.4zm12.1.5c.1.8-.1 1.7-.5 1.9-.4.3-.7-.6-.7-1.9 0-2.5.8-2.5 1.2 0zm56.4-1.3c0 .4-.4.8-.9.8-.6 0-1.2-.4-1.5-.8-.3-.5.1-.9.9-.9s1.5.4 1.5.9zm-85.3 5c-.3.7-.5.2-.5-1.2s.2-1.9.5-1.3c.2.7.2 1.9 0 2.5zm9-1.8c0 .8-.6 1.2-1.5.9-1.1-.5-1.1-.7 0-1.4.7-.5 1.3-.9 1.4-.9 0 0 .1.6.1 1.4zm29.6.1c-.3.9-.8 1.4-1 1.1-.3-.3-.2-.9.2-1.5.9-1.6 1.5-1.3.8.4zM311 40c0 .5-.5 1-1.1 1-.5 0-.7-.5-.4-1 .3-.6.8-1 1.1-1 .2 0 .4.4.4 1zm59.3.5c.4.8.3 1.6-.1 1.9-.4.3-.9-.4-.9-1.5-.2-2.3.3-2.5 1-.4zm-29.7 1c-.1.8-.5 1.7-.8 2.1-.5.4-.4-1.6.1-3.4.3-.9.9.1.7 1.3zM321 42c0 .5-.4 1-1 1-.5 0-1-.5-1-1 0-.6.5-1 1-1 .6 0 1 .4 1 1zm7.7.5c0 .8-.4 1.2-.9.9-.5-.3-.6-1-.3-1.5.9-1.3 1.2-1.1 1.2.6zm3.8 1.8c.1 1.5-.5 3.3-1.3 4-1.3 1-1.4.9-.7-.3 1.3-2 1.3-5.3 0-6.3-.6-.5-.4-.7.5-.5.8.3 1.5 1.6 1.5 3.1zm24.5-1.9c0 .2-.6.9-1.4 1.5-1.1.9-1.6.9-2.2 0-.4-.7-.3-.9.4-.5.6.3 1.3.2 1.7-.4.6-1 1.5-1.4 1.5-.6zM315 44c0 .5-.4 1-1 1-.5 0-1-.5-1-1 0-.6.5-1 1-1 .6 0 1 .4 1 1zm10.6 1.7c-.6.6-3.6-.9-3.6-1.8 0-.5.9-.4 2 .3 1 .7 1.8 1.4 1.6 1.5zm23.4-1.3c0 .2-.8 1-1.7 1.7-1.6 1.3-1.7 1.2-.4-.4 1.3-1.6 2.1-2.1 2.1-1.3zm-28.3 2.1c0 .8-.4 1.2-.9.9-.4-.3-.8-.9-.8-1.5 0-.5.4-.9.8-.9.5 0 .9.7.9 1.5zm49.7-.6c.3.5-.2 1.5-1.2 2.2-1.5 1.2-1.6 1.2-.5-.2.7-.9 1-1.9.6-2.2-.3-.4-.4-.7 0-.7.3 0 .8.4 1.1.9zm-57 1.7c.3.8.2 1.2-.4.9-.6-.3-1-1-1-1.6 0-1.4.7-1.1 1.4.7zm11.3.8c0 .8-.6 1.2-1.5.9-1.1-.5-1.1-.7 0-1.4.7-.5 1.3-.9 1.4-.9 0 0 .1.6.1 1.4zm-3.7 1c0 .3-.4.8-1 1.1-.5.3-1 .1-1-.4 0-.6.5-1.1 1-1.1.6 0 1 .2 1 .4zm20 .2c0 .8-1.9 1.3-2.4.6-.3-.5.1-.9.9-.9s1.5.2 1.5.3zm11.5 1.2c-.3.3-1.1 0-1.8-.7-.9-1-.8-1.1.6-.5 1 .3 1.5.9 1.2 1.2zm10.5-1.4c0 .3-.4.8-1 1.1-.5.3-1 .1-1-.4 0-.6.5-1.1 1-1.1.6 0 1 .2 1 .4zm3.5.6c.3.5.1 1-.4 1-.6 0-1.1-.5-1.1-1 0-.6.2-1 .4-1 .3 0 .8.4 1.1 1zM246.2 73.1c-1.8.6-3.6 1.8-3.9 2.7-.4.9-1.1 2.1-1.7 2.5-.7.5-.3.6.8.3 1.9-.6 1.9-.6.4 1.1-2 2.2-1.4 6.3 1.5 9.4 1.8 2 2.1 2 3.2.6 1-1.4 1.4-1.5 3.1-.2 1.8 1.3 1.8 1.4-.3.8-1.3-.3-2.3-.1-2.3.5 0 1.6 4.3 1 5.6-.7.9-1.1 1.2-1.2 1.9-.1.5.9.4 1.1-.3.6-.7-.4-1.2-.3-1.2.2 0 .6 2.4 1 5.4 1 4.9-.1 5.4-.3 5-2.1-.2-1.1 0-1.6.4-1.3.4.4.7 1.3.7 1.9 0 .8 3.1 1.3 9.8 1.4 6.9.1 9.6-.1 9.1-.9-.5-.7-.2-.8.7-.2 2.4 1.5 6.2 1.7 5.3.2-.5-1-.4-1.1.7-.1.7.7 2.9 1.3 4.9 1.3 2 0 4.2-.6 4.9-1.3 1.1-1 1.3-1 .7 0-.5.9 0 1.3 1.5 1.3 1.9 0 2-.2.8-1.8-1.3-1.6-1.2-1.6.6 0 1.7 1.4 4.4 1.6 18 1.5 12.7-.2 15.9-.5 15.7-1.5-.1-.8.2-1.1.8-.7.6.3.8 1 .5 1.5-.3.5 60.1.9 137.5 1h138.1l3.1-3c2.8-2.8 3-3.5 2.5-7.8-.4-3.4-1.2-5.2-3.2-7l-2.7-2.3-159.9.2c-119.1.1-159.7.4-159.2 1.3.3.6 0 .6-.8-.2-.7-.6-3.4-1.2-5.9-1.2-2.5 0-5.2.6-5.9 1.2-1.1 1.1-1.3 1-.7 0 .6-.9-1.5-1.2-9.3-1.1-6.7.1-10.1.5-10.1 1.3 0 .7-.3.8-.8.1-1.3-1.9-7.3-1.8-8.7.2-.8 1-1.5 1.3-1.5.8 0-.6-.9.3-2 2-1.1 1.6-2 2.6-2 2.2 0-1.6 3.2-5.7 4.1-5.1.5.3.9 0 .9-.5 0-1.3-1.3-1.3-5.8 0zm12.3 2c-.4.5-1.4.8-2.3.8-1.5-.1-1.5-.2.1-.6.9-.2 1.4-.9 1.1-1.5-.4-.7-.2-.8.5-.4.6.4.9 1.2.6 1.7zm18.3-.4c-.6.7-1.2 1.3-1.3 1.3-.2 0-.5-.6-.8-1.3-.3-.7.3-1.3 1.4-1.3 1.3 0 1.5.3.7 1.3zm7.9.1c-1.7 1.8-5.1 2.7-4.1 1 .3-.5.9-.6 1.4-.3.4.3 1.3-.2 2-1s1.5-1.5 1.8-1.5c.3 0-.2.8-1.1 1.8zm-12.7.7c0 .2-.6.5-1.3.8-.8.3-1.4-.1-1.4-.8 0-.7.6-1.1 1.4-.8.7.3 1.3.6 1.3.8zm28.6 0c-.1.8-.5 1.7-.8 2.1-.5.4-.4-1.6.1-3.4.3-.9.9.1.7 1.3zm5.7 0c-.3.9-.8 1.4-1 1.1-.3-.3-.2-.9.2-1.5.9-1.6 1.5-1.3.8.4zM246 76.6c0 .2-.7.4-1.5.4s-1.5-.4-1.5-1c0-.5.7-.7 1.5-.4.8.4 1.5.8 1.5 1zm15.3.1c-.5 1.2-.3 1.4.7.8.8-.5 1.1-.4.6.3-.4.6-1.3.9-2.2.5-1.1-.4-1.2-.9-.3-1.9 1.5-1.9 2-1.8 1.2.3zm5.3-.5c.5.7.3.8-.6.3-1-.6-1.2-.4-.6 1.1.5 1.4.4 1.6-.5.7-.6-.6-.8-1.6-.5-2.2.9-1.4 1.3-1.4 2.2.1zm26.3-.9c-.2.2-1.1.8-2 1.5-1.2.9-1.6.9-1.6-.1 0-.7.9-1.4 2-1.4 1.1-.1 1.8-.1 1.6 0zm37.7 1.2c-.1.8-.5 1.7-.8 2.1-.5.4-.4-1.6.1-3.4.3-.9.9.1.7 1.3zm12.4-.9c0 .8-1.9 1.3-2.4.6-.3-.5.1-.9.9-.9s1.5.2 1.5.3zm-6.2 2.9c-.3.3-.9-.2-1.2-1.2-.6-1.4-.5-1.5.5-.6.7.7 1 1.5.7 1.8zM253 77.4c0 .3-.4.8-1 1.1-.5.3-1 .1-1-.4 0-.6.5-1.1 1-1.1.6 0 1 .2 1 .4zm45.2 2.1c.2-.3.5.2.5 1 0 1.9.1 2-2.8-1.2-1.7-2-1.8-2.3-.3-1 1.1.9 2.3 1.5 2.6 1.2zM250 82.3c-.8.9-.9.7-.4-.7.5-1.3.4-1.7-.4-1.2s-1 .2-.5-1c.6-1.5.7-1.5 1.6.1.6 1.1.5 2.1-.3 2.8zm33-3.9c0 .2-.8 1-1.7 1.7-1.6 1.3-1.7 1.2-.4-.4 1.3-1.6 2.1-2.1 2.1-1.3zm25.6 1.6c0 1.2-.4 1.6-.9 1.1s-.6-1.4-.3-2c1-1.5 1.2-1.4 1.2.9zm8.4-1.6c0 .2-.8 1-1.7 1.7-1.6 1.3-1.7 1.2-.4-.4 1.3-1.6 2.1-2.1 2.1-1.3zm56.1 1.3c1.3 1.6 1.2 1.7-.3.4-1-.7-1.8-1.5-1.8-1.7 0-.8.8-.3 2.1 1.3zm-126.7.8c.5 1.5-3 4.2-4.2 3.1-.3-.3 0-.6.7-.6s.9-.4.6-1c-.4-.6.1-.7 1.2-.3 1.6.6 1.6.5.4-1-.7-.9-.9-1.7-.3-1.7.5 0 1.2.7 1.6 1.5zm8.6-1.1c0 .2-.7.7-1.6 1-.8.3-1.2.2-.9-.4.6-1 2.5-1.4 2.5-.6zm4 0c0 .2-.7.7-1.6 1-.8.3-1.2.2-.9-.4.6-1 2.5-1.4 2.5-.6zm4.5.6c-.3.5-1.2 1-1.8 1-.7 0-.6-.4.3-1 1.9-1.2 2.3-1.2 1.5 0zm4.5 0c-.8.5-1.9 1-2.5 1-.5 0-.3-.5.5-1s2-1 2.5-1c.6 0 .3.5-.5 1zm8.7.5c0 .8-.4 1.2-.9.9-.4-.3-.8-.9-.8-1.5 0-.5.4-.9.8-.9.5 0 .9.7.9 1.5zm8.3-.1c0 .2-.8 1-1.7 1.7-1.6 1.3-1.7 1.2-.4-.4 1.3-1.6 2.1-2.1 2.1-1.3zm-29.4 1.8c.4.7.3.8-.4.4s-1.2-.5-1.2-.2c0 .2-.3 1.2-.7 2.2-.4 1.2-.3 1.5.5 1 .7-.4 1.2-.5 1.2-.2 0 1.6-2.1 1.3-3-.5-.7-1.2-.8-1.9-.2-1.5.5.3 1.2-.1 1.6-.9.7-1.8 1.2-1.9 2.2-.3zm3.5 2.5c-1.1 1.6-1.1 1.5-.5-.6.4-1.7.3-2.1-.6-1.6-.9.6-1.1.4-.5-.4.5-.9 1.1-.9 1.7-.3.7.7.6 1.6-.1 2.9zm13.6-3.1c-.3.3-1.2.4-1.9.1-.8-.3-.5-.6.6-.6 1.1-.1 1.7.2 1.3.5zm7.8 1.2c-.3.3-1.1 0-1.8-.7-.9-1-.8-1.1.6-.5 1 .3 1.5.9 1.2 1.2zm63.9-.2c.3.8.2 1.2-.4.9-.6-.3-1-1-1-1.6 0-1.4.7-1.1 1.4.7zm-69.7.9c0 .8-.5 1.1-1 .8-.6-.4-.8 0-.4 1 .9 2.4 0 2.1-1.4-.4-.7-1.3-.7-1.9-.1-1.5.6.3 1.3.2 1.7-.4.9-1.4 1.2-1.3 1.2.5zm12 0c0 .8-.3 1.3-.5 1-.3-.3-1.2.1-2.1.7-1 .8-.9.4.3-1 2.3-2.6 2.3-2.6 2.3-.7zm-36.4 2c.4-.3.5-.2.2.2-1.1 1.4-3.4 1.1-2.8-.3.4-1 0-1.3-1.3-.8-1.6.5-1.6.4-.4-.5 1.1-.8 1.8-.7 2.6.4.6.8 1.4 1.3 1.7 1zm46.9-1.1c-.4.6-.7 1.4-.7 1.8 0 1.9-1.1 1.4-1.1-.6 0-1.2.6-2.3 1.3-2.3.6 0 .9.5.5 1.1zm6.2-.6c.3.5-.1.9-.9.9s-1.2-.4-.9-.9c.3-.4.7-.8.9-.8.2 0 .6.4.9.8zm3 .8c.3.8.2 1.2-.4.9-.6-.3-1-1-1-1.6 0-1.4.7-1.1 1.4.7zm-40.1.1c.3.5-.8.8-2.3.8-1.5 0-2.6-.3-2.3-.8.2-.4 1.3-.7 2.3-.7 1 0 2.1.3 2.3.7zm72.2.2c.3.5.2 1.2-.3 1.5-.5.3-.9-.1-.9-.9 0-1.7.3-1.9 1.2-.6zm-82.4 2.8c-1.2 2-1.4 1.4-.5-1.2.4-.9.9-1.4 1.1-1.1.3.2 0 1.3-.6 2.3zm25-1.4c-.6.8-.7 1.8-.3 2.2.4.5.1.5-.6.1-1-.6-1-1.1-.1-2.2.6-.8 1.4-1.4 1.6-1.4.3 0 0 .6-.6 1.3zM327 86c0 .5-.2 1-.4 1-.3 0-.8-.5-1.1-1-.3-.6-.1-1 .4-1 .6 0 1.1.4 1.1 1zm4-.4c0 .8-1.9 1.3-2.4.6-.3-.5.1-.9.9-.9s1.5.2 1.5.3zm5 0c0 .8-1.9 1.3-2.4.6-.3-.5.1-.9.9-.9s1.5.2 1.5.3zm-90.6 2c.3.8.2 1.2-.4.9-.6-.3-1-1-1-1.6 0-1.4.7-1.1 1.4.7zm41.2.4c0 1.2-.4 1.6-.9 1.1s-.6-1.4-.3-2c1-1.5 1.2-1.4 1.2.9zm-26.1-.1c-.9.8-3.6 1-3 .2.2-.4 1.1-.8 2-.8.8 0 1.3.3 1 .6zm8.8 1.1c.3 1.1.1 1.8-.4 1.4-.5-.3-.9-1.2-.9-2 0-2 .7-1.7 1.3.6zm30.1-1.2c.3.5-.1.9-.9.9s-1.2-.4-.9-.9c.3-.4.7-.8.9-.8.2 0 .6.4.9.8zm-6.3 1.9c1.3 1.6 1.2 1.7-.3.4-1-.7-1.8-1.5-1.8-1.7 0-.8.8-.3 2.1 1.3zm-12 1.1c-.7.2-1.8-.1-2.3-.6-.8-.8-.4-.9 1.3-.5 1.3.4 1.8.8 1 1.1zM319 90c0 .5-.2 1-.4 1-.3 0-.8-.5-1.1-1-.3-.6-.1-1 .4-1 .6 0 1.1.4 1.1 1zM207.7 113.3c-3.9 1.3-6 6.7-4.7 11.7.6 2.2 1.7 4 2.5 4 .7 0 1.5.5 1.7 1.2.6 1.6 28.7 2.1 30.7.5 1.2-.9 1.3-.9.7.1-.5.9.4 1.2 4.1 1.1 2.6-.1 5.6-.6 6.7-1.1 1.3-.7 1.6-.7 1.2.1-.5.7.1 1.1 1.4 1.1 1.3 0 1.9-.4 1.4-1.2-.5-.7-.3-.8.7-.2.8.5 2.5 1 3.8 1.2 2 .3 2.2.1 1.3-1.1-.9-1.1-.8-1.4.3-1.4.7 0 1.3.5 1.2 1.1-.1.8 53.2 1.2 186.8 1.4l187 .2 2.7-2.2c2.8-2.4 3.1-3.2 2.9-8.6-.1-2.3-1.1-4.3-3-6.3l-3-2.9H500.9c-104.3 0-133.6.3-134.8 1.3-1.2.9-1.3.9-.7 0 1-1.7-97.1-1.6-99.3.1-1.1.8-1.3.8-.7-.2.5-.8 0-1.2-1.4-1.2-1.3 0-1.9.4-1.4 1.2.5.8.3.8-.7.2-2.1-1.3-38.9-1.3-38.9 0 0 .8-.3.8-.8 0-.8-1.3-10.8-1.4-14.5-.1zm10.3 1.4c0 .3-.9.3-2.1 0-1.5-.4-1.9-.2-1.5.9.3.8.1 1.4-.4 1.4-1.1 0-1.4-2.3-.4-3.2.6-.7 4.4.2 4.4.9zm2.6.7c0 1.4-.5 2.1-.9 1.7-.4-.4-.5-1.5-.1-2.4.9-2.4 1.2-2.1 1 .7zm7.9-1.5c.3.5.2 1.2-.3 1.5-.5.3-.9-.1-.9-.9 0-1.7.3-1.9 1.2-.6zm12.4.8c-1.2 1.4-1.2 1.6.2 1.1.9-.4 1.6-.1 1.6.7 0 1.1-.5 1.1-1.9.4-1.5-.8-1.7-1.3-.7-2.5.6-.8 1.4-1.4 1.6-1.4.3 0-.1.8-.8 1.7zm69.6-.8c-.9.8-3.6 1-3 .2.2-.4 1.1-.8 2-.8.8 0 1.3.3 1 .6zm-101.5.5c0 .3-.4.8-1 1.1-.5.3-1 .1-1-.4 0-.6.5-1.1 1-1.1.6 0 1 .2 1 .4zm2 1.1c0 .8-.4 1.5-1 1.5-.5 0-.7-.7-.4-1.5.4-.8.8-1.5 1-1.5.2 0 .4.7.4 1.5zm51.2 0c.2-.3.5.2.5 1 0 1.9 0 1.9-2.3-.7-1.2-1.4-1.3-1.8-.3-1 .9.6 1.8 1 2.1.7zm-37.3 2.9c-.3.3-1.1-.5-1.8-1.7-1.3-2.1-1.2-2.1.5-.5 1 1 1.6 2 1.3 2.2zM269 116c0 .5-.5 1-1.1 1-.5 0-.7-.5-.4-1 .3-.6.8-1 1.1-1 .2 0 .4.4.4 1zm32 0c0 .5-.5 1-1.1 1-.5 0-.7-.5-.4-1 .3-.6.8-1 1.1-1 .2 0 .4.4.4 1zm4-.1c0 .6-.4 1.2-.8 1.5-.5.3-.9-.1-.9-.9s.4-1.5.9-1.5c.4 0 .8.4.8.9zm47.5.1c.3.5.1 1-.4 1-.6 0-1.1-.5-1.1-1 0-.6.2-1 .4-1 .3 0 .8.4 1.1 1zm-133.9 2.2c.4.7.3.8-.4.4s-1.2-.3-1.2.2c0 .6-.8 1.3-1.7 1.6-1.5.6-1.5.4.2-1.4 2.1-2.3 2.2-2.4 3.1-.8zm38.4.2c-.7.7-1.3.7-2 0-.6-.6-.3-1 1-1s1.6.4 1 1zm59.5-.5c-.9.8-3.6 1-3 .2.2-.4 1.1-.8 2-.8.8 0 1.3.3 1 .6zm-108.2 1.4c-1.2.7-2.2 1.6-2.2 2.2 0 .5-.7 1.1-1.5 1.3-.9.2-1.6-.1-1.6-.7s.7-.7 1.7-.4c1 .4 1.4.2.9-.5-.6-1.1 1.9-3.1 3.9-3.1.6 0 0 .5-1.2 1.2zm5.4-.7c-.3.3-1.2.4-1.9.1-.8-.3-.5-.6.6-.6 1.1-.1 1.7.2 1.3.5zm15 1.6c-.3.8-.6.5-.6-.6-.1-1.1.2-1.7.5-1.3.3.3.4 1.2.1 1.9zm19.6-.9c.4-.3.7-.1.7.5 0 1.7-1.6 1.5-3.1-.6-1.2-1.5-1.2-1.6.2-.5.9.7 1.9 1 2.2.6zm19.1.6c1.4 1.5 1.5 2.1.4 2.7-.7.4-1 .3-.5-.1.4-.5 0-1.7-1-2.7-.9-1-1.4-1.8-1.1-1.8.3 0 1.3.9 2.2 1.9zM220 121c-1.2 2.3-1.6 2.4-2.6.8-.4-.6-.3-.8.3-.5.6.4 1.3 0 1.7-.8.3-.8.8-1.5 1.1-1.5.3 0 .1.9-.5 2zm18-1c-.8.5-1.9 1-2.5 1-.5 0-.3-.5.5-1s2-1 2.5-1c.6 0 .3.5-.5 1zm16.1.7c1.3 1.6 1.2 1.7-.3.4-1-.7-1.8-1.5-1.8-1.7 0-.8.8-.3 2.1 1.3zm24 .6c-1 .9-1.1.8-.5-.6.3-1 .9-1.5 1.2-1.2.3.3 0 1.1-.7 1.8zm7.9-1.9c0 .2-.8 1-1.7 1.7-1.6 1.3-1.7 1.2-.4-.4 1.3-1.6 2.1-2.1 2.1-1.3zm-61.3 2.1c0 .8-.4 1.5-.9 1.5-1 0-1.1-1.4-.1-2.3.9-1 1-.9 1 .8zm63.8-.6c.3.5.2 1.2-.3 1.5-.5.3-.9-.1-.9-.9 0-1.7.3-1.9 1.2-.6zm-46.7 2.4c.6-.3 1.2 0 1.2.5 0 .6-.8.9-1.7.7-1-.1-2.3.1-2.9.6-.7.5-1.1.3-1.1-.6 0-.8.5-1.1 1-.8.7.4.8-.1.4-1.3-.6-1.7-.6-1.7.5-.3.7.9 1.9 1.4 2.6 1.2zm22.3 0c-1 .9-1.1.8-.5-.6.3-1 .9-1.5 1.2-1.2.3.3 0 1.1-.7 1.8zm56.3-.7c.3.8.2 1.2-.4.9-.6-.3-1-1-1-1.6 0-1.4.7-1.1 1.4.7zm-112.2 1.6c-.7.7-1.2.8-1.2.2 0-1.4 1.2-2.6 1.9-1.9.2.3-.1 1.1-.7 1.7zm4.1-.9c.3.8.2 2-.3 2.6-.5.9-.7.4-.7-1.3 0-2.9.2-3.2 1-1.3zm4.7.8c0 .6-.4.7-1 .4-.5-.3-1-1.1-1-1.6 0-.6.5-.7 1-.4.6.3 1 1.1 1 1.6zm11.4-.7c-1 .8-2.1 1.2-2.4 1-.5-.6 2.1-2.4 3.4-2.4.6 0 .1.6-1 1.4zm4.6-.3c0 .5.5.7 1.2.3.7-.4.8-.3.4.5-.6.9-1.1.9-2.2 0-1.7-1.4-1.8-1.9-.4-1.9.6 0 1 .5 1 1.1zm13.7 1.1c0 1.3-.1 1.7-.4 1-.3-.6-1-.9-1.6-.5-.7.4-.6-.1.2-1 1.7-2.1 1.7-2.1 1.8.5zm12.3-1.8c0 .2-.8 1-1.7 1.7-1.6 1.3-1.7 1.2-.4-.4 1.3-1.6 2.1-2.1 2.1-1.3zm-37 1.6c0 .5-.5 1-1.1 1-.5 0-.7-.5-.4-1 .3-.6.8-1 1.1-1 .2 0 .4.4.4 1zm39.1.3c-.6.8-.9 1.6-.6 1.9.3.2-.2.5-1 .5-1.3 0-1.3-.3.2-1.9 1.9-2.1 3.1-2.5 1.4-.5zm17.9-.3c0 .5-.5 1-1.1 1-.5 0-.7-.5-.4-1 .3-.6.8-1 1.1-1 .2 0 .4.4.4 1zm31.6 1.6c.1.9 0 1.3-.4 1-.3-.4-.7-1.4-.8-2.2-.1-.9 0-1.3.4-1 .3.4.7 1.4.8 2.2zm4 0c.1.9 0 1.3-.4 1-.3-.4-.7-1.4-.8-2.2-.1-.9 0-1.3.4-1 .3.4.7 1.4.8 2.2zm-45.5.1c1.3 1.6 1.2 1.7-.3.4-1-.7-1.8-1.5-1.8-1.7 0-.8.8-.3 2.1 1.3zm-62.6.2c.3.5 0 1.3-.6 1.7-.7.4-.9.3-.5-.4.3-.5 0-1.3-.6-1.5-.9-.4-1-.6-.1-.6.6-.1 1.4.3 1.8.8zm8.1 0c-.4.5-.1 1.1.6 1.3.8.3.6.6-.4 1-1.1.5-1.5.2-1.3-1 .5-2.3.4-2.2 1.1-2.2.3 0 .3.4 0 .9zm5.4 1.7c0 .8-.4 1.4-1 1.4-.5 0-.6-.7-.3-1.7.5-1.2.3-1.4-.7-.8-.9.5-1.1.4-.6-.4.9-1.4 2.6-.5 2.6 1.5zm4.7-1.9c-.4.3-.2 1.2.3 1.8.7.9.7 1.4-.2 1.8-.8.3-1.4-.5-1.4-1.9-.1-1.3.3-2.4.9-2.4.6 0 .7.3.4.7zm31.8 1.1c-.3.3-1.1 0-1.8-.7-.9-1-.8-1.1.6-.5 1 .3 1.5.9 1.2 1.2zm17-.8c.3.6-.1.7-.9.4-1.8-.7-2.1-1.4-.7-1.4.6 0 1.3.4 1.6 1zm-27 1.2c.5-.4.5-.1.1.6-.6 1-1.1 1-2.2.1-.8-.6-1.4-1.4-1.4-1.6 0-.3.6 0 1.3.6.8.6 1.8.7 2.2.3zm81.8.3c-.3.9-.8 1.4-1 1.1-.3-.3-.2-.9.2-1.5.9-1.6 1.5-1.3.8.4zm8.7-1.1c0 .2-.8 1-1.7 1.7-1.6 1.3-1.7 1.2-.4-.4 1.3-1.6 2.1-2.1 2.1-1.3zm-127.6 2.1c-.4.8-.8 1.5-1 1.5-.2 0-.4-.7-.4-1.5s.4-1.5 1-1.5c.5 0 .7.7.4 1.5zm27.6-1.1c0 .2-.7.7-1.6 1-.8.3-1.2.2-.9-.4.6-1 2.5-1.4 2.5-.6zm-3.6 2.2c.3.8.2 1.2-.4.9-.6-.3-1-1-1-1.6 0-1.4.7-1.1 1.4.7zm7.4.9c-.3.3-.9-.2-1.2-1.2-.6-1.4-.5-1.5.5-.6.7.7 1 1.5.7 1.8zm8.2-2.1c0 .2-.8 1-1.7 1.7-1.6 1.3-1.7 1.2-.4-.4 1.3-1.6 2.1-2.1 2.1-1.3zm-32 1c0 .3-.4.8-1 1.1-.5.3-1 .1-1-.4 0-.6.5-1.1 1-1.1.6 0 1 .2 1 .4zM188.8 153.5c-2.7 1.5-3.3 2.7-4.2 7.9-.5 3 2.1 8.9 3.6 8 .4-.3.8-.1.8.4 0 1 .7 1.2 8.7 1.6 3.5.2 6 0 5.8-.5-.3-.4-.1-1.1.5-1.4.6-.4.9-.1.8.6-.2.7.6 1.5 1.7 1.7 1.8.4 1.8.3.5-1.4-1.4-1.8-1.4-1.8.5-.3 1.8 1.5 8.6 1.7 72.3 1.8l70.3.2 2.9-3c4.2-4.2 4.2-10 0-14.2l-2.9-3-71.1.2c-65 .2-70.9.3-69.8 1.8 1.2 1.4 1.1 1.5-.6.1-1-.8-4.1-1.5-6.8-1.6-4 0-4.8.2-4.3 1.5.4 1.4.4 1.4-.7.1-1.8-2-4.8-2.2-8-.5zm4.2.4c0 .6-.4 1.2-.8 1.5-.5.3-.9-.1-.9-.9s.4-1.5.9-1.5c.4 0 .8.4.8.9zm9.8 2.6c-.3.3-.9-.2-1.2-1.2-.6-1.4-.5-1.5.5-.6.7.7 1 1.5.7 1.8zm-11.8 1c0 .2-.6.7-1.2 1.1-.7.4-1 .4-.6-.1.4-.4 0-1.4-1-2.2-1.5-1.3-1.5-1.3.6-.3 1.2.6 2.2 1.3 2.2 1.5zm5-1c1.1 1.3 1 1.4-.5.9-1.4-.6-1.6-.4-1 .6.5.8.4 1.1-.3.6-.6-.4-.9-1.3-.5-2.1.7-1.9.8-1.9 2.3 0zm-7.8 2.4c1.5 1.8 1.5 2 0 2.6-.9.3-1.3.3-1-.1.4-.4.3-1.5-.3-2.5-1.3-2.4-.8-2.4 1.3 0zm12 0c-.5 1.3-.3 1.4.9.4 1.2-1 1.5-.8 1.6 1 0 1.2-.1 1.6-.4.9-.4-1-1-.9-2.7.5-1.1.9-1.6 1.1-.9.4.8-.9.9-2 .3-3.1-.6-1.2-.5-1.7.5-1.7.8 0 1.1.7.7 1.6zm22.3-.9c.3.5.1 1-.4 1-.6 0-1.1-.5-1.1-1 0-.6.2-1 .4-1 .3 0 .8.4 1.1 1zm22.1 1.5c-.1.8-.5 1.7-.8 2.1-.5.4-.4-1.6.1-3.4.3-.9.9.1.7 1.3zm-51.6.2c0 .5-.5 1.5-1 2.3-.7 1.2-.9 1-.7-.8.1-1.9 1.7-3.3 1.7-1.5zm20 .8c-.5.7-.9 1.4-.7 1.6.1.2 0 .3-.2.1-1.1-.7-.7-2.9.5-2.9.9 0 1.1.4.4 1.2zm-3.9 1.2c1.3 1.6 1.2 1.7-.3.4-1-.7-1.8-1.5-1.8-1.7 0-.8.8-.3 2.1 1.3zm13.9-.3c0 .3-.4.8-1 1.1-.5.3-1 .1-1-.4 0-.6.5-1.1 1-1.1.6 0 1 .2 1 .4zm3.6 1.1c-.1.8-.5 1.7-.8 2.1-.5.4-.4-1.6.1-3.4.3-.9.9.1.7 1.3zm-19.5 1.2c1.3 1.6 1.2 1.7-.3.4-1-.7-1.8-1.5-1.8-1.7 0-.8.8-.3 2.1 1.3zm-20.1.3c0 .5-.4 1-1 1-.5 0-1-.5-1-1 0-.6.5-1 1-1 .6 0 1 .4 1 1zm6 1.7c0 .5-.5 1.5-1 2.3-.7 1.2-.9 1-.7-.8.1-1.9 1.7-3.3 1.7-1.5zm4 1.3c-.6 1.1-1.6 1.7-2.2 1.4-.8-.5-.9-.1-.4 1.2.5 1.4.4 1.6-.5.7-1.2-1.2-.3-3.7 1.1-2.8.4.3 1-.2 1.4-1 .3-.8.8-1.5 1.1-1.5.3 0 .1.9-.5 2zm4.5-1c.3.6-.1.7-.9.4-1.8-.7-2.1-1.4-.7-1.4.6 0 1.3.4 1.6 1zm13 1.9c.3.5.2 1.2-.3 1.5-.5.3-.9-.1-.9-.9 0-1.7.3-1.9 1.2-.6zM229 170c0 .5-.5 1-1.1 1-.5 0-.7-.5-.4-1 .3-.6.8-1 1.1-1 .2 0 .4.4.4 1zM496 153c0 .5-.7 1-1.5 1s-1.9 1-2.6 2.1c-.9 1.7-.8 2 .3 1.4.7-.3.5 0-.5.8-2.5 2.1-1 9.3 1.9 9 1-.1 1.3 0 .7.3-2.3 1-1.4 2.3 2.4 3.3 2.7.8 4.1.7 5.2-.2 1-.8 1.3-.9.8 0s12.8 1.2 55.3 1.2l56.1.1 3-2.9c4.1-4.2 4.1-10.1-.1-14.2l-3-3-52.7.3c-37.2.2-52.7.6-52.6 1.4.1.6-.5 1.1-1.2 1.1-1.1 0-1.2-.3-.3-1.4 1-1.2.3-1.4-4-1.1-3.8.2-5.1.7-4.7 1.6.3.8 0 1-.7.6-.8-.5-.9-.2-.5 1 .4 1 .3 1.5-.4 1.1-.5-.4-.7-1.5-.4-2.6.4-1 .4-1.9.1-1.9-.3 0-.6.4-.6 1zm8.5 1.8c-.3.3-1.1 0-1.8-.7-.9-1-.8-1.1.6-.5 1 .3 1.5.9 1.2 1.2zm.6 3.5c-.6.8-.9 1.7-.6 2 .3.4.2.5-.2.2-.3-.3-1.1-.1-1.7.5-.8.6-1.2.2-1.3-1.3-.2-1.4.1-1.7.6-.9.6 1 1 1 2.1-.3.7-.8 1.5-1.5 1.7-1.5.3 0 0 .6-.6 1.3zm13.4-.3c.3.5.1 1-.4 1-.6 0-1.1-.5-1.1-1 0-.6.2-1 .4-1 .3 0 .8.4 1.1 1zm4.5-.4c0 .8-1.9 1.3-2.4.6-.3-.5.1-.9.9-.9s1.5.2 1.5.3zm-28 2.4c0 .5-.4 1-1 1-.5 0-1-.5-1-1 0-.6.5-1 1-1 .6 0 1 .4 1 1zm13.6 1.4c.1.7-.4 1.3-1.2 1.3-.9 0-1.1-.4-.4-1.2.5-.7.8-1.5.5-1.8-.3-.4-.2-.5.2-.2s.8 1.1.9 1.9zm13.9.5c-.9.8-3.6 1-3 .2.2-.4 1.1-.8 2-.8.8 0 1.3.3 1 .6zm-25.1 3.7c.5 1.4.4 1.5-.9.4-1.7-1.4-1.9-2-.6-2 .5 0 1.2.7 1.5 1.6zm3.4 2.6c-.2.6-1 1.3-1.6 1.4-.7.1-.8 0-.2-.3.5-.2.8-.9.4-1.4-.3-.5 0-.9.6-.9.7 0 1 .5.8 1.2zm7.8 1.2c.1.7-.4 1.3-1.2 1.3-.9 0-1.1-.4-.4-1.2.5-.7.8-1.5.5-1.8-.3-.4-.2-.5.2-.2s.8 1.1.9 1.9zm10.4.6c0 .5-.2 1-.4 1-.3 0-.8-.5-1.1-1-.3-.6-.1-1 .4-1 .6 0 1.1.4 1.1 1zM182.2 193.8c-.7.9-1 1.1-.7.5.4-.9.1-1.1-1-.7-2.2.9-4.5 6.8-3.9 10.1.6 3.3 2.1 4.4 5.2 3.8 1.2-.2 2 0 1.7.5-.3.4-1.7.7-3.2.5-2.6-.3-2.6-.2-.8 1.2 1.1.8 2.8 1.2 3.8.9.9-.2 1.7-.1 1.7.3 0 1.2 3.3 1 4.9-.3 1.2-.9 1.3-.8.7.2-.6 1-.1 1.3 2 1 1.8-.2 2.8-.8 2.6-1.6-.1-.8.2-1.1.8-.7.6.3.8 1 .5 1.5-.3.5 26.7.9 60 .9 67.4.2 64.4.5 68.1-6.5 2.3-4.3 1.1-8-3.5-11.1l-3.4-2.3h-46.9c-36.5.1-46.7.3-46.1 1.3.5.9.4.9-.8 0-2.1-1.7-30.3-1.8-29.3-.1.6 1 .4 1.1-.7 0-.7-.6-3-1.2-5.2-1.2-2.8 0-3.6.3-3.1 1.2.6 1 .5 1-.7.1s-1.7-.8-2.7.5zm28.3.2c.3.5.1 1-.4 1-.6 0-1.1-.5-1.1-1 0-.6.2-1 .4-1 .3 0 .8.4 1.1 1zm-29.5 4.5c0 .5-.5.3-1-.5s-1-2-1-2.5c0-.6.5-.3 1 .5s1 1.9 1 2.5zm4.4-2.3c-.3.5-1 .6-1.5.3-.5-.4-.9-.1-.9.6s-.3 1-.6.6c-.9-.9.3-2.4 2-2.4.8 0 1.3.4 1 .9zm9.6-.6c0 .8-1.9 1.3-2.4.6-.3-.5.1-.9.9-.9s1.5.2 1.5.3zm4 0c0 .8-1.9 1.3-2.4.6-.3-.5.1-.9.9-.9s1.5.2 1.5.3zm-.3 3.9c0 .8-.4 1.2-.9.9-.5-.3-.6-1-.3-1.5.9-1.3 1.2-1.1 1.2.6zm-18.2 1.3c-.3.3-1.1 0-1.8-.7-.9-1-.8-1.1.6-.5 1 .3 1.5.9 1.2 1.2zm8.5-1.2c0 .8-1.9 1.3-2.4.6-.3-.5.1-.9.9-.9s1.5.2 1.5.3zm3-.2c0 .2-.8 1-1.7 1.7-1.6 1.3-1.7 1.2-.4-.4 1.3-1.6 2.1-2.1 2.1-1.3zm-13.2 4.1c-.3.3-.9-.2-1.2-1.2-.6-1.4-.5-1.5.5-.6.7.7 1 1.5.7 1.8zm14.6-1.7c.3.5-.1.9-.9.9s-1.2-.4-.9-.9c.3-.4.7-.8.9-.8.2 0 .6.4.9.8zm-12 2.6c-.3.9-1 1.6-1.5 1.6s-.4-.9.3-2c1.4-2.2 2.1-2 1.2.4zm5.3-1c0 .8-.8 1.1-2.1.8-1.9-.5-1.9-.6 0-1.3 1-.4 1.9-.8 2-.8 0-.1.1.5.1 1.3zm12.9.8c1.2 1.4 1.3 1.8.3 1-.9-.6-1.8-1-2.1-.7-.2.3-.5-.2-.5-1 0-1.9 0-1.9 2.3.7zm-9.2.4c.3.8.2 1.2-.4.9-.6-.3-1-1-1-1.6 0-1.4.7-1.1 1.4.7zM189 208c0 .5-.4 1-1 1-.5 0-1-.5-1-1 0-.6.5-1 1-1 .6 0 1 .4 1 1zm12 2.4c-.7.7-1.3.7-2 0-.6-.6-.3-1 1-1s1.6.4 1 1zm9.5-.4c.3.5.1 1-.4 1-.6 0-1.1-.5-1.1-1 0-.6.2-1 .4-1 .3 0 .8.4 1.1 1zM178 233c0 .5-.7 1-1.5 1-2 0-3.9 3.8-2.6 5.3.7.9.6 1.7-.1 2.7-.8 1.2-.9 1.2-.4-.3.3-.9 0-1.7-.5-1.7-.7 0-.9.9-.5 2.2.9 2.9 1.4 5.1 1.5 6 .1.5.7.8 1.5.8s1.6.5 1.8 1.1c.2.7 4.4 1.3 10.7 1.6 8.6.4 10.2.3 9.5-.8-.6-1.1-.5-1.2.7-.2 1.1.9 18.8 1.2 69.9 1.2l68.5.1 2.7-2.2c4.3-3.6 4.3-10.5-.1-14.9l-3-2.9H258c-42.9.1-77.8.5-77.5 1 .3.4-.2 1-1 1.3-.9.4-1.2.1-.8-.9.3-.7.2-1.4-.1-1.4-.3 0-.6.4-.6 1zm10.8 1.7c-1.2 1.5-2.2 1.8-1.4.4.4-.5 0-1.1-.6-1.4-.7-.3-.3-.4.9-.4 1.7.1 1.9.4 1.1 1.4zm16.2-1.3c0 .2-.7.7-1.6 1-.8.3-1.2.2-.9-.4.6-1 2.5-1.4 2.5-.6zm-9.9 2.3c1.3 1.6 1.2 1.7-.3.4-1-.7-1.8-1.5-1.8-1.7 0-.8.8-.3 2.1 1.3zm-17.1 1.5c1 2.1 1 2.1-.3.6-.8-1-1.7-1.5-2-1.1-.4.3-.7.1-.7-.5 0-2 1.9-1.3 3 1zm27.5-1.2c-.3.5-1.2 1-1.8 1-.7 0-.6-.4.3-1 1.9-1.2 2.3-1.2 1.5 0zm14.9-.2c.3.5-.1.9-.9.9s-1.2-.4-.9-.9c.3-.4.7-.8.9-.8.2 0 .6.4.9.8zm-31.7 2.7c0 .8-.4 1.2-.9.9-.4-.3-.8-.9-.8-1.5 0-.5.4-.9.8-.9.5 0 .9.7.9 1.5zm4.9-.3c.3.4-.1.5-1 .4-.8-.1-1.8-.5-2.2-.8-.3-.4.1-.5 1-.4.8.1 1.8.5 2.2.8zm17.4-.2c0 .5-.2 1-.4 1-.3 0-.8-.5-1.1-1-.3-.6-.1-1 .4-1 .6 0 1.1.4 1.1 1zm3.6.5c-.1.8-.5 1.7-.8 2.1-.5.4-.4-1.6.1-3.4.3-.9.9.1.7 1.3zm-36.2 2.4c-.2.3-1.2-.3-2.2-1.3-1.6-1.7-1.6-1.8.5-.5 1.2.7 2 1.5 1.7 1.8zm6.1-.9c.3.5.1 1-.4 1-.6 0-1.1-.5-1.1-1 0-.6.2-1 .4-1 .3 0 .8.4 1.1 1zm45 0c.3.6-.1.7-.9.4-1.8-.7-2.1-1.4-.7-1.4.6 0 1.3.4 1.6 1zm-49.1 2.2c-.5.7-.2.9.9.5s1.4-.2 1 .9c-.4 1.1-.9 1.2-1.9.3-1.2-1-1.1-2.9.2-2.9.3 0 .2.5-.2 1.2zm30.6-.8c0 .3-.4.8-1 1.1-.5.3-1 .1-1-.4 0-.6.5-1.1 1-1.1.6 0 1 .2 1 .4zm-33.3 1.2c-.3.3-1.2.4-1.9.1-.8-.3-.5-.6.6-.6 1.1-.1 1.7.2 1.3.5zm11.6.9c.9-.2 1.7.1 1.7.7 0 .5-.6.8-1.2.5-.7-.2-2-.1-2.8.4-1.1.5-1.6.2-1.6-1.1 0-1.2.4-1.6 1.1-1.1.5.5 1.8.7 2.8.6zm5.7.1c0 .8-1.9 1.3-2.4.6-.3-.5.1-.9.9-.9s1.5.2 1.5.3zm4 0c0 .8-1.9 1.3-2.4.6-.3-.5.1-.9.9-.9s1.5.2 1.5.3zm-19 1.8c0 .2-.7.7-1.6 1-.8.3-1.2.2-.9-.4.6-1 2.5-1.4 2.5-.6zm18.3 2.1c-.3.9-.8 1.4-1 1.1-.3-.3-.2-.9.2-1.5.9-1.6 1.5-1.3.8.4zm-19 1c-.3.9-.8 1.4-1 1.1-.3-.3-.2-.9.2-1.5.9-1.6 1.5-1.3.8.4zm6.8.2c1.3 1.5 1.2 1.5-.7.5-1.2-.6-2.5-.8-2.9-.4-.5.4-.5.1-.1-.6 1-1.6 2.1-1.5 3.7.5zm6.9-.3c0 .2-.8 1-1.7 1.7-1.6 1.3-1.7 1.2-.4-.4 1.3-1.6 2.1-2.1 2.1-1.3zm11.5.5c.3.5.2 1.2-.3 1.5-.5.3-.9-.1-.9-.9 0-1.7.3-1.9 1.2-.6zM184.9 273.6c-1.3.7-2.2 1.6-2.1 2 .2.4-.2 1-.9 1.5-1.6 1-1.7 9.1-.1 9.7.7.2 1 .8.7 1.2-1.3 2.1 4.7 3.4 17.8 3.6 10.7.3 13.6.1 13.1-.9-.6-.9-.4-.9.7-.1 1.9 1.6 31.9 1.6 33.8 0 1.1-.8 1.3-.8.8.1-.6.9 18.9 1.2 83.8 1.3 75.1 0 84.9-.1 87.6-1.5 1.6-.9 3.4-2.6 3.8-3.7 1.3-3.5-.5-10-3.4-12.5l-2.6-2.3h-73.1c-56.3 0-73.5.3-74.7 1.3-1.1.9-1.3.9-.8 0 1-1.7-15.2-1.6-17.2 0-1.1.9-1.3.9-.8 0 1.2-1.9-33.4-1.2-35.9.7-1.8 1.4-1.8 1.4-.5-.3 1.2-1.5 1.1-1.7-.8-1.7-1.4 0-2 .4-1.5 1.2.5.7.3.8-.7.2-2.3-1.4-6.2-1.7-5.4-.3.5.8.2.8-1.1.1-2.8-1.4-17.7-1.2-20.5.4zm6.7.6c.4.7.3.8-.4.4s-1.2-.5-1.2-.2c0 .2-.3 1.2-.7 2.2-.4 1.2-.3 1.5.5 1 .7-.4 1.2-.5 1.2-.2 0 1.6-2.1 1.3-3-.5-.7-1.2-.8-1.9-.2-1.5.5.3 1.2-.1 1.6-.9.7-1.8 1.2-1.9 2.2-.3zm20 2c1.2 1.4 1.3 1.8.3 1-.9-.6-1.8-1-2.1-.7-.2.3-.5-.2-.5-1 0-1.9 0-1.9 2.3.7zm-27.2 2c-.5 1.5-.3 1.9.7 1.3.8-.5 1.1-.4.6.1-1.5 1.6-2.2 1-2.2-1.8-.1-1.5.3-2.4.7-2.1.5.2.6 1.4.2 2.5zm8.9-1.7c-.3.9-.8 1.4-1 1.1-.3-.3-.2-.9.2-1.5.9-1.6 1.5-1.3.8.4zm7.7-.4c0 .4-.9.7-1.9.6-1.1 0-1.8-.4-1.6-.7.6-.9 3.5-.8 3.5.1zm5.7.6c0 .9-.4 1-1.4.2-.7-.6-1.3-1.2-1.3-1.4 0-.1.6-.2 1.3-.2.8 0 1.4.6 1.4 1.4zm27.8 1.3c.3.5.1 1-.4 1-.6 0-1.1-.5-1.1-1 0-.6.2-1 .4-1 .3 0 .8.4 1.1 1zm4.5-.4c0 .8-1.9 1.3-2.4.6-.3-.5.1-.9.9-.9s1.5.2 1.5.3zm-42.4 1.9c-.1.8-.5 1.7-.8 2.1-.5.4-.4-1.6.1-3.4.3-.9.9.1.7 1.3zm-8.1 1.6c-.4.5-1.2.9-1.8.8-.9 0-.8-.2.1-.6.6-.2.9-1 .6-1.5-.4-.7-.2-.8.5-.4.6.4.9 1.2.6 1.7zm15.1.7c-1.7 1.6-1.8 1.6-.5-.5.7-1.2 1.5-2 1.8-1.7.3.2-.3 1.2-1.3 2.2zm10.9-1c-.3.3-1.1 0-1.8-.7-.9-1-.8-1.1.6-.5 1 .3 1.5.9 1.2 1.2zm3.9-1c.3.5-.1.9-.9.9s-1.2-.4-.9-.9c.3-.4.7-.8.9-.8.2 0 .6.4.9.8zm11.6-.4c0 .2-.8 1-1.7 1.7-1.6 1.3-1.7 1.2-.4-.4 1.3-1.6 2.1-2.1 2.1-1.3zm-36.7 2.3c-.7.2-1.9.2-2.5 0-.7-.3-.2-.5 1.2-.5s1.9.2 1.3.5zm19.2 1.3c1 1.1 1.6 2 1.3 2-.3 0-1.3-.9-2.3-2-1-1.1-1.6-2-1.3-2 .3 0 1.3.9 2.3 2zm-11.5.9c0 .5-1 1.1-2.2 1.4-2.1.5-2.1.5-.6-.7 1-.7 1.4-1.7 1-2.1-.4-.5-.1-.5.6-.1.6.4 1.2 1.1 1.2 1.5zm5.7 0c-.1 1.5-.4 1.7-1.4.9-1.5-1.2-1.7-2.2-.3-1.3.6.3 1 .1 1-.4 0-.6.2-1.1.4-1.1.3 0 .4.9.3 1.9zm33.9.7c.1.9 0 1.3-.4 1-.3-.4-.7-1.4-.8-2.2-.1-.9 0-1.3.4-1 .3.4.7 1.4.8 2.2zm-53.6-.1c0 .8-.2 1.5-.4 1.5s-.6-.7-1-1.5c-.3-.8-.1-1.5.4-1.5.6 0 1 .7 1 1.5zm31.7.2c0 1-.4 1-1.6.1-.9-.7-1.8-1.3-2-1.5-.2-.1.5-.1 1.6 0 1.1 0 2 .7 2 1.4zM185 286c0 .5-.7.7-1.5.4-.8-.4-1.5-.8-1.5-1 0-.2.7-.4 1.5-.4s1.5.4 1.5 1zm3.7 2.2c.2 1.7 0 1.9-.7.8-.5-.8-.6-1.8-.4-2.2.8-1.2 1-1 1.1 1.4zm80.3-.1c0 .5-.4.9-.8.9-.5 0-.9-.7-.9-1.5s.4-1.2.9-.9c.4.3.8.9.8 1.5zm-75.8.8c-.4 1-.1 1.2.8.6.8-.5 1.1-.4.6.3-.4.6-1.3.9-2.1.6-.8-.4-1.3-1-1-1.4.3-.5-.1-1-.7-1.3-.7-.3-.3-.4.8-.4 1.5.1 2 .6 1.6 1.6zm13.5-.2c0 .9-.4 1-1.4.2-.7-.6-1.3-1.2-1.3-1.4 0-.1.6-.2 1.3-.2.8 0 1.4.6 1.4 1.4zM208 312.8c0 .7-.7 1.2-1.5 1.2-1.6 0-3.8 3.4-2.8 4.4.3.3.1.6-.6.6-1.9 0-.1 7 2.5 9.9l2.3 2.5 21.8.1c17.6 0 21.7-.3 21.5-1.3-.1-.8.2-1.1.8-.7.6.3.8 1 .5 1.5-.3.4 59.1.9 132 .9 144.6.2 137.3.5 139.5-5.3 1.3-3.4-.5-9.8-3.5-12.4l-2.6-2.2h-98.1c-76.3 0-98.5.3-99.7 1.3-1.2.9-1.3.9-.7 0 .5-1-7.3-1.2-36.3-1.2-27.1.1-36.9.5-36.4 1.3.4.6-.1.5-1-.3-1.4-1.1-2-1.1-3.4 0-.9.8-1.4.9-1 .3 1.1-1.9-20.5-1.4-21.9.4-.9 1.2-1.3 1.3-1.9.2-.5-.9-.4-1.1.3-.6.7.4 1.2.3 1.2-.3s-2-.9-4.5-.8c-3.5.2-4.4.5-4 1.7.4.8.3 1.1-.1.7-.4-.4-1.2 0-1.8.8-.8 1.1-1.5 1.2-2.6.4-1.3-.9-1.3-1 .2-.6 1.6.6 3.5-2 2.3-3.1-.3-.3-.5 0-.5.6zm62.5 1.2c.3.5.1 1-.4 1-.6 0-1.1-.5-1.1-1 0-.6.2-1 .4-1 .3 0 .8.4 1.1 1zm12.1.5c-.1.8-.5 1.7-.8 2.1-.5.4-.4-1.6.1-3.4.3-.9.9.1.7 1.3zm-70.5 1.8c-1 .9-1.1.8-.5-.6.3-1 .9-1.5 1.2-1.2.3.3 0 1.1-.7 1.8zm92.2-.8c-.3.9-.8 1.4-1 1.1-.3-.3-.2-.9.2-1.5.9-1.6 1.5-1.3.8.4zm-87.7.4c-.4.5 0 1.2.6 1.5.7.3.2.3-1.1 0-1.7-.5-2.1-.3-1.6.6.6.9.4 1.1-.5.5-1-.6-.9-1.1.5-2.2 2.2-1.5 2.8-1.7 2.1-.4zm30.1.8c0 1-.4 1-1.6.1-.9-.7-1.8-1.3-2-1.5-.2-.1.5-.1 1.6 0 1.1 0 2 .7 2 1.4zm6.3-.7c0 .5-.2 1-.4 1-.3 0-.8-.5-1.1-1-.3-.6-.1-1 .4-1 .6 0 1.1.4 1.1 1zm3.4-.2c.3.5-.1.9-.9.9s-1.2-.4-.9-.9c.3-.4.7-.8.9-.8.2 0 .6.4.9.8zm-14.9 2c-.3.3-1.1 0-1.8-.7-.9-1-.8-1.1.6-.5 1 .3 1.5.9 1.2 1.2zm-35.1.1c.3.4-.4 1.7-1.7 2.7l-2.2 1.9 1.8-2.1c1.4-1.7 1.5-2.3.5-2.7-.9-.4-.9-.6-.1-.6.6-.1 1.4.3 1.7.8zm26.3-.3c-.3.3-1.2.4-1.9.1-.8-.3-.5-.6.6-.6 1.1-.1 1.7.2 1.3.5zm-19.3 2.3c1.3 1.4 1.4 2.1.5 2.7-.8.4-1 .3-.5-.4.4-.7.3-1.2-.2-1.2-.6 0-1.2-.7-1.6-1.5-.7-2-.3-1.9 1.8.4zm21.2.1c0 1.2-.4 1.6-.9 1.1s-.6-1.4-.3-2c1-1.5 1.2-1.4 1.2.9zm4.2.5c-.3.3-.9-.2-1.2-1.2-.6-1.4-.5-1.5.5-.6.7.7 1 1.5.7 1.8zm12 0c-.3.3-.9-.2-1.2-1.2-.6-1.4-.5-1.5.5-.6.7.7 1 1.5.7 1.8zm10 0c-.3.3-.9-.2-1.2-1.2-.6-1.4-.5-1.5.5-.6.7.7 1 1.5.7 1.8zm-50.8-1.1c0 .3-.4.8-1 1.1-.5.3-1 .1-1-.4 0-.6.5-1.1 1-1.1.6 0 1 .2 1 .4zm112.7 1.1c0 .8-.4 1.2-.9.9-.5-.3-.6-1-.3-1.5.9-1.3 1.2-1.1 1.2.6zm-73.7-.1c0 .2-.8 1-1.7 1.7-1.6 1.3-1.7 1.2-.4-.4 1.3-1.6 2.1-2.1 2.1-1.3zm-38.7 1.9c-.3.5-1.4.6-2.4.4-1.4-.4-1.9-.1-1.7 1.1.2 1 .8 2.1 1.3 2.5.6.5.4.7-.4.5-1.3-.4-2.4-3.5-1.6-4.7.2-.3 1.4-.6 2.8-.6s2.3.4 2 .8zm5.3 1.9c-.9 1.2-1.6 1.9-1.6 1.5 0-1.1 2.4-4.7 2.8-4.2.2.2-.3 1.4-1.2 2.7zM279 322c0 .5-.5 1-1.1 1-.5 0-.7-.5-.4-1 .3-.6.8-1 1.1-1 .2 0 .4.4.4 1zm-40.3 1.3c0 .8-.6 1.4-1.4 1.4-.9 0-1-.4-.2-1.4.6-.7 1.2-1.3 1.4-1.3.1 0 .2.6.2 1.3zm3 .9c-.3.8-.6.5-.6-.6-.1-1.1.2-1.7.5-1.3.3.3.4 1.2.1 1.9zm-8.7-.1c0 .4-.9.7-1.9.6-1.1 0-1.8-.4-1.6-.7.6-.9 3.5-.8 3.5.1zm-12.5.9c.4.6-.1.7-1.1.3-1.3-.5-1.5-.3-.9.7.5.9.4 1.1-.4.6-.6-.4-.9-1.2-.6-1.7.8-1.2 2.2-1.2 3 .1zm-7.5 1c0 .5-.6.7-1.4.4-1.1-.4-1.3.1-1 1.8.4 2.1.3 2.1-.5.3-.4-1.1-.7-2.3-.4-2.8.6-1 3.3-.9 3.3.3zm23.1.7c1.3 1.6 1.2 1.7-.3.4-1-.7-1.8-1.5-1.8-1.7 0-.8.8-.3 2.1 1.3zm12.2.1c1.5 1.6 1.5 1.9.2 1.9-.8 0-1.3-.3-1-.5.3-.3 0-1.1-.6-1.9-1.7-2-.5-1.6 1.4.5zm8.4-.3c0 .8-.4 1.2-.9.9-.5-.3-.6-1-.3-1.5.9-1.3 1.2-1.1 1.2.6zm28.3-.5c0 .5-.2 1-.4 1-.3 0-.8-.5-1.1-1-.3-.6-.1-1 .4-1 .6 0 1.1.4 1.1 1zm-43.9 1c.9-1.3 1-1.3.6 0-.2.8-1 1.5-1.7 1.5s-1.5-.7-1.7-1.5c-.4-1.3-.3-1.3.6 0 1 1.3 1.2 1.3 2.2 0zm-24.1.4c0 .3-.4.8-1 1.1-.5.3-1 .1-1-.4 0-.6.5-1.1 1-1.1.6 0 1 .2 1 .4zm5 .6c-.8.5-1.9 1-2.5 1-.5 0-.3-.5.5-1s2-1 2.5-1c.6 0 .3.5-.5 1zm52-.6c0 .2-.8 1-1.7 1.7-1.6 1.3-1.7 1.2-.4-.4 1.3-1.6 2.1-2.1 2.1-1.3zm3.5.6c-.3.5-1.2 1-1.8 1-.7 0-.6-.4.3-1 1.9-1.2 2.3-1.2 1.5 0zm-63.1 1.6c.3.8.2 1.2-.4.9-.6-.3-1-1-1-1.6 0-1.4.7-1.1 1.4.7zm31.1.4c.3.6-.1.7-.9.4-1.8-.7-2.1-1.4-.7-1.4.6 0 1.3.4 1.6 1zM250.3 353.1c-1.8.5-3.5 1.8-3.8 2.9-.4 1.1-1.1 2-1.8 2-.6 0-.2.6.9 1.4 1.6 1.2 1.7 1.7.6 2.8-1.1 1.1-1.2 1-.6-.6.5-1.4.4-1.7-.4-1.2-2 1.2 0 8.6 2.3 8.6.7 0 1.5.5 1.7 1.1.5 1.5 9 1.9 10.7.6 1-.8 1.3-.8.8-.1-.9 1.5 15.3 1.5 17.2 0 1.1-.8 1.3-.8.8 0-.8 1.4 23 1.4 25.2 0 .9-.6 1.2-.5.8.1-.4.7 3.4 1.1 11.3 1.1 8.7 0 11.8-.3 11.3-1.2-.4-.7-.1-.7.8.1 1.2 1 27.3 1.3 115.2 1.3 100 0 114.1-.2 116.7-1.5 3-1.6 4.8-4 4.4-6.3-.1-.6-.2-2.4-.3-3.8 0-1.4-1.4-3.9-3.1-5.5l-2.9-3-131.1.2c-97.9.1-130.8.4-130.3 1.3.5.8.3.8-.8 0-1.8-1.4-6.1-1.6-5.3-.3.3.6-.3.5-1.4-.2-2-1.3-5.7-.6-4.8 1 .3.4-.4 1.7-1.7 2.7-2 1.8-2.1 1.8-.7 0 2.7-3.4 2.1-4.6-2.1-4.4-3.4.1-3.7.3-2.7 1.7.8 1 .4.8-1-.3-1.7-1.4-2.2-1.6-2.2-.5 0 1-.2 1.1-.8.2-1-1.5-5.4-1.3-4.8.2.2.7-.2 1.2-.9 1.2s-1.1-.5-.9-1.2c.6-1.4-11.7-1.7-16.3-.4zm8.2 2c-.4.5-1.4.8-2.3.8-1.5-.1-1.5-.2.1-.6.9-.2 1.4-.9 1.1-1.5-.4-.7-.2-.8.5-.4.6.4.9 1.2.6 1.7zm23.5-1.8c0 .2-1 1.2-2.2 2.3l-2.3 1.9 1.9-2.3c1.8-2.1 2.6-2.7 2.6-1.9zm19 .1c0 .2-.7.7-1.6 1-.8.3-1.2.2-.9-.4.6-1 2.5-1.4 2.5-.6zm-48.3 2c0 1.5-2.1 1.6-3.4.1-.4-.4-.2-.5.5-.1.6.4 1.2.2 1.2-.3 0-.6.4-1.1.8-1.1.5 0 .9.6.9 1.4zm12.3.6c0 .5-.2 1-.4 1-.3 0-.8-.5-1.1-1-.3-.6-.1-1 .4-1 .6 0 1.1.4 1.1 1zm7.4.6c.3.8.2 1.2-.4.9-.6-.3-1-1-1-1.6 0-1.4.7-1.1 1.4.7zm54.2 1c.1.9 0 1.3-.4 1-.3-.4-.7-1.4-.8-2.2-.1-.9 0-1.3.4-1 .3.4.7 1.4.8 2.2zm-77.6.5c0 .5-.4.9-.8.9-.5 0-.9-.7-.9-1.5s.4-1.2.9-.9c.4.3.8.9.8 1.5zm11.5-1.1c.3.5.1 1-.4 1-.6 0-1.1-.5-1.1-1 0-.6.2-1 .4-1 .3 0 .8.4 1.1 1zm32.5-.6c0 .2-.8 1-1.7 1.7-1.6 1.3-1.7 1.2-.4-.4 1.3-1.6 2.1-2.1 2.1-1.3zm-39 2.5c-1.3 2.6-1.3 3.4.2 2.5.6-.4.8-.3.5.4-.4.5-1.5.9-2.5.8-.9-.2-2.5.8-3.4 2.2-1.6 2.4-1.7 2.4-1.5.5 0-1.2.4-2 .8-1.7.4.2 1-.3 1.3-1.2.3-.8 1-1.3 1.4-1 .5.3 1.4-.6 2-1.9.7-1.4 1.4-2.5 1.7-2.5.3 0 .1.9-.5 1.9zm14.2.3c-.2 1-.6 1.8-.7 1.8-.1 0-.5-.8-.7-1.8-.3-1.1 0-1.9.7-1.9s1 .8.7 1.9zm2.1.3c-.3.9-.8 1.4-1 1.1-.3-.3-.2-.9.2-1.5.9-1.6 1.5-1.3.8.4zm8.4 0c0 .8-.4 1.2-.9.9-.5-.3-.6-1-.3-1.5.9-1.3 1.2-1.1 1.2.6zm-19.7.5c0 .5-.4 1-1 1-.5 0-1-.5-1-1 0-.6.5-1 1-1 .6 0 1 .4 1 1zm14.8 1.5c-.3.3-.9-.2-1.2-1.2-.6-1.4-.5-1.5.5-.6.7.7 1 1.5.7 1.8zm3.3.2c1.3 1.6 1.2 1.7-.3.4-1.7-1.3-2.2-2.1-1.4-2.1.2 0 1 .8 1.7 1.7zm-14.5.5c.5.7.3.8-.6.3-1-.6-1.2-.4-.6 1.1.5 1.4.4 1.6-.5.7-.6-.6-.8-1.6-.5-2.2.9-1.4 1.3-1.4 2.2.1zm18.1-.5c-.4.3.1 1.6 1 2.7 1.8 2.1 1.8 2.1-.4.2-2-1.6-2.3-3.6-.6-3.6.4 0 .3.3 0 .7zm3.8.1c-.3.3 0 1.1.6 1.9 1.7 2 .5 1.6-1.4-.5-1.5-1.6-1.5-1.9-.2-1.9.8 0 1.3.3 1 .5zm4 1c-.3.3-1.1 0-1.8-.7-.9-1-.8-1.1.6-.5 1 .3 1.5.9 1.2 1.2zm4.2-.1c0 .9-.4 1-1.4.2-.7-.6-1.3-1.2-1.3-1.4 0-.1.6-.2 1.3-.2.8 0 1.4.6 1.4 1.4zm33.6.8c-.7 2.1-1.2 1.9-1-.4 0-1.1.5-1.8.9-1.5.4.3.5 1.1.1 1.9zm-69-.1c.4 1 .1 1.3-.8.9-.8-.3-1.2-.9-.9-1.4.7-1.2 1.1-1.1 1.7.5zm47.2 1.4c-.3.3-1.1 0-1.8-.7-.9-1-.8-1.1.6-.5 1 .3 1.5.9 1.2 1.2zm-40.2.7c-.3.9-.8 1.4-1 1.1-.3-.3-.2-.9.2-1.5.9-1.6 1.5-1.3.8.4zm-10.3-.1c0 .2-.7.6-1.5 1-.8.3-1.5.1-1.5-.4 0-.6.7-1 1.5-1s1.5.2 1.5.4zm14.4.8c-.5.7-.2.9.8.6.8-.4 1.5 0 1.5.8 0 .7-.5 1-1 .7-.6-.4-.8 0-.4 1 .3 1 .4 1.7.1 1.7-.2 0-.8-1-1.3-2.3-.8-2.1-.6-3.7.5-3.7.3 0 .2.5-.2 1.2zm32.1.6c-.3.3-1.1 0-1.8-.7-.9-1-.8-1.1.6-.5 1 .3 1.5.9 1.2 1.2zm-49.5 2.7c0 .5-.5.3-1-.5s-1-2-1-2.5c0-.6.5-.3 1 .5s1 1.9 1 2.5zm11.6.2c-.3.4-.6.1-.6-.6s-.4-.9-1-.6c-.6.4-.7-.1-.3-1.1.6-1.5.7-1.5 1.5.1.6.9.7 1.9.4 2.2zm18.4-1.6c0 .5-.4.9-.8.9-.5 0-.9-.7-.9-1.5s.4-1.2.9-.9c.4.3.8.9.8 1.5zm6.1-.4c1.3 1.6 1.2 1.7-.3.4-1.7-1.3-2.2-2.1-1.4-2.1.2 0 1 .8 1.7 1.7zm3.5.3c0 1.2-.4 1.6-.9 1.1s-.6-1.4-.3-2c1-1.5 1.2-1.4 1.2.9zm-36.3.7c-.6 1.6-.5 1.6 1 .4.9-.7 1.7-.9 1.7-.3 0 1.2-2.6 2.3-3.4 1.5-1-1-.7-3.3.4-3.3.5 0 .6.8.3 1.7zm50.7-1.3c0 .3-.4.8-1 1.1-.5.3-1 .1-1-.4 0-.6.5-1.1 1-1.1.6 0 1 .2 1 .4zm17.6 1.1c-.1.8-.5 1.7-.8 2.1-.5.4-.4-1.6.1-3.4.3-.9.9.1.7 1.3zm15.8-.7c.3.5-.1.9-.9.9s-1.2-.4-.9-.9c.3-.4.7-.8.9-.8.2 0 .6.4.9.8zM352 393.2c0 .5.5.8 1.2.8.6 0 .8.3.5.6-.4.4-1.3.1-2.1-.5-1.8-1.5-3.7-.6-3 1.3.3.8.1 1.7-.5 2.1-.7.3-.8 0-.5-.9.3-.9.1-1.6-.4-1.6-1.2 0-3.5 7-2.6 7.9.2.3.7-.5 1.1-1.7.6-2.4 1.8-2.8 2.9-1 .4.6.3.9-.2.6-.5-.3-1.7.5-2.7 1.8-1.7 2.3-1.7 2.4 0 2.4 1.4 0 1.5.2.5.9-1.1.6-.8 1.4 1.5 3.5 1.5 1.4 3 2.1 3.1 1.6.3-.7.9-.6 2 .2 1.2 1 1.6 1 1.9 0 .3-.6.9-1.2 1.4-1.2.6 0 .8.4.4.9-.3.6 4.2.9 11.2.8 9.2-.2 11.7-.5 11.5-1.5-.1-.8.2-1.1.8-.7.6.3.8 1 .5 1.5-.3.5 4.4.8 10.4.7 6.1 0 10.8-.4 10.5-.8-.2-.4 0-1.1.6-1.4.6-.4.9-.1.8.7-.3 1.1 14.9 1.3 85.5 1.6l85.8.3 2.9-3c4.2-4.2 4.2-10 0-14.2l-2.9-3-101.3.2c-75.2 0-101.7.4-102.7 1.2-.9.8-1.2.8-.8.1.4-.7-1-1.1-4.3-1-3.2 0-4.7.3-4.3 1 .4.6 0 .5-.8-.1-1.6-1.3-7.9-1.3-7.9-.1zm4.4 1c-.5.7-.2.9.9.5s1.4-.2 1 .9c-.4 1.1-.9 1.2-1.9.3-1.2-1-1.1-2.9.2-2.9.3 0 .2.5-.2 1.2zm16.3.6c-.9 1-2.6 1.8-3.9 1.9-1.7.2-1.9 0-.8-.7.8-.5 1.7-.7 2.1-.4.4.2 1.2-.3 1.9-1.1s1.5-1.5 1.8-1.5c.3 0-.2.8-1.1 1.8zm26.3-.8c0 .5-.2 1-.4 1-.3 0-.8-.5-1.1-1-.3-.6-.1-1 .4-1 .6 0 1.1.4 1.1 1zm-19 1.4c0 .2-.8 1-1.7 1.7-1.6 1.3-1.7 1.2-.4-.4 1.3-1.6 2.1-2.1 2.1-1.3zm27 0c0 .3-.4.8-1 1.1-.5.3-1 .1-1-.4 0-.6.5-1.1 1-1.1.6 0 1 .2 1 .4zm-55 3.8c1 2.1 1 2.1-.3.6-.8-1-1.8-1.4-2.2-1-.5.4-.5.1-.1-.6 1-1.7 1.4-1.5 2.6 1zm3.1 1.5c-1.1 1.6-1.1 1.5-.5-.6.4-1.7.3-2.1-.6-1.6-.9.6-1.1.4-.5-.4.5-.9 1.1-.9 1.7-.3.7.7.6 1.6-.1 2.9zm9-1.4c-1.7 1.7-4 1.7-3.4 0 .5-1.2.7-1.2 1.4-.1.8 1.2 1.3.4 1-1.5-.1-.5.4-.5 1-.2.8.5.8 1 0 1.8zm38.4 1.9c.5-.4.5-.1.1.6-.6 1-1.1 1-2.2.1-.8-.6-1.4-1.4-1.4-1.6 0-.3.6 0 1.3.6.8.6 1.8.7 2.2.3zm-52 2.4c-.1 1.5-1 3-2.1 3.6-1.8.9-1.8.8-.2-.5 1-.8 1.5-1.7 1.2-2-.6-.6.2-3.7.9-3.7.1 0 .2 1.2.2 2.6zm5.5-.1c-.7.8-1.6 1.5-2.1 1.5s-.1-.8.9-1.8c2-2.2 3.1-1.9 1.2.3zm12.7-.5c.1 1.1-.2 2-.5 2-.4 0-.8-.9-.9-2-.1-1.1.2-2 .5-2 .4 0 .8.9.9 2zm16.3-1.6c0 .3-.4.8-1 1.1-.5.3-1 .1-1-.4 0-.6.5-1.1 1-1.1.6 0 1 .2 1 .4zm-24 3.1c0 .1-.7.8-1.5 1.5-1.3 1.1-1.4 1-.9-.5.6-1.4.4-1.6-.6-1-.8.5-1.1.4-.6-.3.5-.9 3.6-.7 3.6.3zm10.6 1.3c-1.7 1.6-1.8 1.6-.5-.5.7-1.2 1.5-2 1.8-1.7.3.2-.3 1.2-1.3 2.2zm9-1.3c-.3 2.3-1.2 2.6-1.3.5-.1-1.1.2-2 .7-2 .4 0 .7.7.6 1.5zm15.9-.5c.3.5.1 1-.4 1-.6 0-1.1-.5-1.1-1 0-.6.2-1 .4-1 .3 0 .8.4 1.1 1zm-11.8 1.3c0 .8-.6 1.4-1.4 1.4-.9 0-1-.4-.2-1.4.6-.7 1.2-1.3 1.4-1.3.1 0 .2.6.2 1.3zm-20.5 1.6c-.5 1.3-.3 1.4.9.4 1.2-1 1.5-.8 1.5.6 0 1.2-.5 1.7-1.5 1.3-.8-.3-1.2-.1-.8.5.3.5-.1 1-.9 1-1 0-1.1-.4-.5-1 .6-.6.7-1.7.1-2.7-.6-1.2-.5-1.7.5-1.7.8 0 1.1.7.7 1.6zm-11.8.6c-1 .8-2.3 1.5-2.8 1.5-.6 0-.1-.7 1-1.5 1-.8 2.3-1.5 2.8-1.5.6 0 .1.7-1 1.5zm4.7.2c1.3 1.6 1.2 1.7-.3.4-1.7-1.3-2.2-2.1-1.4-2.1.2 0 1 .8 1.7 1.7zm17.5-.2c-.1.8-.5 1.7-.8 2.1-.5.4-.4-1.6.1-3.4.3-.9.9.1.7 1.3zm15.4-.1c0 .2-.8 1-1.7 1.7-1.6 1.3-1.7 1.2-.4-.4 1.3-1.6 2.1-2.1 2.1-1.3zm2.7 1.1c0 .8-.4 1.2-.9.9-.5-.3-.6-1-.3-1.5.9-1.3 1.2-1.1 1.2.6zM417 433.1c0 .5-.3.8-.8.5-.4-.2-1.6.2-2.7 1-1 .8-1.5 1.4-.9 1.4.5 0 .3.4-.5.9-1.2.8-1.3 1.2-.1 2.6 1.1 1.4 1.1 1.6-.1 1.3-1-.2-1.3.5-1.1 2.7.4 3.1 3.9 7.8 5.3 7 .4-.3 1.1-.1 1.4.5.5.8 1.2.7 2.3-.2 1.3-1.1 1.4-1.1.8 0-.6 1 .2 1.2 3.6 1.1 2.3-.1 4.9-.7 5.7-1.3 1.1-.8 1.3-.8.8.1-1 1.6 31.1 1.6 33.2-.1 1.1-.8 1.3-.8.8.1-.6.9 13.7 1.2 60.8 1.3 53.5 0 61.9-.2 64.5-1.5 3-1.6 4.8-4 4.4-6.3-.1-.6-.2-2.4-.3-3.8 0-1.4-1.4-3.9-3.1-5.5l-2.9-3-65.1.1c-36 .1-64.8.5-64.5 1 .3.5.1 1.2-.5 1.5-.6.4-.9.1-.8-.7.4-1.8-35.9-2.2-38.1-.5-1.2.9-1.3.9-.7-.1.4-.6.2-1.2-.3-1.2-.6 0-1.1.5-1.1 1.1zm13.9 2.2c1.4-.2 2.2 0 1.8.3-.4.4-1.7.8-2.9.8-1.3.1-2.8.5-3.3.8-.6.4-1.1-.2-1.1-1.2 0-1.3.5-1.6 1.6-1 .8.4 2.6.6 3.9.3zm-10.9.7c.8.5 1.1 1 .5 1-.5 0-1.7-.5-2.5-1s-1-1-.5-1c.6 0 1.7.5 2.5 1zm18.7.7c0 .9-.4 1-1.4.2-.7-.6-1.3-1.2-1.3-1.4 0-.1.6-.2 1.3-.2.8 0 1.4.6 1.4 1.4zm-20.3 1.2c.3.4-.6.6-2.1.3-1.9-.4-2.4-.2-1.8.8.5.9.4 1.1-.4.6-.6-.4-.9-1.2-.6-1.7.8-1.1 4.2-1.2 4.9 0zm26.1.1c.3.5.1 1-.4 1-.6 0-1.1-.5-1.1-1 0-.6.2-1 .4-1 .3 0 .8.4 1.1 1zm11.8 1.5c-.3.9-.8 1.4-1 1.1-.3-.3-.2-.9.2-1.5.9-1.6 1.5-1.3.8.4zm-31.9.7c-.3.5-1 .6-1.5.3-.5-.4-.9-.1-.9.6s-.3 1-.6.6c-.9-.9.3-2.4 2-2.4.8 0 1.3.4 1 .9zm28.1.6c-.3.3-1.1 0-1.8-.7-.9-1-.8-1.1.6-.5 1 .3 1.5.9 1.2 1.2zm13.5-1.4c0 .2-.8 1-1.7 1.7-1.6 1.3-1.7 1.2-.4-.4 1.3-1.6 2.1-2.1 2.1-1.3zm-37.5 2.3c-.1 1 .1 2.5.6 3.3.5 1.1.2 1.6-1.1 1.6-1 0-1.6-.5-1.2-1.1.4-.5.7-1.8.8-2.8.2-2.3.3-2.7.8-2.7.2 0 .3.8.1 1.7zm-11 2.2c-.6.5-2.5-1-2.5-2 0-.5.6-.4 1.4.3.8.7 1.2 1.5 1.1 1.7zm-3.1-.4c.3.8.1 1.5-.4 1.5-.6 0-1-.7-1-1.5s.2-1.5.4-1.5.6.7 1 1.5zm19.3.2c-1.4 1.4-1.9 1.5-2.9.4-1.1-1-1-1.1.3-.6 1 .4 2 .2 2.4-.4.3-.6.9-1.1 1.3-1.1.3 0-.1.8-1.1 1.7zm-12.3.8c-.4.8-1.1 1.5-1.6 1.5-.6 0-.5-.6.2-1.5.7-.8 1.4-1.5 1.6-1.5.2 0 .1.7-.2 1.5zm31 .1c.3.8.2 1.2-.4.9-.6-.3-1-1-1-1.6 0-1.4.7-1.1 1.4.7zm-28.1 2.9c-.3.9-.8 1.4-1 1.1-.3-.3-.2-.9.2-1.5.9-1.6 1.5-1.3.8.4zm-5.3.5c0 .5-.4 1-1 1-.5 0-1-.5-1-1 0-.6.5-1 1-1 .6 0 1 .4 1 1zm33.5.8c-.3.3-1.1 0-1.8-.7-.9-1-.8-1.1.6-.5 1 .3 1.5.9 1.2 1.2zm6.5-1.4c0 .2-.7.7-1.6 1-.8.3-1.2.2-.9-.4.6-1 2.5-1.4 2.5-.6zm-18 2.2c0 .8-1.9 1.3-2.4.6-.3-.5.1-.9.9-.9s1.5.2 1.5.3zM430.1 473.9c-.6.9-.9 1-.5.3.5-1.1.2-1.1-1.5 0-2.3 1.4-2.9 2.8-3.6 7.7-.4 3.3.3 3.8 2.5 1.8.8-.6.6-.2-.3 1-1.8 2-1.8 2.2.5 4.3 1.3 1.1 3.1 1.9 4 1.6 1-.2 1.6-.1 1.3.3-.8 1.3 7.7 1.2 9.3-.2 1.3-.9 1.4-.9.8 0-.5.9 0 1.3 1.4 1.3s1.9-.4 1.4-1.3c-.6-.9-.5-.9.7-.1 1 .9 20.9 1.2 72 1.3l70.6.2 3.1-2.9c1.9-1.8 2.9-3.6 2.7-4.8-.2-1-.4-2.9-.4-4.2-.1-1.3-1.4-3.7-3.1-5.3l-2.9-3-69.1.2c-48.9 0-68.8.4-68.4 1.1.5.7.2.8-.7.2-.8-.5-5.3-.9-10-1-6.8 0-8.9.3-9.8 1.5zm4.3.2c-.4.8.1.9 1.7.4 2.3-.7 2.3-.7.4.8-1.4 1.1-2.2 1.2-2.7.4-.7-1.1-.2-2.7.8-2.7.3 0 .2.5-.2 1.1zm11.6 1.4c-.7.8-1.7 1.5-2.3 1.5-.6 0-.2-.7.9-1.5 2.5-1.9 3-1.9 1.4 0zm-14.7 1c-.3.9-.8 1.4-1 1.1-.3-.3-.2-.9.2-1.5.9-1.6 1.5-1.3.8.4zm17.8-.2c-.6.8-.9 1.6-.6 1.9.3.2-.2.5-1 .5-1.3 0-1.3-.3.2-1.9 1.9-2.1 3.1-2.5 1.4-.5zm-20.4 1.1c0 .8-.6 1.2-1.5.9-1.1-.5-1.1-.7 0-1.4.7-.5 1.3-.9 1.4-.9 0 0 .1.6.1 1.4zm3.4 1.9c-1 .9-1.1.8-.5-.6.3-1 .9-1.5 1.2-1.2.3.3 0 1.1-.7 1.8zm9.4-1.3c.3.6-.1.7-.9.4-1.8-.7-2.1-1.4-.7-1.4.6 0 1.3.4 1.6 1zm-15.3 4.2c-.8.8-.9.4-.5-1.3.4-1.3.8-1.8 1.1-1 .2.7-.1 1.8-.6 2.3zm14.4.2c0 1.3-.5 2.3-1.2 2.3-.9 0-1-.5-.5-1.1.5-.6.7-1.9.5-2.9-.1-1.1 0-1.6.4-1.2.3.3.7 1.6.8 2.9zm-7.6 2.1c0 .5-.5.3-1-.5s-1-2-1-2.5c0-.6.5-.3 1 .5s1 1.9 1 2.5zm33.6-.9c.1.9 0 1.3-.4 1-.3-.4-.7-1.4-.8-2.2-.1-.9 0-1.3.4-1 .3.4.7 1.4.8 2.2zm-36.2-.1c.3.8.1 1.5-.4 1.5-.6 0-1-.7-1-1.5s.2-1.5.4-1.5.6.7 1 1.5zm19.7 1.2c1.3 1.7 1.3 1.7-.6.3-1.1-.8-2.2-1.6-2.4-1.7-.2-.2 0-.3.6-.3s1.7.8 2.4 1.7zm-13.7 1.5c-.5.8-.1.9 1.2.4 1.4-.5 1.6-.4.7.5-1.3 1.3-3.7.3-2.8-1.2.4-.5.8-.9 1.1-.9.3 0 .2.5-.2 1.2zm22.6-.8c0 .3-.4.8-1 1.1-.5.3-1 .1-1-.4 0-.6.5-1.1 1-1.1.6 0 1 .2 1 .4zm-29 1c0 .2-.7.7-1.6 1-.8.3-1.2.2-.9-.4.6-1 2.5-1.4 2.5-.6zm12.8 2.1c-.3.3-.9-.2-1.2-1.2-.6-1.4-.5-1.5.5-.6.7.7 1 1.5.7 1.8zm-10.4-.7c.2.4-.5.9-1.7.9-1.7.2-1.9 0-.7-.7 1.8-1.2 1.8-1.2 2.4-.2zm17.1.2c-.3.5-1.2 1-1.8 1-.7 0-.6-.4.3-1 1.9-1.2 2.3-1.2 1.5 0zM117 513c0 .5-.3.9-.7.9-2.2-.4-3.2.4-4.6 3.4-2.8 5.9.8 14.6 5.6 13.3.9-.2 1.7-.1 1.7.3s11.1.8 24.6.9c19.7.2 24.4 0 23.8-1-.5-1-.4-1.1.7-.1 1 1 10.4 1.3 39.7 1.3h38.4l2.9-2.9c4.1-4.2 4.1-10.1-.1-14.2l-2.9-3-62 .2c-39.8.1-61.8.5-61.5 1.1.4.6-.3.5-1.4-.1-2.6-1.4-4.2-1.4-4.2-.1zm11.1 1.7c1.3 1.6 1.2 1.7-.3.4-1-.7-1.8-1.5-1.8-1.7 0-.8.8-.3 2.1 1.3zm-12.1.7c0 .3-.4.8-1 1.1-.5.3-1 .1-1-.4 0-.6.5-1.1 1-1.1.6 0 1 .2 1 .4zm5 0c0 .3-.4.8-1 1.1-.5.3-1 .1-1-.4 0-.6.5-1.1 1-1.1.6 0 1 .2 1 .4zm5.1 1.3c1.3 1.6 1.2 1.7-.3.4-1-.7-1.8-1.5-1.8-1.7 0-.8.8-.3 2.1 1.3zm11.9-1.3c0 .2-.8 1-1.7 1.7-1.6 1.3-1.7 1.2-.4-.4 1.3-1.6 2.1-2.1 2.1-1.3zm8.7 1.5c0 1.1-.5 1.8-.9 1.5-.4-.3-.5-1.1-.1-1.9.7-2.1 1.2-1.9 1 .4zm-14 2.3c.2 1.7 0 1.9-.7.8-.5-.8-.6-1.8-.4-2.2.8-1.2 1-1 1.1 1.4zm-16 .2c0 .8-.6 1.2-1.5.9-1.1-.5-1.1-.7 0-1.4.7-.5 1.3-.9 1.4-.9 0 0 .1.6.1 1.4zm12 .9c.2.3-1 .4-2.6.3-1.7 0-3.1-.4-3.1-.9 0-.7 4.8-.2 5.7.6zm8.3-.9c0 .3-.4.8-1 1.1-.5.3-1 .1-1-.4 0-.6.5-1.1 1-1.1.6 0 1 .2 1 .4zm-15.5 2.6c-.3.5-1.2 1-1.8 1-.7 0-.6-.4.3-1 1.9-1.2 2.3-1.2 1.5 0zm25-.1c.3.5.2 1.2-.3 1.5-.5.3-.9-.1-.9-.9 0-1.7.3-1.9 1.2-.6zM117 523c-.8.5-1.9 1-2.5 1-.5 0-.3-.5.5-1s2-1 2.5-1c.6 0 .3.5-.5 1zm5.7 1.4c0 .8-.8 1.1-2.1.8-1.9-.5-1.9-.6 0-1.3 1-.4 1.9-.8 2-.8 0-.1.1.5.1 1.3zm19.9 1.2c.1.9 0 1.3-.4 1-.3-.4-.7-1.4-.8-2.2-.1-.9 0-1.3.4-1 .3.4.7 1.4.8 2.2zm-13.7 2.8c-.3.3-1.1-.5-1.8-1.7-1.3-2.1-1.2-2.1.5-.5 1 1 1.6 2 1.3 2.2zm-12.9-.9c-.7.8-1.8 1.5-2.4 1.5-.6 0-.2-.7.8-1.5 2.5-1.9 3.2-1.9 1.6 0zm10.1 1.2c1.3 1.6 1.2 1.7-.3.4-1-.7-1.8-1.5-1.8-1.7 0-.8.8-.3 2.1 1.3zm-5.3 1.8c-.3.3-.9-.2-1.2-1.2-.6-1.4-.5-1.5.5-.6.7.7 1 1.5.7 1.8zm24.2-.5c0 .5-.2 1-.4 1-.3 0-.8-.5-1.1-1-.3-.6-.1-1 .4-1 .6 0 1.1.4 1.1 1zM408.1 512.7c0 .7-.8 1.3-1.6 1.3s-1.9 1-2.6 2.1c-.9 1.7-.8 2 .3 1.4.7-.3.5 0-.4.8-2.1 1.6-2.1 2-.8 6.7.5 1.9 2 4.1 3.2 4.9 3 1.9 13.6 2.5 15.6.9 1.3-1.1 1.4-1.1.8 0-.6 1-.1 1.3 2 1 1.8-.2 2.8-.8 2.6-1.6-.1-.8.2-1.1.8-.7.6.3.8 1 .5 1.5-.3.4 31.1.8 69.8.9l70.2.1 2.7-2.2c4.4-3.6 4.3-10.5-.2-14.9l-2.9-3-73.3.2c-66.1.1-73.5.3-75.3 1.8-1.8 1.5-1.9 1.5-.7 0 1.1-1.5.7-1.6-3.8-1.6-2.7 0-4.7.3-4.5.8.3.4.1 1-.4 1.3-.5.4-1.2-.2-1.4-1.1-.3-1-.5-1.2-.6-.6zM445 514c0 .5-.2 1-.4 1-.3 0-.8-.5-1.1-1-.3-.6-.1-1 .4-1 .6 0 1.1.4 1.1 1zm-33 1.5c-.7.8-1.7 1.5-2.3 1.5-.6 0-.2-.7.9-1.5 2.5-1.9 3-1.9 1.4 0zm10.6.4c0 1.1-.5 1.7-1.3 1.4-1-.4-1.1-.9-.2-1.9 1.5-1.8 1.5-1.8 1.5.5zm-5.6.1c0 .4-.7 1.3-1.5 2-1.3 1.1-1.4 1-.9-.5.6-1.4.4-1.6-.6-1-.8.5-1.1.4-.7-.2.7-1.1 3.7-1.3 3.7-.3zm-8 2c.8.5 1.1 1 .5 1-.5 0-1.7-.5-2.5-1s-1-1-.5-1c.6 0 1.7.5 2.5 1zm14.2 1.5c.9-.2 2.3.4 3 1.3 1.1 1.5 1.1 1.5-.2.6-.8-.6-2.7-1-4.3-.9-1.5.1-2.5 0-2.2-.3.3-.3-.1-1.2-.7-2.1-1.1-1.4-1-1.4.7 0 1.1.9 2.8 1.5 3.7 1.4zm5.8-1.1c-.7.7-1.3.7-2 0-.6-.6-.3-1 1-1s1.6.4 1 1zm4.5-.4c.3.6-.1.7-.9.4-1.8-.7-2.1-1.4-.7-1.4.6 0 1.3.4 1.6 1zm-19.1 2.9c-.2.3-1.2-.3-2.2-1.3-1.6-1.7-1.6-1.8.5-.5 1.2.7 2 1.5 1.7 1.8zm-7.4-.9c0 .5-.4 1-1 1-.5 0-1-.5-1-1 0-.6.5-1 1-1 .6 0 1 .4 1 1zm-1 2.6c0 .2-.7.4-1.5.4s-1.5-.4-1.5-1c0-.5.7-.7 1.5-.4.8.4 1.5.8 1.5 1zm6-1.2c0 .2-.7.7-1.6 1-.8.3-1.2.2-.9-.4.6-1 2.5-1.4 2.5-.6zm12.6 1.8c.5-.4.6-.3.2.2-.4.5-.3 1.4.2 2.1.7.8.5 1.2-.5 1.2-.8 0-1.3-.3-1-.5.3-.3-.3-1.5-1.2-2.6-1.4-1.5-1.4-1.8-.2-.8.9.6 2 .8 2.5.4zm-13.3 1.3c-.3.9-.8 1.4-1 1.1-.3-.3-.2-.9.2-1.5.9-1.6 1.5-1.3.8.4zm9.5.8c.8 1 .6 1.3-1.1 1.4-1.2 0-1.6-.1-.9-.4.6-.3 1-.9.6-1.4-.8-1.4.2-1.1 1.4.4zm7.9.2c0 .8-.4 1.2-.9.9-.5-.3-.6-1-.3-1.5.9-1.3 1.2-1.1 1.2.6zm-19.7.5c0 .5-.2 1-.4 1-.3 0-.8-.5-1.1-1-.3-.6-.1-1 .4-1 .6 0 1.1.4 1.1 1zm-1.5 2c.3.6-.1.7-.9.4-1.8-.7-2.1-1.4-.7-1.4.6 0 1.3.4 1.6 1zm4.5.5c1.1 1.3 1 1.4-.5.9-1.4-.6-1.6-.4-1 .6.5.8.4 1.1-.3.6-.6-.4-.9-1.3-.5-2.1.7-1.9.8-1.9 2.3 0zM86.5 553.8c.5 1.2.3 1.3-1 .2-1.4-1.1-2-1-4.2 1.2-2.7 2.7-2.4 5.1.5 4.1.9-.3 1.4-.3 1 .1-.3.4-1.4.9-2.5 1-1 .2-1.7 1-1.7 1.9.1 1 .2 2.4.3 3.2 0 .8.9 1.5 1.9 1.5 1.4 0 1.5.2.2 1s-1.2 1 .3 1c.9 0 1.7.4 1.7 1 0 .5.3.9.8.9.4-.1.9 0 1.2.1.3.1 3.8.4 7.8.6 5 .3 7.2.2 6.7-.6-.3-.5-.1-1 .4-1 .6 0 1.1.4 1.1.9 0 1.4 23.2 1.1 24.9-.2 1.2-.9 1.3-.9.7 0-.9 1.6-.1 1.6 2.6.2 1.5-.8 1.9-.8 1.4 0-.5.7.1 1.1 1.4 1.1 1.3 0 1.9-.4 1.4-1.2-.5-.7-.3-.8.7-.2 2.3 1.4 8.1 1.5 7.3.1-.5-.9-.4-.9.7 0 .7.7 2.8 1.3 4.7 1.3 2.4 0 3.1-.3 2.6-1.3-.6-.9-.4-.9.8.1 1.9 1.5 9.6 1.4 11.7-.2 1.1-.8 1.3-.8.8 0-.9 1.6 51.2 1.6 53.2.1 1.1-.9 1.3-.9.7 0-.5 1 35 1.3 166.7 1.3h167.5l3-2.8c2.8-2.6 2.9-3.1 2.2-7.7-.5-3.5-1.5-5.5-3.5-7.2l-2.7-2.4-203.9.2c-151.4.1-203.7.4-203.2 1.3.5.8.3.8-.8 0-2-1.6-18.2-1.7-17.2-.1.4.7-.1.6-1-.2-1.4-1.1-1.7-1.1-1.7 0 0 .9-.3 1-.8.3-.4-.6-4.8-1.1-10.6-1.2-8.1-.1-10.2.2-11.1 1.5-1 1.3-1.4 1.3-2 .3-.5-.9-.4-1.1.3-.6.7.4 1.2.2 1.2-.3 0-.6-1.1-1.1-2.5-1.1s-2.5.6-2.5 1.2c0 .9-.3.9-.8.3-.4-.6-2.2-1.1-4-1.2-2.6 0-3.2.3-2.7 1.5zm4.5 1.8c0 .8-.4 1.4-1 1.4-.5 0-.6-.7-.3-1.7.5-1.2.3-1.4-.7-.8-.9.5-1.1.4-.6-.4.9-1.4 2.6-.5 2.6 1.5zm6 .9c0 .5-.5.3-1-.5s-1-2-1-2.5c0-.6.5-.3 1 .5s1 1.9 1 2.5zm8-1c1.4 1.9 1.4 1.9-.2.6-1-.7-1.8-1.8-1.8-2.4 0-.6.1-.8.3-.6.1.2.9 1.3 1.7 2.4zm27.5-1.7c-.3.3 0 1.1.6 1.9 1.7 2 .5 1.6-1.4-.5-1.5-1.6-1.5-1.9-.2-1.9.8 0 1.3.3 1 .5zm21.5-.4c0 .2-.8 1-1.7 1.7-1.6 1.3-1.7 1.2-.4-.4 1.3-1.6 2.1-2.1 2.1-1.3zm-11.8 2.1c.2-.3.5.2.5 1 0 1.9 0 1.9-2.3-.7-1.2-1.4-1.3-1.8-.3-1 .9.6 1.8 1 2.1.7zm-57.8 1c-.4.8-.8 1.5-1 1.5-.2 0-.4-.7-.4-1.5s.4-1.5 1-1.5c.5 0 .7.7.4 1.5zm10.1.3c-.3.3-1.1 0-1.8-.7-.9-1-.8-1.1.6-.5 1 .3 1.5.9 1.2 1.2zm6.5.2c-2.4 1.5-3.6 1.1-1.4-.4 1-.8 2.1-1.2 2.4-1 .2.3-.2.9-1 1.4zm10-1c0 .5-.4 1-1 1-.5 0-1-.5-1-1 0-.6.5-1 1-1 .6 0 1 .4 1 1zm16.4-.1c-.7.8-5.4.9-5.9.2-.2-.4 1.2-.7 3-.7 1.9 0 3.2.3 2.9.5zm21.5-.6c-.2.2-1.1.8-2 1.5-1.2.9-1.6.9-1.6-.1 0-.7.9-1.4 2-1.4 1.1-.1 1.8-.1 1.6 0zm27.2 2c-1 .9-1.1.8-.5-.6.3-1 .9-1.5 1.2-1.2.3.3 0 1.1-.7 1.8zm8.9-1.9c0 .3-.4.8-1 1.1-.5.3-1 .1-1-.4 0-.6.5-1.1 1-1.1.6 0 1 .2 1 .4zm-97.7 2.7c-.8.8-1.3.7-1.8-.2-.5-.8-.4-1 .3-.5.7.4 1.2.2 1.2-.5s.3-.9.7-.6c.4.4.2 1.2-.4 1.8zm26 .9c-.3 1.1-.9 2-1.5 2-.5 0-.4-.9.2-2 .6-1.1 1.2-2 1.4-2 .2 0 .2.9-.1 2zm27.6 1.4c-.3.3-1.1-.5-1.8-1.7-1.3-2.1-1.2-2.1.5-.5 1 1 1.6 2 1.3 2.2zm57.7-2.2c.3.4-.1.5-1 .4-.8-.1-1.8-.5-2.2-.8-.3-.4.1-.5 1-.4.8.1 1.8.5 2.2.8zm-106.8 1c-.2.4.6 1.4 1.7 2.3 1.9 1.6 1.9 1.6-.3.5-1.2-.6-2-1.5-1.7-2 .3-.4 0-1.1-.5-1.3-.7-.4-.6-.5.1-.3.6.1.9.5.7.8zm15.4.2c.7-.4.8-.2.4.5-.4.6-1.2.8-1.8.5-.7-.5-.9-.1-.5.9.9 2.4 0 2.1-1.4-.4-.8-1.5-.8-1.9 0-1.5.6.4 1.1.1 1.2-.6 0-1 .2-1 .6 0 .2.6 1 .9 1.5.6zm19.1.1c-.3.9-.8 1.4-1 1.1-.3-.3-.2-.9.2-1.5.9-1.6 1.5-1.3.8.4zm10.2-.3c.5-.4.5-.1.1.6-.6 1-1.1 1-2.2.1-.8-.6-1.4-1.4-1.4-1.6 0-.3.6 0 1.3.6.8.6 1.8.7 2.2.3zm25.8.3c-.3.9-.8 1.4-1 1.1-.3-.3-.2-.9.2-1.5.9-1.6 1.5-1.3.8.4zm-78.6 2c-1 .7-1.8 1.7-1.7 2.1.1.5-.4 1-1.2 1.2-1.1.3-1.1.2 0-.6.8-.5 1.3-1.2 1.3-1.6-.2-1 2.3-3.5 2.9-2.9.3.2-.3 1.1-1.3 1.8zm15.6-.8c-.3.7-.6 1.3-.8 1.3-.2 0-.5-.6-.8-1.3-.3-.8.1-1.4.8-1.4.7 0 1.1.6.8 1.4zm22.8 0c1.3 1.7 1.3 1.7-.5.3-1.8-1.3-1.9-1.3-1.4.1.4.9.1 1.6-.7 1.6-.7 0-1-.8-.7-1.9.6-2.3 1.6-2.3 3.3-.1zm24.3-.1c.3.8.2 1.2-.4.9-.6-.3-1-1-1-1.6 0-1.4.7-1.1 1.4.7zm56.7-.3c-.6.8-.7 1.8-.3 2.2.4.5.1.5-.6.1-1-.6-1-1.1-.1-2.2.6-.8 1.4-1.4 1.6-1.4.3 0 0 .6-.6 1.3zm-106.3 2.2c-.3.3-.9-.2-1.2-1.2-.6-1.4-.5-1.5.5-.6.7.7 1 1.5.7 1.8zm-6.4-.6c.3.4-.6.6-1.9.3-1.4-.2-2.5-.6-2.5-.8 0-.8 3.9-.4 4.4.5zm100.6-.5c0 .3-.4.8-1 1.1-.5.3-1 .1-1-.4 0-.6.5-1.1 1-1.1.6 0 1 .2 1 .4zm-80.6 2c-.3.9-1.2 1.2-2.2.9-1.5-.6-.9-1.1 2.5-2.2.1-.1 0 .5-.3 1.3zm18.6.1c0 .1-.8.5-1.8.7-1.1.3-1.9 0-1.9-.7s.8-1 1.9-.7c1 .2 1.8.6 1.8.7zm12-1.2c0 .2-.8 1.1-1.8 2-1.5 1.4-1.9 1.5-1.9.2 0-.8.4-1.2.8-.9.4.2 1 0 1.4-.6.6-1 1.5-1.4 1.5-.7zm28.1 1.4c1.3 1.6 1.2 1.7-.3.4-1-.7-1.8-1.5-1.8-1.7 0-.8.8-.3 2.1 1.3zm-82.7.7c-.4.9.2 1.3 1.8 1.2 1.8-.1 2.3.4 2.1 2.2-.2 1.5.1 2.1.9 1.6.7-.4.8-.3.4.5-1.1 1.7-2.8.2-2.1-1.9.4-1.3 0-1.7-1.7-1.6-1.4.1-2.4-.6-2.6-1.7-.2-.9.1-1.7.7-1.7s.8.6.5 1.4zm7.6.8c1 2.1 1 2.1-.3.6-.8-1-1.8-1.4-2.2-1-.5.4-.5.1-.1-.6 1-1.7 1.4-1.5 2.6 1zm5.4-1.4c.3.5-.1.9-.9.9s-1.2-.4-.9-.9c.3-.4.7-.8.9-.8.2 0 .6.4.9.8zm4.6.7c.7.9.8 1.5.2 1.5-.5 0-1.2-.7-1.6-1.5-.3-.8-.4-1.5-.2-1.5s.9.7 1.6 1.5zm13 .2c0 .3-.7.3-1.5-.1-.8-.3-1.5 0-1.5.6s-.3.9-.6.5c-1.1-1 .6-2.6 2.1-2 .8.3 1.5.7 1.5 1zm33.1 0c1.3 1.6 1.2 1.7-.3.4-1-.7-1.8-1.5-1.8-1.7 0-.8.8-.3 2.1 1.3zm7.3-.8c-.8.8-3.4 1-3.8.2-.3-.4.6-.7 1.9-.7 1.4 0 2.2.2 1.9.5zm4.1.1c-.3.5-1.2 1-1.8 1-.7 0-.6-.4.3-1 1.9-1.2 2.3-1.2 1.5 0zm123 .8c-.3.3-1.1 0-1.8-.7-.9-1-.8-1.1.6-.5 1 .3 1.5.9 1.2 1.2zM85 568.5c0 .5-.5.3-1-.5s-1-2-1-2.5c0-.6.5-.3 1 .5s1 1.9 1 2.5zm44.5-2.6c-.9.8-3.6 1-3 .2.2-.4 1.1-.8 2-.8.8 0 1.3.3 1 .6zm4 .1c.3.6-.1.7-.9.4-1.8-.7-2.1-1.4-.7-1.4.6 0 1.3.4 1.6 1zm8.5-.6c0 .2-.8 1-1.7 1.7-1.6 1.3-1.7 1.2-.4-.4 1.3-1.6 2.1-2.1 2.1-1.3zm4 .1c0 .2-.6.8-1.3 1.4-1 .8-1.4.7-1.4-.2 0-.8.6-1.4 1.4-1.4.7 0 1.3.1 1.3.2zm49-.1c0 .3-.4.8-1 1.1-.5.3-1 .1-1-.4 0-.6.5-1.1 1-1.1.6 0 1 .2 1 .4zm-94.5 1.6c.4.6 1 .8 1.5.5.5-.3 1.1-.1 1.4.4.8 1.2-1.4.8-3.9-.7-1.1-.6-1.5-1.2-.8-1.2.6 0 1.5.5 1.8 1zm54.3 1.5c-.3.3-.9-.2-1.2-1.2-.6-1.4-.5-1.5.5-.6.7.7 1 1.5.7 1.8zm-56.3.3c-.3.3-1.1 0-1.8-.7-.9-1-.8-1.1.6-.5 1 .3 1.5.9 1.2 1.2zm8.7 1.4c-.8.8-.9.4-.5-1.3.4-1.3.8-1.8 1.1-1 .2.7-.1 1.8-.6 2.3zm17.5-1.8c.2.2-.9.3-2.6.2-1.6 0-2.7-.4-2.5-.8.4-.7 4.3-.3 5.1.6zm13.7.2c.3.8.2 1.2-.4.9-.6-.3-1-1-1-1.6 0-1.4.7-1.1 1.4.7zm20.6-.7c0 .6-.4 1.2-.8 1.5-.5.3-.9-.1-.9-.9s.4-1.5.9-1.5c.4 0 .8.4.8.9zM94.5 569c-.3.5.2 1 1.1 1 1 0 1.5.3 1.1.6-1 1-3.9-.5-3.2-1.6.3-.5.8-1 1.1-1 .3 0 .2.4-.1 1zm18.5 1c0 .5-.2 1-.4 1-.3 0-.8-.5-1.1-1-.3-.6-.1-1 .4-1 .6 0 1.1.4 1.1 1zM134 593c0 .5-.7 1-1.5 1-1.8 0-3.4 2.9-3.9 7.2-.4 3.8 1.1 7.8 3 7.8.7 0 1.4.5 1.6 1 .2.6 2.7 1.3 5.7 1.7 3.8.4 5.2.3 4.7-.5-.3-.6-.1-1.4.5-1.8.7-.4.9-.3.5.4-.3.6-.2 1.3.4 1.7.5.3 1 0 1-.7 0-.9.3-1 .8-.2.9 1.5 9.3 1.5 11.1 0 1.2-.8 1.3-.8.7.2-.6 1 .5 1.2 4.6 1 2.9-.2 5.9-.7 6.7-1.2.9-.6 1.2-.5.8.2-.5.7 1.9 1 7.3 1 5.8 0 7.8-.3 7.3-1.1-.5-.9-.3-.9.8 0 1 .8 40.2 1.2 158.1 1.3 171.1.1 161.6.4 163.8-5.4 1.3-3.5-.5-9.8-3.5-12.4l-2.6-2.2h-155c-119.3.1-154.8.4-154.2 1.3.5.9.3.9-.8.1-1.8-1.5-12-1.5-13.8 0-1 .7-1.3.7-.8 0 .9-1.5-5.3-1.6-7.2-.1-1.2 1-1.3.9-.7-.1.6-1 .1-1.3-2-1-2.9.3-3.7 1.9-2.3 4.8.5 1.1.2 1.6-1.1 1.6-1 0-1.6-.5-1.2-1.1.3-.5.7-2 .8-3.3.1-2-.4-2.2-4.3-2.2-2.8 0-4.3.4-4.3 1.2 0 .9-.3 1-.8.2-.9-1.4-13.5-1.4-14.4 0-.5.8-.8.7-.8-.2 0-.6-.7-1.2-1.6-1.2-.8 0-1.3.4-1 .9.3.5-.1 1.1-.9 1.4-.9.4-1.2.1-.8-.9.3-.7.2-1.4-.1-1.4-.3 0-.6.4-.6 1zm12 4.4c0 .6-.7.1-1.5-1-.8-1-1.5-2.3-1.5-2.8 0-.6.7-.1 1.5 1 .8 1 1.5 2.3 1.5 2.8zm26.7-1.3c0 2.1-.3 2.6-.9 1.6-.4-.9-.5-2.2-.2-3.1.9-2.3 1.1-2 1.1 1.5zm15.9-.5c.1.9 0 1.3-.4 1-.3-.4-.7-1.4-.8-2.2-.1-.9 0-1.3.4-1 .3.4.7 1.4.8 2.2zm8.4-2.2c0 .2-.7.7-1.6 1-.8.3-1.2.2-.9-.4.6-1 2.5-1.4 2.5-.6zm18 0c0 .3-.4.8-1 1.1-.5.3-1 .1-1-.4 0-.6.5-1.1 1-1.1.6 0 1 .2 1 .4zm-34 .9c0 .2-.8 1.1-1.8 2-1.5 1.4-1.9 1.5-1.9.2 0-.8.4-1.2.8-.9.4.2 1 0 1.4-.6.6-1 1.5-1.4 1.5-.7zm-48.3 2.2c0 .8-.4 1.5-.9 1.5-.4 0-.8-.7-.8-1.5s.4-1.5.8-1.5c.5 0 .9.7.9 1.5zm6.3-.5c0 .5-.4 1-1 1-.5 0-1-.5-1-1 0-.6.5-1 1-1 .6 0 1 .4 1 1zm3 0c0 .5-.5 1-1.1 1-.5 0-.7-.5-.4-1 .3-.6.8-1 1.1-1 .2 0 .4.4.4 1zm7.3.8c-1 1-2 1.7-2.2 1.6-.6-.5 2-3.4 3-3.4.5 0 .1.8-.8 1.8zm8 .1c.3 1.3.1 1.8-.9 1.4-.7-.2-1-1.1-.7-1.9.7-1.9 1-1.8 1.6.5zm73.7-1.5c0 .2-.7.7-1.6 1-.8.3-1.2.2-.9-.4.6-1 2.5-1.4 2.5-.6zm-79 3.1c.7.9.8 1.5.2 1.5-.5 0-1.2-.7-1.6-1.5-.3-.8-.4-1.5-.2-1.5s.9.7 1.6 1.5zm33.6-.3c.3.4-.1.5-1 .4-.8-.1-1.8-.5-2.2-.8-.3-.4.1-.5 1-.4.8.1 1.8.5 2.2.8zm10.9.6c-.3.3-1.1 0-1.8-.7-.9-1-.8-1.1.6-.5 1 .3 1.5.9 1.2 1.2zm17.9-1c.2.4-.5.9-1.7.9-1.7.2-1.9 0-.7-.7 1.8-1.2 1.8-1.2 2.4-.2zm4.6.2c0 .5-.5 1-1.1 1-.5 0-.7-.5-.4-1 .3-.6.8-1 1.1-1 .2 0 .4.4.4 1zm8-.4c0 .8-1.9 1.3-2.4.6-.3-.5.1-.9.9-.9s1.5.2 1.5.3zm-85.7 2.5c.5.3.2.9-.5 1.2-.9.3-1.4-.3-1.5-1.5-.1-1.1.1-1.6.5-1.2.4.5 1.1 1.2 1.5 1.5zm19.7 0c0 .5-.4.9-.8.9-.5 0-.9-.7-.9-1.5s.4-1.2.9-.9c.4.3.8.9.8 1.5zm9.6.5c.1.9 0 1.3-.4 1-.3-.4-.7-1.4-.8-2.2-.1-.9 0-1.3.4-1 .3.4.7 1.4.8 2.2zM135 600c0 .5-.4 1-1 1-.5 0-1-.5-1-1 0-.6.5-1 1-1 .6 0 1 .4 1 1zm10.7 1.2c-.3.8-.6.5-.6-.6-.1-1.1.2-1.7.5-1.3.3.3.4 1.2.1 1.9zm30.8 2.8c.1 2.2-.1 3.8-.4 3.5-.3-.3-.6-2.4-.7-4.6-.1-2.2.1-3.8.4-3.5.3.3.6 2.4.7 4.6zm-40-2c-.5 1.6-.3 1.9 1.2 1.3 1-.3 1.5-.3 1.2.1-.4.4-1.6.8-2.7 1.1-1.9.3-2 .1-1-2.1 1.3-2.9 2.2-3.2 1.3-.4zm-6 0c.3.5.1 1-.4 1-.6 0-1.1-.5-1.1-1 0-.6.2-1 .4-1 .3 0 .8.4 1.1 1zm14.5 1.5c1.4 1.9 1.4 1.9-.2.6-1-.7-1.8-1.8-1.8-2.4 0-.6.1-.8.3-.6.1.2.9 1.3 1.7 2.4zm11.6-.2c.1.9-.2 1.7-.8 1.7-.6 0-.8-.6-.5-1.4.3-.8.2-1.7-.4-2-.5-.2-.4-.3.2-.2.7.1 1.3 1 1.5 1.9zm11.3-.9c.9 1.1.9 1.6-.1 2.2-.7.4-1 .4-.6-.1.4-.4.3-1.4-.3-2.2-.6-.7-.9-1.3-.6-1.3.2 0 1 .6 1.6 1.4zm-16.9 1.7c0 .5-.4.8-.9.4-.6-.3-1.4.3-2 1.2-.6 1-1.1 1.3-1.1.7 0-1.2 2-3.4 3.2-3.4.4 0 .8.5.8 1.1zm14.7 1.1c-.3.8-.6.5-.6-.6-.1-1.1.2-1.7.5-1.3.3.3.4 1.2.1 1.9zm6.8-.2c1 1.1 1.6 2 1.3 2-.3 0-1.3-.9-2.3-2-1-1.1-1.6-2-1.3-2 .3 0 1.3.9 2.3 2zm14.2-.5c0 .8-.4 1.2-.9.9-.4-.3-.8-.9-.8-1.5 0-.5.4-.9.8-.9.5 0 .9.7.9 1.5zm6 0c0 .8-.4 1.2-.9.9-.5-.3-.6-1-.3-1.5.9-1.3 1.2-1.1 1.2.6zm4.8-.5c.3.6-.1.7-.9.4-1.8-.7-2.1-1.4-.7-1.4.6 0 1.3.4 1.6 1zm24.8 1.5c-.7 2.1-1.2 1.9-1-.4 0-1.1.5-1.8.9-1.5.4.3.5 1.1.1 1.9zm-90.2 1.8c-1 .9-1.1.8-.5-.6.3-1 .9-1.5 1.2-1.2.3.3 0 1.1-.7 1.8zm7.8 0c0 .9-.2.8-.6-.1-.2-.6-1-.9-1.5-.6-.7.4-.8.2-.4-.5.9-1.3 2.6-.5 2.5 1.2zm12.4-.6c-.4 1-.2 1.4.5.9.6-.3 1.4-.1 1.8.5.5.8.3.9-.6.4-1-.6-1.2-.3-.7 1.1.7 1.8.6 1.8-.6.2-.8-1-1.8-1.4-2.2-1-.4.4-.2-.3.4-1.6 1.4-2.6 2.3-3 1.4-.5zm16.8-.4c-.6.8-.8 1.6-.5 1.9.3.3.1.9-.4 1.2-.6.3-.9 0-.8-.6.2-1.6 1.5-3.8 2.3-3.8.3 0 0 .6-.6 1.3zm57.6.2c0 .8-.4 1.2-.9.9-.5-.3-.6-1-.3-1.5.9-1.3 1.2-1.1 1.2.6zm-64.6.2c.8-.6.6-.3-.3.8-1.7 1.9-1.9 1.9-3.5.1-1.7-1.8-1.7-1.8.3-.8 1.5.8 2.5.8 3.5-.1zm-25.5 1.5c.4.6.3.8-.4.4-.5-.3-1.3 0-1.5.6-.3.8-.6.6-.6-.5-.1-1.9 1.4-2.3 2.5-.5zm6.9-.2c-.3.5-1.2 1-1.8 1-.7 0-.6-.4.3-1 1.9-1.2 2.3-1.2 1.5 0zm-1.5 2.5c0 .1-1.2.2-2.6.2-1.7 0-2.2-.2-1.3-.7 1-.7 3.9-.3 3.9.5zm35.5-.5c.3.6-.1.7-.9.4-1.8-.7-2.1-1.4-.7-1.4.6 0 1.3.4 1.6 1zM197.6 631.9c-2.6 1.6-5.7 6.8-3.4 5.6.7-.4.6-.1-.3.7-2 1.7-2 6.8.1 6.8 1.2 0 1.2.2.2.9-1.1.7-.9 1.3.9 3 1.2 1.1 3 2.2 3.8 2.3 4.2.4 6.7.2 7.3-.7.5-.6.8-.5.8.3 0 .9 1.9 1.2 6.5 1.1 5-.1 6.3-.4 5.5-1.4-.7-.8-.5-1.2.5-1.2.7 0 1.3.5 1.2 1.1-.1.5.7 1.2 1.8 1.4 1.8.4 1.8.3.5-1.4-1.4-1.8-1.4-1.8.5-.3 1.8 1.6 10 1.7 92.7 1.8 81.2.2 91 0 93.8-1.4 3.8-2 5.1-5.1 4-9.8-.4-2-.6-3.8-.3-4 .2-.3-1-1.9-2.8-3.6l-3.1-3.2-91.9.2c-68.6.1-91.7.4-91.2 1.3.5.8.3.8-.8-.1-2.2-1.7-23.2-1.3-26.3.6zm11.4.3c0 .4-.4.8-.9.8-.6 0-1.2-.4-1.5-.8-.3-.5.1-.9.9-.9s1.5.4 1.5.9zm-8.4.7c-.4.5 0 1.2.6 1.5.7.3.2.3-1.1 0-1.7-.5-2.1-.3-1.6.6.6.9.4 1.1-.5.5-1-.6-.9-1.1.5-2.2 2.2-1.5 2.8-1.7 2.1-.4zm49.9 0c.3.5.2 1.2-.3 1.5-.5.3-.9-.1-.9-.9 0-1.7.3-1.9 1.2-.6zm-29.8 2.4c.1 1.1.1 1.8 0 1.6-.2-.2-.8-1.1-1.5-2-.9-1.2-.9-1.6.1-1.6.7 0 1.4.9 1.4 2zm4.3-1.7c0 .8-1.9 1.3-2.4.6-.3-.5.1-.9.9-.9s1.5.2 1.5.3zm4-.2c0 .2-.7.7-1.6 1-.8.3-1.2.2-.9-.4.6-1 2.5-1.4 2.5-.6zm-22.5 1.6c-.3.5-1.4 1-2.3.9-1.4 0-1.3-.2.3-.9 2.7-1.1 2.7-1.1 2 0zm7.3.3c.6-.3 1.2-.1 1.2.4 0 1.4-4.9 1-5.4-.4-.4-1-.1-1.1 1.2-.5.9.5 2.3.7 3 .5zm4.3 1.4c1.3 1.6 1.2 1.7-.3.4-1.7-1.3-2.2-2.1-1.4-2.1.2 0 1 .8 1.7 1.7zm11.3-.9c.3.5-.1.9-.9.9s-1.2-.4-.9-.9c.3-.4.7-.8.9-.8.2 0 .6.4.9.8zm-29.1 1.7c-.3.9-.8 1.4-1 1.1-.3-.3-.2-.9.2-1.5.9-1.6 1.5-1.3.8.4zm24.7-1.1c0 .2-.8 1-1.7 1.7-1.6 1.3-1.7 1.2-.4-.4 1.3-1.6 2.1-2.1 2.1-1.3zm-16.4 2.1c-.3 2.3-1.2 2.6-1.3.5-.1-1.1.2-2 .7-2 .4 0 .7.7.6 1.5zm40-.3c.3.4-.1.5-1 .4-.8-.1-1.8-.5-2.2-.8-.3-.4.1-.5 1-.4.8.1 1.8.5 2.2.8zm-50.8.9c-.2.6-.7 1-1.2.9-.4-.1-1.4.7-2.2 1.7-1.4 1.7-1.4 1.6-.4-.5.6-1.2 1.5-2 2.1-1.7.5.4.9.1.9-.4 0-.6.3-1.1.6-1.1s.4.5.2 1.1zm16.9.4c0 .8-.4 1.2-.9.9-.5-.3-.6-1-.3-1.5.9-1.3 1.2-1.1 1.2.6zm-11.3.7c-.3.4-.9.8-1.5.8-.5 0-.9-.4-.9-.8 0-.5.7-.9 1.5-.9s1.2.4.9.9zm9.5 1.1c.8 1 .7 1.4-.4 1.4-.8 0-1.1-.5-.8-1 .4-.6-.1-.8-1.1-.4s-1.5.3-1.1-.3c.8-1.4 2-1.2 3.4.3zm-10.9 1.4c0 .3-.9.3-2.1 0-1.7-.5-2-.2-1.6 1.4.4 1.3-.2 2.3-1.6 3-2 .9-2 .9-.5-.4 1-.8 1.5-1.7 1.2-2-1.4-1.3.5-3.5 2.5-3 1.2.3 2.1.8 2.1 1zm2.4-.5c-.5.7-.2.9.9.5s1.4-.2 1 .9c-.4 1.1-.9 1.2-1.9.3-1.2-1-1.1-2.9.2-2.9.3 0 .2.5-.2 1.2zm13.1-.2c-.3.5-1.2 1-1.8 1-.7 0-.6-.4.3-1 1.9-1.2 2.3-1.2 1.5 0zm11.5-.2c0 .5-.7.9-1.5.9s-1.2-.4-.9-.9c.3-.4.9-.8 1.5-.8.5 0 .9.4.9.8zm18 .2c0 .5-.2 1-.4 1-.3 0-.8-.5-1.1-1-.3-.6-.1-1 .4-1 .6 0 1.1.4 1.1 1zm-24.6 3c-.6.6-1 .3-1-1s.4-1.6 1-1c.7.7.7 1.3 0 2zm-13.3-.7c-.6.8-.9 1.6-.6 1.9.3.3-.3 1.1-1.2 1.9-1.6 1.3-1.7 1.2-.4-.4.7-.9 1-1.7.6-1.7s-.2-.7.5-1.5 1.5-1.5 1.7-1.5c.3 0 0 .6-.6 1.3zm10.9-.9c0 .2-.8 1-1.7 1.7-1.6 1.3-1.7 1.2-.4-.4 1.3-1.6 2.1-2.1 2.1-1.3zm-20.5 4.6c-.3.5-1.2 1-1.8 1-.7 0-.6-.4.3-1 1.9-1.2 2.3-1.2 1.5 0zm2.9 2.2c-.3.4-1.1.8-1.7.7-.9 0-.9-.2 0-.5.7-.3.9-1.3.6-2.2-.4-1.4-.3-1.4.5-.2.6.8.8 1.8.6 2.2zm43.1-2.3c-.9.8-3.6 1-3 .2.2-.4 1.1-.8 2-.8.8 0 1.3.3 1 .6zm-28.5 1.5c0 .2-.7.7-1.6 1-.8.3-1.2.2-.9-.4.6-1 2.5-1.4 2.5-.6z"/></svg>