<?xml version="1.0" standalone="no"?>
<!DOCTYPE svg PUBLIC "-//W3C//DTD SVG 20010904//EN"
 "http://www.w3.org/TR/2001/REC-SVG-20010904/DTD/svg10.dtd">
<svg version="1.0" xmlns="http://www.w3.org/2000/svg"
 width="1024.000000pt" height="1024.000000pt" viewBox="0 0 1024.000000 1024.000000"
 preserveAspectRatio="xMidYMid meet">
<metadata>
Created by potrace 1.11, written by Peter Selinger 2001-2013
</metadata>
<g transform="translate(0.000000,1024.000000) scale(0.100000,-0.100000)"
fill="#000000" stroke="none">
<path d="M3981 8708 c-209 -21 -398 -117 -458 -231 -21 -40 -21 -123 0 -163
59 -115 232 -201 462 -231 71 -9 2533 -8 2630 2 143 13 313 74 385 138 114
100 123 220 24 319 -69 70 -209 136 -322 153 -21 3 -49 8 -62 11 -36 9 -2572
10 -2659 2z"/>
<path d="M4028 7655 c-2 -1 -30 -5 -63 -8 -193 -19 -384 -118 -440 -227 -25
-49 -23 -130 5 -174 71 -115 254 -202 470 -222 94 -9 4289 -9 4385 0 130 12
207 32 310 81 119 57 184 133 190 224 9 141 -151 261 -425 317 -31 6 -4425 15
-4432 9z"/>
<path d="M4008 6595 c-2 -1 -28 -5 -58 -9 -189 -20 -367 -114 -422 -221 -72
-138 47 -293 276 -362 140 -42 144 -42 1496 -42 1367 0 1366 0 1504 45 285 93
376 296 199 444 -53 44 -166 96 -248 116 -39 9 -79 18 -90 21 -18 6 -2651 13
-2657 8z"/>
<path d="M700 5525 c-262 -46 -423 -163 -422 -307 1 -130 141 -238 382 -295
71 -17 280 -18 4440 -18 2401 0 4392 4 4425 8 153 21 331 103 390 180 100 132
42 270 -150 362 -38 18 -97 40 -130 49 -33 8 -73 19 -90 23 -16 4 -1996 8
-4400 9 -3581 2 -4384 0 -4445 -11z"/>
<path d="M4087 4484 c-1 -1 -38 -4 -82 -8 -105 -8 -223 -39 -310 -82 -295
-144 -236 -404 115 -507 47 -14 110 -29 140 -33 72 -10 2597 -12 2675 -2 33 4
67 9 75 11 8 2 31 7 50 11 48 10 157 55 204 84 163 101 184 253 51 370 -89 78
-241 134 -407 148 -64 5 -2504 13 -2511 8z"/>
<path d="M2246 3423 c-1 -1 -27 -4 -59 -7 -327 -32 -542 -216 -457 -391 58
-119 240 -211 460 -232 97 -9 4321 -9 4420 0 220 20 418 121 468 237 31 74 8
162 -60 229 -77 76 -250 143 -403 157 -64 6 -4363 13 -4369 7z"/>
<path d="M4067 2154 c-1 -1 -31 -4 -67 -8 -62 -5 -100 -11 -145 -21 -11 -2
-23 -5 -27 -5 -21 -3 -136 -53 -172 -74 -54 -32 -111 -87 -132 -127 -22 -43
-22 -125 0 -167 57 -110 243 -206 444 -228 87 -10 2577 -10 2662 0 81 9 100
13 175 38 135 45 241 122 273 198 19 45 18 117 -2 155 -25 48 -92 110 -154
143 -73 39 -209 78 -301 88 -56 5 -2548 13 -2554 8z"/>
</g>
</svg>
