<svg width="16px" height="17px" viewBox="0 0 16 17" version="1.1" xmlns="http://www.w3.org/2000/svg" xmlns:xlink="http://www.w3.org/1999/xlink">
    <defs></defs>
    <g id="Sofie-Main-GUI" stroke="none" stroke-width="1" fill="none" fill-rule="evenodd">
        <g transform="translate(-32.000000, -1040.000000)" id="Warning">
            <g transform="translate(29.000000, 1040.000000)">
                <path d="M15.9090802,7.44044065 L18.1543348,15.1474813 C18.6177532,16.7382073 17.7038899,18.4034204 16.1131639,18.8668389 C15.5651589,19.0264865 14.9829821,19.0264865 14.4349771,18.8668389 L6.72793652,16.6215843 C5.13721048,16.1581658 4.22334714,14.4929527 4.68676561,12.9022266 C4.82789267,12.4177952 5.08892482,11.9767844 5.44570955,11.6199997 L10.9074955,6.15821368 C12.0790684,4.9866408 13.9785633,4.9866408 15.1501362,6.15821368 C15.5069209,6.51499841 15.7679531,6.95600919 15.9090802,7.44044065 Z" id="Shadow" fill="#000000" opacity="0.0936941964" transform="translate(11.204545, 11.917049) rotate(-135.000000) translate(-11.204545, -11.917049) "></path>
                <path d="M14.8208791,4.55687538 L18.0209371,15.5413654 C18.3298828,16.6018494 17.7206405,17.7119915 16.6601565,18.0209371 C16.2948199,18.1273689 15.906702,18.1273689 15.5413654,18.0209371 L4.55687538,14.8208791 C3.49639135,14.5119335 2.88714912,13.4017914 3.19609477,12.3413074 C3.29017948,12.0183531 3.46420091,11.7243459 3.70205739,11.4864894 L11.4864894,3.70205739 C12.267538,2.92100881 13.5338679,2.92100881 14.3149165,3.70205739 C14.552773,3.93991388 14.7267944,4.23392107 14.8208791,4.55687538 Z" fill="#FFFF00" transform="translate(10.606236, 10.606236) rotate(-135.000000) translate(-10.606236, -10.606236) "></path>
                <path d="M9.565,12.6915882 C9.565,12.4249202 9.64343059,12.2131576 9.80029412,12.0562941 C9.95715765,11.8994306 10.1767633,11.821 10.4591176,11.821 C10.7336288,11.821 10.9532345,11.8974698 11.1179412,12.0504118 C11.2826479,12.2033537 11.365,12.4053125 11.365,12.6562941 C11.365,12.9151189 11.2826479,13.12296 11.1179412,13.2798235 C10.9532345,13.4366871 10.7336288,13.5151176 10.4591176,13.5151176 C10.1767633,13.5151176 9.95715765,13.4386478 9.80029412,13.2857059 C9.64343059,13.1327639 9.565,12.9347267 9.565,12.6915882 Z M9.93466667,9.563 L9.8,7.133 L9.8,5 L11.315,5 L11.315,7.133 L11.1691111,9.563 L9.93466667,9.563 Z" id="!" fill="#000000"></path>
            </g>
        </g>
    </g>
</svg>