<svg viewBox="0 0 27.5 15.5" xmlns="http://www.w3.org/2000/svg" xmlns:xlink="http://www.w3.org/1999/xlink"><clipPath id="a" transform="translate(-.25 -.25)"><path d="m.25.25h27.5v15.5h-27.5z"/></clipPath><linearGradient id="b" gradientUnits="userSpaceOnUse" x1="14" x2="14" y1="14.14" y2="1.5"><stop offset="0" stop-color="#3fd1ff"/><stop offset="1" stop-color="#0098e9"/></linearGradient><path d="m0 0h27.5v15.5h-27.5z"/><g clip-path="url(#a)"><path d="m11.1 0h5.4v15.5h-5.4z" fill="#17b0d4"/></g><path d="m0 0h27.5v15.5h-27.5z" fill="none"/><path d="m4.99.1h17.62v10.3h-17.62z" fill="#188ed2"/><path d="m0 0h27.5v5.2h-27.5z" fill="#0069d8"/><path d="m14 1.5a6.32 6.32 0 0 0 -6.32 6.32 6.25 6.25 0 0 0 .68 2.83h3v2.9a6.24 6.24 0 0 0 5.4-.05v-2.85h2.89a6.25 6.25 0 0 0 .68-2.83 6.32 6.32 0 0 0 -6.33-6.32z" fill="url(#b)" transform="translate(-.25 -.25)"/></svg>