<svg id="Wipe_2" data-name="Wipe 2" xmlns="http://www.w3.org/2000/svg" xmlns:xlink="http://www.w3.org/1999/xlink" viewBox="0 0 27.5 15.5">
  <defs>
    <clipPath id="clip-path" transform="translate(-0.25 -0.25)">
      <rect x="0.25" y="0.25" width="27.5" height="15.5" style="fill: none"/>
    </clipPath>
    <linearGradient id="linear-gradient" x1="14" y1="14.14" x2="14" y2="1.5" gradientUnits="userSpaceOnUse">
      <stop offset="0" stop-color="#3fd1ff"/>
      <stop offset="1" stop-color="#0098e9"/>
    </linearGradient>
  </defs>
  <title>transition-wipe2</title>
  <rect width="27.5" height="15.5"/>
  <g>
    <g style="clip-path: url(#clip-path)">
      <rect x="11.1" width="5.4" height="15.5" style="fill: #17b0d4"/>
    </g>
    <rect width="27.5" height="15.5" style="fill: none"/>
    <rect x="4.99" y="0.1" width="17.62" height="10.3" style="fill: #188ed2"/>
    <rect width="27.5" height="5.2" style="fill: #0069d8"/>
    <path d="M14,1.5A6.32,6.32,0,0,0,7.68,7.82a6.25,6.25,0,0,0,.68,2.83h3v2.9a6.24,6.24,0,0,0,5.4-.05V10.65h2.89a6.25,6.25,0,0,0,.68-2.83A6.32,6.32,0,0,0,14,1.5Z" transform="translate(-0.25 -0.25)" style="fill: url(#linear-gradient)"/>
  </g>
</svg>
