<?xml version="1.0" encoding="utf-8"?>
<!-- Generator: Adobe Illustrator 18.1.1, SVG Export Plug-In . SVG Version: 6.00 Build 0)  -->
<svg version="1.1" id="Layer_1" xmlns="http://www.w3.org/2000/svg" xmlns:xlink="http://www.w3.org/1999/xlink" x="0px" y="0px"
	 viewBox="0 0 30 30" enable-background="new 0 0 30 30" xml:space="preserve">
<path d="M23.4,25c-0.3,0-0.6-0.3-0.6-0.6c0-3.2-1.9-6.1-4.9-7.3c-0.2-0.1-0.4-0.3-0.4-0.5c0-0.2,0.1-0.5,0.3-0.6
	c1.8-1,2.9-2.9,2.9-5c0-3.2-2.6-5.7-5.7-5.7s-5.7,2.6-5.7,5.7c0,2,1.1,4,2.9,5c0.2,0.1,0.3,0.3,0.3,0.6c0,0.2-0.2,0.4-0.4,0.5
	c-3,1.2-4.9,4-4.9,7.3c0,0.3-0.3,0.6-0.6,0.6S6,24.7,6,24.4c0-3.3,1.8-6.3,4.7-7.9c-1.6-1.3-2.6-3.3-2.6-5.4c0-3.8,3.1-6.9,6.9-6.9
	c3.8,0,6.9,3.1,6.9,6.9c0,2.1-1,4.1-2.6,5.4c2.9,1.6,4.7,4.6,4.7,7.9C24,24.7,23.7,25,23.4,25z"/>
</svg>
