<svg id="Layer_1" data-name="Layer 1" xmlns="http://www.w3.org/2000/svg" xmlns:xlink="http://www.w3.org/1999/xlink" viewBox="0 0 30 30"><defs><clipPath id="clip-path"><circle cx="-370" cy="-366" r="23" fill="none"/></clipPath><clipPath id="clip-path-2"><path d="M-366.29-356.75l-.56-2.36a6.67,6.67,0,0,0,5.15-6.52,6.65,6.65,0,0,0-5.15-6.51l.56-2.37a9.09,9.09,0,0,1,7,8.88,9.09,9.09,0,0,1-7,8.88" fill="none" clip-rule="evenodd"/></clipPath><clipPath id="clip-path-3"><path d="M-367.5-361l-.56-2.37a2.26,2.26,0,0,0,1.75-2.21,2.26,2.26,0,0,0-1.75-2.22l.56-2.37a4.69,4.69,0,0,1,3.62,4.59A4.69,4.69,0,0,1-367.5-361" fill="none" clip-rule="evenodd"/></clipPath><clipPath id="clip-path-4"><polygon points="-376.3 -369.28 -381.17 -369.28 -381.17 -361.98 -376.3 -361.98 -370.22 -357.19 -370.22 -374.07 -376.3 -369.28" fill="none" clip-rule="evenodd"/></clipPath><clipPath id="clip-path-5"><circle cx="-339" cy="-386" r="23" fill="none"/></clipPath><clipPath id="clip-path-6"><path d="M-335.29-376.75l-.56-2.36a6.67,6.67,0,0,0,5.15-6.52,6.65,6.65,0,0,0-5.15-6.51l.56-2.37a9.09,9.09,0,0,1,7,8.88,9.09,9.09,0,0,1-7,8.88" fill="none" clip-rule="evenodd"/></clipPath><clipPath id="clip-path-7"><path d="M-336.5-381l-.56-2.37a2.26,2.26,0,0,0,1.75-2.21,2.26,2.26,0,0,0-1.75-2.22l.56-2.37a4.69,4.69,0,0,1,3.62,4.59A4.69,4.69,0,0,1-336.5-381" fill="none" clip-rule="evenodd"/></clipPath><clipPath id="clip-path-8"><polygon points="-345.3 -389.28 -350.17 -389.28 -350.17 -381.98 -345.3 -381.98 -339.22 -377.19 -339.22 -394.07 -345.3 -389.28" fill="none" clip-rule="evenodd"/></clipPath></defs><title>svg_unknown-type-30px</title><path d="M16.5,20a5.37,5.37,0,0,1,1.84-4,6.42,6.42,0,0,0,2.28-4.66,5.31,5.31,0,0,0-10.62,0h2.65a2.66,2.66,0,1,1,5.31,0c0,1.15-.55,1.79-1.54,2.83A6.94,6.94,0,0,0,14,19.27V20Z"/><path d="M15.25,21.41a1.25,1.25,0,1,0,1.25,1.25A1.25,1.25,0,0,0,15.25,21.41Z"/></svg>