<svg id="Layer_1" data-name="Layer 1" xmlns="http://www.w3.org/2000/svg" xmlns:xlink="http://www.w3.org/1999/xlink" viewBox="0 0 20 20"><defs><clipPath id="clip-path"><circle cx="-440" cy="-286" r="23" fill="none"/></clipPath><clipPath id="clip-path-2"><path d="M-436.29-276.75l-.56-2.36a6.67,6.67,0,0,0,5.15-6.52,6.65,6.65,0,0,0-5.15-6.51l.56-2.37a9.09,9.09,0,0,1,7,8.88,9.09,9.09,0,0,1-7,8.88" fill="none" clip-rule="evenodd"/></clipPath><clipPath id="clip-path-3"><path d="M-437.5-281l-.56-2.37a2.26,2.26,0,0,0,1.75-2.21,2.26,2.26,0,0,0-1.75-2.22l.56-2.37a4.69,4.69,0,0,1,3.62,4.59A4.69,4.69,0,0,1-437.5-281" fill="none" clip-rule="evenodd"/></clipPath><clipPath id="clip-path-4"><polygon points="-446.3 -289.28 -451.17 -289.28 -451.17 -281.98 -446.3 -281.98 -440.22 -277.19 -440.22 -294.07 -446.3 -289.28" fill="none" clip-rule="evenodd"/></clipPath><clipPath id="clip-path-5"><circle cx="-409" cy="-306" r="23" fill="none"/></clipPath><clipPath id="clip-path-6"><path d="M-405.29-296.75l-.56-2.36a6.67,6.67,0,0,0,5.15-6.52,6.65,6.65,0,0,0-5.15-6.51l.56-2.37a9.09,9.09,0,0,1,7,8.88,9.09,9.09,0,0,1-7,8.88" fill="none" clip-rule="evenodd"/></clipPath><clipPath id="clip-path-7"><path d="M-406.5-301l-.56-2.37a2.26,2.26,0,0,0,1.75-2.21,2.26,2.26,0,0,0-1.75-2.22l.56-2.37a4.69,4.69,0,0,1,3.62,4.59A4.69,4.69,0,0,1-406.5-301" fill="none" clip-rule="evenodd"/></clipPath><clipPath id="clip-path-8"><polygon points="-415.3 -309.28 -420.17 -309.28 -420.17 -301.98 -415.3 -301.98 -409.22 -297.19 -409.22 -314.07 -415.3 -309.28" fill="none" clip-rule="evenodd"/></clipPath></defs><title>svg_play</title><path d="M5,5a.55.55,0,0,1,.88-.52l9.24,5c.48.26.48.7,0,1l-9.24,5A.55.55,0,0,1,5,15Z"/></svg>