<svg id="Layer_1" data-name="Layer 1" xmlns="http://www.w3.org/2000/svg" xmlns:xlink="http://www.w3.org/1999/xlink" viewBox="0 0 20 20"><defs><clipPath id="clip-path"><circle cx="-410" cy="-366" r="23" fill="none"/></clipPath><clipPath id="clip-path-2"><path d="M-406.29-356.75l-.56-2.36a6.67,6.67,0,0,0,5.15-6.52,6.65,6.65,0,0,0-5.15-6.51l.56-2.37a9.09,9.09,0,0,1,7,8.88,9.09,9.09,0,0,1-7,8.88" fill="none" clip-rule="evenodd"/></clipPath><clipPath id="clip-path-3"><path d="M-407.5-361l-.56-2.37a2.26,2.26,0,0,0,1.75-2.21,2.26,2.26,0,0,0-1.75-2.22l.56-2.37a4.69,4.69,0,0,1,3.62,4.59A4.69,4.69,0,0,1-407.5-361" fill="none" clip-rule="evenodd"/></clipPath><clipPath id="clip-path-4"><polygon points="-416.3 -369.28 -421.17 -369.28 -421.17 -361.98 -416.3 -361.98 -410.22 -357.19 -410.22 -374.07 -416.3 -369.28" fill="none" clip-rule="evenodd"/></clipPath><clipPath id="clip-path-5"><circle cx="-379" cy="-386" r="23" fill="none"/></clipPath><clipPath id="clip-path-6"><path d="M-375.29-376.75l-.56-2.36a6.67,6.67,0,0,0,5.15-6.52,6.65,6.65,0,0,0-5.15-6.51l.56-2.37a9.09,9.09,0,0,1,7,8.88,9.09,9.09,0,0,1-7,8.88" fill="none" clip-rule="evenodd"/></clipPath><clipPath id="clip-path-7"><path d="M-376.5-381l-.56-2.37a2.26,2.26,0,0,0,1.75-2.21,2.26,2.26,0,0,0-1.75-2.22l.56-2.37a4.69,4.69,0,0,1,3.62,4.59A4.69,4.69,0,0,1-376.5-381" fill="none" clip-rule="evenodd"/></clipPath><clipPath id="clip-path-8"><polygon points="-385.3 -389.28 -390.17 -389.28 -390.17 -381.98 -385.3 -381.98 -379.22 -377.19 -379.22 -394.07 -385.3 -389.28" fill="none" clip-rule="evenodd"/></clipPath></defs><title>svg_program</title><path d="M16.37,2.63A9,9,0,0,0,3.63,15.37,1,1,0,1,0,5.05,14,7,7,0,1,1,15,14a1,1,0,0,0,0,1.42,1,1,0,0,0,1.42,0A9,9,0,0,0,16.37,2.63Z"/><path d="M13.71,5.14a5.25,5.25,0,0,0-7.42,7.43.75.75,0,0,0,1.06,0,.77.77,0,0,0,0-1.07,3.75,3.75,0,1,1,5.3,0,.77.77,0,0,0,0,1.07.77.77,0,0,0,.53.21.76.76,0,0,0,.53-.21A5.26,5.26,0,0,0,13.71,5.14Z"/><path d="M8.59,7.44a2,2,0,0,0,0,2.83,2.1,2.1,0,0,0,.41.31V19a1,1,0,0,0,2,0V10.58a2.1,2.1,0,0,0,.41-.31A2,2,0,0,0,8.59,7.44Z"/></svg>