<svg id="Layer_1" data-name="Layer 1" xmlns="http://www.w3.org/2000/svg" xmlns:xlink="http://www.w3.org/1999/xlink" viewBox="0 0 40 40"><defs><clipPath id="clip-path"><circle cx="-596" cy="-228" r="23" fill="none"/></clipPath><clipPath id="clip-path-2"><path d="M-592.29-218.75l-.56-2.36a6.67,6.67,0,0,0,5.15-6.52,6.65,6.65,0,0,0-5.15-6.51l.56-2.37a9.09,9.09,0,0,1,7,8.88,9.09,9.09,0,0,1-7,8.88" fill="none" clip-rule="evenodd"/></clipPath><clipPath id="clip-path-3"><path d="M-593.5-223l-.56-2.37a2.26,2.26,0,0,0,1.75-2.21,2.26,2.26,0,0,0-1.75-2.22l.56-2.37a4.69,4.69,0,0,1,3.62,4.59A4.69,4.69,0,0,1-593.5-223" fill="none" clip-rule="evenodd"/></clipPath><clipPath id="clip-path-4"><polygon points="-602.3 -231.28 -607.17 -231.28 -607.17 -223.98 -602.3 -223.98 -596.22 -219.19 -596.22 -236.07 -602.3 -231.28" fill="none" clip-rule="evenodd"/></clipPath><clipPath id="clip-path-5"><circle cx="-565" cy="-248" r="23" fill="none"/></clipPath><clipPath id="clip-path-6"><path d="M-561.29-238.75l-.56-2.36a6.67,6.67,0,0,0,5.15-6.52,6.65,6.65,0,0,0-5.15-6.51l.56-2.37a9.09,9.09,0,0,1,7,8.88,9.09,9.09,0,0,1-7,8.88" fill="none" clip-rule="evenodd"/></clipPath><clipPath id="clip-path-7"><path d="M-562.5-243l-.56-2.37a2.26,2.26,0,0,0,1.75-2.21,2.26,2.26,0,0,0-1.75-2.22l.56-2.37a4.69,4.69,0,0,1,3.62,4.59A4.69,4.69,0,0,1-562.5-243" fill="none" clip-rule="evenodd"/></clipPath><clipPath id="clip-path-8"><polygon points="-571.3 -251.28 -576.17 -251.28 -576.17 -243.98 -571.3 -243.98 -565.22 -239.19 -565.22 -256.07 -571.3 -251.28" fill="none" clip-rule="evenodd"/></clipPath></defs><title>svg_pause-40px</title><path d="M18,23a2,2,0,0,1-2,2h0a2,2,0,0,1-2-2V17a2,2,0,0,1,2-2h0a2,2,0,0,1,2,2Zm8,0a2,2,0,0,1-2,2h0a2,2,0,0,1-2-2V17a2,2,0,0,1,2-2h0a2,2,0,0,1,2,2ZM20,1.3A18.7,18.7,0,1,1,1.3,20,18.72,18.72,0,0,1,20,1.3M20,0A20,20,0,1,0,40,20,20,20,0,0,0,20,0Z"/></svg>