<svg id="Layer_1" data-name="Layer 1" xmlns="http://www.w3.org/2000/svg" xmlns:xlink="http://www.w3.org/1999/xlink" viewBox="0 0 20 20"><defs><clipPath id="clip-path"><circle cx="-520" cy="-406" r="23" fill="none"/></clipPath><clipPath id="clip-path-2"><path d="M-516.29-396.75l-.56-2.36a6.67,6.67,0,0,0,5.15-6.52,6.65,6.65,0,0,0-5.15-6.51l.56-2.37a9.09,9.09,0,0,1,7,8.88,9.09,9.09,0,0,1-7,8.88" fill="none" clip-rule="evenodd"/></clipPath><clipPath id="clip-path-3"><path d="M-517.5-401l-.56-2.37a2.26,2.26,0,0,0,1.75-2.21,2.26,2.26,0,0,0-1.75-2.22l.56-2.37a4.69,4.69,0,0,1,3.62,4.59A4.69,4.69,0,0,1-517.5-401" fill="none" clip-rule="evenodd"/></clipPath><clipPath id="clip-path-4"><polygon points="-526.3 -409.28 -531.17 -409.28 -531.17 -401.98 -526.3 -401.98 -520.22 -397.19 -520.22 -414.07 -526.3 -409.28" fill="none" clip-rule="evenodd"/></clipPath><clipPath id="clip-path-5"><circle cx="-489" cy="-426" r="23" fill="none"/></clipPath><clipPath id="clip-path-6"><path d="M-485.29-416.75l-.56-2.36a6.67,6.67,0,0,0,5.15-6.52,6.65,6.65,0,0,0-5.15-6.51l.56-2.37a9.09,9.09,0,0,1,7,8.88,9.09,9.09,0,0,1-7,8.88" fill="none" clip-rule="evenodd"/></clipPath><clipPath id="clip-path-7"><path d="M-486.5-421l-.56-2.37a2.26,2.26,0,0,0,1.75-2.21,2.26,2.26,0,0,0-1.75-2.22l.56-2.37a4.69,4.69,0,0,1,3.62,4.59A4.69,4.69,0,0,1-486.5-421" fill="none" clip-rule="evenodd"/></clipPath><clipPath id="clip-path-8"><polygon points="-495.3 -429.28 -500.17 -429.28 -500.17 -421.98 -495.3 -421.98 -489.22 -417.19 -489.22 -434.07 -495.3 -429.28" fill="none" clip-rule="evenodd"/></clipPath></defs><title>svg_download</title><path d="M5,9H9V3a1,1,0,0,1,2,0V9h4l-5,5ZM15.6,2h0a.6.6,0,1,0,0,1.2h0A1.81,1.81,0,0,1,17.4,5V15a1.81,1.81,0,0,1-1.8,1.8H4.4A1.81,1.81,0,0,1,2.6,15V5A1.81,1.81,0,0,1,4.4,3.2h0A.6.6,0,0,0,4.4,2h0a3,3,0,0,0-3,3V15a3,3,0,0,0,3,3H15.6a3,3,0,0,0,3-3V5A3,3,0,0,0,15.6,2Z"/></svg>