<?xml version="1.0" encoding="utf-8"?>
<!-- Generator: Adobe Illustrator 22.0.1, SVG Export Plug-In . SVG Version: 6.00 Build 0)  -->
<svg version="1.1" id="Layer_1" xmlns="http://www.w3.org/2000/svg" xmlns:xlink="http://www.w3.org/1999/xlink" x="0px" y="0px"
	 viewBox="0 0 20 20" style="enable-background:new 0 0 20 20;" xml:space="preserve">
<style type="text/css">
	.st0{fill-rule:evenodd;clip-rule:evenodd;}
	.st1{fill:#010202;}
</style>
<g>
	<path d="M18.7,2H1.3C0.6,2,0,2.6,0,3.3V14c0,0.7,0.6,1.3,1.3,1.3h11.8l4.2,3.4v-3.4h1.3c0.8,0,1.3-0.6,1.3-1.3V3.3
		C20,2.6,19.4,2,18.7,2z M18.7,14H16v1.9L13.6,14L1.3,14V3.3l0,0l17.3,0L18.7,14z"/>
	<rect x="10.7" y="10.7" width="2.7" height="0.7"/>
	<rect x="8" y="10.7" width="1.3" height="0.7"/>
	<rect x="6.7" y="12" width="4" height="0.7"/>
	<rect x="4" y="10.7" width="2.7" height="0.7"/>
	<rect x="4" y="12" width="1.3" height="0.7"/>
</g>
</svg>
