<?xml version="1.0" encoding="utf-8"?>
<!-- Generator: Adobe Illustrator 20.1.0, SVG Export Plug-In . SVG Version: 6.00 Build 0)  -->
<!DOCTYPE svg PUBLIC "-//W3C//DTD SVG 1.1//EN" "http://www.w3.org/Graphics/SVG/1.1/DTD/svg11.dtd">
<svg version="1.1" id="Layer_1" xmlns="http://www.w3.org/2000/svg" xmlns:xlink="http://www.w3.org/1999/xlink" x="0px" y="0px"
	 viewBox="0 0 20 20" enable-background="new 0 0 20 20" xml:space="preserve">
<g>
	<path d="M13.9,4.1C12.6,2.7,10.8,2,9,2S5.4,2.7,4.1,4.1c-2.7,2.7-2.7,7.2,0,9.9C5.4,15.3,7.2,16,9,16s3.6-0.7,4.9-2.1
		C16.7,11.2,16.7,6.8,13.9,4.1z M12.5,12.5C11.6,13.5,10.3,14,9,14c-1.3,0-2.6-0.5-3.5-1.5c-1.9-1.9-1.9-5.1,0-7.1
		C6.4,4.5,7.7,4,9,4c1.3,0,2.6,0.5,3.5,1.5C14.5,7.4,14.5,10.6,12.5,12.5z"/>
	<path d="M18.6,17.4l-3-3l-1.1,1.1l3,3c0.2,0.2,0.4,0.2,0.6,0.2s0.4-0.1,0.6-0.2C18.9,18.3,18.9,17.7,18.6,17.4z"/>
</g>
</svg>
