<svg id="Layer_1" data-name="Layer 1" xmlns="http://www.w3.org/2000/svg" viewBox="0 0 20 20"><title>svg_garbage</title><path d="M6.75,15a.5.5,0,0,0,.5-.5v-7a.5.5,0,0,0-1,0v7A.5.5,0,0,0,6.75,15Z"/><path d="M9.75,15a.5.5,0,0,0,.5-.5v-7a.5.5,0,0,0-1,0v7A.5.5,0,0,0,9.75,15Z"/><path d="M12.75,15a.5.5,0,0,0,.5-.5v-7a.5.5,0,0,0-1,0v7A.5.5,0,0,0,12.75,15Z"/><path d="M16.75,3.75h-4.5V1.5a.5.5,0,0,0-.5-.5h-4a.5.5,0,0,0-.5.5V3.75H2.75a.75.75,0,0,0,0,1.5h.56l.94,12.29a.5.5,0,0,0,.5.46h10a.5.5,0,0,0,.5-.46l.94-12.29h.56a.75.75,0,0,0,0-1.5ZM8.25,2h3V3.75h-3Zm6,15H5.21L4.31,5.25H15.19Z"/></svg>