<svg id="Layer_1" data-name="Layer 1" xmlns="http://www.w3.org/2000/svg" xmlns:xlink="http://www.w3.org/1999/xlink" viewBox="0 0 20 20"><defs><clipPath id="clip-path"><circle cx="-280" cy="-406" r="23" fill="none"/></clipPath><clipPath id="clip-path-2"><path d="M-276.29-396.75l-.56-2.36a6.67,6.67,0,0,0,5.15-6.52,6.65,6.65,0,0,0-5.15-6.51l.56-2.37a9.09,9.09,0,0,1,7,8.88,9.09,9.09,0,0,1-7,8.88" fill="none" clip-rule="evenodd"/></clipPath><clipPath id="clip-path-3"><path d="M-277.5-401l-.56-2.37a2.26,2.26,0,0,0,1.75-2.21,2.26,2.26,0,0,0-1.75-2.22l.56-2.37a4.69,4.69,0,0,1,3.62,4.59A4.69,4.69,0,0,1-277.5-401" fill="none" clip-rule="evenodd"/></clipPath><clipPath id="clip-path-4"><polygon points="-286.3 -409.28 -291.17 -409.28 -291.17 -401.98 -286.3 -401.98 -280.22 -397.19 -280.22 -414.07 -286.3 -409.28" fill="none" clip-rule="evenodd"/></clipPath><clipPath id="clip-path-5"><circle cx="-249" cy="-426" r="23" fill="none"/></clipPath><clipPath id="clip-path-6"><path d="M-245.29-416.75l-.56-2.36a6.67,6.67,0,0,0,5.15-6.52,6.65,6.65,0,0,0-5.15-6.51l.56-2.37a9.09,9.09,0,0,1,7,8.88,9.09,9.09,0,0,1-7,8.88" fill="none" clip-rule="evenodd"/></clipPath><clipPath id="clip-path-7"><path d="M-246.5-421l-.56-2.37a2.26,2.26,0,0,0,1.75-2.21,2.26,2.26,0,0,0-1.75-2.22l.56-2.37a4.69,4.69,0,0,1,3.62,4.59A4.69,4.69,0,0,1-246.5-421" fill="none" clip-rule="evenodd"/></clipPath><clipPath id="clip-path-8"><polygon points="-255.3 -429.28 -260.17 -429.28 -260.17 -421.98 -255.3 -421.98 -249.22 -417.19 -249.22 -434.07 -255.3 -429.28" fill="none" clip-rule="evenodd"/></clipPath></defs><title>svg_unmaximize</title><path d="M4.29,14.29l-1,1a1,1,0,0,0,0,1.42,1,1,0,0,0,1.42,0l1-1L9,19V11H1Z"/><path d="M15.71,5.71l1-1a1,1,0,1,0-1.42-1.42l-1,1L11,1V9h8Z"/></svg>