<svg id="Layer_1" data-name="Layer 1" xmlns="http://www.w3.org/2000/svg" xmlns:xlink="http://www.w3.org/1999/xlink" viewBox="0 0 20 20"><defs><clipPath id="clip-path"><circle cx="-250" cy="-436" r="23" fill="none"/></clipPath><clipPath id="clip-path-2"><path d="M-246.29-426.75l-.56-2.36a6.67,6.67,0,0,0,5.15-6.52,6.65,6.65,0,0,0-5.15-6.51l.56-2.37a9.09,9.09,0,0,1,7,8.88,9.09,9.09,0,0,1-7,8.88" fill="none" clip-rule="evenodd"/></clipPath><clipPath id="clip-path-3"><path d="M-247.5-431l-.56-2.37a2.26,2.26,0,0,0,1.75-2.21,2.26,2.26,0,0,0-1.75-2.22l.56-2.37a4.69,4.69,0,0,1,3.62,4.59A4.69,4.69,0,0,1-247.5-431" fill="none" clip-rule="evenodd"/></clipPath><clipPath id="clip-path-4"><polygon points="-256.3 -439.28 -261.17 -439.28 -261.17 -431.98 -256.3 -431.98 -250.22 -427.19 -250.22 -444.07 -256.3 -439.28" fill="none" clip-rule="evenodd"/></clipPath><clipPath id="clip-path-5"><circle cx="-219" cy="-456" r="23" fill="none"/></clipPath><clipPath id="clip-path-6"><path d="M-215.29-446.75l-.56-2.36a6.67,6.67,0,0,0,5.15-6.52,6.65,6.65,0,0,0-5.15-6.51l.56-2.37a9.09,9.09,0,0,1,7,8.88,9.09,9.09,0,0,1-7,8.88" fill="none" clip-rule="evenodd"/></clipPath><clipPath id="clip-path-7"><path d="M-216.5-451l-.56-2.37a2.26,2.26,0,0,0,1.75-2.21,2.26,2.26,0,0,0-1.75-2.22l.56-2.37a4.69,4.69,0,0,1,3.62,4.59A4.69,4.69,0,0,1-216.5-451" fill="none" clip-rule="evenodd"/></clipPath><clipPath id="clip-path-8"><polygon points="-225.3 -459.28 -230.17 -459.28 -230.17 -451.98 -225.3 -451.98 -219.22 -447.19 -219.22 -464.07 -225.3 -459.28" fill="none" clip-rule="evenodd"/></clipPath></defs><title>svg_copy-to-clipboard</title><path d="M10,9,5,14H9v5a1,1,0,0,0,2,0V14h4Z"/><path d="M17,1H12.16A3,3,0,0,0,7.78,1H3A2,2,0,0,0,1,3V18a2,2,0,0,0,2,2H6.42a.6.6,0,1,0,0-1.2H3a.82.82,0,0,1-.8-.8V3a.81.81,0,0,1,.8-.8H4V5A1,1,0,0,0,5,6H15a1,1,0,0,0,1-1V2.16h1a.81.81,0,0,1,.8.8V18a.82.82,0,0,1-.8.8H13.61a.6.6,0,1,0,0,1.2H17a2,2,0,0,0,2-2V3A2,2,0,0,0,17,1ZM10,4.6A1.6,1.6,0,1,1,11.57,3,1.6,1.6,0,0,1,10,4.6Z"/></svg>