<svg id="Layer_1" data-name="Layer 1" xmlns="http://www.w3.org/2000/svg" xmlns:xlink="http://www.w3.org/1999/xlink" viewBox="0 0 20 20"><defs><clipPath id="clip-path"><circle cx="-340" cy="-436" r="23" fill="none"/></clipPath><clipPath id="clip-path-2"><path d="M-336.29-426.75l-.56-2.36a6.67,6.67,0,0,0,5.15-6.52,6.65,6.65,0,0,0-5.15-6.51l.56-2.37a9.09,9.09,0,0,1,7,8.88,9.09,9.09,0,0,1-7,8.88" fill="none" clip-rule="evenodd"/></clipPath><clipPath id="clip-path-3"><path d="M-337.5-431l-.56-2.37a2.26,2.26,0,0,0,1.75-2.21,2.26,2.26,0,0,0-1.75-2.22l.56-2.37a4.69,4.69,0,0,1,3.62,4.59A4.69,4.69,0,0,1-337.5-431" fill="none" clip-rule="evenodd"/></clipPath><clipPath id="clip-path-4"><polygon points="-346.3 -439.28 -351.17 -439.28 -351.17 -431.98 -346.3 -431.98 -340.22 -427.19 -340.22 -444.07 -346.3 -439.28" fill="none" clip-rule="evenodd"/></clipPath><clipPath id="clip-path-5"><circle cx="-309" cy="-456" r="23" fill="none"/></clipPath><clipPath id="clip-path-6"><path d="M-305.29-446.75l-.56-2.36a6.67,6.67,0,0,0,5.15-6.52,6.65,6.65,0,0,0-5.15-6.51l.56-2.37a9.09,9.09,0,0,1,7,8.88,9.09,9.09,0,0,1-7,8.88" fill="none" clip-rule="evenodd"/></clipPath><clipPath id="clip-path-7"><path d="M-306.5-451l-.56-2.37a2.26,2.26,0,0,0,1.75-2.21,2.26,2.26,0,0,0-1.75-2.22l.56-2.37a4.69,4.69,0,0,1,3.62,4.59A4.69,4.69,0,0,1-306.5-451" fill="none" clip-rule="evenodd"/></clipPath><clipPath id="clip-path-8"><polygon points="-315.3 -459.28 -320.17 -459.28 -320.17 -451.98 -315.3 -451.98 -309.22 -447.19 -309.22 -464.07 -315.3 -459.28" fill="none" clip-rule="evenodd"/></clipPath></defs><title>svg_adjust</title><path d="M19,13.5H8.29a2.5,2.5,0,0,0-4.58,0H1a1,1,0,0,0,0,2H3.71a2.5,2.5,0,0,0,4.58,0H19a1,1,0,0,0,0-2Z"/><path d="M1,6.5H11.71a2.5,2.5,0,0,0,4.58,0H19a1,1,0,0,0,0-2H16.29a2.5,2.5,0,0,0-4.58,0H1a1,1,0,0,0,0,2Z"/></svg>