<svg id="Layer_1" data-name="Layer 1" xmlns="http://www.w3.org/2000/svg" viewBox="0 0 30 30"><title>svg_raw-material-30px</title><path d="M8.65,11.2a28.72,28.72,0,0,1,7.08,1,27.25,27.25,0,0,1,7.28,3c1.72,1.09,2.36,2,2.24,2.49s-1.15,1-3.18,1.05c-.24,0-.48,0-.72,0a28.72,28.72,0,0,1-7.08-1,27.25,27.25,0,0,1-7.28-3c-1.72-1.09-2.36-2-2.24-2.5s1.15-.95,3.18-1h.72m0-.74-.75,0c-4.64.21-5.22,2.41-1.3,4.9a28.14,28.14,0,0,0,7.48,3.07,29.3,29.3,0,0,0,7.27,1.06h.75c4.64-.22,5.22-2.41,1.3-4.9a27.81,27.81,0,0,0-7.48-3.07,29.34,29.34,0,0,0-7.27-1.07Z" fill="#010202"/><path d="M12.35,4.73c.46,0,1.33.59,2.39,2.25a27,27,0,0,1,3,7.27A27,27,0,0,1,18.8,22c-.09,2.2-.66,3.2-1.15,3.2s-1.33-.59-2.39-2.24a27,27,0,0,1-3-7.27A27,27,0,0,1,11.2,7.94c.09-2.2.66-3.21,1.15-3.21m0-.73c-1,0-1.78,1.33-1.89,3.91a28.4,28.4,0,0,0,1.08,8,27.75,27.75,0,0,0,3.11,7.47c1.11,1.74,2.16,2.59,3,2.59,1.05,0,1.78-1.33,1.89-3.91a28.4,28.4,0,0,0-1.08-8,27.61,27.61,0,0,0-3.11-7.47C14.24,4.85,13.19,4,12.35,4Z" fill="#010202"/><path d="M21.87,7.3c.52,0,.64.19.68.26.24.39.17,1.43-.75,3.2A27.3,27.3,0,0,1,17,17a27.27,27.27,0,0,1-6.23,4.81,6.11,6.11,0,0,1-2.66.87c-.52,0-.64-.19-.68-.26-.24-.39-.17-1.43.75-3.2A27.09,27.09,0,0,1,13,13a27,27,0,0,1,6.23-4.81,6.11,6.11,0,0,1,2.66-.87m0-.74a7,7,0,0,0-3,1,28.25,28.25,0,0,0-6.41,4.94,27.75,27.75,0,0,0-4.91,6.42c-1.49,2.88-1.16,4.53.58,4.53a6.92,6.92,0,0,0,3-.95,28.25,28.25,0,0,0,6.41-4.94,27.58,27.58,0,0,0,4.91-6.43c1.49-2.88,1.16-4.53-.58-4.53Z" fill="#010202"/><circle cx="15" cy="14.99" r="1.19" fill="#010202"/></svg>