<svg id="Layer_1" data-name="Layer 1" xmlns="http://www.w3.org/2000/svg" xmlns:xlink="http://www.w3.org/1999/xlink" viewBox="0 0 20 20"><defs><clipPath id="clip-path"><circle cx="-280" cy="-436" r="23" fill="none"/></clipPath><clipPath id="clip-path-2"><path d="M-276.29-426.75l-.56-2.36a6.67,6.67,0,0,0,5.15-6.52,6.65,6.65,0,0,0-5.15-6.51l.56-2.37a9.09,9.09,0,0,1,7,8.88,9.09,9.09,0,0,1-7,8.88" fill="none" clip-rule="evenodd"/></clipPath><clipPath id="clip-path-3"><path d="M-277.5-431l-.56-2.37a2.26,2.26,0,0,0,1.75-2.21,2.26,2.26,0,0,0-1.75-2.22l.56-2.37a4.69,4.69,0,0,1,3.62,4.59A4.69,4.69,0,0,1-277.5-431" fill="none" clip-rule="evenodd"/></clipPath><clipPath id="clip-path-4"><polygon points="-286.3 -439.28 -291.17 -439.28 -291.17 -431.98 -286.3 -431.98 -280.22 -427.19 -280.22 -444.07 -286.3 -439.28" fill="none" clip-rule="evenodd"/></clipPath><clipPath id="clip-path-5"><circle cx="-249" cy="-456" r="23" fill="none"/></clipPath><clipPath id="clip-path-6"><path d="M-245.29-446.75l-.56-2.36a6.67,6.67,0,0,0,5.15-6.52,6.65,6.65,0,0,0-5.15-6.51l.56-2.37a9.09,9.09,0,0,1,7,8.88,9.09,9.09,0,0,1-7,8.88" fill="none" clip-rule="evenodd"/></clipPath><clipPath id="clip-path-7"><path d="M-246.5-451l-.56-2.37a2.26,2.26,0,0,0,1.75-2.21,2.26,2.26,0,0,0-1.75-2.22l.56-2.37a4.69,4.69,0,0,1,3.62,4.59A4.69,4.69,0,0,1-246.5-451" fill="none" clip-rule="evenodd"/></clipPath><clipPath id="clip-path-8"><polygon points="-255.3 -459.28 -260.17 -459.28 -260.17 -451.98 -255.3 -451.98 -249.22 -447.19 -249.22 -464.07 -255.3 -459.28" fill="none" clip-rule="evenodd"/></clipPath></defs><title>svg_favorite-on</title><path d="M10,1a1,1,0,0,0-.92.62l-2,4.82-5.2.38a1,1,0,0,0-.57,1.75l4,3.36L4.09,17a1,1,0,0,0,.38,1,1,1,0,0,0,.58.19,1,1,0,0,0,.52-.15L10,15.32l4.43,2.75a1,1,0,0,0,.52.15,1,1,0,0,0,.58-.19,1,1,0,0,0,.38-1l-1.24-5.06,4-3.36a1,1,0,0,0-.57-1.75l-5.2-.38-2-4.82A1,1,0,0,0,10,1Z"/></svg>