<svg xmlns="http://www.w3.org/2000/svg" viewBox="0 0 20 20"><title>svg_invisible</title><g id="Layer_2" data-name="Layer 2"><path d="M7.11,10.1a3,3,0,0,0,3,3,2.92,2.92,0,0,0,1.52-.43L7.54,8.59A2.89,2.89,0,0,0,7.11,10.1Z"/><path d="M10.11,7.1a2.89,2.89,0,0,0-1.51.43l4.09,4.08A3,3,0,0,0,10.11,7.1Z"/><path d="M19.72,9.22S15,4,9.67,4,.26,9.17.26,9.17a1.38,1.38,0,0,0,0,1.6S4.29,16,9.67,16s10-5.27,10-5.27A1.17,1.17,0,0,0,19.72,9.22ZM10.11,14.6a4.5,4.5,0,1,1,4.5-4.5A4.5,4.5,0,0,1,10.11,14.6Z"/></g></svg>