<svg id="Layer_1" data-name="Layer 1" xmlns="http://www.w3.org/2000/svg" viewBox="0 0 40 40"><title>svg_arrow-right-action-40px</title><path d="M29.19,37.55a2.87,2.87,0,0,1-.71-.91A18.51,18.51,0,0,1,20,38.7,18.78,18.78,0,1,1,38.06,24.78l1,1.2a20,20,0,1,0-9.74,11.69A1.67,1.67,0,0,1,29.19,37.55Z"/><path d="M22.14,28.31a1,1,0,0,1,1-1H35L30.38,22a1,1,0,0,1,1.52-1.3l6,7a1,1,0,0,1,0,1.3l-6,7a1,1,0,0,1-1.52-1.3L35,29.31H23.14A1,1,0,0,1,22.14,28.31Z"/><polygon points="25 17 19.88 17.7 24 10 17 12 15 21 18.03 20.65 14.97 30 25 17"/></svg>