<svg id="Layer_1" data-name="Layer 1" xmlns="http://www.w3.org/2000/svg" viewBox="0 0 20 20"><title>svg_bidra</title><rect x="3.12" y="11.52" width="1.69" height="4.82"/><path d="M6,11.52H4.9L6,16.35H7.83l-.9-4.05A1,1,0,0,0,6,11.52Z"/><rect x="7.94" y="11.52" width="1.69" height="4.82"/><rect x="11.74" y="11.52" width="1.69" height="4.82"/><path d="M10.69,11.42a1,1,0,0,0,0,1.93,1,1,0,0,0,0-1.93Z"/><path d="M16.88,11.52H15L13.75,13.6a.56.56,0,0,0,0,.67c.15.26,1.26,2.08,1.26,2.08h1.86s-1.32-2.16-1.33-2.19a.36.36,0,0,1,0-.44Z"/><path d="M0,2H2.31c1.52,0,2.14.61,2.14,1.67A1.46,1.46,0,0,1,3.2,5.21v0A1.6,1.6,0,0,1,4.78,6.86c0,1.46-1.09,1.94-2.54,1.94H0Zm.73.63V5H2C2.92,5,3.7,4.74,3.7,3.75c0-.83-.56-1.12-1.52-1.12Zm0,5.54H2.44C3.51,8.17,4,7.64,4,6.82s-.69-1.2-1.69-1.2H.73Z"/><path d="M6.25,2.07a.43.43,0,1,1,0,.85.44.44,0,0,1-.48-.42A.44.44,0,0,1,6.25,2.07ZM6.59,8.8H5.9v-5h.69Z"/><path d="M11.33,8.11a2.09,2.09,0,0,1-1.65.81c-1.38,0-2-1-2-2.58s.75-2.61,2-2.61a2,2,0,0,1,1.59.79V2H12V8.8h-.61Zm0-2.84a2,2,0,0,0-1.5-.9c-.83,0-1.4.68-1.4,2,0,1,.35,1.95,1.47,1.95a1.9,1.9,0,0,0,1.43-.82Z"/><path d="M14.13,4.63a1.33,1.33,0,0,1,1.14-.9,1.63,1.63,0,0,1,.45.08l-.09.68a1.28,1.28,0,0,0-.41,0c-.46,0-.84.49-1,.88V8.8h-.69v-5h.62Z"/><path d="M20,8.8h-.58l-.06-.91a1.76,1.76,0,0,1-1.67,1,1.34,1.34,0,0,1-1.48-1.43c0-.7.44-1.55,2.3-1.55A5.06,5.06,0,0,1,19.3,6V5.5a1,1,0,0,0-1.13-1.18,2.1,2.1,0,0,0-1.42.58l-.34-.43a2.57,2.57,0,0,1,1.79-.74A1.58,1.58,0,0,1,20,5.46Zm-.7-2.26a4.5,4.5,0,0,0-.76,0c-1.16,0-1.64.36-1.64,1,0,.51.33.84,1,.84A1.63,1.63,0,0,0,19.3,6.76Z"/></svg>