<svg id="Layer_1" data-name="Layer 1" xmlns="http://www.w3.org/2000/svg" xmlns:xlink="http://www.w3.org/1999/xlink" viewBox="0 0 30 30"><defs><clipPath id="clip-path"><circle cx="-250" cy="-366" r="23" fill="none"/></clipPath><clipPath id="clip-path-2"><path d="M-246.29-356.75l-.56-2.36a6.67,6.67,0,0,0,5.15-6.52,6.65,6.65,0,0,0-5.15-6.51l.56-2.37a9.09,9.09,0,0,1,7,8.88,9.09,9.09,0,0,1-7,8.88" fill="none" clip-rule="evenodd"/></clipPath><clipPath id="clip-path-3"><path d="M-247.5-361l-.56-2.37a2.26,2.26,0,0,0,1.75-2.21,2.26,2.26,0,0,0-1.75-2.22l.56-2.37a4.69,4.69,0,0,1,3.62,4.59A4.69,4.69,0,0,1-247.5-361" fill="none" clip-rule="evenodd"/></clipPath><clipPath id="clip-path-4"><polygon points="-256.3 -369.28 -261.17 -369.28 -261.17 -361.98 -256.3 -361.98 -250.22 -357.19 -250.22 -374.07 -256.3 -369.28" fill="none" clip-rule="evenodd"/></clipPath><clipPath id="clip-path-5"><circle cx="-219" cy="-386" r="23" fill="none"/></clipPath><clipPath id="clip-path-6"><path d="M-215.29-376.75l-.56-2.36a6.67,6.67,0,0,0,5.15-6.52,6.65,6.65,0,0,0-5.15-6.51l.56-2.37a9.09,9.09,0,0,1,7,8.88,9.09,9.09,0,0,1-7,8.88" fill="none" clip-rule="evenodd"/></clipPath><clipPath id="clip-path-7"><path d="M-216.5-381l-.56-2.37a2.26,2.26,0,0,0,1.75-2.21,2.26,2.26,0,0,0-1.75-2.22l.56-2.37a4.69,4.69,0,0,1,3.62,4.59A4.69,4.69,0,0,1-216.5-381" fill="none" clip-rule="evenodd"/></clipPath><clipPath id="clip-path-8"><polygon points="-225.3 -389.28 -230.17 -389.28 -230.17 -381.98 -225.3 -381.98 -219.22 -377.19 -219.22 -394.07 -225.3 -389.28" fill="none" clip-rule="evenodd"/></clipPath></defs><title>svg_program-30px</title><path d="M22.37,6.28a9,9,0,0,1,0,12.73A1,1,0,0,1,21,17.6a7,7,0,1,0-9.9,0,1,1,0,0,1,0,1.41,1,1,0,0,1-1.42,0A9,9,0,0,1,22.37,6.28ZM19.71,8.79a5.25,5.25,0,0,0-7.42,7.42.73.73,0,0,0,.53.22.74.74,0,0,0,.53-.22.75.75,0,0,0,0-1.06,3.75,3.75,0,0,1,0-5.3,3.83,3.83,0,0,1,5.3,0,3.74,3.74,0,0,1,0,5.3.75.75,0,0,0,0,1.06.74.74,0,0,0,1.06,0,5.24,5.24,0,0,0,0-7.42Zm-5.12,2.3a2,2,0,0,0,0,2.82,1.53,1.53,0,0,0,.41.31V23a1,1,0,0,0,2,0V14.22a1.53,1.53,0,0,0,.41-.31,2,2,0,0,0-2.82-2.82Z"/></svg>