<svg id="Layer_1" data-name="Layer 1" xmlns="http://www.w3.org/2000/svg" xmlns:xlink="http://www.w3.org/1999/xlink" viewBox="0 0 20 20"><defs><clipPath id="clip-path"><circle cx="-470" cy="-286" r="23" fill="none"/></clipPath><clipPath id="clip-path-2"><path d="M-466.29-276.75l-.56-2.36a6.67,6.67,0,0,0,5.15-6.52,6.65,6.65,0,0,0-5.15-6.51l.56-2.37a9.09,9.09,0,0,1,7,8.88,9.09,9.09,0,0,1-7,8.88" fill="none" clip-rule="evenodd"/></clipPath><clipPath id="clip-path-3"><path d="M-467.5-281l-.56-2.37a2.26,2.26,0,0,0,1.75-2.21,2.26,2.26,0,0,0-1.75-2.22l.56-2.37a4.69,4.69,0,0,1,3.62,4.59A4.69,4.69,0,0,1-467.5-281" fill="none" clip-rule="evenodd"/></clipPath><clipPath id="clip-path-4"><polygon points="-476.3 -289.28 -481.17 -289.28 -481.17 -281.98 -476.3 -281.98 -470.22 -277.19 -470.22 -294.07 -476.3 -289.28" fill="none" clip-rule="evenodd"/></clipPath><clipPath id="clip-path-5"><circle cx="-439" cy="-306" r="23" fill="none"/></clipPath><clipPath id="clip-path-6"><path d="M-435.29-296.75l-.56-2.36a6.67,6.67,0,0,0,5.15-6.52,6.65,6.65,0,0,0-5.15-6.51l.56-2.37a9.09,9.09,0,0,1,7,8.88,9.09,9.09,0,0,1-7,8.88" fill="none" clip-rule="evenodd"/></clipPath><clipPath id="clip-path-7"><path d="M-436.5-301l-.56-2.37a2.26,2.26,0,0,0,1.75-2.21,2.26,2.26,0,0,0-1.75-2.22l.56-2.37a4.69,4.69,0,0,1,3.62,4.59A4.69,4.69,0,0,1-436.5-301" fill="none" clip-rule="evenodd"/></clipPath><clipPath id="clip-path-8"><polygon points="-445.3 -309.28 -450.17 -309.28 -450.17 -301.98 -445.3 -301.98 -439.22 -297.19 -439.22 -314.07 -445.3 -309.28" fill="none" clip-rule="evenodd"/></clipPath></defs><title>svg_playback</title><path d="M16.36,3.63a9,9,0,0,0-12.72,0l-.5.5L1,2V8H7L4.55,5.55l.5-.5a7,7,0,1,1,0,9.9,1,1,0,0,0-1.41,0,1,1,0,0,0,0,1.41A9,9,0,1,0,16.36,3.63Z"/></svg>