<svg id="Layer_1" data-name="Layer 1" xmlns="http://www.w3.org/2000/svg" viewBox="0 0 20 20"><title>Artboard 1</title><path d="M6,11.37l-.8,2.43h-1L6.82,6.07H8l2.64,7.73H9.6l-.83-2.43Zm2.53-.78L7.81,8.37c-.17-.5-.29-1-.4-1.41h0c-.11.46-.24.93-.39,1.4l-.76,2.24Z"/><path d="M14.89,13.8l-.08-.7h0a2.07,2.07,0,0,1-1.7.83,1.58,1.58,0,0,1-1.7-1.59c0-1.34,1.19-2.07,3.34-2.06v-.11a1.14,1.14,0,0,0-1.26-1.28A2.77,2.77,0,0,0,12,9.28l-.23-.66a3.44,3.44,0,0,1,1.82-.49c1.7,0,2.11,1.16,2.11,2.27v2.08a7.78,7.78,0,0,0,.09,1.33ZM14.74,11c-1.1,0-2.35.17-2.35,1.25a.89.89,0,0,0,1,1,1.38,1.38,0,0,0,1.34-.93,1.07,1.07,0,0,0,.06-.32Z"/><path d="M14.72,17.95H5.28a3.23,3.23,0,0,1-3.23-3.23V5.28A3.23,3.23,0,0,1,5.28,2.05h9.43a3.23,3.23,0,0,1,3.23,3.23v9.43A3.23,3.23,0,0,1,14.72,17.95ZM5.28,2.77A2.52,2.52,0,0,0,2.77,5.28v9.43a2.52,2.52,0,0,0,2.51,2.51h9.43a2.52,2.52,0,0,0,2.51-2.51V5.28a2.52,2.52,0,0,0-2.51-2.51Z"/></svg>