<svg id="Layer_1" data-name="Layer 1" xmlns="http://www.w3.org/2000/svg" viewBox="0 0 20 20"><title>svg_premiere</title><path d="M7.65,7.22a2.8,2.8,0,0,0-.76.08V9.68a2.57,2.57,0,0,0,.61.05c1,0,1.57-.49,1.57-1.32S8.56,7.22,7.65,7.22Z"/><path d="M17,0H3A3,3,0,0,0,0,3V17a3,3,0,0,0,3,3H17a3,3,0,0,0,3-3V3A3,3,0,0,0,17,0ZM10.14,10.28a3.74,3.74,0,0,1-2.63.85,5.46,5.46,0,0,1-.62,0V14H5.08V6a15.61,15.61,0,0,1,2.47-.17A3.88,3.88,0,0,1,10,6.49a2.35,2.35,0,0,1,.86,1.87A2.58,2.58,0,0,1,10.14,10.28Zm5.34-.55A3,3,0,0,0,15,9.68c-.67,0-1.25.05-1.25.31s0,.88,0,1v3H11.88V10.05c0-.86,0-.56,0-1.06,0,0,.68-1,3.22-1a1.46,1.46,0,0,1,.38,0Z"/></svg>