<svg id="Layer_1" data-name="Layer 1" xmlns="http://www.w3.org/2000/svg" xmlns:xlink="http://www.w3.org/1999/xlink" viewBox="0 0 30 30"><defs><clipPath id="clip-path"><circle cx="-510" cy="-566" r="23" fill="none"/></clipPath><clipPath id="clip-path-2"><path d="M-506.29-556.75l-.56-2.36a6.67,6.67,0,0,0,5.15-6.52,6.65,6.65,0,0,0-5.15-6.51l.56-2.37a9.09,9.09,0,0,1,7,8.88,9.09,9.09,0,0,1-7,8.88" fill="none" clip-rule="evenodd"/></clipPath><clipPath id="clip-path-3"><path d="M-507.5-561l-.56-2.37a2.26,2.26,0,0,0,1.75-2.21,2.26,2.26,0,0,0-1.75-2.22l.56-2.37a4.69,4.69,0,0,1,3.62,4.59A4.69,4.69,0,0,1-507.5-561" fill="none" clip-rule="evenodd"/></clipPath><clipPath id="clip-path-4"><polygon points="-516.3 -569.28 -521.17 -569.28 -521.17 -561.98 -516.3 -561.98 -510.22 -557.19 -510.22 -574.07 -516.3 -569.28" fill="none" clip-rule="evenodd"/></clipPath><clipPath id="clip-path-5"><circle cx="-479" cy="-586" r="23" fill="none"/></clipPath><clipPath id="clip-path-6"><path d="M-475.29-576.75l-.56-2.36a6.67,6.67,0,0,0,5.15-6.52,6.65,6.65,0,0,0-5.15-6.51l.56-2.37a9.09,9.09,0,0,1,7,8.88,9.09,9.09,0,0,1-7,8.88" fill="none" clip-rule="evenodd"/></clipPath><clipPath id="clip-path-7"><path d="M-476.5-581l-.56-2.37a2.26,2.26,0,0,0,1.75-2.21,2.26,2.26,0,0,0-1.75-2.22l.56-2.37a4.69,4.69,0,0,1,3.62,4.59A4.69,4.69,0,0,1-476.5-581" fill="none" clip-rule="evenodd"/></clipPath><clipPath id="clip-path-8"><polygon points="-485.3 -589.28 -490.17 -589.28 -490.17 -581.98 -485.3 -581.98 -479.22 -577.19 -479.22 -594.07 -485.3 -589.28" fill="none" clip-rule="evenodd"/></clipPath></defs><title>svg_procam</title><path d="M26,6H24.4a2,2,0,0,0-1.51.86L20,11.66V8A2,2,0,0,0,18.05,6H5A2,2,0,0,0,3,8v14.1A2,2,0,0,0,5,24h13.1A2,2,0,0,0,20,22.05V18.3l2.89,4.84A2,2,0,0,0,24.4,24H26a1,1,0,0,0,1-1V7A1,1,0,0,0,26,6ZM18.8,22.05a.76.76,0,0,1-.75.75H5a.76.76,0,0,1-.75-.75V8A.76.76,0,0,1,5,7.2h13.1A.76.76,0,0,1,18.8,8v14.1Zm7,.75H24.4a.83.83,0,0,1-.48-.27l-3.58-6A3.19,3.19,0,0,1,20,15.29v-.63a3.19,3.19,0,0,1,.34-1.24l3.57-5.95a.86.86,0,0,1,.49-.27h1.4ZM8.4,10.2A1.2,1.2,0,1,1,7.2,9,1.2,1.2,0,0,1,8.4,10.2Z"/></svg>