<svg id="Layer_1" data-name="Layer 1" xmlns="http://www.w3.org/2000/svg" xmlns:xlink="http://www.w3.org/1999/xlink" viewBox="0 0 20 20"><defs><clipPath id="clip-path"><circle cx="-250" cy="-536" r="23" fill="none"/></clipPath><clipPath id="clip-path-2"><path d="M-246.29-526.75l-.56-2.36a6.67,6.67,0,0,0,5.15-6.52,6.65,6.65,0,0,0-5.15-6.51l.56-2.37a9.09,9.09,0,0,1,7,8.88,9.09,9.09,0,0,1-7,8.88" fill="none" clip-rule="evenodd"/></clipPath><clipPath id="clip-path-3"><path d="M-247.5-531l-.56-2.37a2.26,2.26,0,0,0,1.75-2.21,2.26,2.26,0,0,0-1.75-2.22l.56-2.37a4.69,4.69,0,0,1,3.62,4.59A4.69,4.69,0,0,1-247.5-531" fill="none" clip-rule="evenodd"/></clipPath><clipPath id="clip-path-4"><polygon points="-256.3 -539.28 -261.17 -539.28 -261.17 -531.98 -256.3 -531.98 -250.22 -527.19 -250.22 -544.07 -256.3 -539.28" fill="none" clip-rule="evenodd"/></clipPath><clipPath id="clip-path-5"><circle cx="-219" cy="-556" r="23" fill="none"/></clipPath><clipPath id="clip-path-6"><path d="M-215.29-546.75l-.56-2.36a6.67,6.67,0,0,0,5.15-6.52,6.65,6.65,0,0,0-5.15-6.51l.56-2.37a9.09,9.09,0,0,1,7,8.88,9.09,9.09,0,0,1-7,8.88" fill="none" clip-rule="evenodd"/></clipPath><clipPath id="clip-path-7"><path d="M-216.5-551l-.56-2.37a2.26,2.26,0,0,0,1.75-2.21,2.26,2.26,0,0,0-1.75-2.22l.56-2.37a4.69,4.69,0,0,1,3.62,4.59A4.69,4.69,0,0,1-216.5-551" fill="none" clip-rule="evenodd"/></clipPath><clipPath id="clip-path-8"><polygon points="-225.3 -559.28 -230.17 -559.28 -230.17 -551.98 -225.3 -551.98 -219.22 -547.19 -219.22 -564.07 -225.3 -559.28" fill="none" clip-rule="evenodd"/></clipPath></defs><title>svg_x-c</title><path d="M10,0A10,10,0,1,0,20,10,10,10,0,0,0,10,0Zm3.54,7.88L11.41,10l2.13,2.12-1.42,1.42L10,11.41,7.88,13.54,6.46,12.12,8.59,10,6.46,7.88,7.88,6.46,10,8.59l2.12-2.13Z"/></svg>