<svg id="Layer_1" data-name="Layer 1" xmlns="http://www.w3.org/2000/svg" xmlns:xlink="http://www.w3.org/1999/xlink" viewBox="0 0 20 20"><defs><clipPath id="clip-path"><circle cx="-400" cy="-436" r="23" fill="none"/></clipPath><clipPath id="clip-path-2"><path d="M-396.29-426.75l-.56-2.36a6.67,6.67,0,0,0,5.15-6.52,6.65,6.65,0,0,0-5.15-6.51l.56-2.37a9.09,9.09,0,0,1,7,8.88,9.09,9.09,0,0,1-7,8.88" fill="none" clip-rule="evenodd"/></clipPath><clipPath id="clip-path-3"><path d="M-397.5-431l-.56-2.37a2.26,2.26,0,0,0,1.75-2.21,2.26,2.26,0,0,0-1.75-2.22l.56-2.37a4.69,4.69,0,0,1,3.62,4.59A4.69,4.69,0,0,1-397.5-431" fill="none" clip-rule="evenodd"/></clipPath><clipPath id="clip-path-4"><polygon points="-406.3 -439.28 -411.17 -439.28 -411.17 -431.98 -406.3 -431.98 -400.22 -427.19 -400.22 -444.07 -406.3 -439.28" fill="none" clip-rule="evenodd"/></clipPath><clipPath id="clip-path-5"><circle cx="-369" cy="-456" r="23" fill="none"/></clipPath><clipPath id="clip-path-6"><path d="M-365.29-446.75l-.56-2.36a6.67,6.67,0,0,0,5.15-6.52,6.65,6.65,0,0,0-5.15-6.51l.56-2.37a9.09,9.09,0,0,1,7,8.88,9.09,9.09,0,0,1-7,8.88" fill="none" clip-rule="evenodd"/></clipPath><clipPath id="clip-path-7"><path d="M-366.5-451l-.56-2.37a2.26,2.26,0,0,0,1.75-2.21,2.26,2.26,0,0,0-1.75-2.22l.56-2.37a4.69,4.69,0,0,1,3.62,4.59A4.69,4.69,0,0,1-366.5-451" fill="none" clip-rule="evenodd"/></clipPath><clipPath id="clip-path-8"><polygon points="-375.3 -459.28 -380.17 -459.28 -380.17 -451.98 -375.3 -451.98 -369.22 -447.19 -369.22 -464.07 -375.3 -459.28" fill="none" clip-rule="evenodd"/></clipPath></defs><title>svg_link</title><path d="M12.12,11.57a4.46,4.46,0,0,0,1.21-4L6.46,14.4a2.5,2.5,0,0,1-3.53-3.54L7.17,6.62a2.49,2.49,0,0,1,2.11-.7l1.57-1.57a4.47,4.47,0,0,0-5.09.86L1.51,9.45a4.5,4.5,0,0,0,6.37,6.36Z"/><path d="M12.12,4.5,7.88,8.74a4.46,4.46,0,0,0-1.21,4l6.87-6.87a2.5,2.5,0,0,1,3.53,3.54l-4.24,4.24a2.49,2.49,0,0,1-2.11.7L9.15,16a4.47,4.47,0,0,0,5.09-.86l4.25-4.24A4.5,4.5,0,0,0,12.12,4.5Z"/></svg>