<svg id="Layer_1" data-name="Layer 1" xmlns="http://www.w3.org/2000/svg" xmlns:xlink="http://www.w3.org/1999/xlink" viewBox="0 0 20 20"><defs><clipPath id="clip-path"><circle cx="-490" cy="-536" r="23" fill="none"/></clipPath><clipPath id="clip-path-2"><path d="M-486.29-526.75l-.56-2.36a6.67,6.67,0,0,0,5.15-6.52,6.65,6.65,0,0,0-5.15-6.51l.56-2.37a9.09,9.09,0,0,1,7,8.88,9.09,9.09,0,0,1-7,8.88" fill="none" clip-rule="evenodd"/></clipPath><clipPath id="clip-path-3"><path d="M-487.5-531l-.56-2.37a2.26,2.26,0,0,0,1.75-2.21,2.26,2.26,0,0,0-1.75-2.22l.56-2.37a4.69,4.69,0,0,1,3.62,4.59A4.69,4.69,0,0,1-487.5-531" fill="none" clip-rule="evenodd"/></clipPath><clipPath id="clip-path-4"><polygon points="-496.3 -539.28 -501.17 -539.28 -501.17 -531.98 -496.3 -531.98 -490.22 -527.19 -490.22 -544.07 -496.3 -539.28" fill="none" clip-rule="evenodd"/></clipPath><clipPath id="clip-path-5"><circle cx="-459" cy="-556" r="23" fill="none"/></clipPath><clipPath id="clip-path-6"><path d="M-455.29-546.75l-.56-2.36a6.67,6.67,0,0,0,5.15-6.52,6.65,6.65,0,0,0-5.15-6.51l.56-2.37a9.09,9.09,0,0,1,7,8.88,9.09,9.09,0,0,1-7,8.88" fill="none" clip-rule="evenodd"/></clipPath><clipPath id="clip-path-7"><path d="M-456.5-551l-.56-2.37a2.26,2.26,0,0,0,1.75-2.21,2.26,2.26,0,0,0-1.75-2.22l.56-2.37a4.69,4.69,0,0,1,3.62,4.59A4.69,4.69,0,0,1-456.5-551" fill="none" clip-rule="evenodd"/></clipPath><clipPath id="clip-path-8"><polygon points="-465.3 -559.28 -470.17 -559.28 -470.17 -551.98 -465.3 -551.98 -459.22 -547.19 -459.22 -564.07 -465.3 -559.28" fill="none" clip-rule="evenodd"/></clipPath></defs><title>svg_arrow-link</title><path d="M10.13,14l-.8-.6L11.88,10,9.33,6.6l.8-.6L12.9,9.7a.51.51,0,0,1,0,.6Z"/></svg>