<svg id="Layer_1" data-name="Layer 1" xmlns="http://www.w3.org/2000/svg" xmlns:xlink="http://www.w3.org/1999/xlink" viewBox="0 0 20 20"><defs><clipPath id="clip-path"><circle cx="-490" cy="-406" r="23" fill="none"/></clipPath><clipPath id="clip-path-2"><path d="M-486.29-396.75l-.56-2.36a6.67,6.67,0,0,0,5.15-6.52,6.65,6.65,0,0,0-5.15-6.51l.56-2.37a9.09,9.09,0,0,1,7,8.88,9.09,9.09,0,0,1-7,8.88" fill="none" clip-rule="evenodd"/></clipPath><clipPath id="clip-path-3"><path d="M-487.5-401l-.56-2.37a2.26,2.26,0,0,0,1.75-2.21,2.26,2.26,0,0,0-1.75-2.22l.56-2.37a4.69,4.69,0,0,1,3.62,4.59A4.69,4.69,0,0,1-487.5-401" fill="none" clip-rule="evenodd"/></clipPath><clipPath id="clip-path-4"><polygon points="-496.3 -409.28 -501.17 -409.28 -501.17 -401.98 -496.3 -401.98 -490.22 -397.19 -490.22 -414.07 -496.3 -409.28" fill="none" clip-rule="evenodd"/></clipPath><clipPath id="clip-path-5"><circle cx="-459" cy="-426" r="23" fill="none"/></clipPath><clipPath id="clip-path-6"><path d="M-455.29-416.75l-.56-2.36a6.67,6.67,0,0,0,5.15-6.52,6.65,6.65,0,0,0-5.15-6.51l.56-2.37a9.09,9.09,0,0,1,7,8.88,9.09,9.09,0,0,1-7,8.88" fill="none" clip-rule="evenodd"/></clipPath><clipPath id="clip-path-7"><path d="M-456.5-421l-.56-2.37a2.26,2.26,0,0,0,1.75-2.21,2.26,2.26,0,0,0-1.75-2.22l.56-2.37a4.69,4.69,0,0,1,3.62,4.59A4.69,4.69,0,0,1-456.5-421" fill="none" clip-rule="evenodd"/></clipPath><clipPath id="clip-path-8"><polygon points="-465.3 -429.28 -470.17 -429.28 -470.17 -421.98 -465.3 -421.98 -459.22 -417.19 -459.22 -434.07 -465.3 -429.28" fill="none" clip-rule="evenodd"/></clipPath></defs><title>svg_external-link</title><path d="M18,2V9L15.21,6.21l-4.52,4.51h0A1,1,0,0,1,9.11,9.55a1,1,0,0,1,.18-.23h0l4.51-4.52L11,2Zm-.6,9a.6.6,0,0,0-.6.6v3.8a1.4,1.4,0,0,1-1.4,1.4H4.6a1.4,1.4,0,0,1-1.4-1.4V4.6A1.4,1.4,0,0,1,4.6,3.2H8.4A.6.6,0,0,0,8.4,2H4.6A2.61,2.61,0,0,0,2,4.6V15.4A2.61,2.61,0,0,0,4.6,18H15.4A2.61,2.61,0,0,0,18,15.4V11.6A.6.6,0,0,0,17.4,11Z"/></svg>