<svg id="Layer_1" data-name="Layer 1" xmlns="http://www.w3.org/2000/svg" xmlns:xlink="http://www.w3.org/1999/xlink" viewBox="0 0 20 20"><defs><clipPath id="clip-path"><circle cx="-560" cy="-286" r="23" fill="none"/></clipPath><clipPath id="clip-path-2"><path d="M-556.29-276.75l-.56-2.36a6.67,6.67,0,0,0,5.15-6.52,6.65,6.65,0,0,0-5.15-6.51l.56-2.37a9.09,9.09,0,0,1,7,8.88,9.09,9.09,0,0,1-7,8.88" fill="none" clip-rule="evenodd"/></clipPath><clipPath id="clip-path-3"><path d="M-557.5-281l-.56-2.37a2.26,2.26,0,0,0,1.75-2.21,2.26,2.26,0,0,0-1.75-2.22l.56-2.37a4.69,4.69,0,0,1,3.62,4.59A4.69,4.69,0,0,1-557.5-281" fill="none" clip-rule="evenodd"/></clipPath><clipPath id="clip-path-4"><polygon points="-566.3 -289.28 -571.17 -289.28 -571.17 -281.98 -566.3 -281.98 -560.22 -277.19 -560.22 -294.07 -566.3 -289.28" fill="none" clip-rule="evenodd"/></clipPath><clipPath id="clip-path-5"><circle cx="-529" cy="-306" r="23" fill="none"/></clipPath><clipPath id="clip-path-6"><path d="M-525.29-296.75l-.56-2.36a6.67,6.67,0,0,0,5.15-6.52,6.65,6.65,0,0,0-5.15-6.51l.56-2.37a9.09,9.09,0,0,1,7,8.88,9.09,9.09,0,0,1-7,8.88" fill="none" clip-rule="evenodd"/></clipPath><clipPath id="clip-path-7"><path d="M-526.5-301l-.56-2.37a2.26,2.26,0,0,0,1.75-2.21,2.26,2.26,0,0,0-1.75-2.22l.56-2.37a4.69,4.69,0,0,1,3.62,4.59A4.69,4.69,0,0,1-526.5-301" fill="none" clip-rule="evenodd"/></clipPath><clipPath id="clip-path-8"><polygon points="-535.3 -309.28 -540.17 -309.28 -540.17 -301.98 -535.3 -301.98 -529.22 -297.19 -529.22 -314.07 -535.3 -309.28" fill="none" clip-rule="evenodd"/></clipPath></defs><title>svg_skip-back</title><path d="M5,4A1,1,0,0,1,6,5V15a1,1,0,0,1-2,0V5A1,1,0,0,1,5,4Z"/><path d="M7.85,9.47l6.3-3.94c.47-.29.85-.08.85.47v8c0,.55-.38.76-.85.47l-6.3-3.94A.57.57,0,0,1,7.85,9.47Z"/></svg>