<svg id="Layer_1" data-name="Layer 1" xmlns="http://www.w3.org/2000/svg" xmlns:xlink="http://www.w3.org/1999/xlink" viewBox="0 0 30 30"><defs><clipPath id="clip-path"><circle cx="-550" cy="-566" r="23" fill="none"/></clipPath><clipPath id="clip-path-2"><path d="M-546.29-556.75l-.56-2.36a6.67,6.67,0,0,0,5.15-6.52,6.65,6.65,0,0,0-5.15-6.51l.56-2.37a9.09,9.09,0,0,1,7,8.88,9.09,9.09,0,0,1-7,8.88" fill="none" clip-rule="evenodd"/></clipPath><clipPath id="clip-path-3"><path d="M-547.5-561l-.56-2.37a2.26,2.26,0,0,0,1.75-2.21,2.26,2.26,0,0,0-1.75-2.22l.56-2.37a4.69,4.69,0,0,1,3.62,4.59A4.69,4.69,0,0,1-547.5-561" fill="none" clip-rule="evenodd"/></clipPath><clipPath id="clip-path-4"><polygon points="-556.3 -569.28 -561.17 -569.28 -561.17 -561.98 -556.3 -561.98 -550.22 -557.19 -550.22 -574.07 -556.3 -569.28" fill="none" clip-rule="evenodd"/></clipPath><clipPath id="clip-path-5"><circle cx="-519" cy="-586" r="23" fill="none"/></clipPath><clipPath id="clip-path-6"><path d="M-515.29-576.75l-.56-2.36a6.67,6.67,0,0,0,5.15-6.52,6.65,6.65,0,0,0-5.15-6.51l.56-2.37a9.09,9.09,0,0,1,7,8.88,9.09,9.09,0,0,1-7,8.88" fill="none" clip-rule="evenodd"/></clipPath><clipPath id="clip-path-7"><path d="M-516.5-581l-.56-2.37a2.26,2.26,0,0,0,1.75-2.21,2.26,2.26,0,0,0-1.75-2.22l.56-2.37a4.69,4.69,0,0,1,3.62,4.59A4.69,4.69,0,0,1-516.5-581" fill="none" clip-rule="evenodd"/></clipPath><clipPath id="clip-path-8"><polygon points="-525.3 -589.28 -530.17 -589.28 -530.17 -581.98 -525.3 -581.98 -519.22 -577.19 -519.22 -594.07 -525.3 -589.28" fill="none" clip-rule="evenodd"/></clipPath></defs><title>svg_user-30px</title><path d="M23.4,25a.6.6,0,0,1-.6-.6,7.75,7.75,0,0,0-4.95-7.25.63.63,0,0,1-.38-.52.64.64,0,0,1,.31-.57,5.72,5.72,0,1,0-5.56,0,.64.64,0,0,1,.31.57.63.63,0,0,1-.38.52A7.75,7.75,0,0,0,7.2,24.4a.6.6,0,1,1-1.2,0,9,9,0,0,1,4.71-7.91,6.92,6.92,0,1,1,8.58,0A9,9,0,0,1,24,24.4.6.6,0,0,1,23.4,25Z"/></svg>