<svg id="Layer_1" data-name="Layer 1" xmlns="http://www.w3.org/2000/svg" xmlns:xlink="http://www.w3.org/1999/xlink" viewBox="0 0 20 20"><defs><clipPath id="clip-path"><circle cx="-536" cy="-228" r="23" fill="none"/></clipPath><clipPath id="clip-path-2"><path d="M-532.29-218.75l-.56-2.36a6.67,6.67,0,0,0,5.15-6.52,6.65,6.65,0,0,0-5.15-6.51l.56-2.37a9.09,9.09,0,0,1,7,8.88,9.09,9.09,0,0,1-7,8.88" fill="none" clip-rule="evenodd"/></clipPath><clipPath id="clip-path-3"><path d="M-533.5-223l-.56-2.37a2.26,2.26,0,0,0,1.75-2.21,2.26,2.26,0,0,0-1.75-2.22l.56-2.37a4.69,4.69,0,0,1,3.62,4.59A4.69,4.69,0,0,1-533.5-223" fill="none" clip-rule="evenodd"/></clipPath><clipPath id="clip-path-4"><polygon points="-542.3 -231.28 -547.17 -231.28 -547.17 -223.98 -542.3 -223.98 -536.22 -219.19 -536.22 -236.07 -542.3 -231.28" fill="none" clip-rule="evenodd"/></clipPath><clipPath id="clip-path-5"><circle cx="-505" cy="-248" r="23" fill="none"/></clipPath><clipPath id="clip-path-6"><path d="M-501.29-238.75l-.56-2.36a6.67,6.67,0,0,0,5.15-6.52,6.65,6.65,0,0,0-5.15-6.51l.56-2.37a9.09,9.09,0,0,1,7,8.88,9.09,9.09,0,0,1-7,8.88" fill="none" clip-rule="evenodd"/></clipPath><clipPath id="clip-path-7"><path d="M-502.5-243l-.56-2.37a2.26,2.26,0,0,0,1.75-2.21,2.26,2.26,0,0,0-1.75-2.22l.56-2.37a4.69,4.69,0,0,1,3.62,4.59A4.69,4.69,0,0,1-502.5-243" fill="none" clip-rule="evenodd"/></clipPath><clipPath id="clip-path-8"><polygon points="-511.3 -251.28 -516.17 -251.28 -516.17 -243.98 -511.3 -243.98 -505.22 -239.19 -505.22 -256.07 -511.3 -251.28" fill="none" clip-rule="evenodd"/></clipPath></defs><title>svg_usergroup</title><path d="M18.08,11.79a3.38,3.38,0,0,0,1-2.38A3.46,3.46,0,0,0,15.58,6a3.57,3.57,0,0,0-.8.09,4.81,4.81,0,0,0-9.56,0A3.57,3.57,0,0,0,4.42,6,3.46,3.46,0,0,0,1,9.41a3.38,3.38,0,0,0,1,2.38A4.34,4.34,0,0,0,0,15.4a.6.6,0,0,0,1.2,0,3.18,3.18,0,0,1,2-3,.57.57,0,0,0,.38-.51.59.59,0,0,0-.3-.57A2.24,2.24,0,0,1,2.14,9.41a2.26,2.26,0,0,1,3.1-2.08,4.79,4.79,0,0,0,1.53,2.8,6.11,6.11,0,0,0-3,5.27.6.6,0,1,0,1.2,0,4.92,4.92,0,0,1,3.19-4.61.61.61,0,0,0,.38-.52.58.58,0,0,0-.31-.57,3.6,3.6,0,1,1,5.41-3.11A3.58,3.58,0,0,1,11.77,9.7a.58.58,0,0,0-.31.57.61.61,0,0,0,.38.52A4.92,4.92,0,0,1,15,15.4a.6.6,0,0,0,1.2,0,6.11,6.11,0,0,0-3-5.27,4.79,4.79,0,0,0,1.53-2.8,2.26,2.26,0,0,1,3.09,2.08,2.23,2.23,0,0,1-1.17,1.95.59.59,0,0,0-.3.57.57.57,0,0,0,.38.51,3.18,3.18,0,0,1,2,3,.6.6,0,0,0,1.2,0A4.34,4.34,0,0,0,18.08,11.79Z"/></svg>