<svg id="Layer_1" data-name="Layer 1" xmlns="http://www.w3.org/2000/svg" xmlns:xlink="http://www.w3.org/1999/xlink" viewBox="0 0 20 20"><defs><clipPath id="clip-path"><circle cx="-340" cy="-406" r="23" fill="none"/></clipPath><clipPath id="clip-path-2"><path d="M-336.29-396.75l-.56-2.36a6.67,6.67,0,0,0,5.15-6.52,6.65,6.65,0,0,0-5.15-6.51l.56-2.37a9.09,9.09,0,0,1,7,8.88,9.09,9.09,0,0,1-7,8.88" fill="none" clip-rule="evenodd"/></clipPath><clipPath id="clip-path-3"><path d="M-337.5-401l-.56-2.37a2.26,2.26,0,0,0,1.75-2.21,2.26,2.26,0,0,0-1.75-2.22l.56-2.37a4.69,4.69,0,0,1,3.62,4.59A4.69,4.69,0,0,1-337.5-401" fill="none" clip-rule="evenodd"/></clipPath><clipPath id="clip-path-4"><polygon points="-346.3 -409.28 -351.17 -409.28 -351.17 -401.98 -346.3 -401.98 -340.22 -397.19 -340.22 -414.07 -346.3 -409.28" fill="none" clip-rule="evenodd"/></clipPath><clipPath id="clip-path-5"><circle cx="-309" cy="-426" r="23" fill="none"/></clipPath><clipPath id="clip-path-6"><path d="M-305.29-416.75l-.56-2.36a6.67,6.67,0,0,0,5.15-6.52,6.65,6.65,0,0,0-5.15-6.51l.56-2.37a9.09,9.09,0,0,1,7,8.88,9.09,9.09,0,0,1-7,8.88" fill="none" clip-rule="evenodd"/></clipPath><clipPath id="clip-path-7"><path d="M-306.5-421l-.56-2.37a2.26,2.26,0,0,0,1.75-2.21,2.26,2.26,0,0,0-1.75-2.22l.56-2.37a4.69,4.69,0,0,1,3.62,4.59A4.69,4.69,0,0,1-306.5-421" fill="none" clip-rule="evenodd"/></clipPath><clipPath id="clip-path-8"><polygon points="-315.3 -429.28 -320.17 -429.28 -320.17 -421.98 -315.3 -421.98 -309.22 -417.19 -309.22 -434.07 -315.3 -429.28" fill="none" clip-rule="evenodd"/></clipPath></defs><title>svg_share</title><circle cx="5.33" cy="10" r="2.8"/><path d="M14.33,12.2a2.78,2.78,0,0,0-2,.81l-2.22-1.33a.7.7,0,0,0-.72,1.2l2.23,1.33a2.56,2.56,0,0,0-.13.79,2.8,2.8,0,1,0,2.8-2.8Z"/><path d="M9.79,8.42a.75.75,0,0,0,.36-.1L12.37,7a2.76,2.76,0,0,0,2,.81A2.8,2.8,0,1,0,11.53,5a2.55,2.55,0,0,0,.13.78L9.43,7.11a.7.7,0,0,0-.24,1A.71.71,0,0,0,9.79,8.42Z"/></svg>