<svg id="Layer_1" data-name="Layer 1" xmlns="http://www.w3.org/2000/svg" xmlns:xlink="http://www.w3.org/1999/xlink" viewBox="0 0 20 20"><defs><clipPath id="clip-path"><circle cx="-400" cy="-336" r="23" fill="none"/></clipPath><clipPath id="clip-path-2"><path d="M-396.29-326.75l-.56-2.36a6.67,6.67,0,0,0,5.15-6.52,6.65,6.65,0,0,0-5.15-6.51l.56-2.37a9.09,9.09,0,0,1,7,8.88,9.09,9.09,0,0,1-7,8.88" fill="none" clip-rule="evenodd"/></clipPath><clipPath id="clip-path-3"><path d="M-397.5-331l-.56-2.37a2.26,2.26,0,0,0,1.75-2.21,2.26,2.26,0,0,0-1.75-2.22l.56-2.37a4.69,4.69,0,0,1,3.62,4.59A4.69,4.69,0,0,1-397.5-331" fill="none" clip-rule="evenodd"/></clipPath><clipPath id="clip-path-4"><polygon points="-406.3 -339.28 -411.17 -339.28 -411.17 -331.98 -406.3 -331.98 -400.22 -327.19 -400.22 -344.07 -406.3 -339.28" fill="none" clip-rule="evenodd"/></clipPath><clipPath id="clip-path-5"><circle cx="-369" cy="-356" r="23" fill="none"/></clipPath><clipPath id="clip-path-6"><path d="M-365.29-346.75l-.56-2.36a6.67,6.67,0,0,0,5.15-6.52,6.65,6.65,0,0,0-5.15-6.51l.56-2.37a9.09,9.09,0,0,1,7,8.88,9.09,9.09,0,0,1-7,8.88" fill="none" clip-rule="evenodd"/></clipPath><clipPath id="clip-path-7"><path d="M-366.5-351l-.56-2.37a2.26,2.26,0,0,0,1.75-2.21,2.26,2.26,0,0,0-1.75-2.22l.56-2.37a4.69,4.69,0,0,1,3.62,4.59A4.69,4.69,0,0,1-366.5-351" fill="none" clip-rule="evenodd"/></clipPath><clipPath id="clip-path-8"><polygon points="-375.3 -359.28 -380.17 -359.28 -380.17 -351.98 -375.3 -351.98 -369.22 -347.19 -369.22 -364.07 -375.3 -359.28" fill="none" clip-rule="evenodd"/></clipPath></defs><title>svg_conflict</title><path d="M10,2,0,17H20Zm0,12.82a3,3,0,1,1,3-3A3,3,0,0,1,10,14.82Z" fill-rule="evenodd"/></svg>