<?xml version="1.0" encoding="utf-8"?>
<!-- Generator: Adobe Illustrator 18.1.1, SVG Export Plug-In . SVG Version: 6.00 Build 0)  -->
<svg version="1.1" id="Layer_1" xmlns="http://www.w3.org/2000/svg" xmlns:xlink="http://www.w3.org/1999/xlink" x="0px" y="0px"
	 viewBox="0 0 35 35" enable-background="new 0 0 35 35" xml:space="preserve">
<path d="M16,4c3.2,0,6.2,1.2,8.5,3.5c4.7,4.7,4.7,12.3,0,17C22.2,26.8,19.2,28,16,28s-6.2-1.2-8.5-3.5c-4.7-4.7-4.7-12.3,0-17
	C9.8,5.2,12.8,4,16,4 M16,2c-3.6,0-7.2,1.4-9.9,4.1c-5.5,5.5-5.5,14.3,0,19.8C8.8,28.6,12.4,30,16,30s7.2-1.4,9.9-4.1
	c5.5-5.5,5.5-14.3,0-19.8C23.2,3.4,19.6,2,16,2L16,2z M33.6,32.4l-6-6l-1.1,1.1l6,6c0.2,0.2,0.4,0.2,0.6,0.2s0.4-0.1,0.6-0.2
	C33.9,33.3,33.9,32.7,33.6,32.4z"/>
</svg>
