<svg id="Layer_1" data-name="Layer 1" xmlns="http://www.w3.org/2000/svg" xmlns:xlink="http://www.w3.org/1999/xlink" viewBox="0 0 20 20"><defs><clipPath id="clip-path"><circle cx="-370" cy="-436" r="23" fill="none"/></clipPath><clipPath id="clip-path-2"><path d="M-366.29-426.75l-.56-2.36a6.67,6.67,0,0,0,5.15-6.52,6.65,6.65,0,0,0-5.15-6.51l.56-2.37a9.09,9.09,0,0,1,7,8.88,9.09,9.09,0,0,1-7,8.88" fill="none" clip-rule="evenodd"/></clipPath><clipPath id="clip-path-3"><path d="M-367.5-431l-.56-2.37a2.26,2.26,0,0,0,1.75-2.21,2.26,2.26,0,0,0-1.75-2.22l.56-2.37a4.69,4.69,0,0,1,3.62,4.59A4.69,4.69,0,0,1-367.5-431" fill="none" clip-rule="evenodd"/></clipPath><clipPath id="clip-path-4"><polygon points="-376.3 -439.28 -381.17 -439.28 -381.17 -431.98 -376.3 -431.98 -370.22 -427.19 -370.22 -444.07 -376.3 -439.28" fill="none" clip-rule="evenodd"/></clipPath><clipPath id="clip-path-5"><circle cx="-339" cy="-456" r="23" fill="none"/></clipPath><clipPath id="clip-path-6"><path d="M-335.29-446.75l-.56-2.36a6.67,6.67,0,0,0,5.15-6.52,6.65,6.65,0,0,0-5.15-6.51l.56-2.37a9.09,9.09,0,0,1,7,8.88,9.09,9.09,0,0,1-7,8.88" fill="none" clip-rule="evenodd"/></clipPath><clipPath id="clip-path-7"><path d="M-336.5-451l-.56-2.37a2.26,2.26,0,0,0,1.75-2.21,2.26,2.26,0,0,0-1.75-2.22l.56-2.37a4.69,4.69,0,0,1,3.62,4.59A4.69,4.69,0,0,1-336.5-451" fill="none" clip-rule="evenodd"/></clipPath><clipPath id="clip-path-8"><polygon points="-345.3 -459.28 -350.17 -459.28 -350.17 -451.98 -345.3 -451.98 -339.22 -447.19 -339.22 -464.07 -345.3 -459.28" fill="none" clip-rule="evenodd"/></clipPath></defs><title>svg_info</title><path d="M10,0A10,10,0,1,0,20,10,10,10,0,0,0,10,0Zm0,18.8A8.8,8.8,0,1,1,18.8,10,8.81,8.81,0,0,1,10,18.8ZM9,6.11a1,1,0,1,1,1,1A1,1,0,0,1,9,6.11Zm2.88,8.48a1,1,0,0,1-.88.52,1,1,0,0,1-.48-.12A3.28,3.28,0,0,1,9,12.11v-3a1,1,0,0,1,2,0v3a1.29,1.29,0,0,0,.48,1.12A1,1,0,0,1,11.88,14.59Z"/></svg>