<svg id="Layer_1" data-name="Layer 1" xmlns="http://www.w3.org/2000/svg" xmlns:xlink="http://www.w3.org/1999/xlink" viewBox="0 0 20 20"><defs><clipPath id="clip-path"><circle cx="-430" cy="-406" r="23" fill="none"/></clipPath><clipPath id="clip-path-2"><path d="M-426.29-396.75l-.56-2.36a6.67,6.67,0,0,0,5.15-6.52,6.65,6.65,0,0,0-5.15-6.51l.56-2.37a9.09,9.09,0,0,1,7,8.88,9.09,9.09,0,0,1-7,8.88" fill="none" clip-rule="evenodd"/></clipPath><clipPath id="clip-path-3"><path d="M-427.5-401l-.56-2.37a2.26,2.26,0,0,0,1.75-2.21,2.26,2.26,0,0,0-1.75-2.22l.56-2.37a4.69,4.69,0,0,1,3.62,4.59A4.69,4.69,0,0,1-427.5-401" fill="none" clip-rule="evenodd"/></clipPath><clipPath id="clip-path-4"><polygon points="-436.3 -409.28 -441.17 -409.28 -441.17 -401.98 -436.3 -401.98 -430.22 -397.19 -430.22 -414.07 -436.3 -409.28" fill="none" clip-rule="evenodd"/></clipPath><clipPath id="clip-path-5"><circle cx="-399" cy="-426" r="23" fill="none"/></clipPath><clipPath id="clip-path-6"><path d="M-395.29-416.75l-.56-2.36a6.67,6.67,0,0,0,5.15-6.52,6.65,6.65,0,0,0-5.15-6.51l.56-2.37a9.09,9.09,0,0,1,7,8.88,9.09,9.09,0,0,1-7,8.88" fill="none" clip-rule="evenodd"/></clipPath><clipPath id="clip-path-7"><path d="M-396.5-421l-.56-2.37a2.26,2.26,0,0,0,1.75-2.21,2.26,2.26,0,0,0-1.75-2.22l.56-2.37a4.69,4.69,0,0,1,3.62,4.59A4.69,4.69,0,0,1-396.5-421" fill="none" clip-rule="evenodd"/></clipPath><clipPath id="clip-path-8"><polygon points="-405.3 -429.28 -410.17 -429.28 -410.17 -421.98 -405.3 -421.98 -399.22 -417.19 -399.22 -434.07 -405.3 -429.28" fill="none" clip-rule="evenodd"/></clipPath></defs><title>svg_edit-title</title><path d="M7.81,11.82,9.72,9.91,6.91,2H4.15L0,13.64H2.54l.79-2.4H7.62ZM4,9.24,5.5,4.66,7,9.24ZM19.42,5.63A2,2,0,0,0,18,5a2,2,0,0,0-1.38.56h0l-8.8,8.8L6,19l4.65-1.78,8.8-8.8h0A2,2,0,0,0,19.42,5.63Zm-.71,2.12a1,1,0,0,1-1.42,0,1,1,0,0,1,0-1.42,1,1,0,0,1,1.42,0A1,1,0,0,1,18.71,7.75Z"/></svg>