<svg id="Layer_1" data-name="Layer 1" xmlns="http://www.w3.org/2000/svg" xmlns:xlink="http://www.w3.org/1999/xlink" viewBox="0 0 20 20"><defs><clipPath id="clip-path"><circle cx="-250" cy="-336" r="23" fill="none"/></clipPath><clipPath id="clip-path-2"><path d="M-246.29-326.75l-.56-2.36a6.67,6.67,0,0,0,5.15-6.52,6.65,6.65,0,0,0-5.15-6.51l.56-2.37a9.09,9.09,0,0,1,7,8.88,9.09,9.09,0,0,1-7,8.88" fill="none" clip-rule="evenodd"/></clipPath><clipPath id="clip-path-3"><path d="M-247.5-331l-.56-2.37a2.26,2.26,0,0,0,1.75-2.21,2.26,2.26,0,0,0-1.75-2.22l.56-2.37a4.69,4.69,0,0,1,3.62,4.59A4.69,4.69,0,0,1-247.5-331" fill="none" clip-rule="evenodd"/></clipPath><clipPath id="clip-path-4"><polygon points="-256.3 -339.28 -261.17 -339.28 -261.17 -331.98 -256.3 -331.98 -250.22 -327.19 -250.22 -344.07 -256.3 -339.28" fill="none" clip-rule="evenodd"/></clipPath><clipPath id="clip-path-5"><circle cx="-219" cy="-356" r="23" fill="none"/></clipPath><clipPath id="clip-path-6"><path d="M-215.29-346.75l-.56-2.36a6.67,6.67,0,0,0,5.15-6.52,6.65,6.65,0,0,0-5.15-6.51l.56-2.37a9.09,9.09,0,0,1,7,8.88,9.09,9.09,0,0,1-7,8.88" fill="none" clip-rule="evenodd"/></clipPath><clipPath id="clip-path-7"><path d="M-216.5-351l-.56-2.37a2.26,2.26,0,0,0,1.75-2.21,2.26,2.26,0,0,0-1.75-2.22l.56-2.37a4.69,4.69,0,0,1,3.62,4.59A4.69,4.69,0,0,1-216.5-351" fill="none" clip-rule="evenodd"/></clipPath><clipPath id="clip-path-8"><polygon points="-225.3 -359.28 -230.17 -359.28 -230.17 -351.98 -225.3 -351.98 -219.22 -347.19 -219.22 -364.07 -225.3 -359.28" fill="none" clip-rule="evenodd"/></clipPath></defs><title>svg_skip-forward</title><path d="M15,4a1,1,0,0,0-1,1V15a1,1,0,0,0,2,0V5A1,1,0,0,0,15,4Z"/><path d="M12.15,9.47,5.85,5.53C5.38,5.24,5,5.45,5,6v8c0,.55.38.76.85.47l6.3-3.94A.57.57,0,0,0,12.15,9.47Z"/></svg>