<svg id="Layer_1" data-name="Layer 1" xmlns="http://www.w3.org/2000/svg" xmlns:xlink="http://www.w3.org/1999/xlink" viewBox="0 0 20 20"><defs><clipPath id="clip-path"><circle cx="-470" cy="-366" r="23" fill="none"/></clipPath><clipPath id="clip-path-2"><path d="M-466.29-356.75l-.56-2.36a6.67,6.67,0,0,0,5.15-6.52,6.65,6.65,0,0,0-5.15-6.51l.56-2.37a9.09,9.09,0,0,1,7,8.88,9.09,9.09,0,0,1-7,8.88" fill="none" clip-rule="evenodd"/></clipPath><clipPath id="clip-path-3"><path d="M-467.5-361l-.56-2.37a2.26,2.26,0,0,0,1.75-2.21,2.26,2.26,0,0,0-1.75-2.22l.56-2.37a4.69,4.69,0,0,1,3.62,4.59A4.69,4.69,0,0,1-467.5-361" fill="none" clip-rule="evenodd"/></clipPath><clipPath id="clip-path-4"><polygon points="-476.3 -369.28 -481.17 -369.28 -481.17 -361.98 -476.3 -361.98 -470.22 -357.19 -470.22 -374.07 -476.3 -369.28" fill="none" clip-rule="evenodd"/></clipPath><clipPath id="clip-path-5"><circle cx="-439" cy="-386" r="23" fill="none"/></clipPath><clipPath id="clip-path-6"><path d="M-435.29-376.75l-.56-2.36a6.67,6.67,0,0,0,5.15-6.52,6.65,6.65,0,0,0-5.15-6.51l.56-2.37a9.09,9.09,0,0,1,7,8.88,9.09,9.09,0,0,1-7,8.88" fill="none" clip-rule="evenodd"/></clipPath><clipPath id="clip-path-7"><path d="M-436.5-381l-.56-2.37a2.26,2.26,0,0,0,1.75-2.21,2.26,2.26,0,0,0-1.75-2.22l.56-2.37a4.69,4.69,0,0,1,3.62,4.59A4.69,4.69,0,0,1-436.5-381" fill="none" clip-rule="evenodd"/></clipPath><clipPath id="clip-path-8"><polygon points="-445.3 -389.28 -450.17 -389.28 -450.17 -381.98 -445.3 -381.98 -439.22 -377.19 -439.22 -394.07 -445.3 -389.28" fill="none" clip-rule="evenodd"/></clipPath></defs><title>svg_recital</title><path d="M10,12a3,3,0,0,0,3-3V3A3,3,0,0,0,7,3V9A3,3,0,0,0,10,12Z"/><path d="M15,7.4a.6.6,0,0,0-.6.6V9A4.4,4.4,0,0,1,5.6,9V8A.6.6,0,0,0,4.4,8V9A5.61,5.61,0,0,0,9,14.51V19a1,1,0,0,0,2,0V14.51A5.61,5.61,0,0,0,15.6,9V8A.6.6,0,0,0,15,7.4Z"/></svg>