<?xml version="1.0" encoding="utf-8"?>
<!-- Generator: Adobe Illustrator 22.0.1, SVG Export Plug-In . SVG Version: 6.00 Build 0)  -->
<svg version="1.1" id="Layer_1" xmlns="http://www.w3.org/2000/svg" xmlns:xlink="http://www.w3.org/1999/xlink" x="0px" y="0px"
	 viewBox="0 0 20 20" style="enable-background:new 0 0 20 20;" xml:space="preserve">
<style type="text/css">
	.st0{fill-rule:evenodd;clip-rule:evenodd;}
	.st1{fill:#010202;}
</style>
<path class="st0" d="M17.2,13H2.8C2.4,13,2,13.4,2,14v2c0,0.5,0.4,1,0.8,1h14.4c0.4,0,0.8-0.5,0.8-1v-2C18,13.4,17.6,13,17.2,13z
	 M3,16h2v-2H3V16z M17.2,3H2.8C2.4,3,2,3.4,2,4v2c0,0.6,0.4,1,0.8,1h14.4C17.6,7,18,6.6,18,6V4C18,3.4,17.6,3,17.2,3z M3,6h2V4H3V6z
	 M17.2,8H2.8C2.4,8,2,8.4,2,9v2c0,0.6,0.4,1,0.8,1h14.4c0.4,0,0.8-0.4,0.8-1V9C18,8.4,17.6,8,17.2,8z M3,11h2V9H3V11z"/>
</svg>
