<svg id="Layer_1" data-name="Layer 1" xmlns="http://www.w3.org/2000/svg" xmlns:xlink="http://www.w3.org/1999/xlink" viewBox="0 0 20 20"><defs><clipPath id="clip-path"><circle cx="-280" cy="-466" r="23" fill="none"/></clipPath><clipPath id="clip-path-2"><path d="M-276.29-456.75l-.56-2.36a6.67,6.67,0,0,0,5.15-6.52,6.65,6.65,0,0,0-5.15-6.51l.56-2.37a9.09,9.09,0,0,1,7,8.88,9.09,9.09,0,0,1-7,8.88" fill="none" clip-rule="evenodd"/></clipPath><clipPath id="clip-path-3"><path d="M-277.5-461l-.56-2.37a2.26,2.26,0,0,0,1.75-2.21,2.26,2.26,0,0,0-1.75-2.22l.56-2.37a4.69,4.69,0,0,1,3.62,4.59A4.69,4.69,0,0,1-277.5-461" fill="none" clip-rule="evenodd"/></clipPath><clipPath id="clip-path-4"><polygon points="-286.3 -469.28 -291.17 -469.28 -291.17 -461.98 -286.3 -461.98 -280.22 -457.19 -280.22 -474.07 -286.3 -469.28" fill="none" clip-rule="evenodd"/></clipPath><clipPath id="clip-path-5"><circle cx="-249" cy="-486" r="23" fill="none"/></clipPath><clipPath id="clip-path-6"><path d="M-245.29-476.75l-.56-2.36a6.67,6.67,0,0,0,5.15-6.52,6.65,6.65,0,0,0-5.15-6.51l.56-2.37a9.09,9.09,0,0,1,7,8.88,9.09,9.09,0,0,1-7,8.88" fill="none" clip-rule="evenodd"/></clipPath><clipPath id="clip-path-7"><path d="M-246.5-481l-.56-2.37a2.26,2.26,0,0,0,1.75-2.21,2.26,2.26,0,0,0-1.75-2.22l.56-2.37a4.69,4.69,0,0,1,3.62,4.59A4.69,4.69,0,0,1-246.5-481" fill="none" clip-rule="evenodd"/></clipPath><clipPath id="clip-path-8"><polygon points="-255.3 -489.28 -260.17 -489.28 -260.17 -481.98 -255.3 -481.98 -249.22 -477.19 -249.22 -494.07 -255.3 -489.28" fill="none" clip-rule="evenodd"/></clipPath></defs><title>svg_calendar</title><path d="M17,2H16V4a2,2,0,0,1-4,0V2H8V4A2,2,0,0,1,4,4V2H3A1,1,0,0,0,2,3V17a1,1,0,0,0,1,1H17a1,1,0,0,0,1-1V3A1,1,0,0,0,17,2ZM9.13,14.64a3.26,3.26,0,0,1-2,.59,3.12,3.12,0,0,1-1.85-.56,1.76,1.76,0,0,1-.77-1.6v0h1.7a.76.76,0,0,0,.29.6,1,1,0,0,0,.68.25,1,1,0,0,0,.73-.26A.86.86,0,0,0,8.18,13a1,1,0,0,0-.28-.8,1.22,1.22,0,0,0-.81-.25H6.27V10.64h.82a1,1,0,0,0,.72-.26.93.93,0,0,0,.26-.7.88.88,0,0,0-.23-.6.86.86,0,0,0-.66-.24,1,1,0,0,0-.6.2.61.61,0,0,0-.26.5H4.63v0a1.64,1.64,0,0,1,.71-1.45A2.89,2.89,0,0,1,7.12,7.5a3.16,3.16,0,0,1,2,.56A1.87,1.87,0,0,1,9.8,9.65a1.56,1.56,0,0,1-.31.94,2.1,2.1,0,0,1-.85.67,2,2,0,0,1,.94.67A1.77,1.77,0,0,1,9.92,13,1.92,1.92,0,0,1,9.13,14.64Zm5.37.48H12.76V9.36H11.08V8.13L14.5,7.6Z"/><path d="M6,5A1,1,0,0,1,5,4V1A1,1,0,0,1,7,1V4A1,1,0,0,1,6,5Z"/><path d="M14,5a1,1,0,0,1-1-1V1a1,1,0,0,1,2,0V4A1,1,0,0,1,14,5Z"/></svg>