<svg id="Layer_1" data-name="Layer 1" xmlns="http://www.w3.org/2000/svg" xmlns:xlink="http://www.w3.org/1999/xlink" viewBox="0 0 20 20"><defs><clipPath id="clip-path"><circle cx="-310" cy="-566" r="23" fill="none"/></clipPath><clipPath id="clip-path-2"><path d="M-306.29-556.75l-.56-2.36a6.67,6.67,0,0,0,5.15-6.52,6.65,6.65,0,0,0-5.15-6.51l.56-2.37a9.09,9.09,0,0,1,7,8.88,9.09,9.09,0,0,1-7,8.88" fill="none" clip-rule="evenodd"/></clipPath><clipPath id="clip-path-3"><path d="M-307.5-561l-.56-2.37a2.26,2.26,0,0,0,1.75-2.21,2.26,2.26,0,0,0-1.75-2.22l.56-2.37a4.69,4.69,0,0,1,3.62,4.59A4.69,4.69,0,0,1-307.5-561" fill="none" clip-rule="evenodd"/></clipPath><clipPath id="clip-path-4"><polygon points="-316.3 -569.28 -321.17 -569.28 -321.17 -561.98 -316.3 -561.98 -310.22 -557.19 -310.22 -574.07 -316.3 -569.28" fill="none" clip-rule="evenodd"/></clipPath><clipPath id="clip-path-5"><circle cx="-279" cy="-586" r="23" fill="none"/></clipPath><clipPath id="clip-path-6"><path d="M-275.29-576.75l-.56-2.36a6.67,6.67,0,0,0,5.15-6.52,6.65,6.65,0,0,0-5.15-6.51l.56-2.37a9.09,9.09,0,0,1,7,8.88,9.09,9.09,0,0,1-7,8.88" fill="none" clip-rule="evenodd"/></clipPath><clipPath id="clip-path-7"><path d="M-276.5-581l-.56-2.37a2.26,2.26,0,0,0,1.75-2.21,2.26,2.26,0,0,0-1.75-2.22l.56-2.37a4.69,4.69,0,0,1,3.62,4.59A4.69,4.69,0,0,1-276.5-581" fill="none" clip-rule="evenodd"/></clipPath><clipPath id="clip-path-8"><polygon points="-285.3 -589.28 -290.17 -589.28 -290.17 -581.98 -285.3 -581.98 -279.22 -577.19 -279.22 -594.07 -285.3 -589.28" fill="none" clip-rule="evenodd"/></clipPath></defs><title>svg_hide</title><path d="M15,13.5,10,10l5-3.5ZM5,17H7V3H5Z"/></svg>