<svg id="Layer_1" data-name="Layer 1" xmlns="http://www.w3.org/2000/svg" viewBox="0 0 20 20"><title>svg_status</title><path d="M10.68,9.42,5,2.8H15L11.28,7.46a.88.88,0,0,0,.13,1.26.9.9,0,0,0,1.27-.13l3.91-4.85a1.69,1.69,0,0,0,.35-1.85A1.67,1.67,0,0,0,15.28,1H4.72a1.66,1.66,0,0,0-1.66.89,1.68,1.68,0,0,0,.4,1.84l5.86,6.85L15,17.2H5l3.75-4.66a.9.9,0,0,0-.13-1.27.91.91,0,0,0-1.27.14L3.41,16.26a1.69,1.69,0,0,0-.35,1.85A1.67,1.67,0,0,0,4.72,19H15.28a1.66,1.66,0,0,0,1.66-.89,1.68,1.68,0,0,0-.4-1.84Z"/></svg>