<svg id="Layer_1" data-name="Layer 1" xmlns="http://www.w3.org/2000/svg" xmlns:xlink="http://www.w3.org/1999/xlink" viewBox="0 0 20 20"><defs><clipPath id="clip-path"><circle cx="-310" cy="-466" r="23" fill="none"/></clipPath><clipPath id="clip-path-2"><path d="M-306.29-456.75l-.56-2.36a6.67,6.67,0,0,0,5.15-6.52,6.65,6.65,0,0,0-5.15-6.51l.56-2.37a9.09,9.09,0,0,1,7,8.88,9.09,9.09,0,0,1-7,8.88" fill="none" clip-rule="evenodd"/></clipPath><clipPath id="clip-path-3"><path d="M-307.5-461l-.56-2.37a2.26,2.26,0,0,0,1.75-2.21,2.26,2.26,0,0,0-1.75-2.22l.56-2.37a4.69,4.69,0,0,1,3.62,4.59A4.69,4.69,0,0,1-307.5-461" fill="none" clip-rule="evenodd"/></clipPath><clipPath id="clip-path-4"><polygon points="-316.3 -469.28 -321.17 -469.28 -321.17 -461.98 -316.3 -461.98 -310.22 -457.19 -310.22 -474.07 -316.3 -469.28" fill="none" clip-rule="evenodd"/></clipPath><clipPath id="clip-path-5"><circle cx="-279" cy="-486" r="23" fill="none"/></clipPath><clipPath id="clip-path-6"><path d="M-275.29-476.75l-.56-2.36a6.67,6.67,0,0,0,5.15-6.52,6.65,6.65,0,0,0-5.15-6.51l.56-2.37a9.09,9.09,0,0,1,7,8.88,9.09,9.09,0,0,1-7,8.88" fill="none" clip-rule="evenodd"/></clipPath><clipPath id="clip-path-7"><path d="M-276.5-481l-.56-2.37a2.26,2.26,0,0,0,1.75-2.21,2.26,2.26,0,0,0-1.75-2.22l.56-2.37a4.69,4.69,0,0,1,3.62,4.59A4.69,4.69,0,0,1-276.5-481" fill="none" clip-rule="evenodd"/></clipPath><clipPath id="clip-path-8"><polygon points="-285.3 -489.28 -290.17 -489.28 -290.17 -481.98 -285.3 -481.98 -279.22 -477.19 -279.22 -494.07 -285.3 -489.28" fill="none" clip-rule="evenodd"/></clipPath></defs><title>svg_changelog</title><path d="M16.1,15a6.94,6.94,0,0,1-5,2.05H11a1,1,0,0,1,0-2h0A5,5,0,1,0,7.61,6.46l-.07.08L10,9H4V3L6.12,5.12l.08-.07A7,7,0,0,1,16.1,15ZM7,15a1,1,0,1,0,1,1A1,1,0,0,0,7,15ZM3,15a1,1,0,1,0,1,1A1,1,0,0,0,3,15Z"/></svg>