<svg id="Layer_1" data-name="Layer 1" xmlns="http://www.w3.org/2000/svg" xmlns:xlink="http://www.w3.org/1999/xlink" viewBox="0 0 48 48"><defs><clipPath id="clip-path"><circle cx="-370" cy="-228" r="23" fill="none"/></clipPath><clipPath id="clip-path-2"><path d="M-366.29-218.75l-.56-2.36a6.67,6.67,0,0,0,5.15-6.52,6.65,6.65,0,0,0-5.15-6.51l.56-2.37a9.09,9.09,0,0,1,7,8.88,9.09,9.09,0,0,1-7,8.88" fill="none" clip-rule="evenodd"/></clipPath><clipPath id="clip-path-3"><path d="M-367.5-223l-.56-2.37a2.26,2.26,0,0,0,1.75-2.21,2.26,2.26,0,0,0-1.75-2.22l.56-2.37a4.69,4.69,0,0,1,3.62,4.59A4.69,4.69,0,0,1-367.5-223" fill="none" clip-rule="evenodd"/></clipPath><clipPath id="clip-path-4"><polygon points="-376.3 -231.28 -381.17 -231.28 -381.17 -223.98 -376.3 -223.98 -370.22 -219.19 -370.22 -236.07 -376.3 -231.28" fill="none" clip-rule="evenodd"/></clipPath><clipPath id="clip-path-5"><circle cx="-339" cy="-248" r="23" fill="none"/></clipPath><clipPath id="clip-path-6"><path d="M-335.29-238.75l-.56-2.36a6.67,6.67,0,0,0,5.15-6.52,6.65,6.65,0,0,0-5.15-6.51l.56-2.37a9.09,9.09,0,0,1,7,8.88,9.09,9.09,0,0,1-7,8.88" fill="none" clip-rule="evenodd"/></clipPath><clipPath id="clip-path-7"><path d="M-336.5-243l-.56-2.37a2.26,2.26,0,0,0,1.75-2.21,2.26,2.26,0,0,0-1.75-2.22l.56-2.37a4.69,4.69,0,0,1,3.62,4.59A4.69,4.69,0,0,1-336.5-243" fill="none" clip-rule="evenodd"/></clipPath><clipPath id="clip-path-8"><polygon points="-345.3 -251.28 -350.17 -251.28 -350.17 -243.98 -345.3 -243.98 -339.22 -239.19 -339.22 -256.07 -345.3 -251.28" fill="none" clip-rule="evenodd"/></clipPath></defs><title>svg_play-48px</title><path d="M21.78,29.78c-.92.52-1.67.08-1.67-1V19.19c0-1.05.75-1.49,1.67-1l8.53,4.83a1,1,0,0,1,0,1.9ZM24,1.4A22.6,22.6,0,1,1,1.4,24,22.63,22.63,0,0,1,24,1.4M24,0A24,24,0,1,0,48,24,24,24,0,0,0,24,0Z"/></svg>