<svg id="Layer_1" data-name="Layer 1" xmlns="http://www.w3.org/2000/svg" xmlns:xlink="http://www.w3.org/1999/xlink" viewBox="0 0 20 20"><defs><clipPath id="clip-path"><circle cx="-250" cy="-496" r="23" fill="none"/></clipPath><clipPath id="clip-path-2"><path d="M-246.29-486.75l-.56-2.36a6.67,6.67,0,0,0,5.15-6.52,6.65,6.65,0,0,0-5.15-6.51l.56-2.37a9.09,9.09,0,0,1,7,8.88,9.09,9.09,0,0,1-7,8.88" fill="none" clip-rule="evenodd"/></clipPath><clipPath id="clip-path-3"><path d="M-247.5-491l-.56-2.37a2.26,2.26,0,0,0,1.75-2.21,2.26,2.26,0,0,0-1.75-2.22l.56-2.37a4.69,4.69,0,0,1,3.62,4.59A4.69,4.69,0,0,1-247.5-491" fill="none" clip-rule="evenodd"/></clipPath><clipPath id="clip-path-4"><polygon points="-256.3 -499.28 -261.17 -499.28 -261.17 -491.98 -256.3 -491.98 -250.22 -487.19 -250.22 -504.07 -256.3 -499.28" fill="none" clip-rule="evenodd"/></clipPath><clipPath id="clip-path-5"><circle cx="-219" cy="-516" r="23" fill="none"/></clipPath><clipPath id="clip-path-6"><path d="M-215.29-506.75l-.56-2.36a6.67,6.67,0,0,0,5.15-6.52,6.65,6.65,0,0,0-5.15-6.51l.56-2.37a9.09,9.09,0,0,1,7,8.88,9.09,9.09,0,0,1-7,8.88" fill="none" clip-rule="evenodd"/></clipPath><clipPath id="clip-path-7"><path d="M-216.5-511l-.56-2.37a2.26,2.26,0,0,0,1.75-2.21,2.26,2.26,0,0,0-1.75-2.22l.56-2.37a4.69,4.69,0,0,1,3.62,4.59A4.69,4.69,0,0,1-216.5-511" fill="none" clip-rule="evenodd"/></clipPath><clipPath id="clip-path-8"><polygon points="-225.3 -519.28 -230.17 -519.28 -230.17 -511.98 -225.3 -511.98 -219.22 -507.19 -219.22 -524.07 -225.3 -519.28" fill="none" clip-rule="evenodd"/></clipPath></defs><title>svg_checkbox-partial</title><path d="M16,1H4A3,3,0,0,0,1,4V16a3,3,0,0,0,3,3H16a3,3,0,0,0,3-3V4A3,3,0,0,0,16,1ZM10,12a2,2,0,1,1,2-2A2,2,0,0,1,10,12Z"/></svg>