<svg id="Layer_1" data-name="Layer 1" xmlns="http://www.w3.org/2000/svg" viewBox="0 0 20 20"><title>svg_listview-medium</title><path d="M18,4a1,1,0,0,0-1-1H10a1,1,0,0,0,0,2h7A1,1,0,0,0,18,4Z"/><path d="M16,7a1,1,0,0,0-1-1H10a1,1,0,0,0,0,2h5A1,1,0,0,0,16,7Z"/><path d="M18,13a1,1,0,0,0-1-1H10a1,1,0,0,0,0,2h7A1,1,0,0,0,18,13Z"/><path d="M16,16a1,1,0,0,0-1-1H10a1,1,0,0,0,0,2h5A1,1,0,0,0,16,16Z"/><rect x="2" y="3" width="5" height="5" rx="1" ry="1"/><rect x="2" y="12" width="5" height="5" rx="1" ry="1"/></svg>