<svg id="Layer_1" data-name="Layer 1" xmlns="http://www.w3.org/2000/svg" xmlns:xlink="http://www.w3.org/1999/xlink" viewBox="0 0 30 30"><defs><clipPath id="clip-path"><circle cx="-470" cy="-566" r="23" fill="none"/></clipPath><clipPath id="clip-path-2"><path d="M-466.29-556.75l-.56-2.36a6.67,6.67,0,0,0,5.15-6.52,6.65,6.65,0,0,0-5.15-6.51l.56-2.37a9.09,9.09,0,0,1,7,8.88,9.09,9.09,0,0,1-7,8.88" fill="none" clip-rule="evenodd"/></clipPath><clipPath id="clip-path-3"><path d="M-467.5-561l-.56-2.37a2.26,2.26,0,0,0,1.75-2.21,2.26,2.26,0,0,0-1.75-2.22l.56-2.37a4.69,4.69,0,0,1,3.62,4.59A4.69,4.69,0,0,1-467.5-561" fill="none" clip-rule="evenodd"/></clipPath><clipPath id="clip-path-4"><polygon points="-476.3 -569.28 -481.17 -569.28 -481.17 -561.98 -476.3 -561.98 -470.22 -557.19 -470.22 -574.07 -476.3 -569.28" fill="none" clip-rule="evenodd"/></clipPath><clipPath id="clip-path-5"><circle cx="-439" cy="-586" r="23" fill="none"/></clipPath><clipPath id="clip-path-6"><path d="M-435.29-576.75l-.56-2.36a6.67,6.67,0,0,0,5.15-6.52,6.65,6.65,0,0,0-5.15-6.51l.56-2.37a9.09,9.09,0,0,1,7,8.88,9.09,9.09,0,0,1-7,8.88" fill="none" clip-rule="evenodd"/></clipPath><clipPath id="clip-path-7"><path d="M-436.5-581l-.56-2.37a2.26,2.26,0,0,0,1.75-2.21,2.26,2.26,0,0,0-1.75-2.22l.56-2.37a4.69,4.69,0,0,1,3.62,4.59A4.69,4.69,0,0,1-436.5-581" fill="none" clip-rule="evenodd"/></clipPath><clipPath id="clip-path-8"><polygon points="-445.3 -589.28 -450.17 -589.28 -450.17 -581.98 -445.3 -581.98 -439.22 -577.19 -439.22 -594.07 -445.3 -589.28" fill="none" clip-rule="evenodd"/></clipPath></defs><title>svg_mobile</title><path d="M16.2,22.3A1.2,1.2,0,1,1,15,21.1,1.2,1.2,0,0,1,16.2,22.3ZM13,7h4V6H13ZM23,5V25a2,2,0,0,1-2,2H9a2,2,0,0,1-2-2V5A2,2,0,0,1,9,3H21A2,2,0,0,1,23,5ZM21.8,5a.82.82,0,0,0-.8-.8H9a.82.82,0,0,0-.8.8V25a.82.82,0,0,0,.8.8H21a.82.82,0,0,0,.8-.8Z"/></svg>