<svg id="Layer_1" data-name="Layer 1" xmlns="http://www.w3.org/2000/svg" xmlns:xlink="http://www.w3.org/1999/xlink" viewBox="0 0 30 30"><defs><clipPath id="clip-path"><circle cx="-300" cy="-286" r="23" fill="none"/></clipPath><clipPath id="clip-path-2"><path d="M-296.29-276.75l-.56-2.36a6.67,6.67,0,0,0,5.15-6.52,6.65,6.65,0,0,0-5.15-6.51l.56-2.37a9.09,9.09,0,0,1,7,8.88,9.09,9.09,0,0,1-7,8.88" fill="none" clip-rule="evenodd"/></clipPath><clipPath id="clip-path-3"><path d="M-297.5-281l-.56-2.37a2.26,2.26,0,0,0,1.75-2.21,2.26,2.26,0,0,0-1.75-2.22l.56-2.37a4.69,4.69,0,0,1,3.62,4.59A4.69,4.69,0,0,1-297.5-281" fill="none" clip-rule="evenodd"/></clipPath><clipPath id="clip-path-4"><polygon points="-306.3 -289.28 -311.17 -289.28 -311.17 -281.98 -306.3 -281.98 -300.22 -277.19 -300.22 -294.07 -306.3 -289.28" fill="none" clip-rule="evenodd"/></clipPath><clipPath id="clip-path-5"><circle cx="-269" cy="-306" r="23" fill="none"/></clipPath><clipPath id="clip-path-6"><path d="M-265.29-296.75l-.56-2.36a6.67,6.67,0,0,0,5.15-6.52,6.65,6.65,0,0,0-5.15-6.51l.56-2.37a9.09,9.09,0,0,1,7,8.88,9.09,9.09,0,0,1-7,8.88" fill="none" clip-rule="evenodd"/></clipPath><clipPath id="clip-path-7"><path d="M-266.5-301l-.56-2.37a2.26,2.26,0,0,0,1.75-2.21,2.26,2.26,0,0,0-1.75-2.22l.56-2.37a4.69,4.69,0,0,1,3.62,4.59A4.69,4.69,0,0,1-266.5-301" fill="none" clip-rule="evenodd"/></clipPath><clipPath id="clip-path-8"><polygon points="-275.3 -309.28 -280.17 -309.28 -280.17 -301.98 -275.3 -301.98 -269.22 -297.19 -269.22 -314.07 -275.3 -309.28" fill="none" clip-rule="evenodd"/></clipPath></defs><title>svg_play-cl-30px</title><path d="M13.21,18.82c-.66.4-1.21.1-1.21-.68V11.9a.78.78,0,0,1,1.25-.75l5.51,2.94c.68.36.7,1,0,1.39ZM15,1.1A13.9,13.9,0,1,1,1.1,15,13.92,13.92,0,0,1,15,1.1M15,0A15,15,0,1,0,30,15,15,15,0,0,0,15,0Z"/></svg>