<svg id="Layer_1" data-name="Layer 1" xmlns="http://www.w3.org/2000/svg" xmlns:xlink="http://www.w3.org/1999/xlink" viewBox="0 0 20 20"><defs><clipPath id="clip-path"><circle cx="-520" cy="-436" r="23" fill="none"/></clipPath><clipPath id="clip-path-2"><path d="M-516.29-426.75l-.56-2.36a6.67,6.67,0,0,0,5.15-6.52,6.65,6.65,0,0,0-5.15-6.51l.56-2.37a9.09,9.09,0,0,1,7,8.88,9.09,9.09,0,0,1-7,8.88" fill="none" clip-rule="evenodd"/></clipPath><clipPath id="clip-path-3"><path d="M-517.5-431l-.56-2.37a2.26,2.26,0,0,0,1.75-2.21,2.26,2.26,0,0,0-1.75-2.22l.56-2.37a4.69,4.69,0,0,1,3.62,4.59A4.69,4.69,0,0,1-517.5-431" fill="none" clip-rule="evenodd"/></clipPath><clipPath id="clip-path-4"><polygon points="-526.3 -439.28 -531.17 -439.28 -531.17 -431.98 -526.3 -431.98 -520.22 -427.19 -520.22 -444.07 -526.3 -439.28" fill="none" clip-rule="evenodd"/></clipPath><clipPath id="clip-path-5"><circle cx="-489" cy="-456" r="23" fill="none"/></clipPath><clipPath id="clip-path-6"><path d="M-485.29-446.75l-.56-2.36a6.67,6.67,0,0,0,5.15-6.52,6.65,6.65,0,0,0-5.15-6.51l.56-2.37a9.09,9.09,0,0,1,7,8.88,9.09,9.09,0,0,1-7,8.88" fill="none" clip-rule="evenodd"/></clipPath><clipPath id="clip-path-7"><path d="M-486.5-451l-.56-2.37a2.26,2.26,0,0,0,1.75-2.21,2.26,2.26,0,0,0-1.75-2.22l.56-2.37a4.69,4.69,0,0,1,3.62,4.59A4.69,4.69,0,0,1-486.5-451" fill="none" clip-rule="evenodd"/></clipPath><clipPath id="clip-path-8"><polygon points="-495.3 -459.28 -500.17 -459.28 -500.17 -451.98 -495.3 -451.98 -489.22 -447.19 -489.22 -464.07 -495.3 -459.28" fill="none" clip-rule="evenodd"/></clipPath></defs><title>svg_crop</title><path d="M19,13H15V6a1,1,0,0,0-1-1H7V1A1,1,0,0,0,5,1V5H1A1,1,0,0,0,1,7H5v7a1,1,0,0,0,1,1h7v4a1,1,0,0,0,2,0V15h4a1,1,0,0,0,0-2ZM7,13V7h6v6Z"/></svg>