<svg id="Layer_1" data-name="Layer 1" xmlns="http://www.w3.org/2000/svg" xmlns:xlink="http://www.w3.org/1999/xlink" viewBox="0 0 20 20"><defs><clipPath id="clip-path"><circle cx="-430" cy="-466" r="23" fill="none"/></clipPath><clipPath id="clip-path-2"><path d="M-426.29-456.75l-.56-2.36a6.67,6.67,0,0,0,5.15-6.52,6.65,6.65,0,0,0-5.15-6.51l.56-2.37a9.09,9.09,0,0,1,7,8.88,9.09,9.09,0,0,1-7,8.88" fill="none" clip-rule="evenodd"/></clipPath><clipPath id="clip-path-3"><path d="M-427.5-461l-.56-2.37a2.26,2.26,0,0,0,1.75-2.21,2.26,2.26,0,0,0-1.75-2.22l.56-2.37a4.69,4.69,0,0,1,3.62,4.59A4.69,4.69,0,0,1-427.5-461" fill="none" clip-rule="evenodd"/></clipPath><clipPath id="clip-path-4"><polygon points="-436.3 -469.28 -441.17 -469.28 -441.17 -461.98 -436.3 -461.98 -430.22 -457.19 -430.22 -474.07 -436.3 -469.28" fill="none" clip-rule="evenodd"/></clipPath><clipPath id="clip-path-5"><circle cx="-399" cy="-486" r="23" fill="none"/></clipPath><clipPath id="clip-path-6"><path d="M-395.29-476.75l-.56-2.36a6.67,6.67,0,0,0,5.15-6.52,6.65,6.65,0,0,0-5.15-6.51l.56-2.37a9.09,9.09,0,0,1,7,8.88,9.09,9.09,0,0,1-7,8.88" fill="none" clip-rule="evenodd"/></clipPath><clipPath id="clip-path-7"><path d="M-396.5-481l-.56-2.37a2.26,2.26,0,0,0,1.75-2.21,2.26,2.26,0,0,0-1.75-2.22l.56-2.37a4.69,4.69,0,0,1,3.62,4.59A4.69,4.69,0,0,1-396.5-481" fill="none" clip-rule="evenodd"/></clipPath><clipPath id="clip-path-8"><polygon points="-405.3 -489.28 -410.17 -489.28 -410.17 -481.98 -405.3 -481.98 -399.22 -477.19 -399.22 -494.07 -405.3 -489.28" fill="none" clip-rule="evenodd"/></clipPath></defs><title>svg_show-details</title><path d="M13,6H1A1,1,0,0,1,1,4H13a1,1,0,0,1,0,2Z"/><path d="M19,11H5A1,1,0,0,1,5,9H19a1,1,0,0,1,0,2Z"/><path d="M13,16H1a1,1,0,0,1,0-2H13a1,1,0,0,1,0,2Z"/></svg>