<?xml version="1.0" encoding="utf-8"?>
<!-- Generator: Adobe Illustrator 22.0.1, SVG Export Plug-In . SVG Version: 6.00 Build 0)  -->
<svg version="1.1" id="Layer_1" xmlns="http://www.w3.org/2000/svg" xmlns:xlink="http://www.w3.org/1999/xlink" x="0px" y="0px"
	 viewBox="0 0 20 20" style="enable-background:new 0 0 20 20;" xml:space="preserve">
<style type="text/css">
	.st0{fill-rule:evenodd;clip-rule:evenodd;}
	.st1{fill:#010202;}
</style>
<path class="st0" d="M8.8,9H0.1C0,8.7,0,8.3,0,8c0-3.5,2-6,5-6s5,3,5,3.5C10,5,12,2,15,2s5,2.5,5,6c0,0.3,0,0.7-0.1,1.1
	c0,0-0.1,0-0.1,0h-3.6l-1.8-2.7C14.2,6.1,13.9,6,13.7,6c-0.3,0-0.5,0.2-0.6,0.5l-2.3,6.2L9.4,9.5C9.3,9.2,9.1,9,8.8,9z M15.8,10.5
	h3.6c-1.9,4.3-7.7,8.4-9.4,8.4s-7.5-4.2-9.4-8.4h7.6l1.8,4.5c0.1,0.3,0.4,0.5,0.7,0.5h0c0.3,0,0.6-0.2,0.7-0.5l2.5-6.6l1.2,1.8
	C15.3,10.4,15.5,10.5,15.8,10.5z"/>
</svg>
