<svg id="Layer_1" data-name="Layer 1" xmlns="http://www.w3.org/2000/svg" xmlns:xlink="http://www.w3.org/1999/xlink" viewBox="0 0 20 20"><defs><clipPath id="clip-path"><circle cx="-400" cy="-406" r="23" fill="none"/></clipPath><clipPath id="clip-path-2"><path d="M-396.29-396.75l-.56-2.36a6.67,6.67,0,0,0,5.15-6.52,6.65,6.65,0,0,0-5.15-6.51l.56-2.37a9.09,9.09,0,0,1,7,8.88,9.09,9.09,0,0,1-7,8.88" fill="none" clip-rule="evenodd"/></clipPath><clipPath id="clip-path-3"><path d="M-397.5-401l-.56-2.37a2.26,2.26,0,0,0,1.75-2.21,2.26,2.26,0,0,0-1.75-2.22l.56-2.37a4.69,4.69,0,0,1,3.62,4.59A4.69,4.69,0,0,1-397.5-401" fill="none" clip-rule="evenodd"/></clipPath><clipPath id="clip-path-4"><polygon points="-406.3 -409.28 -411.17 -409.28 -411.17 -401.98 -406.3 -401.98 -400.22 -397.19 -400.22 -414.07 -406.3 -409.28" fill="none" clip-rule="evenodd"/></clipPath><clipPath id="clip-path-5"><circle cx="-369" cy="-426" r="23" fill="none"/></clipPath><clipPath id="clip-path-6"><path d="M-365.29-416.75l-.56-2.36a6.67,6.67,0,0,0,5.15-6.52,6.65,6.65,0,0,0-5.15-6.51l.56-2.37a9.09,9.09,0,0,1,7,8.88,9.09,9.09,0,0,1-7,8.88" fill="none" clip-rule="evenodd"/></clipPath><clipPath id="clip-path-7"><path d="M-366.5-421l-.56-2.37a2.26,2.26,0,0,0,1.75-2.21,2.26,2.26,0,0,0-1.75-2.22l.56-2.37a4.69,4.69,0,0,1,3.62,4.59A4.69,4.69,0,0,1-366.5-421" fill="none" clip-rule="evenodd"/></clipPath><clipPath id="clip-path-8"><polygon points="-375.3 -429.28 -380.17 -429.28 -380.17 -421.98 -375.3 -421.98 -369.22 -417.19 -369.22 -434.07 -375.3 -429.28" fill="none" clip-rule="evenodd"/></clipPath></defs><title>svg_edit</title><path d="M18.27,1.73a2.49,2.49,0,0,0-3.49,0h0L3.46,13,1,19l6-2.46L18.31,5.22h0A2.5,2.5,0,0,0,18.27,1.73Zm-2.65.89a1.22,1.22,0,0,1,.88-.37,1.24,1.24,0,0,1,.89.37,1.26,1.26,0,0,1,0,1.76,1.24,1.24,0,0,1-.89.37,1.22,1.22,0,0,1-.88-.37A1.24,1.24,0,0,1,15.62,2.62Z"/></svg>