<svg id="Layer_1" data-name="Layer 1" xmlns="http://www.w3.org/2000/svg" xmlns:xlink="http://www.w3.org/1999/xlink" viewBox="0 0 20 20"><defs><clipPath id="clip-path"><circle cx="-430" cy="-436" r="23" fill="none"/></clipPath><clipPath id="clip-path-2"><path d="M-426.29-426.75l-.56-2.36a6.67,6.67,0,0,0,5.15-6.52,6.65,6.65,0,0,0-5.15-6.51l.56-2.37a9.09,9.09,0,0,1,7,8.88,9.09,9.09,0,0,1-7,8.88" fill="none" clip-rule="evenodd"/></clipPath><clipPath id="clip-path-3"><path d="M-427.5-431l-.56-2.37a2.26,2.26,0,0,0,1.75-2.21,2.26,2.26,0,0,0-1.75-2.22l.56-2.37a4.69,4.69,0,0,1,3.62,4.59A4.69,4.69,0,0,1-427.5-431" fill="none" clip-rule="evenodd"/></clipPath><clipPath id="clip-path-4"><polygon points="-436.3 -439.28 -441.17 -439.28 -441.17 -431.98 -436.3 -431.98 -430.22 -427.19 -430.22 -444.07 -436.3 -439.28" fill="none" clip-rule="evenodd"/></clipPath><clipPath id="clip-path-5"><circle cx="-399" cy="-456" r="23" fill="none"/></clipPath><clipPath id="clip-path-6"><path d="M-395.29-446.75l-.56-2.36a6.67,6.67,0,0,0,5.15-6.52,6.65,6.65,0,0,0-5.15-6.51l.56-2.37a9.09,9.09,0,0,1,7,8.88,9.09,9.09,0,0,1-7,8.88" fill="none" clip-rule="evenodd"/></clipPath><clipPath id="clip-path-7"><path d="M-396.5-451l-.56-2.37a2.26,2.26,0,0,0,1.75-2.21,2.26,2.26,0,0,0-1.75-2.22l.56-2.37a4.69,4.69,0,0,1,3.62,4.59A4.69,4.69,0,0,1-396.5-451" fill="none" clip-rule="evenodd"/></clipPath><clipPath id="clip-path-8"><polygon points="-405.3 -459.28 -410.17 -459.28 -410.17 -451.98 -405.3 -451.98 -399.22 -447.19 -399.22 -464.07 -405.3 -459.28" fill="none" clip-rule="evenodd"/></clipPath></defs><title>svg_forbidden</title><path d="M10,1a9,9,0,1,0,9,9A9,9,0,0,0,10,1ZM3,10a6.89,6.89,0,0,1,1.4-4.18l9.78,9.78A7,7,0,0,1,3,10ZM15.6,14.18,5.82,4.4A7,7,0,0,1,17,10,6.9,6.9,0,0,1,15.6,14.18Z"/></svg>