<svg id="Layer_1" data-name="Layer 1" xmlns="http://www.w3.org/2000/svg" xmlns:xlink="http://www.w3.org/1999/xlink" viewBox="0 0 30 30"><defs><clipPath id="clip-path"><circle cx="-580" cy="-366" r="23" fill="none"/></clipPath><clipPath id="clip-path-2"><path d="M-576.29-356.75l-.56-2.36a6.67,6.67,0,0,0,5.15-6.52,6.65,6.65,0,0,0-5.15-6.51l.56-2.37a9.09,9.09,0,0,1,7,8.88,9.09,9.09,0,0,1-7,8.88" fill="none" clip-rule="evenodd"/></clipPath><clipPath id="clip-path-3"><path d="M-577.5-361l-.56-2.37a2.26,2.26,0,0,0,1.75-2.21,2.26,2.26,0,0,0-1.75-2.22l.56-2.37a4.69,4.69,0,0,1,3.62,4.59A4.69,4.69,0,0,1-577.5-361" fill="none" clip-rule="evenodd"/></clipPath><clipPath id="clip-path-4"><polygon points="-586.3 -369.28 -591.17 -369.28 -591.17 -361.98 -586.3 -361.98 -580.22 -357.19 -580.22 -374.07 -586.3 -369.28" fill="none" clip-rule="evenodd"/></clipPath><clipPath id="clip-path-5"><circle cx="-549" cy="-386" r="23" fill="none"/></clipPath><clipPath id="clip-path-6"><path d="M-545.29-376.75l-.56-2.36a6.67,6.67,0,0,0,5.15-6.52,6.65,6.65,0,0,0-5.15-6.51l.56-2.37a9.09,9.09,0,0,1,7,8.88,9.09,9.09,0,0,1-7,8.88" fill="none" clip-rule="evenodd"/></clipPath><clipPath id="clip-path-7"><path d="M-546.5-381l-.56-2.37a2.26,2.26,0,0,0,1.75-2.21,2.26,2.26,0,0,0-1.75-2.22l.56-2.37a4.69,4.69,0,0,1,3.62,4.59A4.69,4.69,0,0,1-546.5-381" fill="none" clip-rule="evenodd"/></clipPath><clipPath id="clip-path-8"><polygon points="-555.3 -389.28 -560.17 -389.28 -560.17 -381.98 -555.3 -381.98 -549.22 -377.19 -549.22 -394.07 -555.3 -389.28" fill="none" clip-rule="evenodd"/></clipPath></defs><title>svg_alert</title><path d="M13,22a2,2,0,0,0,4,0H13Z"/><path d="M22,18l-.91-6a6.17,6.17,0,0,0-4.22-5.28,2,2,0,0,0-3.74,0A6.17,6.17,0,0,0,8.91,12L8,18a2,2,0,0,1-2,2v1H24V20A2,2,0,0,1,22,18Z"/></svg>