<svg id="Layer_1" data-name="Layer 1" xmlns="http://www.w3.org/2000/svg" viewBox="0 0 20 20"><title>svg_new-cl</title><path d="M18,2H2A2,2,0,0,0,0,4V16a2,2,0,0,0,2,2H18a2,2,0,0,0,2-2V4A2,2,0,0,0,18,2Zm1,14a1,1,0,0,1-1,1H2a1,1,0,0,1-1-1V4A1,1,0,0,1,2,3H18a1,1,0,0,1,1,1ZM10.06,7v6a1,1,0,0,1-1.77.64L5.06,9.76V13a1,1,0,0,1-2,0V7a1,1,0,0,1,.66-.94,1,1,0,0,1,1.11.3l3.23,3.88V7a1,1,0,0,1,2,0ZM17,7.45l-1.89,3.79V13a1,1,0,0,1-2,0V11.24l-1.9-3.79A1,1,0,0,1,13,6.55l1.11,2.21,1.1-2.21a1,1,0,0,1,1.34-.44A1,1,0,0,1,17,7.45Z"/></svg>