<svg id="Layer_1" data-name="Layer 1" xmlns="http://www.w3.org/2000/svg" xmlns:xlink="http://www.w3.org/1999/xlink" viewBox="0 0 20 20"><defs><clipPath id="clip-path"><circle cx="-460" cy="-466" r="23" fill="none"/></clipPath><clipPath id="clip-path-2"><path d="M-456.29-456.75l-.56-2.36a6.67,6.67,0,0,0,5.15-6.52,6.65,6.65,0,0,0-5.15-6.51l.56-2.37a9.09,9.09,0,0,1,7,8.88,9.09,9.09,0,0,1-7,8.88" fill="none" clip-rule="evenodd"/></clipPath><clipPath id="clip-path-3"><path d="M-457.5-461l-.56-2.37a2.26,2.26,0,0,0,1.75-2.21,2.26,2.26,0,0,0-1.75-2.22l.56-2.37a4.69,4.69,0,0,1,3.62,4.59A4.69,4.69,0,0,1-457.5-461" fill="none" clip-rule="evenodd"/></clipPath><clipPath id="clip-path-4"><polygon points="-466.3 -469.28 -471.17 -469.28 -471.17 -461.98 -466.3 -461.98 -460.22 -457.19 -460.22 -474.07 -466.3 -469.28" fill="none" clip-rule="evenodd"/></clipPath><clipPath id="clip-path-5"><circle cx="-429" cy="-486" r="23" fill="none"/></clipPath><clipPath id="clip-path-6"><path d="M-425.29-476.75l-.56-2.36a6.67,6.67,0,0,0,5.15-6.52,6.65,6.65,0,0,0-5.15-6.51l.56-2.37a9.09,9.09,0,0,1,7,8.88,9.09,9.09,0,0,1-7,8.88" fill="none" clip-rule="evenodd"/></clipPath><clipPath id="clip-path-7"><path d="M-426.5-481l-.56-2.37a2.26,2.26,0,0,0,1.75-2.21,2.26,2.26,0,0,0-1.75-2.22l.56-2.37a4.69,4.69,0,0,1,3.62,4.59A4.69,4.69,0,0,1-426.5-481" fill="none" clip-rule="evenodd"/></clipPath><clipPath id="clip-path-8"><polygon points="-435.3 -489.28 -440.17 -489.28 -440.17 -481.98 -435.3 -481.98 -429.22 -477.19 -429.22 -494.07 -435.3 -489.28" fill="none" clip-rule="evenodd"/></clipPath></defs><title>svg_hide-details</title><path d="M11.41,10,16,5.4A1,1,0,0,0,14.6,4L10,8.59,5.4,4A1,1,0,0,0,4,5.4L8.59,10,4,14.6A1,1,0,0,0,5.4,16l4.6-4.6L14.6,16A1,1,0,0,0,16,14.6Z"/></svg>