<svg id="Layer_1" data-name="Layer 1" xmlns="http://www.w3.org/2000/svg" xmlns:xlink="http://www.w3.org/1999/xlink" viewBox="0 0 30 30"><defs><clipPath id="clip-path"><circle cx="-340" cy="-286" r="23" fill="none"/></clipPath><clipPath id="clip-path-2"><path d="M-336.29-276.75l-.56-2.36a6.67,6.67,0,0,0,5.15-6.52,6.65,6.65,0,0,0-5.15-6.51l.56-2.37a9.09,9.09,0,0,1,7,8.88,9.09,9.09,0,0,1-7,8.88" fill="none" clip-rule="evenodd"/></clipPath><clipPath id="clip-path-3"><path d="M-337.5-281l-.56-2.37a2.26,2.26,0,0,0,1.75-2.21,2.26,2.26,0,0,0-1.75-2.22l.56-2.37a4.69,4.69,0,0,1,3.62,4.59A4.69,4.69,0,0,1-337.5-281" fill="none" clip-rule="evenodd"/></clipPath><clipPath id="clip-path-4"><polygon points="-346.3 -289.28 -351.17 -289.28 -351.17 -281.98 -346.3 -281.98 -340.22 -277.19 -340.22 -294.07 -346.3 -289.28" fill="none" clip-rule="evenodd"/></clipPath><clipPath id="clip-path-5"><circle cx="-309" cy="-306" r="23" fill="none"/></clipPath><clipPath id="clip-path-6"><path d="M-305.29-296.75l-.56-2.36a6.67,6.67,0,0,0,5.15-6.52,6.65,6.65,0,0,0-5.15-6.51l.56-2.37a9.09,9.09,0,0,1,7,8.88,9.09,9.09,0,0,1-7,8.88" fill="none" clip-rule="evenodd"/></clipPath><clipPath id="clip-path-7"><path d="M-306.5-301l-.56-2.37a2.26,2.26,0,0,0,1.75-2.21,2.26,2.26,0,0,0-1.75-2.22l.56-2.37a4.69,4.69,0,0,1,3.62,4.59A4.69,4.69,0,0,1-306.5-301" fill="none" clip-rule="evenodd"/></clipPath><clipPath id="clip-path-8"><polygon points="-315.3 -309.28 -320.17 -309.28 -320.17 -301.98 -315.3 -301.98 -309.22 -297.19 -309.22 -314.07 -315.3 -309.28" fill="none" clip-rule="evenodd"/></clipPath></defs><title>svg_pause-cl-30px</title><path d="M13.12,17.5a1.5,1.5,0,0,1-1.5,1.5H11.5A1.5,1.5,0,0,1,10,17.5v-5A1.5,1.5,0,0,1,11.5,11h.12a1.5,1.5,0,0,1,1.5,1.5Zm6.88,0A1.51,1.51,0,0,1,18.5,19h-.13a1.51,1.51,0,0,1-1.5-1.5v-5a1.51,1.51,0,0,1,1.5-1.5h.13A1.51,1.51,0,0,1,20,12.5ZM15,1.1A13.9,13.9,0,1,1,1.1,15,13.92,13.92,0,0,1,15,1.1M15,0A15,15,0,1,0,30,15,15,15,0,0,0,15,0Z"/></svg>