<svg id="Layer_1" data-name="Layer 1" xmlns="http://www.w3.org/2000/svg" xmlns:xlink="http://www.w3.org/1999/xlink" viewBox="0 0 48 48"><defs><clipPath id="clip-path"><circle cx="-428" cy="-228" r="23" fill="none"/></clipPath><clipPath id="clip-path-2"><path d="M-424.29-218.75l-.56-2.36a6.67,6.67,0,0,0,5.15-6.52,6.65,6.65,0,0,0-5.15-6.51l.56-2.37a9.09,9.09,0,0,1,7,8.88,9.09,9.09,0,0,1-7,8.88" fill="none" clip-rule="evenodd"/></clipPath><clipPath id="clip-path-3"><path d="M-425.5-223l-.56-2.37a2.26,2.26,0,0,0,1.75-2.21,2.26,2.26,0,0,0-1.75-2.22l.56-2.37a4.69,4.69,0,0,1,3.62,4.59A4.69,4.69,0,0,1-425.5-223" fill="none" clip-rule="evenodd"/></clipPath><clipPath id="clip-path-4"><polygon points="-434.3 -231.28 -439.17 -231.28 -439.17 -223.98 -434.3 -223.98 -428.22 -219.19 -428.22 -236.07 -434.3 -231.28" fill="none" clip-rule="evenodd"/></clipPath><clipPath id="clip-path-5"><circle cx="-397" cy="-248" r="23" fill="none"/></clipPath><clipPath id="clip-path-6"><path d="M-393.29-238.75l-.56-2.36a6.67,6.67,0,0,0,5.15-6.52,6.65,6.65,0,0,0-5.15-6.51l.56-2.37a9.09,9.09,0,0,1,7,8.88,9.09,9.09,0,0,1-7,8.88" fill="none" clip-rule="evenodd"/></clipPath><clipPath id="clip-path-7"><path d="M-394.5-243l-.56-2.37a2.26,2.26,0,0,0,1.75-2.21,2.26,2.26,0,0,0-1.75-2.22l.56-2.37a4.69,4.69,0,0,1,3.62,4.59A4.69,4.69,0,0,1-394.5-243" fill="none" clip-rule="evenodd"/></clipPath><clipPath id="clip-path-8"><polygon points="-403.3 -251.28 -408.17 -251.28 -408.17 -243.98 -403.3 -243.98 -397.22 -239.19 -397.22 -256.07 -403.3 -251.28" fill="none" clip-rule="evenodd"/></clipPath></defs><title>svg_pause-48px</title><path d="M22,27.5A2.51,2.51,0,0,1,19.5,30h0A2.5,2.5,0,0,1,17,27.5v-7A2.5,2.5,0,0,1,19.5,18h0A2.51,2.51,0,0,1,22,20.5Zm9,0A2.5,2.5,0,0,1,28.5,30h0A2.51,2.51,0,0,1,26,27.5v-7A2.51,2.51,0,0,1,28.5,18h0A2.5,2.5,0,0,1,31,20.5ZM24,1.4A22.6,22.6,0,1,1,1.4,24,22.63,22.63,0,0,1,24,1.4M24,0A24,24,0,1,0,48,24,24,24,0,0,0,24,0Z"/></svg>