<svg id="Layer_1" data-name="Layer 1" xmlns="http://www.w3.org/2000/svg" xmlns:xlink="http://www.w3.org/1999/xlink" viewBox="0 0 20 20"><defs><clipPath id="clip-path"><circle cx="-400" cy="-566" r="23" fill="none"/></clipPath><clipPath id="clip-path-2"><path d="M-396.29-556.75l-.56-2.36a6.67,6.67,0,0,0,5.15-6.52,6.65,6.65,0,0,0-5.15-6.51l.56-2.37a9.09,9.09,0,0,1,7,8.88,9.09,9.09,0,0,1-7,8.88" fill="none" clip-rule="evenodd"/></clipPath><clipPath id="clip-path-3"><path d="M-397.5-561l-.56-2.37a2.26,2.26,0,0,0,1.75-2.21,2.26,2.26,0,0,0-1.75-2.22l.56-2.37a4.69,4.69,0,0,1,3.62,4.59A4.69,4.69,0,0,1-397.5-561" fill="none" clip-rule="evenodd"/></clipPath><clipPath id="clip-path-4"><polygon points="-406.3 -569.28 -411.17 -569.28 -411.17 -561.98 -406.3 -561.98 -400.22 -557.19 -400.22 -574.07 -406.3 -569.28" fill="none" clip-rule="evenodd"/></clipPath><clipPath id="clip-path-5"><circle cx="-369" cy="-586" r="23" fill="none"/></clipPath><clipPath id="clip-path-6"><path d="M-365.29-576.75l-.56-2.36a6.67,6.67,0,0,0,5.15-6.52,6.65,6.65,0,0,0-5.15-6.51l.56-2.37a9.09,9.09,0,0,1,7,8.88,9.09,9.09,0,0,1-7,8.88" fill="none" clip-rule="evenodd"/></clipPath><clipPath id="clip-path-7"><path d="M-366.5-581l-.56-2.37a2.26,2.26,0,0,0,1.75-2.21,2.26,2.26,0,0,0-1.75-2.22l.56-2.37a4.69,4.69,0,0,1,3.62,4.59A4.69,4.69,0,0,1-366.5-581" fill="none" clip-rule="evenodd"/></clipPath><clipPath id="clip-path-8"><polygon points="-375.3 -589.28 -380.17 -589.28 -380.17 -581.98 -375.3 -581.98 -369.22 -577.19 -369.22 -594.07 -375.3 -589.28" fill="none" clip-rule="evenodd"/></clipPath></defs><title>svg_photo</title><circle cx="10" cy="10" r="5"/><path d="M18,2H15.25L13.42.18A.56.56,0,0,0,13,0H7a.56.56,0,0,0-.42.18L4.75,2H2A2,2,0,0,0,0,4V16a2,2,0,0,0,2,2H18a2,2,0,0,0,2-2V4A2,2,0,0,0,18,2ZM10,16a6,6,0,1,1,6-6A6,6,0,0,1,10,16ZM17.5,6A1.5,1.5,0,1,1,19,4.5,1.5,1.5,0,0,1,17.5,6Z"/></svg>