<svg id="Layer_1" data-name="Layer 1" xmlns="http://www.w3.org/2000/svg" viewBox="0 0 20 20"><title>svg_potion</title><g id="Group-15"><g id="Clip-14"><path id="path-3" d="M13.53,4.72l.37.37L11.84,7.15,1.16,11.85A.26.26,0,0,0,1,12a.29.29,0,0,0,.08.23l7.64,7.65A.25.25,0,0,0,8.9,20H9a.26.26,0,0,0,.19-.16L13.83,9.15,15.9,7.08l.37.37.37-.37-.56-.55a.25.25,0,0,0-.18-.08.27.27,0,0,0-.19.08L13.43,8.82l-.06.08L8.82,19.28l-7.1-7.11L12.09,7.61l.08-.05,2.29-2.29a.27.27,0,0,0,0-.37l-.56-.55-.37.37Z"/></g><path id="Clip-11" d="M8.19,11A.81.81,0,0,1,8,12,.79.79,0,0,1,6.78,11H5.92L2.85,12.38,8.6,18.13,11.72,11Zm.28,2.57a.51.51,0,1,1,.78-.67.51.51,0,0,1-.06.73.51.51,0,0,1-.72-.06Zm-2.25.67a.62.62,0,1,1,.87.07.6.6,0,0,1-.4.15.63.63,0,0,1-.47-.22Z"/><path id="Clip-8" d="M17.44,2A.55.55,0,1,0,18,1.4a.55.55,0,0,0-.55.55Z"/><path id="Mask" d="M15.77,4.15a.79.79,0,1,0,.78-.78.78.78,0,0,0-.78.78Z"/><path id="Clip-5" d="M16,.5a.5.5,0,0,0,1,0,.5.5,0,0,0-1,0Z"/></g></svg>