<svg id="Layer_1" data-name="Layer 1" xmlns="http://www.w3.org/2000/svg" xmlns:xlink="http://www.w3.org/1999/xlink" viewBox="0 0 20 20"><defs><clipPath id="clip-path"><circle cx="-566" cy="-228" r="23" fill="none"/></clipPath><clipPath id="clip-path-2"><path d="M-562.29-218.75l-.56-2.36a6.67,6.67,0,0,0,5.15-6.52,6.65,6.65,0,0,0-5.15-6.51l.56-2.37a9.09,9.09,0,0,1,7,8.88,9.09,9.09,0,0,1-7,8.88" fill="none" clip-rule="evenodd"/></clipPath><clipPath id="clip-path-3"><path d="M-563.5-223l-.56-2.37a2.26,2.26,0,0,0,1.75-2.21,2.26,2.26,0,0,0-1.75-2.22l.56-2.37a4.69,4.69,0,0,1,3.62,4.59A4.69,4.69,0,0,1-563.5-223" fill="none" clip-rule="evenodd"/></clipPath><clipPath id="clip-path-4"><polygon points="-572.3 -231.28 -577.17 -231.28 -577.17 -223.98 -572.3 -223.98 -566.22 -219.19 -566.22 -236.07 -572.3 -231.28" fill="none" clip-rule="evenodd"/></clipPath><clipPath id="clip-path-5"><circle cx="-535" cy="-248" r="23" fill="none"/></clipPath><clipPath id="clip-path-6"><path d="M-531.29-238.75l-.56-2.36a6.67,6.67,0,0,0,5.15-6.52,6.65,6.65,0,0,0-5.15-6.51l.56-2.37a9.09,9.09,0,0,1,7,8.88,9.09,9.09,0,0,1-7,8.88" fill="none" clip-rule="evenodd"/></clipPath><clipPath id="clip-path-7"><path d="M-532.5-243l-.56-2.37a2.26,2.26,0,0,0,1.75-2.21,2.26,2.26,0,0,0-1.75-2.22l.56-2.37a4.69,4.69,0,0,1,3.62,4.59A4.69,4.69,0,0,1-532.5-243" fill="none" clip-rule="evenodd"/></clipPath><clipPath id="clip-path-8"><polygon points="-541.3 -251.28 -546.17 -251.28 -546.17 -243.98 -541.3 -243.98 -535.22 -239.19 -535.22 -256.07 -541.3 -251.28" fill="none" clip-rule="evenodd"/></clipPath></defs><title>svg_user</title><path d="M13.69,14.82a.51.51,0,0,1-.5-.5,3.17,3.17,0,0,0-2-3,.52.52,0,0,1-.32-.43.5.5,0,0,1,.26-.47,2.28,2.28,0,1,0-2.22,0,.5.5,0,0,1,.26.47.52.52,0,0,1-.32.43,3.17,3.17,0,0,0-2,3,.51.51,0,0,1-.5.5.5.5,0,0,1-.5-.5,4.16,4.16,0,0,1,1.9-3.52,3.28,3.28,0,1,1,4.58,0,4.16,4.16,0,0,1,1.9,3.52A.5.5,0,0,1,13.69,14.82Z"/></svg>