<?xml version="1.0" encoding="utf-8"?>
<!-- Generator: Adobe Illustrator 22.0.1, SVG Export Plug-In . SVG Version: 6.00 Build 0)  -->
<svg version="1.1" id="Layer_1" xmlns="http://www.w3.org/2000/svg" xmlns:xlink="http://www.w3.org/1999/xlink" x="0px" y="0px"
	 viewBox="0 0 20 20" style="enable-background:new 0 0 20 20;" xml:space="preserve">
<style type="text/css">
	.st0{fill-rule:evenodd;clip-rule:evenodd;}
	.st1{fill:#010202;}
</style>
<path d="M10,5c1.2,0.2,2.4-0.7,2.7-2.1S12.1,0.2,10.9,0L10,5z"/>
<path d="M7.5,5.6c1.2-0.4,1.7-1.8,1.3-3.1c-0.5-1.3-1.8-2-3-1.6L7.5,5.6z"/>
<path d="M5.6,7.5c0.8-1,0.6-2.5-0.5-3.4S2.6,3.3,1.8,4.2L5.6,7.5z"/>
<path d="M5,10c0.2-1.2-0.7-2.4-2.1-2.7S0.2,7.9,0,9.1L5,10z"/>
<path d="M5.6,12.5c-0.4-1.2-1.8-1.7-3.1-1.3c-1.3,0.5-2,1.8-1.6,3L5.6,12.5z"/>
<path d="M7.5,14.4c-1-0.8-2.5-0.6-3.4,0.5s-0.8,2.6,0.1,3.4L7.5,14.4z"/>
<path d="M10,15c-1.2-0.2-2.4,0.7-2.7,2.1s0.6,2.7,1.8,2.9L10,15z"/>
<path d="M12.5,14.4c-1.2,0.4-1.7,1.8-1.3,3.1c0.5,1.3,1.8,2,3,1.6L12.5,14.4z"/>
<path d="M14.4,12.5c-0.8,1-0.6,2.5,0.5,3.4s2.6,0.8,3.4-0.1L14.4,12.5z"/>
<path d="M15,10c-0.2,1.2,0.7,2.4,2.1,2.7s2.7-0.6,2.9-1.8L15,10z"/>
<path d="M14.4,7.5c0.4,1.2,1.8,1.7,3.1,1.3c1.3-0.5,2-1.8,1.6-3L14.4,7.5z"/>
<path d="M12.5,5.6c1,0.8,2.5,0.6,3.4-0.5s0.8-2.6-0.1-3.4L12.5,5.6z"/>
<g>
	<path d="M10.4,11.4c-0.8,0.2-1.6-0.3-1.8-1.1C8.3,9.6,8.8,8.8,9.6,8.6c0.8-0.2,1.6,0.3,1.8,1.1C11.7,10.4,11.2,11.2,10.4,11.4z"/>
</g>
</svg>
