<svg id="Layer_1" data-name="Layer 1" xmlns="http://www.w3.org/2000/svg" xmlns:xlink="http://www.w3.org/1999/xlink" viewBox="0 0 30 30"><defs><clipPath id="clip-path"><circle cx="-500" cy="-366" r="23" fill="none"/></clipPath><clipPath id="clip-path-2"><path d="M-496.29-356.75l-.56-2.36a6.67,6.67,0,0,0,5.15-6.52,6.65,6.65,0,0,0-5.15-6.51l.56-2.37a9.09,9.09,0,0,1,7,8.88,9.09,9.09,0,0,1-7,8.88" fill="none" clip-rule="evenodd"/></clipPath><clipPath id="clip-path-3"><path d="M-497.5-361l-.56-2.37a2.26,2.26,0,0,0,1.75-2.21,2.26,2.26,0,0,0-1.75-2.22l.56-2.37a4.69,4.69,0,0,1,3.62,4.59A4.69,4.69,0,0,1-497.5-361" fill="none" clip-rule="evenodd"/></clipPath><clipPath id="clip-path-4"><polygon points="-506.3 -369.28 -511.17 -369.28 -511.17 -361.98 -506.3 -361.98 -500.22 -357.19 -500.22 -374.07 -506.3 -369.28" fill="none" clip-rule="evenodd"/></clipPath><clipPath id="clip-path-5"><circle cx="-469" cy="-386" r="23" fill="none"/></clipPath><clipPath id="clip-path-6"><path d="M-465.29-376.75l-.56-2.36a6.67,6.67,0,0,0,5.15-6.52,6.65,6.65,0,0,0-5.15-6.51l.56-2.37a9.09,9.09,0,0,1,7,8.88,9.09,9.09,0,0,1-7,8.88" fill="none" clip-rule="evenodd"/></clipPath><clipPath id="clip-path-7"><path d="M-466.5-381l-.56-2.37a2.26,2.26,0,0,0,1.75-2.21,2.26,2.26,0,0,0-1.75-2.22l.56-2.37a4.69,4.69,0,0,1,3.62,4.59A4.69,4.69,0,0,1-466.5-381" fill="none" clip-rule="evenodd"/></clipPath><clipPath id="clip-path-8"><polygon points="-475.3 -389.28 -480.17 -389.28 -480.17 -381.98 -475.3 -381.98 -469.22 -377.19 -469.22 -394.07 -475.3 -389.28" fill="none" clip-rule="evenodd"/></clipPath></defs><title>svg_notification</title><path d="M16,14a1,1,0,1,1-1-1A1,1,0,0,1,16,14Zm-1-3.4A3.4,3.4,0,1,0,18.4,14,3.41,3.41,0,0,0,15,10.6M15,9a5,5,0,1,1-5,5,5,5,0,0,1,5-5Zm0-2a7,7,0,1,0,7,7,7,7,0,0,0-7-7m0-2a9,9,0,1,1-9,9,9,9,0,0,1,9-9Z"/></svg>