<svg id="Layer_1" data-name="Layer 1" xmlns="http://www.w3.org/2000/svg" xmlns:xlink="http://www.w3.org/1999/xlink" viewBox="0 0 20 20"><defs><clipPath id="clip-path"><circle cx="-400" cy="-466" r="23" fill="none"/></clipPath><clipPath id="clip-path-2"><path d="M-396.29-456.75l-.56-2.36a6.67,6.67,0,0,0,5.15-6.52,6.65,6.65,0,0,0-5.15-6.51l.56-2.37a9.09,9.09,0,0,1,7,8.88,9.09,9.09,0,0,1-7,8.88" fill="none" clip-rule="evenodd"/></clipPath><clipPath id="clip-path-3"><path d="M-397.5-461l-.56-2.37a2.26,2.26,0,0,0,1.75-2.21,2.26,2.26,0,0,0-1.75-2.22l.56-2.37a4.69,4.69,0,0,1,3.62,4.59A4.69,4.69,0,0,1-397.5-461" fill="none" clip-rule="evenodd"/></clipPath><clipPath id="clip-path-4"><polygon points="-406.3 -469.28 -411.17 -469.28 -411.17 -461.98 -406.3 -461.98 -400.22 -457.19 -400.22 -474.07 -406.3 -469.28" fill="none" clip-rule="evenodd"/></clipPath><clipPath id="clip-path-5"><circle cx="-369" cy="-486" r="23" fill="none"/></clipPath><clipPath id="clip-path-6"><path d="M-365.29-476.75l-.56-2.36a6.67,6.67,0,0,0,5.15-6.52,6.65,6.65,0,0,0-5.15-6.51l.56-2.37a9.09,9.09,0,0,1,7,8.88,9.09,9.09,0,0,1-7,8.88" fill="none" clip-rule="evenodd"/></clipPath><clipPath id="clip-path-7"><path d="M-366.5-481l-.56-2.37a2.26,2.26,0,0,0,1.75-2.21,2.26,2.26,0,0,0-1.75-2.22l.56-2.37a4.69,4.69,0,0,1,3.62,4.59A4.69,4.69,0,0,1-366.5-481" fill="none" clip-rule="evenodd"/></clipPath><clipPath id="clip-path-8"><polygon points="-375.3 -489.28 -380.17 -489.28 -380.17 -481.98 -375.3 -481.98 -369.22 -477.19 -369.22 -494.07 -375.3 -489.28" fill="none" clip-rule="evenodd"/></clipPath></defs><title>svg_segments-show</title><path d="M3.5,4A1.5,1.5,0,1,1,2,2.5,1.5,1.5,0,0,1,3.5,4ZM2,8.5A1.5,1.5,0,1,0,3.5,10,1.5,1.5,0,0,0,2,8.5Zm0,6A1.5,1.5,0,1,0,3.5,16,1.5,1.5,0,0,0,2,14.5ZM20,4a1,1,0,0,0-1-1H8A1,1,0,0,0,8,5H19A1,1,0,0,0,20,4Zm0,6a1,1,0,0,0-1-1H8a1,1,0,0,0,0,2H19A1,1,0,0,0,20,10Zm0,6a1,1,0,0,0-1-1H8a1,1,0,0,0,0,2H19A1,1,0,0,0,20,16Z"/></svg>