<?xml version="1.0" encoding="utf-8"?>
<!-- Generator: Adobe Illustrator 22.0.1, SVG Export Plug-In . SVG Version: 6.00 Build 0)  -->
<svg version="1.1" id="Layer_1" xmlns="http://www.w3.org/2000/svg" xmlns:xlink="http://www.w3.org/1999/xlink" x="0px" y="0px"
	 viewBox="0 0 20 20" style="enable-background:new 0 0 20 20;" xml:space="preserve">
<style type="text/css">
	.st0{fill-rule:evenodd;clip-rule:evenodd;}
	.st1{fill:#010202;}
</style>
<path d="M5.2,10.8h2.1c0.3,1,1.3,1.8,2.4,1.8s2.1-0.7,2.4-1.8h3.1c2.3,0,4.2-1.9,4.2-4.2s-1.9-4.2-4.2-4.2h-5.1
	c-0.3-1-1.3-1.8-2.4-1.8S5.7,1.2,5.4,2.2H2.8C2.3,2.2,2,2.6,2,3s0.3,0.8,0.8,0.8h2.6c0.3,1,1.3,1.8,2.4,1.8s2.1-0.7,2.4-1.8h5.1
	C16.8,3.8,18,5,18,6.5s-1.2,2.8-2.8,2.8h-3.1c-0.3-1-1.3-1.8-2.4-1.8S7.7,8.2,7.4,9.2H5.2C2.9,9.2,1,11.2,1,13.5s1.9,4.2,4.2,4.2
	h4.1c0.3,1,1.3,1.8,2.4,1.8s2.1-0.7,2.4-1.8h2.6c0.4,0,0.8-0.3,0.8-0.8s-0.3-0.8-0.8-0.8h-2.6c-0.3-1-1.3-1.8-2.4-1.8
	s-2.1,0.7-2.4,1.8H5.2c-1.5,0-2.8-1.2-2.8-2.8S3.7,10.8,5.2,10.8z M7.8,4.5C6.9,4.5,6.2,3.8,6.2,3s0.7-1.5,1.5-1.5S9.2,2.2,9.2,3
	S8.6,4.5,7.8,4.5z M9.8,8.5c0.8,0,1.5,0.7,1.5,1.5s-0.7,1.5-1.5,1.5S8.2,10.8,8.2,10S8.9,8.5,9.8,8.5z M11.8,15.5
	c0.8,0,1.5,0.7,1.5,1.5s-0.7,1.5-1.5,1.5s-1.5-0.7-1.5-1.5S10.9,15.5,11.8,15.5z"/>
</svg>
