<?xml version="1.0" encoding="utf-8"?>
<!-- Generator: Adobe Illustrator 22.0.1, SVG Export Plug-In . SVG Version: 6.00 Build 0)  -->
<svg version="1.1" id="Layer_1" xmlns="http://www.w3.org/2000/svg" xmlns:xlink="http://www.w3.org/1999/xlink" x="0px" y="0px"
	 viewBox="0 0 20 20" style="enable-background:new 0 0 20 20;" xml:space="preserve">
<style type="text/css">
	.st0{fill-rule:evenodd;clip-rule:evenodd;}
	.st1{fill:#010202;}
</style>
<path d="M20,10c0-0.6-0.4-1-1-1h-6c-0.6,0-1,0.4-1,1s0.4,1,1,1h6C19.6,11,20,10.5,20,10z"/>
<path d="M20,15c0-0.6-0.4-1-1-1H9c-0.6,0-1,0.4-1,1s0.4,1,1,1h10C19.6,16,20,15.6,20,15z"/>
<path d="M20,5c0-0.6-0.4-1-1-1H9C8.4,4,8,4.4,8,5s0.4,1,1,1h10C19.6,6,20,5.5,20,5z"/>
<polygon points="0,10 6.3,5.1 6.3,7.7 10.7,7.7 10.7,12.2 6.3,12.2 6.3,14.8 "/>
</svg>
