<?xml version="1.0" encoding="utf-8"?>
<!-- Generator: Adobe Illustrator 18.1.0, SVG Export Plug-In . SVG Version: 6.00 Build 0)  -->
<svg version="1.1" id="Layer_1" xmlns="http://www.w3.org/2000/svg" xmlns:xlink="http://www.w3.org/1999/xlink" x="0px" y="0px"
	 viewBox="0 0 55.9 20" enable-background="new 0 0 55.9 20" xml:space="preserve">
<g>
	<rect x="0" y="0.4" fill="#FFFFFF" width="6.9" height="19.6"/>
	<rect x="19.6" y="0.4" fill="#FFFFFF" width="6.9" height="19.6"/>
	<rect x="35.1" y="0.4" fill="#FFFFFF" width="6.9" height="19.6"/>
	<ellipse fill="#FFFFFF" cx="30.8" cy="3.9" rx="3.9" ry="3.9"/>
	<path fill="#FFFFFF" d="M50.5,11.1c-0.4-0.7-0.4-1.1,0-1.8l5.4-8.9h-7.5c0,0-4.5,7.4-5.2,8.4c-0.6,1-0.6,1.7,0,2.7
		c0.6,1.1,5.1,8.4,5.1,8.4h7.5C55.9,20,50.6,11.2,50.5,11.1z"/>
	<path fill="#FFFFFF" d="M15.5,3.5c-0.4-1.8-1.9-3.1-3.8-3.1l0,0H7.3L11.7,20h7.5L15.5,3.5z"/>
</g>
</svg>
