<?xml version="1.0" encoding="utf-8"?>
<!-- Generator: Adobe Illustrator 18.1.1, SVG Export Plug-In . SVG Version: 6.00 Build 0)  -->
<svg version="1.1" id="nrk-p1" xmlns="http://www.w3.org/2000/svg" xmlns:xlink="http://www.w3.org/1999/xlink" x="0px" y="0px"
	 viewBox="0 0 229.2 30" enable-background="new 0 0 229.2 30" xml:space="preserve">
<path d="M5.4,7.4l0,15.3l-5.4,0v-1.2L0,7.4H5.4z M15.4,22.7h5.4V7.4h-5.4V22.7z M32.9,7.4h-5.4v15.3l5.4,0V7.4z M24.2,7
	c-1.7,0-3,1.4-3,3c0,1.7,1.4,3.1,3,3.1c1.7,0,3-1.4,3-3.1C27.2,8.4,25.8,7,24.2,7 M39.7,15.7c-0.3-0.5-0.3-0.9,0-1.4l4.3-7H38
	c0,0-3.6,5.8-4.1,6.6c-0.5,0.8-0.5,1.3,0,2.1c0.5,0.8,4,6.6,4,6.6h5.9C43.9,22.7,39.7,15.8,39.7,15.7 M12.2,9.8
	c-0.3-1.4-1.5-2.5-3-2.5l-3.5,0l3.5,15.3h5.9L12.2,9.8z M49.7,14.8c0,4.1,1.6,6.6,4,7.5l-0.5,1.8h1.4l0.4-1.4c0.5,0.1,1,0.1,1.6,0.1
	c3.9,0,6.9-2.5,6.9-8.1c0-3.8-1.6-6.3-4-7.2L59.9,6h-1.4l-0.4,1.2c-0.4-0.1-0.9-0.1-1.4-0.1C52.6,7.1,49.7,9.7,49.7,14.8z
	 M51.4,14.8c0-4,2-6.3,5.2-6.3c0.4,0,0.7,0,1.1,0.1l-3.6,12.2C52.4,20,51.4,18,51.4,14.8z M61.7,14.8c0,4.5-2,6.6-5.1,6.6
	c-0.4,0-0.8,0-1.2-0.1L59,9.1C60.7,10,61.7,11.9,61.7,14.8z M64.8,21.1c1,1,2.6,1.8,4.4,1.8c2.5,0,4.2-1.3,4.2-3.4
	c0-1.7-1.1-2.6-3.6-3.3c-2-0.5-2.8-0.9-2.8-2c0-1.1,0.9-1.7,2.3-1.7c1,0,2.2,0.4,3.2,1.3l0.8-0.9c-1.1-1.1-2.4-1.7-4-1.7
	c-2.4,0-3.9,1.2-3.9,3.2c0,1.7,1,2.6,3.6,3.2c2.2,0.5,2.8,1,2.8,2.1c0,1.1-1,1.9-2.6,1.9c-1.2,0-2.5-0.6-3.5-1.4L64.8,21.1z
	 M79.9,12.8v-1.3h-2v-3h-1.3l-0.2,3L75,11.8v1h1.4v8.1c0,1.4,0.7,2,2,2c0.6,0,1.3-0.2,1.8-0.4L80,21.4c-0.4,0.1-0.7,0.3-1.1,0.3
	c-0.6,0-0.9-0.2-0.9-1v-7.8H79.9z M84.2,22.7V7.4h-1.6v15.3H84.2z M95.3,22.7h1.4V11.5h-1.5v1.7c-0.8-1.1-2-1.9-3.7-1.9
	c-2.9,0-4.6,2.3-4.6,5.9c0,3.5,1.4,5.8,4.5,5.8c2,0,3.1-1.1,3.7-1.8L95.3,22.7z M95.1,19.6c-0.6,0.7-1.6,1.8-3.2,1.8
	c-2.5,0-3.3-2.2-3.3-4.4c0-2.9,1.3-4.4,3.1-4.4c1.7,0,2.8,1.3,3.4,2V19.6z M100,11.5v11.2h1.6v-8.1c0.5-0.6,1.7-1.9,3.3-1.9
	c1.5,0,2.2,1,2.2,3.1v6.9h1.6v-7.2c0-2.4-0.9-4.2-3.4-4.2c-1.6,0-2.8,0.8-3.7,1.9v-1.7H100z M119.4,22.7h1.4V7.4h-1.6V13
	c-0.8-1-1.9-1.8-3.6-1.8c-2.9,0-4.6,2.3-4.6,5.9c0,3.5,1.4,5.8,4.5,5.8c2,0,3.1-1.1,3.7-1.8L119.4,22.7z M119.3,19.6
	c-0.6,0.7-1.6,1.8-3.2,1.8c-2.5,0-3.3-2.2-3.3-4.4c0-2.9,1.3-4.4,3.1-4.4c1.7,0,2.8,1.3,3.4,2V19.6z M123.2,21.1
	c1,1,2.6,1.8,4.4,1.8c2.5,0,4.2-1.3,4.2-3.4c0-1.7-1.1-2.6-3.6-3.3c-2-0.5-2.8-0.9-2.8-2c0-1.1,0.9-1.7,2.3-1.7c1,0,2.2,0.4,3.2,1.3
	l0.8-0.9c-1.1-1.1-2.4-1.7-4-1.7c-2.4,0-3.9,1.2-3.9,3.2c0,1.7,1,2.6,3.6,3.2c2.2,0.5,2.8,1,2.8,2.1c0,1.1-1,1.9-2.6,1.9
	c-1.2,0-2.5-0.6-3.5-1.4L123.2,21.1z M133.4,21.1c1,1,2.6,1.8,4.4,1.8c2.5,0,4.2-1.3,4.2-3.4c0-1.7-1.1-2.6-3.6-3.3
	c-2-0.5-2.8-0.9-2.8-2c0-1.1,0.9-1.7,2.3-1.7c1,0,2.2,0.4,3.2,1.3l0.8-0.9c-1.1-1.1-2.4-1.7-4-1.7c-2.4,0-3.9,1.2-3.9,3.2
	c0,1.7,1,2.6,3.6,3.2c2.2,0.5,2.8,1,2.8,2.1c0,1.1-1,1.9-2.6,1.9c-1.2,0-2.5-0.6-3.5-1.4L133.4,21.1z M152.4,20.3
	c-1.1,0.8-2,1.2-3.3,1.2c-2.4,0-3.5-1.7-3.5-4h7.7c0-0.1,0-0.6,0-0.9c0-3.6-1.5-5.4-4.3-5.4c-3.1,0-5.1,2.3-5.1,5.9
	c0,3.9,2,5.8,5.1,5.8c1.5,0,2.9-0.4,4.1-1.5L152.4,20.3z M145.6,16.2c0-1.1,0.7-3.6,3.3-3.6c2.1,0,2.8,1.6,2.8,3.6H145.6z M156,11.5
	v11.2h1.6v-8.1c0.5-0.6,1.7-1.9,3.3-1.9c1.5,0,2.2,1,2.2,3.1v6.9h1.6v-7.2c0-2.4-0.9-4.2-3.4-4.2c-1.6,0-2.8,0.8-3.7,1.9v-1.7H156z
	 M175.4,22.7h1.4V7.4h-1.6V13c-0.8-1-1.9-1.8-3.6-1.8c-2.9,0-4.6,2.3-4.6,5.9c0,3.5,1.4,5.8,4.5,5.8c2,0,3.1-1.1,3.7-1.8L175.4,22.7
	z M175.3,19.6c-0.6,0.7-1.6,1.8-3.2,1.8c-2.5,0-3.3-2.2-3.3-4.4c0-2.9,1.3-4.4,3.1-4.4c1.7,0,2.8,1.3,3.4,2V19.6z M179.9,8.5
	c0,0.6,0.5,0.9,1.1,0.9c0.6,0,1.1-0.4,1.1-0.9c0-0.6-0.4-1-1.1-1C180.4,7.5,179.9,7.9,179.9,8.5z M181.8,11.5h-1.6v11.2h1.6V11.5z
	 M185.1,11.5v11.2h1.6v-8.1c0.5-0.6,1.7-1.9,3.3-1.9c1.5,0,2.2,1,2.2,3.1v6.9h1.6v-7.2c0-2.4-0.9-4.2-3.4-4.2
	c-1.6,0-2.8,0.8-3.7,1.9v-1.7H185.1z M206.2,11.5h-1.4v1.6c-0.6-0.8-1.8-1.9-3.6-1.9c-3.2,0-4.7,2.6-4.7,5.9s1.3,5.7,4.5,5.7
	c1.7,0,2.9-0.8,3.7-1.7v1.1c0,2.4-0.6,3.6-3.3,3.6c-1.3,0-2.5-0.3-3.4-0.7l-0.4,1.3c0.9,0.4,2.4,0.7,3.9,0.7c3.1,0,4.7-1.1,4.7-4.7
	V11.5z M204.6,19.7c-0.6,0.7-1.7,1.7-3.3,1.7c-2.3,0-3.2-1.8-3.2-4.4c0-2.7,1.1-4.4,3.3-4.4c1.5,0,2.8,1.3,3.3,2V19.7z M217.1,20.3
	c-1.1,0.8-2,1.2-3.3,1.2c-2.4,0-3.5-1.7-3.5-4h7.7c0-0.1,0-0.6,0-0.9c0-3.6-1.5-5.4-4.3-5.4c-3.1,0-5.1,2.3-5.1,5.9
	c0,3.9,2,5.8,5.1,5.8c1.5,0,2.9-0.4,4.1-1.5L217.1,20.3z M210.3,16.2c0-1.1,0.7-3.6,3.3-3.6c2.1,0,2.8,1.6,2.8,3.6H210.3z
	 M220.6,11.5v11.2h1.6v-8.1c0.5-0.6,1.7-1.9,3.3-1.9c1.5,0,2.2,1,2.2,3.1v6.9h1.6v-7.2c0-2.4-0.9-4.2-3.4-4.2
	c-1.6,0-2.8,0.8-3.7,1.9v-1.7H220.6z"/>
</svg>
