<?xml version="1.0" encoding="utf-8"?>
<!-- Generator: Adobe Illustrator 18.1.0, SVG Export Plug-In . SVG Version: 6.00 Build 0)  -->
<svg version="1.1" id="nrk-p1" xmlns="http://www.w3.org/2000/svg" xmlns:xlink="http://www.w3.org/1999/xlink" x="0px" y="0px"
	 viewBox="0 0 92 30" enable-background="new 0 0 92 30" xml:space="preserve">
<path d="M0,7.3h5.4v15.4H0V7.3z M15.4,7.3v15.4h5.4V7.3H15.4z M27.5,22.7h5.4V7.3h-5.4V22.7z M24.1,7c-1.7,0-3,1.4-3,3.1
	c0,1.7,1.4,3.1,3,3.1c1.7,0,3-1.4,3-3.1C27.2,8.4,25.8,7,24.1,7z M39.6,15.7c-0.3-0.5-0.3-0.9,0-1.4l4.3-7h-5.9c0,0-3.6,5.8-4,6.6
	c-0.5,0.8-0.5,1.3,0,2.1c0.5,0.8,4,6.6,4,6.6h5.9C43.9,22.7,39.7,15.8,39.6,15.7z M15,22.7L12.1,9.8c-0.3-1.4-1.5-2.5-3-2.5H5.7
	l3.5,15.4L15,22.7L15,22.7z M49.8,7.5l-2.4,6.6h1.4l0.5-1.5h2.3l0.5,1.5h1.4l-2.4-6.6H49.8z M49.7,11.6L50.5,9l0.8,2.6H49.7z
	 M54.6,7.5v6.6h4.1V13h-2.9V7.5H54.6z M60,7.5v6.6h4.1V13h-2.9V7.5H60z M66,14.1h1.3V8.6h2V7.5H64v1.1h2V14.1z M70.6,14.1h1.3V7.5
	h-1.3V14.1z M74.1,7.5v6.6h2c2.3,0,3.5-1,3.5-3.4c0-2-1.1-3.2-3.3-3.2H74.1z M76.3,8.6c1.3,0,1.9,0.8,1.9,2.2c0,1.4-0.6,2.2-1.9,2.2
	h-0.9V8.6H76.3z M48,22.7h1.3v-4.4l3,4.4h1.1v-6.6H52v4.5l-2.9-4.5H48V22.7z M56.8,22.7h1.3V20l2.2-4h-1.4l-1.4,2.7l-1.4-2.7h-1.4
	l2.2,4V22.7z M61.5,22.7h1.3v-2.8h2.7v2.8h1.3v-6.6h-1.3v2.7h-2.7v-2.7h-1.3V22.7z M68.8,22.7h4.5v-1.1H70v-1.7h2.8v-1.1H70v-1.6
	h3.1v-1.1h-4.4V22.7z M76.3,22.7h1.3v-5.5h2v-1.1h-5.2v1.1h2V22.7z M80.8,22.7h4.5v-1.1h-3.2v-1.7h2.8v-1.1h-2.8v-1.6h3.1v-1.1h-4.4
	V22.7z M86.8,16.1v6.6h1.3v-2.4h0.7c0.2,0,0.4,0,0.6,0l1.2,2.4H92L90.6,20c0.7-0.4,1.1-1,1.1-1.8c0-1.3-0.8-2.1-2.4-2.1H86.8z
	 M89.1,17.2c0.8,0,1.2,0.3,1.2,1c0,0.7-0.4,1.1-1.2,1.1h-1v-2.1H89.1z"/>
</svg>
