<?xml version="1.0" encoding="utf-8"?>
<!-- Generator: Adobe Illustrator 18.1.1, SVG Export Plug-In . SVG Version: 6.00 Build 0)  -->
<svg version="1.1" id="nrk-p1" xmlns="http://www.w3.org/2000/svg" xmlns:xlink="http://www.w3.org/1999/xlink" x="0px" y="0px"
	 viewBox="0 0 137 30" enable-background="new 0 0 137 30" xml:space="preserve">
<path d="M5.4,7.3l0,15.3l-5.4,0v-1.2L0,7.3H5.4z M15.4,22.7h5.4V7.3h-5.4V22.7z M33,7.3h-5.4v15.3l5.4,0V7.3z M24.2,7
	c-1.7,0-3.1,1.4-3.1,3.1c0,1.7,1.4,3.1,3,3.1c1.7,0,3.1-1.4,3.1-3.1C27.3,8.4,25.9,7,24.2,7 M39.8,15.7c-0.3-0.5-0.3-0.9,0-1.4
	l4.3-7h-5.9c0,0-3.6,5.8-4.1,6.6c-0.5,0.8-0.5,1.3,0,2.1c0.5,0.8,4,6.6,4,6.6H44C44,22.7,39.8,15.8,39.8,15.7 M12.2,9.8
	c-0.3-1.4-1.5-2.5-3-2.5l-3.5,0l3.5,15.3h5.9L12.2,9.8z M49.2,20.6c1.3,1.4,3.2,2.3,5.3,2.3c3.1,0,5.1-1.7,5.1-4.4
	c0-2.3-1.1-3.3-4.3-4.4c-2.6-0.9-3.9-1.3-3.9-3.1c0-1.7,1.4-2.6,3.2-2.6c1.3,0,2.8,0.5,3.9,1.8l1-1c-1.3-1.5-2.9-2.2-4.9-2.2
	c-2.8,0-4.9,1.5-4.9,4.1c0,2.3,1.3,3.3,4.7,4.3c2.8,0.9,3.6,1.6,3.6,3.2c0,1.8-1.4,2.8-3.4,2.8c-1.6,0-3.1-0.7-4.5-2L49.2,20.6z
	 M66.6,11.2c-3.1,0-5.2,2.2-5.2,5.9c0,2.6,1,4.5,2.7,5.3l-0.6,1.8h1.4l0.4-1.4c0.3,0,0.7,0.1,1,0.1c3.1,0,5.2-2.2,5.2-5.8
	c0-2.7-1-4.6-2.8-5.4l0.5-1.7h-1.4l-0.4,1.3C67.2,11.3,66.9,11.2,66.6,11.2 M64.6,21c-0.9-0.7-1.5-1.9-1.5-3.9c0-3,1.4-4.5,3.4-4.5
	c0.2,0,0.4,0,0.6,0.1L64.6,21 M68.3,13.2c1,0.7,1.6,1.9,1.6,3.9c0,3-1.5,4.4-3.5,4.4c-0.2,0-0.5,0-0.7-0.1L68.3,13.2 M75.4,11.5H74
	v11.2h1.6v-7.9c0.4-0.9,1.3-2,2.3-2c0.4,0,0.7,0,0.9,0.1l0.2-1.5c-0.3-0.1-0.7-0.2-1-0.2c-1.1,0-2.1,0.9-2.6,2V11.5z M81.1,22.7h1.6
	V7.3h-1.6V22.7z M93.5,22.7h1.4V11.5h-1.5v1.7c-0.8-1.1-2-1.9-3.7-1.9c-2.9,0-4.6,2.3-4.6,5.9c0,3.5,1.4,5.8,4.6,5.8
	c2,0,3.2-1.1,3.7-1.8L93.5,22.7z M93.3,19.7c-0.6,0.7-1.6,1.9-3.2,1.9c-2.5,0-3.3-2.2-3.3-4.4c0-2.9,1.3-4.4,3.2-4.4
	c1.7,0,2.9,1.3,3.4,2V19.7z M97.8,11.5v11.2h1.6v-8.1c0.5-0.6,1.7-1.9,3.3-1.9c1.5,0,2.2,1,2.2,3.1v6.9h1.6v-7.2
	c0-2.4-0.9-4.2-3.5-4.2c-1.6,0-2.8,0.8-3.7,1.9v-1.7H97.8z M117.2,22.7h1.4V7.3H117V13c-0.8-1-1.9-1.8-3.6-1.8
	c-2.9,0-4.6,2.3-4.6,5.9c0,3.5,1.4,5.8,4.6,5.8c2,0,3.2-1.1,3.7-1.8L117.2,22.7z M117,19.7c-0.6,0.7-1.6,1.9-3.2,1.9
	c-2.5,0-3.3-2.2-3.3-4.4c0-2.9,1.3-4.4,3.2-4.4c1.7,0,2.9,1.3,3.4,2V19.7z M129.5,20.3c-1.1,0.8-2,1.2-3.3,1.2c-2.5,0-3.5-1.7-3.5-4
	h7.7v-0.9c0-3.6-1.5-5.4-4.3-5.4c-3.1,0-5.1,2.3-5.1,5.9c0,3.9,2,5.8,5.1,5.8c1.5,0,2.9-0.4,4.1-1.5L129.5,20.3z M122.7,16.2
	c0-1.1,0.7-3.6,3.3-3.6c2.1,0,2.8,1.6,2.8,3.6H122.7z M136.7,12.8v-1.3h-2v-3h-1.3l-0.2,3l-1.4,0.3v1h1.4v8.1c0,1.4,0.7,2,2,2
	c0.6,0,1.3-0.2,1.9-0.4l-0.3-1.2c-0.4,0.1-0.7,0.3-1.1,0.3c-0.6,0-0.9-0.2-0.9-1v-7.8H136.7z"/>
</svg>
