<?xml version="1.0" encoding="utf-8"?>
<!-- Generator: Adobe Illustrator 18.1.1, SVG Export Plug-In . SVG Version: 6.00 Build 0)  -->
<svg version="1.1" id="nrk-p1" xmlns="http://www.w3.org/2000/svg" xmlns:xlink="http://www.w3.org/1999/xlink" x="0px" y="0px"
	 viewBox="0 0 105.1 30" enable-background="new 0 0 105.1 30" xml:space="preserve">
<path d="M5.4,7.4l0,15.3l-5.4,0v-1.2L0,7.4H5.4z M15.4,22.7h5.4V7.4h-5.4V22.7z M32.9,7.4h-5.4v15.3l5.4,0V7.4z M24.2,7
	c-1.7,0-3,1.4-3,3c0,1.7,1.4,3.1,3,3.1c1.7,0,3-1.4,3-3.1C27.2,8.4,25.8,7,24.2,7 M39.7,15.7c-0.3-0.5-0.3-0.9,0-1.4l4.3-7H38
	c0,0-3.6,5.8-4,6.6c-0.5,0.8-0.5,1.3,0,2.1c0.5,0.8,4,6.6,4,6.6h5.9C43.9,22.7,39.7,15.8,39.7,15.7 M12.2,9.8
	c-0.3-1.4-1.5-2.5-3-2.5l-3.5,0l3.5,15.3h5.9L12.2,9.8z M54.8,22.7h1.7V8.8h4.8V7.4H50v1.5h4.8V22.7z M63,11.5h-1.4v11.2h1.6v-7.8
	c0.4-0.9,1.3-2,2.3-2c0.4,0,0.7,0,0.9,0.1l0.2-1.5c-0.3-0.1-0.7-0.2-1-0.2c-1.1,0-2.1,0.9-2.5,2V11.5z M72.7,11.3
	c-3.1,0-5.1,2.2-5.1,5.9c0,3.6,1.9,5.8,5,5.8c3.1,0,5.2-2.1,5.2-5.8C77.7,13.4,75.7,11.3,72.7,11.3 M72.6,21.5c-2,0-3.4-1.4-3.4-4.4
	c0-3,1.4-4.4,3.4-4.4c2,0,3.5,1.4,3.5,4.4C76.1,20.1,74.5,21.5,72.6,21.5 M80.3,11.5v11.2h1.6v-8.1c0.5-0.6,1.6-1.8,3-1.8
	c1.4,0,1.8,1,1.8,2.5v7.4h1.6v-8.2c0.4-0.6,1.6-1.8,2.9-1.8c1.4,0,1.8,0.9,1.8,2.5v7.5h1.6V15c0-2-0.6-3.7-3-3.7
	c-1.6,0-2.7,0.9-3.6,1.9c-0.3-1.1-1.1-1.9-2.7-1.9c-1.6,0-2.7,0.9-3.5,2v-1.7H80.3z M96.5,21.2c1,1,2.6,1.8,4.4,1.8
	c2.5,0,4.2-1.3,4.2-3.4c0-1.7-1.1-2.6-3.6-3.3c-2-0.5-2.8-0.9-2.8-2c0-1.1,0.9-1.7,2.3-1.7c1,0,2.2,0.4,3.2,1.3l0.8-0.9
	c-1.1-1.1-2.4-1.7-4-1.7c-2.4,0-3.9,1.2-3.9,3.2c0,1.7,1,2.6,3.6,3.2c2.2,0.5,2.8,1,2.8,2.1c0,1.1-1,1.9-2.6,1.9
	c-1.2,0-2.5-0.6-3.5-1.4L96.5,21.2z"/>
</svg>
