<?xml version="1.0" encoding="utf-8"?>
<!-- Generator: Adobe Illustrator 18.1.0, SVG Export Plug-In . SVG Version: 6.00 Build 0)  -->
<svg version="1.1" id="nrk-p1" xmlns="http://www.w3.org/2000/svg" xmlns:xlink="http://www.w3.org/1999/xlink" x="0px" y="0px"
	 viewBox="0 0 131 30" enable-background="new 0 0 131 30" xml:space="preserve">
<path d="M51.3,12.7c-1.3,0-2.3,1-2.3,2.3c0,1.3,1,2.3,2.3,2.3c1.3,0,2.3-1,2.3-2.3C53.6,13.7,52.6,12.7,51.3,12.7z M62.3,13.6
	c-0.1,0-0.2-0.1-0.3-0.2l-0.7-1.9c0-0.1-0.1-0.1-0.1,0l-0.7,1.9c0,0.1-0.1,0.2-0.2,0.2l-2,0.1c-0.1,0-0.1,0.1,0,0.1l1.6,1.3
	c0.1,0.1,0.1,0.2,0.1,0.3l-0.5,1.9c0,0.1,0,0.1,0.1,0.1l1.7-1.1c0.1-0.1,0.2-0.1,0.3,0l1.7,1.1c0.1,0.1,0.1,0,0.1-0.1l-0.5-1.9
	c0-0.1,0-0.2,0.1-0.3l1.6-1.3c0.1-0.1,0.1-0.1,0-0.1L62.3,13.6z M56.3,0c-8.3,0-15,6.7-15,15c0,8.3,6.7,15,15,15c8.3,0,15-6.7,15-15
	C71.3,6.7,64.6,0,56.3,0z M56.3,27.1c-6.6,0-12.1-5.4-12.1-12.1c0-6.6,5.4-12.1,12.1-12.1C63,2.9,68.4,8.4,68.4,15
	C68.4,21.6,63,27.1,56.3,27.1z M20,8.2c-1.4,0-2.5,1.1-2.5,2.5s1.1,2.5,2.5,2.5c1.4,0,2.5-1.1,2.5-2.5C22.5,9.3,21.4,8.2,20,8.2z
	 M0,21.2h4.5V8.4H0L0,21.2z M7.6,8.4l-2.9,0l2.9,12.8h4.9l-2.4-10.7C9.8,9.3,8.8,8.4,7.6,8.4z M12.8,21.2h4.5V8.4h-4.5V21.2z
	 M22.8,21.2h4.5V8.4h-4.5V21.2z M36.4,8.4h-4.9c0,0-3,4.8-3.4,5.5c-0.4,0.7-0.4,1.1,0,1.8c0.4,0.7,3.3,5.5,3.3,5.5h4.9
	c0,0-3.5-5.7-3.5-5.8c-0.3-0.5-0.3-0.7,0-1.2L36.4,8.4z M117.7,8.5c-1.3,0-2.5,0.4-3.4,1.2c-1,0.8-1.5,2-1.5,3.4v3.8
	c0,1.4,0.6,2.5,1.6,3.3c0.9,0.7,2.1,1.1,3.4,1.1c2.2,0,3.9-1,4.7-2.7c0,0,0.1-0.4,0.1-0.4c0-0.7-0.6-1.3-1.3-1.3
	c-0.5,0-0.9,0.3-1.2,0.7c-0.5,1-1.8,1.1-2.3,1.1c-0.7,0-2.4-0.2-2.4-1.9v-1c0.3,0,6.4,0,6.4,0c0.6-0.1,1.1-0.6,1.1-1.2v-1.5
	c0-1.3-0.5-2.5-1.5-3.4C120.3,9,119,8.5,117.7,8.5z M120.2,13.5c-0.3,0-4.9,0-4.9,0c0,0,0-0.5,0-0.5c0-1.5,1.3-2,2.4-2
	c1.1,0,2.5,0.5,2.5,2V13.5z M129.7,8.5c-0.8,0-1.5,0.2-2.1,0.6c-0.2-0.3-0.6-0.6-1-0.6c-0.7,0-1.3,0.6-1.3,1.3V20
	c0,0.7,0.6,1.3,1.3,1.3c0.7,0,1.3-0.6,1.3-1.3v-6.6c0-0.4,0.1-2.4,1.9-2.4c0.7,0,1.3-0.5,1.3-1.2C130.9,9.1,130.4,8.5,129.7,8.5z
	 M105.4,8.5c-1,0-1.9,0.2-2.7,0.6c-0.2-0.3-0.6-0.5-1-0.5c-0.7,0-1.3,0.6-1.3,1.3v14.7c0,0.7,0.6,1.3,1.3,1.3c0.7,0,1.3-0.6,1.3-1.3
	v-3.9c0.7,0.4,1.5,0.5,2.4,0.5c1.3,0,2.6-0.4,3.4-1.2c1-0.8,1.5-2,1.5-3.4V13c0-1.3-0.6-2.5-1.6-3.4C107.9,8.9,106.7,8.5,105.4,8.5z
	 M107.8,16.7c0,1.5-1.3,2-2.5,2c-1.2,0-2.4-0.5-2.4-2V13c0-1.7,1.7-1.9,2.4-1.9c0.7,0,2.5,0.2,2.5,1.9V16.7z M96.4,8.5
	c-0.7,0-1.3,0.6-1.3,1.3v7c0,1.7-1.7,1.9-2.5,1.9c-0.7,0-2.4-0.2-2.4-1.9v-7c0-0.7-0.6-1.3-1.3-1.3c-0.7,0-1.3,0.6-1.3,1.3v7
	c0,1.4,0.6,2.5,1.6,3.3c0.9,0.7,2.1,1.1,3.4,1.1c1.3,0,2.5-0.4,3.4-1.1c1-0.8,1.6-2,1.6-3.3v-7C97.7,9.1,97.1,8.5,96.4,8.5z
	 M81.6,13.6c-2.1-0.6-2.1-1.1-2.1-1.3c0-0.9,0.6-1.4,1.7-1.4c0.5,0,1.4,0.1,1.7,1c0.1,0.3,0.3,0.6,0.6,0.7c0.3,0.1,0.6,0.2,0.9,0
	c0.3-0.1,0.6-0.3,0.7-0.7c0.1-0.3,0.2-0.6,0-0.9c-0.6-1.7-2.1-2.7-4.1-2.7c-2.5,0-4.2,1.5-4.2,3.8c0,0.6,0.2,1.8,1.5,2.7
	c0.6,0.4,1.3,0.6,2.5,1l0,0c2.1,0.6,2.1,0.9,2.1,1.4c0,1.4-1.5,1.6-2.1,1.6c-0.9,0-1.9-0.4-2-1.4c-0.1-0.3-0.2-0.6-0.5-0.8
	c-0.3-0.2-0.6-0.3-0.9-0.2c-0.7,0.1-1.1,0.8-1,1.4c0.3,2.1,2.1,3.4,4.5,3.4c2.7,0,4.6-1.7,4.6-4.1c0-1-0.2-1.6-0.9-2.2
	C84.1,14.4,83.1,13.9,81.6,13.6z"/>
</svg>
