<?xml version="1.0" encoding="utf-8"?>
<!-- Generator: Adobe Illustrator 18.1.1, SVG Export Plug-In . SVG Version: 6.00 Build 0)  -->
<svg version="1.1" id="nrk-p1" xmlns="http://www.w3.org/2000/svg" xmlns:xlink="http://www.w3.org/1999/xlink" x="0px" y="0px"
	 viewBox="0 0 141.3 30" enable-background="new 0 0 141.3 30" xml:space="preserve">
<path d="M5.4,7.3l0,15.3l-5.4,0v-1.2L0,7.3H5.4z M15.4,22.7h5.4V7.3h-5.4V22.7z M33,7.3h-5.4v15.3l5.4,0V7.3z M24.2,7
	c-1.7,0-3,1.4-3,3.1c0,1.7,1.4,3.1,3,3.1c1.7,0,3.1-1.4,3.1-3.1C27.2,8.4,25.9,7,24.2,7 M39.7,15.7c-0.3-0.5-0.3-0.9,0-1.4l4.3-7H38
	c0,0-3.6,5.8-4.1,6.6c-0.5,0.8-0.5,1.3,0,2.1c0.5,0.8,4,6.6,4,6.6H44C44,22.7,39.8,15.8,39.7,15.7 M12.2,9.8c-0.3-1.4-1.5-2.5-3-2.5
	l-3.5,0l3.5,15.3h5.9L12.2,9.8z M54.8,22.7h1.7V8.8h4.8V7.3H50v1.5h4.8V22.7z M63.2,11.5h-1.4v11.2h1.6v-7.8c0.4-0.9,1.3-2,2.3-2
	c0.4,0,0.7,0,0.9,0.1l0.2-1.5c-0.3-0.1-0.7-0.2-1-0.2c-1.1,0-2.1,0.9-2.6,2V11.5z M73.1,11.2c-3.1,0-5.1,2.2-5.1,5.9
	c0,2.6,1,4.5,2.7,5.3L70,24.2h1.4l0.4-1.4c0.3,0,0.7,0.1,1,0.1c3.1,0,5.2-2.1,5.2-5.8c0-2.7-1-4.6-2.8-5.4l0.5-1.7h-1.4L74,11.3
	C73.7,11.3,73.4,11.2,73.1,11.2 M71.1,20.9c-0.9-0.7-1.5-1.9-1.5-3.8c0-3,1.4-4.4,3.4-4.4c0.2,0,0.4,0,0.6,0.1L71.1,20.9 M74.8,13.2
	c1,0.7,1.6,1.9,1.6,3.9c0,3-1.5,4.4-3.5,4.4c-0.2,0-0.5,0-0.7-0.1L74.8,13.2 M80.5,11.5v11.2h1.6v-8.1c0.5-0.6,1.7-1.9,3.3-1.9
	c1.5,0,2.2,1,2.2,3.1v6.9h1.6v-7.2c0-2.4-0.9-4.2-3.4-4.2c-1.6,0-2.8,0.8-3.7,1.9v-1.7H80.5z M99.8,22.7h1.4V7.3h-1.6V13
	c-0.8-1-1.9-1.8-3.6-1.8c-2.9,0-4.6,2.3-4.6,5.9c0,3.5,1.4,5.8,4.6,5.8c2,0,3.1-1.1,3.7-1.8L99.8,22.7z M99.7,19.6
	c-0.6,0.7-1.6,1.9-3.2,1.9c-2.5,0-3.3-2.2-3.3-4.4c0-2.9,1.3-4.4,3.1-4.4c1.7,0,2.8,1.3,3.4,2V19.6z M112.1,20.3
	c-1.1,0.8-2,1.2-3.3,1.2c-2.4,0-3.5-1.7-3.5-4h7.7v-0.9c0-3.6-1.5-5.4-4.3-5.4c-3.1,0-5.1,2.3-5.1,5.9c0,3.9,2,5.8,5.1,5.8
	c1.5,0,2.9-0.4,4.1-1.5L112.1,20.3z M105.3,16.2c0-1.1,0.7-3.6,3.3-3.6c2.1,0,2.8,1.6,2.8,3.6H105.3z M115.4,22.7h1.6V7.3h-1.6V22.7
	z M127.7,22.7h1.4V11.5h-1.5v1.7c-0.8-1.1-2-1.9-3.7-1.9c-2.9,0-4.6,2.3-4.6,5.9c0,3.5,1.4,5.8,4.6,5.8c2,0,3.1-1.1,3.7-1.8
	L127.7,22.7z M127.6,19.6c-0.6,0.7-1.6,1.9-3.2,1.9c-2.5,0-3.3-2.2-3.3-4.4c0-2.9,1.3-4.4,3.1-4.4c1.7,0,2.9,1.3,3.4,2V19.6z
	 M141.3,11.5h-1.4v1.6c-0.6-0.8-1.8-1.9-3.6-1.9c-3.2,0-4.7,2.6-4.7,5.9c0,3.3,1.3,5.7,4.5,5.7c1.7,0,2.9-0.8,3.7-1.7v1.1
	c0,2.4-0.6,3.6-3.3,3.6c-1.3,0-2.5-0.3-3.4-0.7l-0.4,1.3c0.9,0.4,2.4,0.7,3.9,0.7c3.1,0,4.7-1.1,4.7-4.7V11.5z M139.8,19.7
	c-0.6,0.7-1.7,1.7-3.3,1.7c-2.3,0-3.2-1.8-3.2-4.4c0-2.7,1.1-4.4,3.3-4.4c1.5,0,2.8,1.3,3.3,2V19.7z"/>
</svg>
