<?xml version="1.0" encoding="utf-8"?>
<!-- Generator: Adobe Illustrator 18.1.0, SVG Export Plug-In . SVG Version: 6.00 Build 0)  -->
<svg version="1.1" id="nrk-p1" xmlns="http://www.w3.org/2000/svg" xmlns:xlink="http://www.w3.org/1999/xlink" x="0px" y="0px"
	 viewBox="0 0 186.7 30" enable-background="new 0 0 186.7 30" xml:space="preserve">
<path d="M5.4,7.4l0,15.3l-5.4,0v-1.2L0,7.4H5.4z M15.4,22.7h5.4V7.4h-5.4V22.7z M33,7.4h-5.4v15.3l5.4,0V7.4z M24.2,7.1
	c-1.7,0-3,1.4-3,3.1c0,1.7,1.4,3.1,3,3.1c1.7,0,3.1-1.4,3.1-3.1C27.2,8.4,25.9,7.1,24.2,7.1 M39.7,15.8c-0.3-0.5-0.3-0.9,0-1.4
	l4.3-7H38c0,0-3.6,5.8-4.1,6.6c-0.5,0.8-0.5,1.3,0,2.1c0.5,0.8,4,6.6,4,6.6H44C44,22.7,39.8,15.9,39.7,15.8 M12.2,9.8
	c-0.3-1.4-1.5-2.5-3-2.5l-3.5,0l3.5,15.3h5.9L12.2,9.8z M49.3,22.7h1.6v-7h6.6v-1.4h-6.6V8.9h7.5V7.4h-9.1V22.7z M59.2,14.9
	c0,5.6,2.9,8.1,6.9,8.1c3.9,0,6.9-2.5,6.9-8.1c0-5.1-2.9-7.8-6.8-7.8C62.1,7.1,59.2,9.8,59.2,14.9z M60.9,14.9c0-4,2-6.3,5.2-6.3
	c3,0,5.1,2.2,5.1,6.3c0,4.5-2,6.6-5.1,6.6C63,21.5,60.9,19.4,60.9,14.9z M75.1,7.4v15.3h8.8v-1.5h-7.2V7.4H75.1z M85.9,22.7h1.6
	v-7.2h3l4.7,7.2h1.9l-5.1-8l4.4-7.3h-1.8l-4,6.7h-3V7.4h-1.6V22.7z M99.2,22.7h9.8v-1.4h-8.1v-5.7h7.2v-1.5h-7.2V8.9h7.9V7.4h-9.6
	V22.7z M127.4,22.7l-1.6-15.3H124l-4.5,12.9L115,7.4H113l-1.5,15.3h1.6l1.3-12.6l4.4,12.6h1.4l4.4-12.6l1.3,12.6H127.4z M130.2,7.4
	V17c0,4.1,2.3,5.9,5.7,5.9c3.7,0,5.6-2,5.6-5.9V7.4h-1.6v9.5c0,3-1.1,4.7-4,4.7c-2.6,0-4.1-1.5-4.1-4.7V7.4H130.2z M143.7,20.7
	C145,22,146.9,23,149,23c3.1,0,5.1-1.7,5.1-4.4c0-2.3-1.1-3.3-4.3-4.4c-2.6-0.9-3.9-1.3-3.9-3.1c0-1.7,1.4-2.6,3.2-2.6
	c1.3,0,2.8,0.5,3.9,1.8l1-1c-1.3-1.5-2.9-2.2-4.9-2.2c-2.8,0-4.9,1.5-4.9,4.1c0,2.3,1.3,3.3,4.7,4.3c2.8,0.9,3.6,1.6,3.6,3.2
	c0,1.8-1.4,2.8-3.4,2.8c-1.6,0-3.1-0.7-4.5-2L143.7,20.7z M157.2,22.7h1.6V7.4h-1.6V22.7z M162.6,22.7h1.6v-7.2h3l4.7,7.2h1.9
	l-5.1-8l4.4-7.3h-1.8l-4,6.7h-3V7.4h-1.6V22.7z M175.6,22.7h1.6v-7.2h3l4.7,7.2h1.9l-5.1-8l4.4-7.3h-1.8l-4,6.7h-3V7.4h-1.6V22.7z"
	/>
</svg>
