<?xml version="1.0" encoding="utf-8"?>
<!-- Generator: Adobe Illustrator 18.1.0, SVG Export Plug-In . SVG Version: 6.00 Build 0)  -->
<svg version="1.1" id="nrk-p1" xmlns="http://www.w3.org/2000/svg" xmlns:xlink="http://www.w3.org/1999/xlink" x="0px" y="0px"
	 viewBox="0 0 142.3 30" enable-background="new 0 0 142.3 30" xml:space="preserve">
<path d="M5.4,7.4l0,15.3l-5.4,0v-1.2L0,7.4H5.4z M15.4,22.7h5.4V7.4h-5.4V22.7z M33,7.4h-5.4v15.3l5.4,0V7.4z M24.2,7.1
	c-1.7,0-3,1.4-3,3c0,1.7,1.4,3.1,3,3.1c1.7,0,3-1.4,3-3.1C27.2,8.4,25.9,7.1,24.2,7.1 M39.7,15.8c-0.3-0.5-0.3-0.9,0-1.4l4.3-7H38
	c0,0-3.6,5.8-4.1,6.6c-0.5,0.8-0.5,1.3,0,2.1c0.5,0.8,4,6.6,4,6.6h5.9C43.9,22.7,39.8,15.8,39.7,15.8 M12.2,9.8
	c-0.3-1.4-1.5-2.5-3-2.5l-3.5,0l3.5,15.3h5.9L12.2,9.8z M50.3,22.6h1.6v-7.2h3l4.7,7.2h1.9l-5.1-8l4.4-7.3h-1.8l-4,6.7h-3V7.3h-1.6
	V22.6z M63.5,7.3v15.3h8.8v-1.5h-7.1V7.3H63.5z M78.8,7.3l-5.5,15.3H75l1.6-4.4h6.2l1.6,4.4h1.7L80.5,7.3H78.8z M77.1,16.7l2.6-7.6
	l2.6,7.6H77.1z M87.2,20.5c1.3,1.4,3.2,2.3,5.3,2.3c3.1,0,5.1-1.7,5.1-4.4c0-2.3-1.1-3.3-4.3-4.4c-2.6-0.9-3.9-1.3-3.9-3.1
	c0-1.7,1.4-2.6,3.2-2.6c1.3,0,2.8,0.5,3.9,1.8l1-1C96.3,7.7,94.6,7,92.6,7c-2.8,0-4.9,1.5-4.9,4.1c0,2.3,1.3,3.3,4.7,4.3
	c2.8,0.9,3.6,1.6,3.6,3.2c0,1.8-1.4,2.8-3.4,2.8c-1.6,0-3.1-0.7-4.4-2L87.2,20.5z M99.5,20.5c1.3,1.4,3.2,2.3,5.3,2.3
	c3.1,0,5.1-1.7,5.1-4.4c0-2.3-1.1-3.3-4.3-4.4c-2.6-0.9-3.9-1.3-3.9-3.1c0-1.7,1.4-2.6,3.2-2.6c1.3,0,2.8,0.5,3.9,1.8l1-1
	c-1.3-1.5-2.9-2.2-4.9-2.2c-2.8,0-4.9,1.5-4.9,4.1c0,2.3,1.3,3.3,4.7,4.3c2.8,0.9,3.6,1.6,3.6,3.2c0,1.8-1.4,2.8-3.4,2.8
	c-1.6,0-3.1-0.7-4.4-2L99.5,20.5z M113.2,22.6h1.6V7.3h-1.6V22.6z M117.7,20.5c1.3,1.4,3.2,2.3,5.3,2.3c3.1,0,5.1-1.7,5.1-4.4
	c0-2.3-1.1-3.3-4.3-4.4c-2.6-0.9-3.9-1.3-3.9-3.1c0-1.7,1.4-2.6,3.2-2.6c1.3,0,2.8,0.5,3.9,1.8l1-1c-1.3-1.5-2.9-2.2-4.9-2.2
	c-2.8,0-4.9,1.5-4.9,4.1c0,2.3,1.3,3.3,4.7,4.3c2.8,0.9,3.6,1.6,3.6,3.2c0,1.8-1.4,2.8-3.4,2.8c-1.6,0-3.1-0.7-4.4-2L117.7,20.5z
	 M131.1,22.6h1.6v-7.2h3l4.7,7.2h1.9l-5.1-8l4.4-7.3h-1.8l-4,6.7h-3V7.3h-1.6V22.6z"/>
</svg>
