<?xml version="1.0" encoding="utf-8"?>
<!-- Generator: Adobe Illustrator 18.1.1, SVG Export Plug-In . SVG Version: 6.00 Build 0)  -->
<svg version="1.1" id="nrk-p1" xmlns="http://www.w3.org/2000/svg" xmlns:xlink="http://www.w3.org/1999/xlink" x="0px" y="0px"
	 viewBox="0 0 113.8 30" enable-background="new 0 0 113.8 30" xml:space="preserve">
<path d="M5.4,7.3l0,15.3l-5.4,0v-1.2L0,7.3H5.4z M15.4,22.6h5.4V7.3h-5.4V22.6z M32.9,7.3h-5.4v15.3l5.4,0V7.3z M24.2,7
	c-1.7,0-3,1.4-3,3c0,1.7,1.4,3.1,3,3.1c1.7,0,3-1.4,3-3.1C27.2,8.4,25.8,7,24.2,7 M39.7,15.7c-0.3-0.5-0.3-0.9,0-1.4l4.3-7H38
	c0,0-3.6,5.8-4.1,6.6c-0.5,0.8-0.5,1.3,0,2.1c0.5,0.8,4,6.6,4,6.6h5.9C43.9,22.6,39.7,15.8,39.7,15.7 M12.2,9.8
	c-0.3-1.4-1.5-2.5-3-2.5l-3.5,0l3.5,15.3h5.9L12.2,9.8z M49.7,14.8c0,4.1,1.6,6.6,4,7.5l-0.5,1.8h1.4l0.4-1.4c0.5,0.1,1,0.1,1.6,0.1
	c3.9,0,6.9-2.5,6.9-8.1c0-3.8-1.6-6.2-4-7.2L59.9,6h-1.4l-0.4,1.2c-0.4-0.1-0.9-0.1-1.4-0.1C52.6,7.1,49.7,9.7,49.7,14.8z
	 M51.4,14.8c0-4,2-6.2,5.2-6.2c0.4,0,0.7,0,1.1,0.1l-3.6,12.2C52.4,20,51.4,18,51.4,14.8z M61.7,14.8c0,4.5-2,6.6-5.1,6.6
	c-0.4,0-0.8,0-1.2-0.1L59,9.1C60.7,10,61.7,11.9,61.7,14.8z M64.6,21.1c1,1,2.6,1.8,4.4,1.8c2.5,0,4.2-1.3,4.2-3.4
	c0-1.7-1.1-2.6-3.6-3.3c-2-0.5-2.8-0.9-2.8-2c0-1.1,0.9-1.7,2.3-1.7c1,0,2.2,0.4,3.2,1.3l0.8-0.9c-1.1-1.1-2.4-1.7-4-1.7
	c-2.4,0-3.9,1.2-3.9,3.2c0,1.7,1,2.6,3.6,3.2c2.2,0.5,2.8,1,2.8,2.1c0,1.1-1,1.9-2.6,1.9c-1.2,0-2.5-0.6-3.5-1.4L64.6,21.1z
	 M79.7,12.8v-1.3h-2v-3h-1.3l-0.2,3l-1.4,0.3v1h1.4v8.1c0,1.4,0.7,2,2,2c0.6,0,1.3-0.2,1.8-0.4l-0.3-1.1c-0.4,0.1-0.7,0.3-1.1,0.3
	c-0.6,0-0.9-0.2-0.9-1v-7.8H79.7z M83,22.6h1.6v-9.9h2.1v-1.3h-2.1V9.9c0-1.2,0.6-1.6,1.3-1.6c0.4,0,0.7,0.1,1,0.1L87,7.3
	c-0.5-0.1-1-0.2-1.4-0.2C83.7,7.1,83,8.4,83,10v1.6l-1.3,0.2v1H83V22.6z M87.8,17.1c0,3.6,1.9,5.8,5,5.8c3.1,0,5.2-2.1,5.2-5.8
	c0-3.7-2-5.8-5-5.8C89.9,11.2,87.8,13.4,87.8,17.1z M89.5,17.1c0-3,1.4-4.4,3.4-4.4c2,0,3.5,1.4,3.5,4.4c0,3-1.5,4.4-3.5,4.4
	C90.9,21.5,89.5,20.1,89.5,17.1z M101.8,22.6V7.3h-1.6v15.3H101.8z M112.5,22.6h1.4V7.3h-1.6V13c-0.8-1-1.9-1.8-3.6-1.8
	c-2.9,0-4.6,2.3-4.6,5.9c0,3.5,1.4,5.8,4.5,5.8c2,0,3.1-1.1,3.7-1.8L112.5,22.6z M112.3,19.6c-0.6,0.7-1.6,1.8-3.2,1.8
	c-2.5,0-3.3-2.2-3.3-4.4c0-2.9,1.3-4.4,3.1-4.4c1.7,0,2.8,1.3,3.4,2V19.6z"/>
</svg>
