<?xml version="1.0" encoding="utf-8"?>
<!-- Generator: Adobe Illustrator 25.4.1, SVG Export Plug-In . SVG Version: 6.00 Build 0)  -->
<svg version="1.1" id="Layer_2_00000059273869483403798960000016701299449463001767_"
	 xmlns="http://www.w3.org/2000/svg" xmlns:xlink="http://www.w3.org/1999/xlink" x="0px" y="0px" viewBox="0 0 130 130"
	 style="enable-background:new 0 0 130 130;" xml:space="preserve">
<style type="text/css">
	.st0{fill:#65C8FF;}
	.st1{fill:#FFFFFF;}
</style>
<g>
	<g>
		<g>
			<polygon class="st0" points="67.7,44.1 64.7,41.2 79.3,26.6 84.2,24.6 82.3,29.6 			"/>
			<polygon class="st0" points="67.7,41.2 64.8,44.1 50.2,29.6 48.2,24.6 53.2,26.6 			"/>
		</g>
		<polygon class="st1" points="70.1,71.6 62.5,71.6 62.5,20.3 66.3,11.4 70.1,20.3 		"/>
	</g>
	<g>
		<g>
			<polygon class="st0" points="64.8,85.1 67.8,88.1 53.2,102.7 48.3,104.7 50.2,99.7 			"/>
			<polygon class="st0" points="64.8,88.1 67.7,85.1 82.3,99.7 84.3,104.7 79.3,102.7 			"/>
		</g>
		<polygon class="st1" points="62.4,57.7 70,57.7 70,109 66.2,117.9 62.4,109 		"/>
	</g>
</g>
<g>
	<g>
		<g>
			<polygon class="st0" points="47.8,73.7 46.7,77.7 26.8,72.4 22.6,69.1 27.9,68.3 			"/>
			<polygon class="st0" points="45.2,75.1 49.2,76.2 43.9,96.1 40.6,100.3 39.8,95 			"/>
		</g>
		<polygon class="st1" points="70.3,57.9 74.2,64.5 29.7,90.1 20.1,91.3 25.9,83.5 		"/>
	</g>
	<g>
		<g>
			<polygon class="st0" points="84.7,55.6 85.8,51.6 105.7,56.9 109.9,60.2 104.6,61 			"/>
			<polygon class="st0" points="87.3,54.2 83.3,53.1 88.6,33.2 91.9,29 92.6,34.3 			"/>
		</g>
		<polygon class="st1" points="62.2,71.4 58.3,64.8 102.8,39.2 112.4,38 106.6,45.8 		"/>
	</g>
</g>
<g>
	<g>
		<g>
			<polygon class="st0" points="83.3,76.1 87.3,75.1 92.7,95 91.9,100.2 88.6,96.1 			"/>
			<polygon class="st0" points="85.8,77.7 84.7,73.6 104.7,68.3 109.9,69 105.7,72.3 			"/>
		</g>
		<polygon class="st1" points="58.3,64.5 62.1,57.9 106.6,83.6 112.4,91.3 102.8,90.2 		"/>
	</g>
	<g>
		<g>
			<polygon class="st0" points="49.2,53.2 45.2,54.2 39.8,34.3 40.6,29.1 43.9,33.2 			"/>
			<polygon class="st0" points="46.7,51.6 47.8,55.7 27.8,61 22.6,60.2 26.7,57 			"/>
		</g>
		<polygon class="st1" points="74.2,64.8 70.4,71.4 25.9,45.7 20.1,38 29.7,39.1 		"/>
	</g>
</g>
</svg>
