<?xml version="1.0" encoding="UTF-8"?>
<svg id="Sofie_NRK_small_v05" xmlns="http://www.w3.org/2000/svg" version="1.1" viewBox="0 0 933.3 933.3">
  <!-- Generator: Adobe Illustrator 29.1.0, SVG Export Plug-In . SVG Version: 2.1.0 Build 142)  -->
  <path d="M768.6,92.6h-184.3c-12.9,0-23.4-10.5-23.4-23.4h0c0-12.9,10.5-23.4,23.4-23.4h184.3c12.9,0,23.4,10.5,23.4,23.4h0c0,12.9-10.5,23.4-23.4,23.4Z"/>
  <circle cx="555.7" cy="69.2" r="23.4"/>
  <circle cx="508.9" cy="69.2" r="23.4"/>
  <path d="M478.9,69.2c0,10.3-8.4,18.7-18.7,18.7s-18.7-8.4-18.7-18.7,8.4-18.7,18.7-18.7,18.7,8.4,18.7,18.7Z"/>
  <path d="M429.2,69.2c0,8.3-6.7,15-15,15s-15-6.7-15-15,6.7-15,15-15,15,6.7,15,15Z"/>
  <circle cx="371.2" cy="69.2" r="12"/>
  <path d="M891.5,194.1h-441.1c-12.9,0-23.4-10.5-23.4-23.4h0c0-12.9,10.5-23.4,23.4-23.4h441.1c12.9,0,23.4,10.5,23.4,23.4h0c0,12.9-10.5,23.4-23.4,23.4Z"/>
  <circle cx="421.7" cy="170.7" r="23.4"/>
  <circle cx="374.9" cy="170.7" r="23.4"/>
  <path d="M344.8,170.7c0,10.3-8.4,18.7-18.7,18.7s-18.7-8.4-18.7-18.7,8.4-18.7,18.7-18.7,18.7,8.4,18.7,18.7Z"/>
  <path d="M295.2,170.7c0,8.3-6.7,15-15,15s-15-6.7-15-15,6.7-15,15-15,15,6.7,15,15Z"/>
  <circle cx="237.2" cy="170.7" r="12"/>
  <path d="M481.2,295.6h-93.4c-12.9,0-23.4-10.5-23.4-23.4h0c0-12.9,10.5-23.4,23.4-23.4h93.4c12.9,0,23.4,10.5,23.4,23.4h0c0,12.9-10.5,23.4-23.4,23.4Z"/>
  <path d="M858.9,295.6h-106.8c-12.9,0-23.4-10.5-23.4-23.4h0c0-12.9,10.5-23.4,23.4-23.4h106.8c12.9,0,23.4,10.5,23.4,23.4h0c0,12.9-10.5,23.4-23.4,23.4Z"/>
  <circle cx="359.1" cy="272.2" r="23.4"/>
  <circle cx="312.3" cy="272.2" r="23.4"/>
  <path d="M282.3,272.2c0,10.3-8.4,18.7-18.7,18.7s-18.7-8.4-18.7-18.7,8.4-18.7,18.7-18.7,18.7,8.4,18.7,18.7Z"/>
  <path d="M232.6,272.2c0,8.3-6.7,15-15,15s-15-6.7-15-15,6.7-15,15-15,15,6.7,15,15Z"/>
  <circle cx="174.6" cy="272.2" r="12"/>
  <path d="M582.9,397h-177.2c-12.9,0-23.4-10.5-23.4-23.4h0c0-12.9,10.5-23.4,23.4-23.4h177.2c12.9,0,23.4,10.5,23.4,23.4h0c0,12.9-10.5,23.4-23.4,23.4Z"/>
  <circle cx="377" cy="373.6" r="23.4"/>
  <circle cx="330.2" cy="373.6" r="23.4"/>
  <path d="M300.1,373.6c0,10.3-8.4,18.7-18.7,18.7s-18.7-8.4-18.7-18.7,8.4-18.7,18.7-18.7,18.7,8.4,18.7,18.7Z"/>
  <path d="M250.5,373.6c0,8.3-6.7,15-15,15s-15-6.7-15-15,6.7-15,15-15,15,6.7,15,15Z"/>
  <circle cx="192.5" cy="373.6" r="12"/>
  <path d="M731.5,498.5h-183.8c-12.9,0-23.4-10.5-23.4-23.4h0c0-12.9,10.5-23.4,23.4-23.4h183.8c12.9,0,23.4,10.5,23.4,23.4h0c0,12.9-10.5,23.4-23.4,23.4Z"/>
  <circle cx="519" cy="475.1" r="23.4"/>
  <circle cx="472.2" cy="475.1" r="23.4"/>
  <path d="M442.2,475.1c0,10.3-8.4,18.7-18.7,18.7s-18.7-8.4-18.7-18.7,8.4-18.7,18.7-18.7,18.7,8.4,18.7,18.7Z"/>
  <path d="M392.6,475.1c0,8.3-6.7,15-15,15s-15-6.7-15-15,6.7-15,15-15,15,6.7,15,15Z"/>
  <circle cx="334.5" cy="475.1" r="12"/>
  <path d="M805.9,600h-96.7c-12.9,0-23.4-10.5-23.4-23.4h0c0-12.9,10.5-23.4,23.4-23.4h96.7c12.9,0,23.4,10.5,23.4,23.4h0c0,12.9-10.5,23.4-23.4,23.4Z"/>
  <circle cx="680.5" cy="576.6" r="23.4"/>
  <circle cx="633.6" cy="576.6" r="23.4"/>
  <path d="M603.6,576.6c0,10.3-8.4,18.7-18.7,18.7s-18.7-8.4-18.7-18.7,8.4-18.7,18.7-18.7,18.7,8.4,18.7,18.7Z"/>
  <path d="M554,576.6c0,8.3-6.7,15-15,15s-15-6.7-15-15,6.7-15,15-15,15,6.7,15,15Z"/>
  <circle cx="496" cy="576.6" r="12"/>
  <path d="M795.2,701.5h-107.4c-12.9,0-23.4-10.5-23.4-23.4h0c0-12.9,10.5-23.4,23.4-23.4h107.4c12.9,0,23.4,10.5,23.4,23.4h0c0,12.9-10.5,23.4-23.4,23.4Z"/>
  <circle cx="659.1" cy="678.1" r="23.4"/>
  <circle cx="612.3" cy="678.1" r="23.4"/>
  <path d="M582.3,678.1c0,10.3-8.4,18.7-18.7,18.7s-18.7-8.4-18.7-18.7,8.4-18.7,18.7-18.7,18.7,8.4,18.7,18.7Z"/>
  <path d="M532.7,678.1c0,8.3-6.7,15-15,15s-15-6.7-15-15,6.7-15,15-15,15,6.7,15,15Z"/>
  <circle cx="474.6" cy="678.1" r="12"/>
  <path d="M339.4,701.5h-78.3c-12.9,0-23.4-10.5-23.4-23.4h0c0-12.9,10.5-23.4,23.4-23.4h78.3c12.9,0,23.4,10.5,23.4,23.4h0c0,12.9-10.5,23.4-23.4,23.4Z"/>
  <circle cx="232.5" cy="678.1" r="23.4"/>
  <circle cx="185.7" cy="678.1" r="23.4"/>
  <path d="M155.6,678.1c0,10.3-8.4,18.7-18.7,18.7s-18.7-8.4-18.7-18.7,8.4-18.7,18.7-18.7,18.7,8.4,18.7,18.7Z"/>
  <path d="M106,678.1c0,8.3-6.7,15-15,15s-15-6.7-15-15,6.7-15,15-15,15,6.7,15,15Z"/>
  <circle cx="48" cy="678.1" r="12"/>
  <path d="M756.6,802.9h-452c-12.9,0-23.4-10.5-23.4-23.4h0c0-12.9,10.5-23.4,23.4-23.4h452c12.9,0,23.4,10.5,23.4,23.4h0c0,12.9-10.5,23.4-23.4,23.4Z"/>
  <circle cx="275.9" cy="779.5" r="23.4"/>
  <circle cx="229.1" cy="779.5" r="23.4"/>
  <path d="M199,779.5c0,10.3-8.4,18.7-18.7,18.7s-18.7-8.4-18.7-18.7,8.4-18.7,18.7-18.7,18.7,8.4,18.7,18.7Z"/>
  <path d="M149.4,779.5c0,8.3-6.7,15-15,15s-15-6.7-15-15,6.7-15,15-15,15,6.7,15,15Z"/>
  <circle cx="91.4" cy="779.5" r="12"/>
  <path d="M651,904.4h-213c-12.9,0-23.4-10.5-23.4-23.4h0c0-12.9,10.5-23.4,23.4-23.4h213c12.9,0,23.4,10.5,23.4,23.4h0c0,12.9-10.5,23.4-23.4,23.4Z"/>
  <circle cx="409.4" cy="881" r="23.4"/>
  <circle cx="362.6" cy="881" r="23.4"/>
  <path d="M332.5,881c0,10.3-8.4,18.7-18.7,18.7s-18.7-8.4-18.7-18.7,8.4-18.7,18.7-18.7,18.7,8.4,18.7,18.7Z"/>
  <path d="M282.9,881c0,8.3-6.7,15-15,15s-15-6.7-15-15,6.7-15,15-15,15,6.7,15,15Z"/>
  <circle cx="224.9" cy="881" r="12"/>
</svg>