<?xml version="1.0" encoding="utf-8"?>
<!-- Generator: Adobe Illustrator 18.1.1, SVG Export Plug-In . SVG Version: 6.00 Build 0)  -->
<svg version="1.1" id="nrk-p1" xmlns="http://www.w3.org/2000/svg" xmlns:xlink="http://www.w3.org/1999/xlink" x="0px" y="0px"
	 viewBox="0 0 208.1 30" enable-background="new 0 0 208.1 30" xml:space="preserve">
<path d="M5.4,7.3l0,15.3l-5.4,0v-1.2L0,7.3H5.4z M15.4,22.6h5.4V7.3h-5.4V22.6z M32.9,7.3h-5.4v15.3l5.4,0V7.3z M24.2,7
	c-1.7,0-3,1.4-3,3c0,1.7,1.4,3.1,3,3.1c1.7,0,3-1.4,3-3.1C27.2,8.4,25.8,7,24.2,7 M39.7,15.7c-0.3-0.5-0.3-0.9,0-1.4l4.3-7H38
	c0,0-3.6,5.8-4.1,6.6c-0.5,0.8-0.5,1.3,0,2.1c0.5,0.8,4,6.6,4,6.6h5.9C43.9,22.6,39.7,15.8,39.7,15.7 M12.2,9.8
	c-0.3-1.4-1.5-2.5-3-2.5l-3.5,0l3.5,15.3h5.9L12.2,9.8z M65.9,22.6L64.3,7.3h-1.9l-4.5,12.9L53.5,7.3h-1.9L50,22.6h1.6l1.3-12.6
	l4.4,12.6h1.4L63,10.1l1.3,12.6H65.9z M67.9,17.1c0,2.6,1,4.5,2.7,5.3l-0.6,1.8h1.4l0.4-1.4c0.3,0,0.7,0.1,1,0.1
	c3.1,0,5.2-2.1,5.2-5.8c0-2.7-1-4.6-2.8-5.4l0.5-1.7h-1.4L74,11.3c-0.3,0-0.6-0.1-0.9-0.1C70,11.2,67.9,13.4,67.9,17.1z M69.6,17.1
	c0-3,1.4-4.4,3.4-4.4c0.2,0,0.4,0,0.6,0.1l-2.5,8.2C70.2,20.2,69.6,19,69.6,17.1z M76.5,17.1c0,3-1.5,4.4-3.5,4.4
	c-0.2,0-0.5,0-0.7-0.1l2.5-8.2C75.8,13.8,76.5,15.1,76.5,17.1z M81.9,11.5h-1.4v11.2h1.6v-7.8c0.4-0.9,1.3-2,2.3-2
	c0.4,0,0.7,0,0.9,0.1l0.2-1.5c-0.3-0.1-0.7-0.2-1-0.2c-1.1,0-2.1,0.9-2.6,2V11.5z M94.7,20.3c-1.1,0.8-2,1.2-3.3,1.2
	c-2.4,0-3.5-1.7-3.5-4h7.7c0-0.1,0-0.6,0-0.9c0-3.6-1.5-5.4-4.3-5.4c-3.1,0-5.1,2.3-5.1,5.9c0,3.9,2,5.8,5.1,5.8
	c1.5,0,2.9-0.4,4.1-1.5L94.7,20.3z M87.9,16.2c0-1.1,0.7-3.6,3.3-3.6c2.1,0,2.8,1.6,2.8,3.6H87.9z M101.5,17.1c0,3.6,1.9,5.8,5,5.8
	c3.1,0,5.2-2.1,5.2-5.8c0-3.7-2-5.8-5-5.8C103.6,11.2,101.5,13.4,101.5,17.1z M103.2,17.1c0-3,1.4-4.4,3.4-4.4c2,0,3.5,1.4,3.5,4.4
	c0,3-1.5,4.4-3.5,4.4C104.6,21.5,103.2,20.1,103.2,17.1z M123.3,11.5h-1.4v1.6c-0.6-0.8-1.8-1.9-3.6-1.9c-3.2,0-4.7,2.6-4.7,5.9
	c0,3.3,1.3,5.7,4.5,5.7c1.7,0,2.9-0.8,3.7-1.7v1.1c0,2.4-0.6,3.5-3.3,3.5c-1.3,0-2.5-0.3-3.4-0.7l-0.4,1.3c0.9,0.4,2.4,0.7,3.9,0.7
	c3.1,0,4.7-1.1,4.7-4.7V11.5z M121.8,19.7c-0.6,0.7-1.7,1.7-3.3,1.7c-2.3,0-3.2-1.8-3.2-4.4c0-2.7,1.1-4.4,3.3-4.4
	c1.5,0,2.8,1.3,3.3,2V19.7z M130.7,7.3v15.3h1.6v-6.1h2.6c0.6,0,1.1,0,1.6-0.1l3.3,6.3h1.8l-3.4-6.7c1.8-0.9,2.6-2.3,2.6-4.3
	c0-2.7-1.6-4.4-5.2-4.4H130.7z M135.4,8.8c2.5,0,3.6,1,3.6,3.1c0,2.1-1.3,3.3-3.9,3.3h-2.8V8.8H135.4z M142.6,17.1
	c0,3.6,1.9,5.8,5,5.8c3.1,0,5.2-2.1,5.2-5.8c0-3.7-2-5.8-5-5.8C144.6,11.2,142.6,13.4,142.6,17.1z M144.3,17.1c0-3,1.4-4.4,3.4-4.4
	c2,0,3.5,1.4,3.5,4.4c0,3-1.5,4.4-3.5,4.4C145.7,21.5,144.3,20.1,144.3,17.1z M155.2,11.5v11.2h1.6v-8.1c0.5-0.6,1.6-1.8,3-1.8
	c1.4,0,1.8,1,1.8,2.5v7.4h1.6v-8.2c0.4-0.6,1.6-1.8,2.9-1.8c1.4,0,1.8,0.9,1.8,2.5v7.5h1.6v-7.7c0-2-0.6-3.7-3-3.7
	c-1.6,0-2.7,0.9-3.6,1.9c-0.3-1.1-1.1-1.9-2.7-1.9c-1.6,0-2.7,0.9-3.5,2v-1.7H155.2z M171.3,21.1c1,1,2.6,1.8,4.4,1.8
	c2.5,0,4.2-1.3,4.2-3.4c0-1.7-1.1-2.6-3.6-3.3c-2-0.5-2.8-0.9-2.8-2c0-1.1,0.9-1.7,2.3-1.7c1,0,2.2,0.4,3.2,1.3l0.8-0.9
	c-1.1-1.1-2.4-1.7-4-1.7c-2.4,0-3.9,1.2-3.9,3.2c0,1.7,1,2.6,3.6,3.2c2.2,0.5,2.8,1,2.8,2.1c0,1.1-1,1.9-2.6,1.9
	c-1.2,0-2.5-0.6-3.5-1.4L171.3,21.1z M190,22.6h1.4V7.3h-1.6V13c-0.8-1-1.9-1.8-3.6-1.8c-2.9,0-4.6,2.3-4.6,5.9
	c0,3.5,1.4,5.8,4.5,5.8c2,0,3.1-1.1,3.7-1.8L190,22.6z M189.8,19.6c-0.6,0.7-1.6,1.9-3.2,1.9c-2.5,0-3.3-2.2-3.3-4.4
	c0-2.9,1.3-4.4,3.1-4.4c1.7,0,2.8,1.3,3.4,2V19.6z M202.2,22.6h1.4V11.5h-1.5v1.7c-0.8-1.1-2-1.9-3.7-1.9c-2.9,0-4.6,2.3-4.6,5.9
	c0,3.5,1.4,5.8,4.5,5.8c2,0,3.1-1.1,3.7-1.8L202.2,22.6z M202,19.6c-0.6,0.7-1.6,1.9-3.2,1.9c-2.5,0-3.3-2.2-3.3-4.4
	c0-2.9,1.3-4.4,3.1-4.4c1.7,0,2.8,1.3,3.4,2V19.6z M208.1,22.6V7.3h-1.6v15.3H208.1z"/>
</svg>
