<?xml version="1.0" encoding="utf-8"?>
<!-- Generator: Adobe Illustrator 18.1.0, SVG Export Plug-In . SVG Version: 6.00 Build 0)  -->
<svg version="1.1" id="nrk-p1" xmlns="http://www.w3.org/2000/svg" xmlns:xlink="http://www.w3.org/1999/xlink" x="0px" y="0px"
	 viewBox="0 0 78 30" enable-background="new 0 0 78 30" xml:space="preserve">
<path d="M0,7.3h5.4v15.4H0V7.3z M15.4,22.7h5.4V7.3h-5.4V22.7z M27.5,22.7h5.4V7.3h-5.4V22.7z M24.1,7c-1.7,0-3,1.4-3,3.1
	s1.4,3.1,3,3.1c1.7,0,3-1.4,3-3.1S25.8,7,24.1,7 M39.6,15.7c-0.3-0.5-0.3-0.9,0-1.4l4.3-7h-5.9c0,0-3.6,5.8-4,6.6
	c-0.5,0.8-0.5,1.3,0,2.1c0.5,0.8,4,6.6,4,6.6h5.9C43.9,22.7,39.7,15.8,39.6,15.7 M15,22.7L12.1,9.8c-0.3-1.4-1.5-2.5-3-2.5H5.7
	l3.5,15.4L15,22.7L15,22.7z M77.1,15c0,8.3-6.7,15-15,15c-8.3,0-15-6.7-15-15c0-8.3,6.7-15,15-15C70.4,0,77.1,6.7,77.1,15z
	 M59.6,13.3c0-2.3-1.4-3.6-3.9-3.6h-4.2v10.7h2.6v-8.5h1.4c1.1,0,1.5,0.6,1.5,1.5c0,0.9-0.5,1.5-1.6,1.5h-0.5V17h0.6
	C58.2,17,59.6,15.6,59.6,13.3z M64.7,9.6h-4.2v2.3h1.6v8.5h2.6V9.6z M73.7,16.4c0-1.6-1-3-2.4-3.6l2.2-3.1h-7.6v2.3h3.2l-1.6,2.3
	l-0.4,0.5h2.3c0.9,0,1.7,0.7,1.7,1.7s-0.7,1.7-1.7,1.7h-3.5v2.3h3.9C72,20.4,73.7,18.6,73.7,16.4z"/>
</svg>
