<?xml version="1.0" encoding="utf-8"?>
<!-- Generator: Adobe Illustrator 18.1.0, SVG Export Plug-In . SVG Version: 6.00 Build 0)  -->
<svg version="1.1" id="nrk-p1" xmlns="http://www.w3.org/2000/svg" xmlns:xlink="http://www.w3.org/1999/xlink" x="0px" y="0px"
	 viewBox="0 0 77 30" enable-background="new 0 0 77 30" xml:space="preserve">
<path d="M0,7.3h5.4v15.3H0V7.3z M15.3,22.7h5.4V7.3h-5.4V22.7z M27.4,22.7h5.4V7.3h-5.4V22.7z M24.1,7c-1.7,0-3,1.4-3,3.1
	c0,1.7,1.4,3.1,3,3.1c1.7,0,3-1.4,3-3.1C27.1,8.4,25.7,7,24.1,7 M39.5,15.7c-0.3-0.5-0.3-0.9,0-1.4l4.3-7h-5.9c0,0-3.5,5.8-4,6.6
	c-0.5,0.8-0.5,1.3,0,2.1c0.5,0.8,4,6.6,4,6.6h5.9C43.7,22.7,39.6,15.8,39.5,15.7 M15,22.7L12.1,9.8c-0.3-1.4-1.5-2.5-3-2.5H5.7
	l3.5,15.3L15,22.7L15,22.7z M76.9,15c0,8.3-6.7,15-15,15c-8.3,0-15-6.7-15-15c0-8.3,6.7-15,15-15C70.2,0,76.9,6.7,76.9,15z
	 M64.1,12.5c0-3.2-2.1-5.2-5.6-5.2h-6v15.4h3.8V10.6h1.9c1.5,0,2.2,0.8,2.2,2.1c0,1.3-0.7,2.1-2.3,2.1h-0.7v3.1h0.9
	C62.2,17.8,64.1,15.8,64.1,12.5z M66.9,19.3l3.3-3.5c1.4-1.5,2.1-2.2,2.1-3.8c0-2.7-2.1-4.6-4.8-4.6h-4.7c1,0.7,1.9,1.8,2.3,3.2
	c0,0,2,0,2.1,0c0.6,0,1.4,0.5,1.4,1.4c0,0.6-0.1,0.9-0.6,1.3c-0.6,0.7-1.2,1.3-3,3.3c-1.8,1.9-2.5,3-2.5,5.3v0.8h9.4v-3.3H66.9z"/>
</svg>
