<?xml version="1.0" encoding="utf-8"?>
<!-- Generator: Adobe Illustrator 18.1.1, SVG Export Plug-In . SVG Version: 6.00 Build 0)  -->
<svg version="1.1" id="nrk-p1" xmlns="http://www.w3.org/2000/svg" xmlns:xlink="http://www.w3.org/1999/xlink" x="0px" y="0px"
	 viewBox="0 0 134.2 30" enable-background="new 0 0 134.2 30" xml:space="preserve">
<path d="M5.4,7.4l0,15.3l-5.4,0v-1.2L0,7.4H5.4z M15.4,22.7h5.4V7.4h-5.4V22.7z M32.9,7.4h-5.4v15.3l5.4,0V7.4z M24.2,7.1
	c-1.7,0-3,1.4-3,3c0,1.7,1.4,3.1,3,3.1c1.7,0,3-1.4,3-3.1C27.2,8.4,25.8,7.1,24.2,7.1 M39.7,15.7c-0.3-0.5-0.3-0.9,0-1.4l4.3-7H38
	c0,0-3.6,5.8-4.1,6.6c-0.5,0.8-0.5,1.3,0,2.1c0.5,0.8,4,6.6,4,6.6h5.9C43.9,22.7,39.7,15.8,39.7,15.7 M12.2,9.8
	c-0.3-1.4-1.5-2.5-3-2.5l-3.5,0l3.5,15.3h5.9L12.2,9.8z M49.9,22.7h1.6v-7.1h6.6v-1.5h-6.6V8.8h7.5V7.4h-9.1V22.7z M60.8,8.5
	c0,0.6,0.5,0.9,1.1,0.9c0.6,0,1.1-0.4,1.1-0.9c0-0.6-0.4-1-1.1-1C61.2,7.5,60.8,7.9,60.8,8.5z M62.6,11.5H61v11.2h1.6V11.5z
	 M65.9,11.5v11.2h1.6v-8.1c0.5-0.6,1.8-1.9,3.3-1.9c1.5,0,2.2,1,2.2,3.1v6.9h1.6v-7.3c0-2.5-0.9-4.2-3.5-4.2c-1.6,0-2.8,0.8-3.7,1.9
	v-1.7H65.9z M77.4,11.5v11.2H79v-8.1c0.5-0.6,1.8-1.9,3.3-1.9c1.5,0,2.2,1,2.2,3.1v6.9h1.6v-7.3c0-2.5-0.9-4.2-3.5-4.2
	c-1.6,0-2.8,0.8-3.7,1.9v-1.7H77.4z M88.9,11.5v11.2h1.6v-8.2c0.5-0.6,1.6-1.8,3-1.8c1.4,0,1.8,1,1.8,2.5v7.5h1.6v-8.2
	c0.4-0.6,1.6-1.8,2.9-1.8c1.4,0,1.8,0.9,1.8,2.5v7.5h1.6V15c0-2-0.6-3.7-3-3.7c-1.6,0-2.7,0.9-3.6,1.9c-0.3-1.1-1.1-1.9-2.7-1.9
	c-1.6,0-2.7,0.9-3.5,2v-1.7H88.9z M113.9,22.7h1.4V11.5h-1.5v1.7c-0.8-1.1-2-1.9-3.7-1.9c-2.9,0-4.6,2.3-4.6,5.9
	c0,3.5,1.4,5.8,4.6,5.8c2,0,3.2-1.1,3.7-1.8L113.9,22.7z M113.8,19.7c-0.6,0.7-1.6,1.9-3.2,1.9c-2.5,0-3.3-2.2-3.3-4.4
	c0-2.9,1.3-4.4,3.2-4.4c1.7,0,2.9,1.3,3.4,2V19.7z M119.8,11.5h-1.4v11.2h1.6v-7.9c0.4-0.9,1.3-2,2.3-2c0.4,0,0.7,0,0.9,0.1l0.2-1.5
	c-0.3-0.1-0.7-0.2-1-0.2c-1.1,0-2.1,0.9-2.6,2V11.5z M126.9,7.4h-1.6v15.4h1.6v-5.6h1.2l4.2,5.6h1.9l-4.7-6.3l4.2-5h-1.8l-3.7,4.3
	h-1.3V7.4z"/>
</svg>
