<?xml version="1.0" encoding="utf-8"?>
<!-- Generator: Adobe Illustrator 18.1.1, SVG Export Plug-In . SVG Version: 6.00 Build 0)  -->
<svg version="1.1" id="nrk-p1" xmlns="http://www.w3.org/2000/svg" xmlns:xlink="http://www.w3.org/1999/xlink" x="0px" y="0px"
	 viewBox="0 0 209.1 30" enable-background="new 0 0 209.1 30" xml:space="preserve">
<path d="M5.4,7.3l0,15.3l-5.4,0v-1.2L0,7.3H5.4z M15.4,22.6h5.4V7.3h-5.4V22.6z M32.9,7.3h-5.4v15.3l5.4,0V7.3z M24.2,7
	c-1.7,0-3,1.4-3,3c0,1.7,1.4,3.1,3,3.1c1.7,0,3-1.4,3-3.1C27.2,8.4,25.8,7,24.2,7 M39.7,15.7c-0.3-0.5-0.3-0.9,0-1.4l4.3-7H38
	c0,0-3.6,5.8-4.1,6.6c-0.5,0.8-0.5,1.3,0,2.1c0.5,0.8,4,6.6,4,6.6h5.9C43.9,22.6,39.7,15.8,39.7,15.7 M12.2,9.8
	c-0.3-1.4-1.5-2.5-3-2.5l-3.5,0l3.5,15.3h5.9L12.2,9.8z M49.1,20.6c1.3,1.4,3.2,2.3,5.3,2.3c3.1,0,5.1-1.7,5.1-4.4
	c0-2.3-1.1-3.3-4.3-4.4c-2.6-0.9-3.9-1.3-3.9-3.1c0-1.7,1.4-2.6,3.2-2.6c1.3,0,2.8,0.5,3.9,1.8l1-1c-1.3-1.5-2.9-2.2-4.9-2.2
	c-2.8,0-4.9,1.5-4.9,4.1c0,2.3,1.3,3.3,4.7,4.3c2.8,0.9,3.6,1.6,3.6,3.2c0,1.8-1.4,2.8-3.4,2.8c-1.6,0-3.1-0.7-4.4-2L49.1,20.6z
	 M61.3,17.1c0,3.6,1.9,5.8,5,5.8c3.1,0,5.2-2.1,5.2-5.8c0-3.7-2-5.8-5-5.8C63.3,11.2,61.3,13.4,61.3,17.1z M62.9,17.1
	c0-3,1.4-4.4,3.4-4.4c2,0,3.5,1.4,3.5,4.4s-1.5,4.4-3.5,4.4C64.4,21.5,62.9,20.1,62.9,17.1z M83.1,11.5h-1.4v1.6
	c-0.6-0.8-1.8-1.9-3.6-1.9c-3.2,0-4.7,2.6-4.7,5.9c0,3.3,1.3,5.7,4.5,5.7c1.7,0,2.9-0.8,3.7-1.7v1.1c0,2.4-0.6,3.6-3.3,3.6
	c-1.3,0-2.5-0.3-3.4-0.7l-0.4,1.3c0.9,0.4,2.4,0.7,3.9,0.7c3.1,0,4.7-1.1,4.7-4.7V11.5z M81.5,19.7c-0.6,0.7-1.7,1.7-3.3,1.7
	C76,21.5,75,19.6,75,17c0-2.7,1.1-4.4,3.3-4.4c1.5,0,2.8,1.3,3.3,2V19.7z M86.1,11.5v11.2h1.6v-8.1c0.5-0.6,1.7-1.9,3.3-1.9
	c1.5,0,2.2,1,2.2,3.1v6.9h1.6v-7.2c0-2.4-0.9-4.2-3.4-4.2c-1.6,0-2.8,0.8-3.7,1.9v-1.7H86.1z M101.2,17.1c0,3.6,1.9,5.8,5,5.8
	c3.1,0,5.2-2.1,5.2-5.8c0-3.7-2-5.8-5-5.8C103.2,11.2,101.2,13.4,101.2,17.1z M102.8,17.1c0-3,1.4-4.4,3.4-4.4c2,0,3.5,1.4,3.5,4.4
	s-1.5,4.4-3.5,4.4C104.3,21.5,102.8,20.1,102.8,17.1z M123,11.5h-1.4v1.6c-0.6-0.8-1.8-1.9-3.6-1.9c-3.2,0-4.7,2.6-4.7,5.9
	c0,3.3,1.3,5.7,4.5,5.7c1.7,0,2.9-0.8,3.7-1.7v1.1c0,2.4-0.6,3.6-3.3,3.6c-1.3,0-2.5-0.3-3.4-0.7l-0.4,1.3c0.9,0.4,2.4,0.7,3.9,0.7
	c3.1,0,4.7-1.1,4.7-4.7V11.5z M121.4,19.7c-0.6,0.7-1.7,1.7-3.3,1.7c-2.3,0-3.2-1.8-3.2-4.4c0-2.7,1.1-4.4,3.3-4.4
	c1.5,0,2.8,1.3,3.3,2V19.7z M130.3,22.6h1.6v-7h6.6v-1.4H132V8.8h7.5V7.3h-9.1V22.6z M143,11.5h-1.6v12.6c0,1.3-0.4,1.6-1.2,1.6
	c-0.4,0-0.7,0-1-0.1l-0.2,1.2c0.5,0.2,1,0.2,1.5,0.2c1.8,0,2.4-1,2.4-2.8V11.5z M141.2,8.5c0,0.6,0.5,1,1.1,1c0.6,0,1-0.4,1-1
	c0-0.6-0.4-1-1-1C141.6,7.5,141.2,7.9,141.2,8.5z M145.5,17.1c0,3.6,1.9,5.8,5,5.8c3.1,0,5.2-2.1,5.2-5.8c0-3.7-2-5.8-5-5.8
	C147.6,11.2,145.5,13.4,145.5,17.1z M147.2,17.1c0-3,1.4-4.4,3.4-4.4c2,0,3.5,1.4,3.5,4.4s-1.5,4.4-3.5,4.4
	C148.6,21.5,147.2,20.1,147.2,17.1z M159.5,11.5h-1.4v11.2h1.6v-7.8c0.4-0.9,1.3-2,2.3-2c0.4,0,0.7,0,0.9,0.1l0.2-1.5
	c-0.3-0.1-0.7-0.2-1-0.2c-1.1,0-2.1,0.9-2.6,2V11.5z M172.2,22.6h1.4V7.3h-1.6V13c-0.8-1-1.9-1.8-3.6-1.8c-2.9,0-4.6,2.3-4.6,5.9
	c0,3.5,1.4,5.8,4.5,5.8c2,0,3.1-1.1,3.7-1.8L172.2,22.6z M172.1,19.6c-0.6,0.7-1.6,1.8-3.2,1.8c-2.5,0-3.3-2.2-3.3-4.4
	c0-2.9,1.3-4.4,3.1-4.4c1.7,0,2.8,1.3,3.4,2V19.6z M184.4,22.6h1.4V11.5h-1.5v1.7c-0.8-1.1-2-1.9-3.7-1.9c-2.9,0-4.6,2.3-4.6,5.9
	c0,3.5,1.4,5.8,4.5,5.8c2,0,3.1-1.1,3.7-1.8L184.4,22.6z M184.2,19.6c-0.6,0.7-1.6,1.8-3.2,1.8c-2.5,0-3.3-2.2-3.3-4.4
	c0-2.9,1.3-4.4,3.1-4.4c1.7,0,2.8,1.3,3.4,2V19.6z M188.7,11.5v11.2h1.6v-8.1c0.5-0.6,1.7-1.9,3.3-1.9c1.5,0,2.2,1,2.2,3.1v6.9h1.6
	v-7.2c0-2.4-0.9-4.2-3.4-4.2c-1.6,0-2.8,0.8-3.7,1.9v-1.7H188.7z M208.2,20.3c-1.1,0.8-2,1.2-3.3,1.2c-2.4,0-3.5-1.7-3.5-4h7.7
	c0-0.1,0-0.6,0-0.9c0-3.6-1.5-5.4-4.3-5.4c-3.1,0-5.1,2.3-5.1,5.9c0,3.9,2,5.8,5.1,5.8c1.5,0,2.9-0.4,4.1-1.5L208.2,20.3z
	 M201.4,16.2c0-1.1,0.7-3.6,3.3-3.6c2.1,0,2.8,1.6,2.8,3.6H201.4z"/>
</svg>
