<?xml version="1.0" encoding="utf-8"?>
<!-- Generator: Adobe Illustrator 18.1.0, SVG Export Plug-In . SVG Version: 6.00 Build 0)  -->
<svg version="1.1" id="nrk-p1" xmlns="http://www.w3.org/2000/svg" xmlns:xlink="http://www.w3.org/1999/xlink" x="0px" y="0px"
	 viewBox="0 0 95 30" enable-background="new 0 0 95 30" xml:space="preserve">
<path d="M5.4,7.3l0,15.4l-5.4,0v-1.2L0,7.3H5.4z M15.4,22.7h5.4V7.3h-5.4V22.7z M33.1,7.3h-5.4v15.4l5.4,0V7.3z M24.3,7
	c-1.7,0-3.1,1.4-3.1,3.1c0,1.7,1.4,3.1,3.1,3.1c1.7,0,3.1-1.4,3.1-3.1C27.3,8.4,25.9,7,24.3,7 M39.8,15.7c-0.3-0.5-0.3-0.9,0-1.4
	l4.3-7h-6c0,0-3.6,5.8-4.1,6.6c-0.5,0.8-0.5,1.3,0,2.1c0.5,0.8,4,6.6,4,6.6h6C44.1,22.7,39.9,15.8,39.8,15.7 M12.2,9.8
	c-0.3-1.4-1.5-2.5-3-2.5l-3.5,0l3.5,15.4h5.9L12.2,9.8z M54.4,7h-1.6v11.6c0,2-0.6,2.6-2,2.6c-0.9,0-1.6-0.2-2.3-0.5L48,22
	c0.8,0.4,2,0.6,3,0.6c2.3,0,3.3-1.2,3.3-3.6V7z M61.9,7l-5.6,15.4h1.8l1.6-4.4h6.2l1.6,4.4h1.8L63.6,7H61.9z M60.1,16.5l2.6-7.6
	l2.6,7.6H60.1z M70.7,22.4h10.8v-1.5h-8.7l8.7-13.2V7H71.3v1.5h7.8l-8.4,12.8V22.4z M83.5,22.4h10.8v-1.5h-8.7l8.7-13.2V7H84.1v1.5
	h7.8l-8.4,12.8V22.4z"/>
</svg>
