<?xml version="1.0" encoding="utf-8"?>
<!-- Generator: Adobe Illustrator 18.1.0, SVG Export Plug-In . SVG Version: 6.00 Build 0)  -->
<svg version="1.1" id="nrk-p1" xmlns="http://www.w3.org/2000/svg" xmlns:xlink="http://www.w3.org/1999/xlink" x="0px" y="0px"
	 viewBox="0 0 30 30" enable-background="new 0 0 30 30" xml:space="preserve">
<path d="M15,0C6.7,0,0,6.7,0,15c0,8,6.3,14.6,14.3,15l14.4-8.7c0.9-1.9,1.4-4,1.4-6.3C30,6.7,23.3,0,15,0z M10.4,14.7v9.5H7.5v-9.5
	c0-3,2.5-5.5,5.5-5.5h0v2.9h0C11.6,12.1,10.4,13.2,10.4,14.7z M12,24.1h-0.8V22H12V24.1z M13.3,24.1h-0.8L12,22h0.5
	c0.2,0,0.4,0.1,0.4,0.3L13.3,24.1L13.3,24.1z M14.1,24.1h-0.7V22h0.7V24.1z M14.6,22.8c-0.2,0-0.4-0.2-0.4-0.4s0.2-0.4,0.4-0.4
	c0.2,0,0.4,0.2,0.4,0.4S14.8,22.8,14.6,22.8z M15.8,24.1h-0.7V22h0.7V24.1z M16.7,23.2c0,0,0.6,1,0.6,1h-0.8c0,0-0.5-0.8-0.6-0.9
	c-0.1-0.1-0.1-0.2,0-0.3c0.1-0.1,0.6-0.9,0.6-0.9h0.8l-0.6,1C16.7,23,16.7,23.1,16.7,23.2z M22.5,15c0,3-2.5,5.5-5.5,5.5h-5.8v-2.9
	H17c1.4,0,2.6-1.2,2.6-2.6v-0.3c0-1.4-1.2-2.6-2.6-2.6h-3.1V9.2l3.3-2h-5.5V4.8h9v2.7L18,9.3c2.6,0.5,4.5,2.7,4.5,5.4V15z"/>
<path fill="#7F7F82" d="M14.3,30c0.1-0.2,0.2-0.4,0.3-0.7c2.8-5.4,8.4-8.3,14-8L14.3,30z"/>
<rect x="0" y="0" fill="none" width="30" height="30"/>
</svg>
