<?xml version="1.0" encoding="utf-8"?>
<!-- Generator: Adobe Illustrator 18.1.1, SVG Export Plug-In . SVG Version: 6.00 Build 0)  -->
<svg version="1.1" id="nrk-p1" xmlns="http://www.w3.org/2000/svg" xmlns:xlink="http://www.w3.org/1999/xlink" x="0px" y="0px"
	 viewBox="0 0 106.1 30" enable-background="new 0 0 106.1 30" xml:space="preserve">
<path d="M5.4,7.4l0,15.3l-5.4,0v-1.2L0,7.4H5.4z M15.4,22.7h5.4V7.4h-5.4V22.7z M32.9,7.4h-5.4v15.3l5.4,0V7.4z M24.2,7.1
	c-1.7,0-3,1.4-3,3c0,1.7,1.4,3.1,3,3.1c1.7,0,3-1.4,3-3.1C27.2,8.4,25.8,7.1,24.2,7.1 M39.7,15.7c-0.3-0.5-0.3-0.9,0-1.4l4.3-7H38
	c0,0-3.6,5.8-4.1,6.6c-0.5,0.8-0.5,1.3,0,2.1c0.5,0.8,4,6.6,4,6.6h5.9C43.9,22.7,39.7,15.8,39.7,15.7 M12.2,9.8
	c-0.3-1.4-1.5-2.5-3-2.5l-3.5,0l3.5,15.3h5.9L12.2,9.8z M50,20.6c1.3,1.4,3.2,2.3,5.3,2.3c3.1,0,5.1-1.7,5.1-4.4
	c0-2.3-1.1-3.3-4.3-4.4c-2.6-0.9-3.9-1.3-3.9-3.1c0-1.7,1.4-2.6,3.2-2.6c1.3,0,2.8,0.5,3.9,1.8l1-1c-1.3-1.5-2.9-2.2-4.9-2.2
	c-2.8,0-4.9,1.5-4.9,4.1c0,2.3,1.3,3.3,4.7,4.3c2.8,0.9,3.5,1.6,3.5,3.2c0,1.8-1.4,2.8-3.4,2.8c-1.6,0-3.1-0.7-4.4-2L50,20.6z
	 M70.6,22.7H72V11.5h-1.5v1.7c-0.8-1.1-2-1.9-3.7-1.9c-2.9,0-4.6,2.3-4.6,5.9c0,3.5,1.4,5.8,4.5,5.8c2,0,3.1-1.1,3.7-1.8L70.6,22.7z
	 M70.4,19.7c-0.6,0.7-1.6,1.8-3.2,1.8c-2.5,0-3.3-2.2-3.3-4.4c0-2.9,1.3-4.4,3.1-4.4c1.7,0,2.8,1.3,3.4,2V19.7z M65.9,9.4l0.7,0.9
	l3.2-2.6l-0.9-1.1L65.9,9.4z M76.5,26.9v-5.6c0.4,0.6,1.6,1.6,3.5,1.6c3.1,0,4.6-2.3,4.6-5.8c0-3.6-1.5-5.8-4.4-5.8
	c-1.6,0-2.8,0.7-3.8,2v-1.7h-1.5v15.4H76.5z M76.5,14.7c0.8-1,2-2,3.5-2c2,0,3.1,1.6,3.1,4.4c0,2.9-1.2,4.4-3.3,4.4
	c-1.6,0-2.7-1-3.3-1.7V14.7z M87.1,11.5v11.2h1.6v-8.1c0.5-0.6,1.6-1.8,3-1.8c1.4,0,1.8,1,1.8,2.5v7.4H95v-8.2
	c0.4-0.6,1.6-1.8,2.9-1.8c1.4,0,1.8,0.9,1.8,2.5v7.5h1.6V15c0-2-0.6-3.7-3-3.7c-1.6,0-2.7,0.9-3.6,1.9c-0.3-1.1-1.1-1.9-2.7-1.9
	c-1.6,0-2.7,0.9-3.5,2v-1.7H87.1z M104,8.5c0,0.6,0.5,0.9,1.1,0.9c0.6,0,1.1-0.4,1.1-0.9c0-0.6-0.4-1-1.1-1
	C104.5,7.5,104,7.9,104,8.5z M105.8,11.5h-1.6v11.2h1.6V11.5z"/>
</svg>
