<?xml version="1.0" encoding="utf-8"?>
<!-- Generator: Adobe Illustrator 18.1.0, SVG Export Plug-In . SVG Version: 6.00 Build 0)  -->
<svg version="1.1" id="nrk-p1" xmlns="http://www.w3.org/2000/svg" xmlns:xlink="http://www.w3.org/1999/xlink" x="0px" y="0px"
	 viewBox="0 0 163.9 30" enable-background="new 0 0 163.9 30" xml:space="preserve">
<path d="M5.4,7.3l0,15.4l-5.4,0v-1.2L0,7.3H5.4z M15.4,22.7h5.4V7.3h-5.4V22.7z M32.9,7.3h-5.4v15.4l5.4,0V7.3z M24.2,7
	c-1.7,0-3,1.4-3,3.1c0,1.7,1.4,3.1,3,3.1c1.7,0,3-1.4,3-3.1C27.2,8.4,25.8,7,24.2,7 M39.7,15.7c-0.3-0.5-0.3-0.9,0-1.4l4.3-7H38
	c0,0-3.6,5.8-4,6.6c-0.5,0.8-0.5,1.3,0,2.1c0.5,0.8,4,6.6,4,6.6h5.9C43.9,22.7,39.7,15.8,39.7,15.7 M12.2,9.8
	c-0.3-1.4-1.5-2.5-3-2.5l-3.5,0l3.5,15.4h5.9L12.2,9.8z M49.1,20.7c1.3,1.4,3.2,2.3,5.3,2.3c3.1,0,5.1-1.7,5.1-4.4
	c0-2.3-1.1-3.3-4.3-4.4c-2.6-0.9-3.9-1.3-3.9-3.1c0-1.7,1.4-2.6,3.2-2.6c1.3,0,2.8,0.5,3.9,1.8l1-1C58.1,7.8,56.5,7,54.5,7
	c-2.8,0-4.9,1.5-4.9,4.1c0,2.3,1.3,3.3,4.7,4.3c2.8,0.9,3.6,1.6,3.6,3.2c0,1.8-1.4,2.8-3.4,2.8c-1.6,0-3.1-0.7-4.4-2L49.1,20.7z
	 M66.2,7.3l-5.5,15.4h1.8l1.6-4.4h6.2l1.6,4.4h1.7L67.9,7.3H66.2z M64.4,16.8L67,9.2l2.6,7.6H64.4z M64.9,5.6l0.5,1l3.7-1.8
	l-0.7-1.3L64.9,5.6z M91,22.7L89.4,7.3h-1.9l-4.5,13l-4.5-13h-1.9l-1.5,15.4h1.6L78,10.1l4.4,12.7h1.4l4.4-12.7l1.3,12.7H91z
	 M94.1,22.7h1.6V7.3h-1.6V22.7z M104,7.3v15.4h1.6v-6.2h2.6c0.6,0,1.1,0,1.6-0.1l3.3,6.3h1.8l-3.4-6.7c1.8-0.9,2.6-2.4,2.6-4.3
	c0-2.7-1.6-4.4-5.2-4.4H104z M108.7,8.8c2.5,0,3.6,1,3.6,3.1c0,2.1-1.3,3.3-3.9,3.3h-2.8V8.8H108.7z M121.9,7.3l-5.5,15.4h1.8
	l1.6-4.4h6.2l1.6,4.4h1.7l-5.6-15.4H121.9z M120.1,16.8l2.6-7.6l2.6,7.6H120.1z M131.2,7.3v15.4h4c5.1,0,7.8-2.2,7.8-7.7
	c0-5.3-2.7-7.7-7.5-7.7H131.2z M135.5,8.8c4,0,5.7,2.2,5.7,6.2c0,4-1.7,6.2-5.7,6.2h-2.7V8.8H135.5z M145.7,22.7h1.6V7.3h-1.6V22.7z
	 M150.2,14.9c0,5.6,2.9,8.1,6.9,8.1c3.9,0,6.9-2.5,6.9-8.1c0-5.1-2.8-7.8-6.8-7.8C153.1,7,150.2,9.7,150.2,14.9z M151.9,14.9
	c0-4,2-6.3,5.2-6.3c3,0,5.1,2.2,5.1,6.3c0,4.5-2,6.7-5.1,6.7C154,21.5,151.9,19.4,151.9,14.9z"/>
</svg>
