<?xml version="1.0" encoding="utf-8"?>
<!-- Generator: Adobe Illustrator 18.1.0, SVG Export Plug-In . SVG Version: 6.00 Build 0)  -->
<svg version="1.1" id="nrk-p1" xmlns="http://www.w3.org/2000/svg" xmlns:xlink="http://www.w3.org/1999/xlink" x="0px" y="0px"
	 viewBox="0 0 92 30" enable-background="new 0 0 92 30" xml:space="preserve">
<path d="M5.4,7.3l0,15.3l-5.4,0v-1.2L0,7.3H5.4z M15.4,22.7h5.4V7.3h-5.4V22.7z M33,7.3h-5.4v15.3l5.4,0V7.3z M24.2,7
	c-1.7,0-3.1,1.4-3.1,3.1c0,1.7,1.4,3.1,3,3.1s3.1-1.4,3.1-3.1C27.3,8.4,25.9,7,24.2,7 M39.8,15.7c-0.3-0.5-0.3-0.9,0-1.4l4.3-7h-5.9
	c0,0-3.6,5.8-4.1,6.6c-0.5,0.8-0.5,1.3,0,2.1c0.5,0.8,4,6.6,4,6.6h5.9C44.1,22.7,39.8,15.8,39.8,15.7 M12.2,9.8
	c-0.3-1.4-1.5-2.5-3-2.5l-3.5,0l3.5,15.3h5.9L12.2,9.8z M53.5,22.7h2l5-15.4h-1.7l-4.3,13.5L50.3,7.3h-1.7L53.5,22.7z M68.3,22.7
	h9.8v-1.5H70v-5.7h7.2v-1.5H70V8.8h7.9V7.3H67l-8.4,15.4h1.9l2.5-4.6h5.3V22.7z M63.7,16.6l4.2-7.9h0.4v7.9H63.7z M80.6,7.3v15.4
	h1.6v-6.1h2.6c0.6,0,1.2,0,1.6-0.1l3.3,6.3h1.8L88.1,16c1.8-0.9,2.6-2.3,2.6-4.3c0-2.7-1.6-4.4-5.2-4.4H80.6z M85.4,8.8
	c2.5,0,3.6,1,3.6,3.1c0,2.1-1.3,3.3-3.9,3.3h-2.8V8.8H85.4z"/>
</svg>
