<?xml version="1.0" encoding="utf-8"?>
<!-- Generator: Adobe Illustrator 18.1.1, SVG Export Plug-In . SVG Version: 6.00 Build 0)  -->
<svg version="1.1" id="nrk-p1" xmlns="http://www.w3.org/2000/svg" xmlns:xlink="http://www.w3.org/1999/xlink" x="0px" y="0px"
	 viewBox="0 0 136.7 30" enable-background="new 0 0 136.7 30" xml:space="preserve">
<path d="M5.4,7.3l0,15.3l-5.4,0v-1.2L0,7.3H5.4z M15.4,22.6h5.4V7.3h-5.4V22.6z M32.9,7.3h-5.4v15.3l5.4,0V7.3z M24.2,7
	c-1.7,0-3,1.4-3,3c0,1.7,1.4,3.1,3,3.1c1.7,0,3-1.4,3-3.1C27.2,8.4,25.8,7,24.2,7 M39.7,15.7c-0.3-0.5-0.3-0.9,0-1.4l4.3-7H38
	c0,0-3.6,5.8-4.1,6.6c-0.5,0.8-0.5,1.3,0,2.1c0.5,0.8,4,6.6,4,6.6h5.9C43.9,22.6,39.7,15.8,39.7,15.7 M12.2,9.8
	c-0.3-1.4-1.5-2.5-3-2.5l-3.5,0l3.5,15.3h5.9L12.2,9.8z M50,7.3v15.3h1.6v-6.1h2.6c0.6,0,1.1,0,1.6-0.1l3.3,6.3h1.8L57.4,16
	c1.8-0.9,2.6-2.3,2.6-4.3c0-2.7-1.6-4.4-5.2-4.4H50z M54.8,8.8c2.5,0,3.6,1,3.6,3.1c0,2.1-1.3,3.3-3.9,3.3h-2.8V8.8H54.8z
	 M61.9,17.1c0,3.6,1.9,5.8,5,5.8c3.1,0,5.2-2.1,5.2-5.8c0-3.7-2-5.8-5-5.8C64,11.2,61.9,13.4,61.9,17.1z M63.6,17.1
	c0-3,1.4-4.4,3.4-4.4s3.5,1.4,3.5,4.4c0,3-1.5,4.4-3.5,4.4C65,21.5,63.6,20.1,63.6,17.1z M83.7,11.5h-1.4v1.6
	c-0.6-0.8-1.8-1.9-3.6-1.9c-3.2,0-4.7,2.6-4.7,5.9c0,3.3,1.3,5.7,4.5,5.7c1.7,0,2.9-0.8,3.7-1.7v1.1c0,2.4-0.6,3.5-3.3,3.5
	c-1.3,0-2.5-0.3-3.4-0.7l-0.4,1.3c0.9,0.4,2.4,0.7,3.9,0.7c3.1,0,4.7-1.1,4.7-4.7V11.5z M82.2,19.7c-0.6,0.7-1.7,1.7-3.3,1.7
	c-2.3,0-3.2-1.8-3.2-4.4c0-2.7,1.1-4.4,3.3-4.4c1.5,0,2.8,1.3,3.3,2V19.7z M94.5,22.6h1.4V11.5h-1.5v1.7c-0.8-1.1-2-1.9-3.7-1.9
	c-2.9,0-4.6,2.3-4.6,5.9c0,3.5,1.4,5.8,4.5,5.8c2,0,3.1-1.1,3.7-1.8L94.5,22.6z M94.3,19.6c-0.6,0.7-1.6,1.9-3.2,1.9
	c-2.5,0-3.3-2.2-3.3-4.4c0-2.9,1.3-4.4,3.1-4.4c1.7,0,2.8,1.3,3.4,2V19.6z M100.7,22.6V7.3h-1.6v15.3H100.7z M111.6,22.6h1.4V11.5
	h-1.5v1.7c-0.8-1.1-2-1.9-3.7-1.9c-2.9,0-4.6,2.3-4.6,5.9c0,3.5,1.4,5.8,4.5,5.8c2,0,3.1-1.1,3.7-1.8L111.6,22.6z M111.5,19.6
	c-0.6,0.7-1.6,1.9-3.2,1.9c-2.5,0-3.3-2.2-3.3-4.4c0-2.9,1.3-4.4,3.1-4.4c1.7,0,2.8,1.3,3.4,2V19.6z M116,11.5v11.2h1.6v-8.1
	c0.5-0.6,1.7-1.9,3.3-1.9c1.5,0,2.2,1,2.2,3.1v6.9h1.6v-7.2c0-2.4-0.9-4.2-3.4-4.2c-1.6,0-2.8,0.8-3.7,1.9v-1.7H116z M135.3,22.6
	h1.4V7.3h-1.6V13c-0.8-1-1.9-1.8-3.6-1.8c-2.9,0-4.6,2.3-4.6,5.9c0,3.5,1.4,5.8,4.5,5.8c2,0,3.1-1.1,3.7-1.8L135.3,22.6z
	 M135.1,19.6c-0.6,0.7-1.6,1.9-3.2,1.9c-2.5,0-3.3-2.2-3.3-4.4c0-2.9,1.3-4.4,3.1-4.4c1.7,0,2.8,1.3,3.4,2V19.6z"/>
</svg>
