<?xml version="1.0" encoding="UTF-8"?>
<svg id="Sofie_v05_Xmas" xmlns="http://www.w3.org/2000/svg" version="1.1" viewBox="0 0 566.9 566.9">
  <!-- Generator: Adobe Illustrator 29.1.0, SVG Export Plug-In . SVG Version: 2.1.0 Build 142)  -->
  <defs>
    <style>
      .st0 {
        fill: #fc0;
      }

      .st1 {
        fill: none;
        stroke: #fc0;
        stroke-linecap: round;
        stroke-width: 23.6px;
      }

      .st2 {
        fill: #fff;
      }

      .st3 {
        fill: maroon;
      }

      .st4 {
        fill: #dbaf00;
      }

      .st5 {
        fill: red;
      }
    </style>
  </defs>
  <g>
    <ellipse class="st5" cx="272.8" cy="295" rx="263.4" ry="264.9"/>
    <path class="st3" d="M510.1,180.2c9.8,28.2,14.9,57.8,14.9,87.6,0,146.3-118,264.9-263.4,264.9h0c-100.4-.2-191.9-57.7-236.1-148.3,37.4,105.1,136.3,175.3,247.3,175.5,145.5,0,263.4-118.6,263.4-264.9,0-39.8-8.9-79-26.1-114.8h0Z"/>
    <polygon class="st5" points="434.2 38.8 522.7 131.2 479.7 169.6 391.2 77.3 434.2 38.8"/>
    <path class="st0" d="M427.3,44.7l14.1-12.4,88.2,92.6-12.1,11.1s-1.7-10.4-8.8-11.6c-7.1-1.3-14.7-5.3-14.5-13.2.3-7.9-6.6-12.2-14.2-12.7-7.6-.5-12.9-10.4-13.1-16.5-.3-6.1-9.5-14-18.1-14.7-8.7-.8-11.3-9.1-10.8-16.8.5-7.6-10.7-5.8-10.7-5.8h0Z"/>
    <ellipse class="st4" cx="485.5" cy="79" rx="6.9" ry="63.4" transform="translate(79.1 356.1) rotate(-43.5)"/>
    <path class="st1" d="M493.3,70.9c19.1-.5,28.3-8.2,30.8-18.4,2.5-10.3,5.4-27.9,22.1-28.9"/>
  </g>
  <g>
    <g>
      <path class="st2" d="M384.9,111.1h-91c-3.2,0-5.8-2.6-5.8-5.8h0c0-3.2,2.6-5.8,5.8-5.8h91c3.2,0,5.8,2.6,5.8,5.8h0c0,3.2-2.6,5.8-5.8,5.8Z"/>
      <path class="st2" d="M423.4,129h0c0-3.2-2.6-5.8-5.8-5.8h-164.1c-3.2,0-5.8,2.6-5.8,5.8h0c0,3.2,2.6,5.8,5.8,5.8h164.1c3.2,0,5.8-2.6,5.8-5.8Z"/>
      <path class="st2" d="M435.8,152.8h0c0-3.2-2.6-5.8-5.8-5.8h-199c-3.2,0-5.8,2.6-5.8,5.8h0c0,3.2,2.6,5.8,5.8,5.8h199c3.2,0,5.8-2.6,5.8-5.8Z"/>
      <path class="st2" d="M267,176.6h0c0-3.2-2.6-5.8-5.8-5.8h-40.9c-3.2,0-5.8,2.6-5.8,5.8h0c0,3.2,2.6,5.8,5.8,5.8h40.9c3.2,0,5.8-2.6,5.8-5.8Z"/>
      <path class="st2" d="M424.4,176.6h0c0-3.2-2.6-5.8-5.8-5.8h-51.1c-3.2,0-5.8,2.6-5.8,5.8h0c0,3.2,2.6,5.8,5.8,5.8h51.1c3.2,0,5.8-2.6,5.8-5.8Z"/>
      <rect class="st2" x="209.8" y="194.5" width="39.4" height="11.6" rx="5.8" ry="5.8"/>
      <path class="st2" d="M258.6,224.1h0c0-3.2-2.6-5.8-5.8-5.8h-39.6c-3.2,0-5.8,2.6-5.8,5.8h0c0,3.2,2.6,5.8,5.8,5.8h39.6c3.2,0,5.8-2.6,5.8-5.8Z"/>
      <path class="st2" d="M307.6,247.8h0c0-3.2-2.6-5.8-5.8-5.8h-83.9c-3.2,0-5.8,2.6-5.8,5.8h0c0,3.2,2.6,5.8,5.8,5.8h83.9c3.2,0,5.8-2.6,5.8-5.8Z"/>
      <path class="st2" d="M367,271.6h0c0-3.2-2.6-5.8-5.8-5.8h-130.2c-3.2,0-5.8,2.6-5.8,5.8h0c0,3.2,2.6,5.8,5.8,5.8h130.2c3.2,0,5.8-2.6,5.8-5.8Z"/>
      <path class="st2" d="M390.7,295.3h0c0-3.2-2.6-5.8-5.8-5.8h-129c-3.2,0-5.8,2.6-5.8,5.8h0c0,3.2,2.6,5.8,5.8,5.8h129c3.2,0,5.8-2.6,5.8-5.8Z"/>
      <rect class="st2" x="309.5" y="313.3" width="90.5" height="11.6" rx="5.8" ry="5.8"/>
      <path class="st2" d="M408.6,342.9h0c0-3.2-2.6-5.8-5.8-5.8h-48.2c-3.2,0-5.8,2.6-5.8,5.8h0c0,3.2,2.6,5.8,5.8,5.8h48.2c3.2,0,5.8-2.6,5.8-5.8Z"/>
      <path class="st2" d="M408.6,366.6h0c0-3.2-2.6-5.8-5.8-5.8h-39.9c-3.2,0-5.8,2.6-5.8,5.8h0c0,3.2,2.6,5.8,5.8,5.8h39.9c3.2,0,5.8-2.6,5.8-5.8Z"/>
      <path class="st2" d="M396.7,390.4h0c0-3.2-2.6-5.8-5.8-5.8h-41.1c-3.2,0-5.8,2.6-5.8,5.8h0c0,3.2,2.6,5.8,5.8,5.8h41.1c3.2,0,5.8-2.6,5.8-5.8Z"/>
      <path class="st2" d="M386,414.1h0c0-3.2-2.6-5.8-5.8-5.8h-222.9c-3.2,0-5.8,2.6-5.8,5.8h0c0,3.2,2.6,5.8,5.8,5.8h222.9c3.2,0,5.8-2.6,5.8-5.8Z"/>
      <path class="st2" d="M205.2,390.4h0c0-3.2-2.6-5.8-5.8-5.8h-29.7c-3.2,0-5.8,2.6-5.8,5.8h0c0,3.2,2.6,5.8,5.8,5.8h29.7c3.2,0,5.8-2.6,5.8-5.8Z"/>
      <path class="st2" d="M357.9,437.9h0c0-3.2-2.6-5.8-5.8-5.8h-170.2c-3.2,0-5.8,2.6-5.8,5.8h0c0,3.2,2.6,5.8,5.8,5.8h170.2c3.2,0,5.8-2.6,5.8-5.8Z"/>
      <path class="st2" d="M301.6,461.7h0c0-3.2-2.6-5.8-5.8-5.8h-75.9c-3.2,0-5.8,2.6-5.8,5.8h0c0,3.2,2.6,5.8,5.8,5.8h75.9c3.2,0,5.8-2.6,5.8-5.8Z"/>
    </g>
    <circle class="st2" cx="286.8" cy="105.3" r="5.8"/>
    <circle class="st2" cx="246.5" cy="129" r="5.8"/>
    <circle class="st2" cx="223.9" cy="152.8" r="5.8"/>
    <circle class="st2" cx="213.2" cy="176.6" r="5.8"/>
    <circle class="st2" cx="208.4" cy="200.3" r="5.8"/>
    <circle class="st2" cx="206.1" cy="224.1" r="5.8"/>
    <circle class="st2" cx="210.8" cy="247.8" r="5.8"/>
    <circle class="st2" cx="223.9" cy="271.6" r="5.8" transform="translate(-80.1 449.1) rotate(-80.8)"/>
    <circle class="st2" cx="248.8" cy="295.3" r="5.8"/>
    <circle class="st2" cx="308.2" cy="319.1" r="5.8"/>
    <circle class="st2" cx="347.4" cy="342.9" r="5.8"/>
    <circle class="st2" cx="355.7" cy="366.6" r="5.8"/>
    <circle class="st2" cx="342.7" cy="390.4" r="5.8"/>
    <circle class="st2" cx="162.6" cy="390.4" r="5.8"/>
    <circle class="st2" cx="150.2" cy="414.1" r="5.8"/>
    <circle class="st2" cx="174.8" cy="437.9" r="5.8"/>
    <circle class="st2" cx="212.8" cy="461.7" r="5.8"/>
    <circle class="st2" cx="275.3" cy="105.3" r="5.8"/>
    <circle class="st2" cx="234.9" cy="129" r="5.8"/>
    <circle class="st2" cx="212.3" cy="152.8" r="5.8"/>
    <circle class="st2" cx="201.6" cy="176.6" r="5.8"/>
    <circle class="st2" cx="196.9" cy="200.3" r="5.8"/>
    <circle class="st2" cx="194.5" cy="224.1" r="5.8"/>
    <circle class="st2" cx="199.2" cy="247.8" r="5.8"/>
    <circle class="st2" cx="212.3" cy="271.6" r="5.8" transform="translate(-89.8 437.6) rotate(-80.8)"/>
    <circle class="st2" cx="237.2" cy="295.3" r="5.8"/>
    <circle class="st2" cx="296.6" cy="319.1" r="5.8"/>
    <circle class="st2" cx="335.8" cy="342.9" r="5.8"/>
    <circle class="st2" cx="344.2" cy="366.6" r="5.8"/>
    <circle class="st2" cx="331.1" cy="390.4" r="5.8"/>
    <circle class="st2" cx="151" cy="390.4" r="5.8"/>
    <circle class="st2" cx="138.6" cy="414.1" r="5.8"/>
    <circle class="st2" cx="163.2" cy="437.9" r="5.8"/>
    <circle class="st2" cx="201.2" cy="461.7" r="5.8"/>
    <path class="st2" d="M267.8,105.3c0,2.6-2.1,4.6-4.6,4.6s-4.6-2.1-4.6-4.6,2.1-4.6,4.6-4.6,4.6,2.1,4.6,4.6Z"/>
    <path class="st2" d="M227.4,129c0,2.6-2.1,4.6-4.6,4.6s-4.6-2.1-4.6-4.6,2.1-4.6,4.6-4.6,4.6,2.1,4.6,4.6Z"/>
    <path class="st2" d="M204.9,152.8c0,2.6-2.1,4.6-4.6,4.6s-4.6-2.1-4.6-4.6,2.1-4.6,4.6-4.6,4.6,2.1,4.6,4.6Z"/>
    <path class="st2" d="M194.2,176.6c0,2.6-2.1,4.6-4.6,4.6s-4.6-2.1-4.6-4.6,2.1-4.6,4.6-4.6,4.6,2.1,4.6,4.6Z"/>
    <path class="st2" d="M189.4,200.3c0,2.6-2.1,4.6-4.6,4.6s-4.6-2.1-4.6-4.6,2.1-4.6,4.6-4.6,4.6,2.1,4.6,4.6Z"/>
    <path class="st2" d="M187,224.1c0,2.6-2.1,4.6-4.6,4.6s-4.6-2.1-4.6-4.6,2.1-4.6,4.6-4.6,4.6,2.1,4.6,4.6Z"/>
    <path class="st2" d="M191.8,247.8c0,2.6-2.1,4.6-4.6,4.6s-4.6-2.1-4.6-4.6,2.1-4.6,4.6-4.6,4.6,2.1,4.6,4.6Z"/>
    <path class="st2" d="M204.9,271.6c0,2.6-2.1,4.6-4.6,4.6s-4.6-2.1-4.6-4.6,2.1-4.6,4.6-4.6,4.6,2.1,4.6,4.6Z"/>
    <path class="st2" d="M229.8,295.3c0,2.6-2.1,4.6-4.6,4.6s-4.6-2.1-4.6-4.6,2.1-4.6,4.6-4.6,4.6,2.1,4.6,4.6Z"/>
    <path class="st2" d="M289.2,319.1c0,2.6-2.1,4.6-4.6,4.6s-4.6-2.1-4.6-4.6,2.1-4.6,4.6-4.6,4.6,2.1,4.6,4.6Z"/>
    <path class="st2" d="M328.4,342.9c0,2.6-2.1,4.6-4.6,4.6s-4.6-2.1-4.6-4.6,2.1-4.6,4.6-4.6,4.6,2.1,4.6,4.6Z"/>
    <path class="st2" d="M336.7,366.6c0,2.6-2.1,4.6-4.6,4.6s-4.6-2.1-4.6-4.6,2.1-4.6,4.6-4.6,4.6,2.1,4.6,4.6Z"/>
    <path class="st2" d="M323.7,390.4c0,2.6-2.1,4.6-4.6,4.6s-4.6-2.1-4.6-4.6,2.1-4.6,4.6-4.6,4.6,2.1,4.6,4.6Z"/>
    <path class="st2" d="M143.6,390.4c0,2.6-2.1,4.6-4.6,4.6s-4.6-2.1-4.6-4.6,2.1-4.6,4.6-4.6,4.6,2.1,4.6,4.6Z"/>
    <path class="st2" d="M131.2,414.1c0,2.6-2.1,4.6-4.6,4.6s-4.6-2.1-4.6-4.6,2.1-4.6,4.6-4.6,4.6,2.1,4.6,4.6Z"/>
    <path class="st2" d="M155.8,437.9c0,2.6-2.1,4.6-4.6,4.6s-4.6-2.1-4.6-4.6,2.1-4.6,4.6-4.6,4.6,2.1,4.6,4.6Z"/>
    <path class="st2" d="M193.8,461.7c0,2.6-2.1,4.6-4.6,4.6s-4.6-2.1-4.6-4.6,2.1-4.6,4.6-4.6,4.6,2.1,4.6,4.6Z"/>
    <path class="st2" d="M255.5,105.3c0,2-1.7,3.7-3.7,3.7s-3.7-1.7-3.7-3.7,1.7-3.7,3.7-3.7,3.7,1.7,3.7,3.7Z"/>
    <path class="st2" d="M215.1,129c0,2-1.7,3.7-3.7,3.7s-3.7-1.7-3.7-3.7,1.7-3.7,3.7-3.7,3.7,1.7,3.7,3.7Z"/>
    <path class="st2" d="M192.6,152.8c0,2-1.7,3.7-3.7,3.7s-3.7-1.7-3.7-3.7,1.7-3.7,3.7-3.7,3.7,1.7,3.7,3.7Z"/>
    <path class="st2" d="M181.9,176.6c0,2-1.7,3.7-3.7,3.7s-3.7-1.7-3.7-3.7,1.7-3.7,3.7-3.7,3.7,1.7,3.7,3.7Z"/>
    <path class="st2" d="M177.1,200.3c0,2-1.7,3.7-3.7,3.7s-3.7-1.7-3.7-3.7,1.7-3.7,3.7-3.7,3.7,1.7,3.7,3.7Z"/>
    <path class="st2" d="M174.8,224.1c0,2-1.7,3.7-3.7,3.7s-3.7-1.7-3.7-3.7,1.7-3.7,3.7-3.7,3.7,1.7,3.7,3.7Z"/>
    <path class="st2" d="M179.5,247.8c0,2-1.7,3.7-3.7,3.7s-3.7-1.7-3.7-3.7,1.7-3.7,3.7-3.7,3.7,1.7,3.7,3.7Z"/>
    <path class="st2" d="M192.6,271.6c0,2-1.7,3.7-3.7,3.7s-3.7-1.7-3.7-3.7,1.7-3.7,3.7-3.7,3.7,1.7,3.7,3.7Z"/>
    <path class="st2" d="M217.5,295.3c0,2-1.7,3.7-3.7,3.7s-3.7-1.7-3.7-3.7,1.7-3.7,3.7-3.7,3.7,1.7,3.7,3.7Z"/>
    <path class="st2" d="M276.9,319.1c0,2-1.7,3.7-3.7,3.7s-3.7-1.7-3.7-3.7,1.7-3.7,3.7-3.7,3.7,1.7,3.7,3.7Z"/>
    <path class="st2" d="M316.1,342.9c0,2-1.7,3.7-3.7,3.7s-3.7-1.7-3.7-3.7,1.7-3.7,3.7-3.7,3.7,1.7,3.7,3.7Z"/>
    <path class="st2" d="M324.4,366.6c0,2-1.7,3.7-3.7,3.7s-3.7-1.7-3.7-3.7,1.7-3.7,3.7-3.7,3.7,1.7,3.7,3.7Z"/>
    <path class="st2" d="M311.4,390.4c0,2-1.7,3.7-3.7,3.7s-3.7-1.7-3.7-3.7,1.7-3.7,3.7-3.7,3.7,1.7,3.7,3.7Z"/>
    <path class="st2" d="M131.3,390.4c0,2-1.7,3.7-3.7,3.7s-3.7-1.7-3.7-3.7,1.7-3.7,3.7-3.7,3.7,1.7,3.7,3.7Z"/>
    <path class="st2" d="M118.9,414.1c0,2-1.7,3.7-3.7,3.7s-3.7-1.7-3.7-3.7,1.7-3.7,3.7-3.7,3.7,1.7,3.7,3.7Z"/>
    <path class="st2" d="M143.5,437.9c0,2-1.7,3.7-3.7,3.7s-3.7-1.7-3.7-3.7,1.7-3.7,3.7-3.7,3.7,1.7,3.7,3.7Z"/>
    <path class="st2" d="M181.5,461.7c0,2-1.7,3.7-3.7,3.7s-3.7-1.7-3.7-3.7,1.7-3.7,3.7-3.7,3.7,1.7,3.7,3.7Z"/>
    <circle class="st2" cx="241.2" cy="105.3" r="3"/>
    <circle class="st2" cx="200.8" cy="129" r="3"/>
    <circle class="st2" cx="178.2" cy="152.8" r="3"/>
    <circle class="st2" cx="167.5" cy="176.6" r="3"/>
    <circle class="st2" cx="162.8" cy="200.3" r="3"/>
    <circle class="st2" cx="160.4" cy="224.1" r="3"/>
    <circle class="st2" cx="165.1" cy="247.8" r="3"/>
    <circle class="st2" cx="178.2" cy="271.6" r="3"/>
    <circle class="st2" cx="203.2" cy="295.3" r="3"/>
    <circle class="st2" cx="262.6" cy="319.1" r="3"/>
    <circle class="st2" cx="301.8" cy="342.9" r="3"/>
    <circle class="st2" cx="310.1" cy="366.6" r="3"/>
    <circle class="st2" cx="297" cy="390.4" r="3"/>
    <circle class="st2" cx="116.9" cy="390.4" r="3"/>
    <circle class="st2" cx="104.6" cy="414.1" r="3"/>
    <circle class="st2" cx="129.2" cy="437.9" r="3"/>
    <circle class="st2" cx="167.1" cy="461.7" r="3"/>
  </g>
</svg>