<?xml version="1.0" encoding="UTF-8"?>
<svg id="Sofie_NRK_v05" xmlns="http://www.w3.org/2000/svg" version="1.1" viewBox="0 0 566.9 566.9">
  <!-- Generator: Adobe Illustrator 29.1.0, SVG Export Plug-In . SVG Version: 2.1.0 Build 142)  -->
  <defs>
    <style>
      .st0 {
        fill: #5ec1ff;
      }
    </style>
  </defs>
  <g>
    <path class="st0" d="M441.4,40.7h-128.1c-4.5,0-8.2-3.7-8.2-8.2h0c0-4.5,3.7-8.2,8.2-8.2h128.1c4.5,0,8.2,3.7,8.2,8.2h0c0,4.5-3.7,8.2-8.2,8.2Z"/>
    <path class="st0" d="M495.6,66h0c0-4.5-3.7-8.2-8.2-8.2h-231c-4.5,0-8.2,3.7-8.2,8.2h0c0,4.5,3.7,8.2,8.2,8.2h231c4.5,0,8.2-3.7,8.2-8.2Z"/>
    <path class="st0" d="M513,99.4h0c0-4.5-3.7-8.2-8.2-8.2H224.6c-4.5,0-8.2,3.7-8.2,8.2h0c0,4.5,3.7,8.2,8.2,8.2h280.2c4.5,0,8.2-3.7,8.2-8.2Z"/>
    <path class="st0" d="M275.3,132.9h0c0-4.5-3.7-8.2-8.2-8.2h-57.6c-4.5,0-8.2,3.7-8.2,8.2h0c0,4.5,3.7,8.2,8.2,8.2h57.6c4.5,0,8.2-3.7,8.2-8.2Z"/>
    <path class="st0" d="M497,132.9h0c0-4.5-3.7-8.2-8.2-8.2h-71.9c-4.5,0-8.2,3.7-8.2,8.2h0c0,4.5,3.7,8.2,8.2,8.2h71.9c4.5,0,8.2-3.7,8.2-8.2Z"/>
    <rect class="st0" x="194.7" y="158.2" width="55.5" height="16.3" rx="8.2" ry="8.2"/>
    <path class="st0" d="M263.4,199.8h0c0-4.5-3.7-8.2-8.2-8.2h-55.8c-4.5,0-8.2,3.7-8.2,8.2h0c0,4.5,3.7,8.2,8.2,8.2h55.8c4.5,0,8.2-3.7,8.2-8.2Z"/>
    <path class="st0" d="M332.5,233.3h0c0-4.5-3.7-8.2-8.2-8.2h-118.1c-4.5,0-8.2,3.7-8.2,8.2h0c0,4.5,3.7,8.2,8.2,8.2h118.1c4.5,0,8.2-3.7,8.2-8.2Z"/>
    <path class="st0" d="M416.1,266.7h0c0-4.5-3.7-8.2-8.2-8.2h-183.3c-4.5,0-8.2,3.7-8.2,8.2h0c0,4.5,3.7,8.2,8.2,8.2h183.3c4.5,0,8.2-3.7,8.2-8.2Z"/>
    <path class="st0" d="M449.6,300.2h0c0-4.5-3.7-8.2-8.2-8.2h-181.7c-4.5,0-8.2,3.7-8.2,8.2h0c0,4.5,3.7,8.2,8.2,8.2h181.7c4.5,0,8.2-3.7,8.2-8.2Z"/>
    <rect class="st0" x="335.2" y="325.5" width="127.4" height="16.3" rx="8.2" ry="8.2"/>
    <path class="st0" d="M474.7,367.1h0c0-4.5-3.7-8.2-8.2-8.2h-67.9c-4.5,0-8.2,3.7-8.2,8.2h0c0,4.5,3.7,8.2,8.2,8.2h67.9c4.5,0,8.2-3.7,8.2-8.2Z"/>
    <path class="st0" d="M474.7,400.6h0c0-4.5-3.7-8.2-8.2-8.2h-56.2c-4.5,0-8.2,3.7-8.2,8.2h0c0,4.5,3.7,8.2,8.2,8.2h56.2c4.5,0,8.2-3.7,8.2-8.2Z"/>
    <path class="st0" d="M457.9,434h0c0-4.5-3.7-8.2-8.2-8.2h-57.9c-4.5,0-8.2,3.7-8.2,8.2h0c0,4.5,3.7,8.2,8.2,8.2h57.9c4.5,0,8.2-3.7,8.2-8.2Z"/>
    <path class="st0" d="M442.9,467.5h0c0-4.5-3.7-8.2-8.2-8.2H120.9c-4.5,0-8.2,3.7-8.2,8.2h0c0,4.5,3.7,8.2,8.2,8.2h313.8c4.5,0,8.2-3.7,8.2-8.2Z"/>
    <path class="st0" d="M188.3,434h0c0-4.5-3.7-8.2-8.2-8.2h-41.8c-4.5,0-8.2,3.7-8.2,8.2h0c0,4.5,3.7,8.2,8.2,8.2h41.8c4.5,0,8.2-3.7,8.2-8.2Z"/>
    <path class="st0" d="M403.4,500.9h0c0-4.5-3.7-8.2-8.2-8.2h-239.7c-4.5,0-8.2,3.7-8.2,8.2h0c0,4.5,3.7,8.2,8.2,8.2h239.7c4.5,0,8.2-3.7,8.2-8.2Z"/>
    <path class="st0" d="M324.1,534.4h0c0-4.5-3.7-8.2-8.2-8.2h-106.9c-4.5,0-8.2,3.7-8.2,8.2h0c0,4.5,3.7,8.2,8.2,8.2h106.9c4.5,0,8.2-3.7,8.2-8.2Z"/>
  </g>
  <circle class="st0" cx="303.3" cy="32.5" r="8.2"/>
  <circle class="st0" cx="246.4" cy="66" r="8.2"/>
  <circle class="st0" cx="214.6" cy="99.4" r="8.2"/>
  <circle class="st0" cx="199.5" cy="132.9" r="8.2"/>
  <circle class="st0" cx="192.9" cy="166.4" r="8.2"/>
  <circle class="st0" cx="189.5" cy="199.8" r="8.2"/>
  <circle class="st0" cx="196.2" cy="233.3" r="8.2"/>
  <circle class="st0" cx="214.6" cy="266.7" r="8.2" transform="translate(-83.1 435.8) rotate(-80.8)"/>
  <circle class="st0" cx="249.7" cy="300.2" r="8.2" transform="translate(-95.9 118.4) rotate(-22.5)"/>
  <circle class="st0" cx="333.4" cy="333.7" r="8.2"/>
  <circle class="st0" cx="388.6" cy="367.1" r="8.2"/>
  <circle class="st0" cx="400.3" cy="400.6" r="8.2"/>
  <circle class="st0" cx="381.9" cy="434" r="8.2"/>
  <circle class="st0" cx="128.3" cy="434" r="8.2"/>
  <circle class="st0" cx="110.9" cy="467.5" r="8.2"/>
  <circle class="st0" cx="145.5" cy="500.9" r="8.2"/>
  <circle class="st0" cx="199" cy="534.4" r="8.2"/>
  <circle class="st0" cx="286.9" cy="32.5" r="8.2"/>
  <circle class="st0" cx="230.1" cy="66" r="8.2"/>
  <circle class="st0" cx="198.3" cy="99.4" r="8.2"/>
  <circle class="st0" cx="183.2" cy="132.9" r="8.2"/>
  <circle class="st0" cx="176.5" cy="166.4" r="8.2"/>
  <circle class="st0" cx="173.2" cy="199.8" r="8.2"/>
  <circle class="st0" cx="179.9" cy="233.3" r="8.2"/>
  <circle class="st0" cx="198.3" cy="266.7" r="8.2" transform="translate(-96.8 419.7) rotate(-80.8)"/>
  <circle class="st0" cx="233.4" cy="300.2" r="8.2" transform="translate(-97.1 112.2) rotate(-22.5)"/>
  <circle class="st0" cx="317.1" cy="333.7" r="8.2"/>
  <circle class="st0" cx="372.3" cy="367.1" r="8.2"/>
  <circle class="st0" cx="384" cy="400.6" r="8.2"/>
  <circle class="st0" cx="365.6" cy="434" r="8.2"/>
  <circle class="st0" cx="112" cy="434" r="8.2"/>
  <circle class="st0" cx="94.6" cy="467.5" r="8.2"/>
  <circle class="st0" cx="129.2" cy="500.9" r="8.2"/>
  <circle class="st0" cx="182.7" cy="534.4" r="8.2"/>
  <path class="st0" d="M276.5,32.5c0,3.6-2.9,6.5-6.5,6.5s-6.5-2.9-6.5-6.5,2.9-6.5,6.5-6.5,6.5,2.9,6.5,6.5Z"/>
  <path class="st0" d="M219.6,66c0,3.6-2.9,6.5-6.5,6.5s-6.5-2.9-6.5-6.5,2.9-6.5,6.5-6.5,6.5,2.9,6.5,6.5Z"/>
  <path class="st0" d="M187.8,99.4c0,3.6-2.9,6.5-6.5,6.5s-6.5-2.9-6.5-6.5,2.9-6.5,6.5-6.5,6.5,2.9,6.5,6.5Z"/>
  <path class="st0" d="M172.8,132.9c0,3.6-2.9,6.5-6.5,6.5s-6.5-2.9-6.5-6.5,2.9-6.5,6.5-6.5,6.5,2.9,6.5,6.5Z"/>
  <path class="st0" d="M166.1,166.4c0,3.6-2.9,6.5-6.5,6.5s-6.5-2.9-6.5-6.5,2.9-6.5,6.5-6.5,6.5,2.9,6.5,6.5Z"/>
  <path class="st0" d="M162.7,199.8c0,3.6-2.9,6.5-6.5,6.5s-6.5-2.9-6.5-6.5,2.9-6.5,6.5-6.5,6.5,2.9,6.5,6.5Z"/>
  <path class="st0" d="M169.4,233.3c0,3.6-2.9,6.5-6.5,6.5s-6.5-2.9-6.5-6.5,2.9-6.5,6.5-6.5,6.5,2.9,6.5,6.5Z"/>
  <path class="st0" d="M187.8,266.7c0,3.6-2.9,6.5-6.5,6.5s-6.5-2.9-6.5-6.5,2.9-6.5,6.5-6.5,6.5,2.9,6.5,6.5Z"/>
  <path class="st0" d="M222.9,300.2c0,3.6-2.9,6.5-6.5,6.5s-6.5-2.9-6.5-6.5,2.9-6.5,6.5-6.5,6.5,2.9,6.5,6.5Z"/>
  <path class="st0" d="M306.6,333.7c0,3.6-2.9,6.5-6.5,6.5s-6.5-2.9-6.5-6.5,2.9-6.5,6.5-6.5,6.5,2.9,6.5,6.5Z"/>
  <path class="st0" d="M361.8,367.1c0,3.6-2.9,6.5-6.5,6.5s-6.5-2.9-6.5-6.5,2.9-6.5,6.5-6.5,6.5,2.9,6.5,6.5Z"/>
  <path class="st0" d="M373.5,400.6c0,3.6-2.9,6.5-6.5,6.5s-6.5-2.9-6.5-6.5,2.9-6.5,6.5-6.5,6.5,2.9,6.5,6.5Z"/>
  <path class="st0" d="M355.1,434c0,3.6-2.9,6.5-6.5,6.5s-6.5-2.9-6.5-6.5,2.9-6.5,6.5-6.5,6.5,2.9,6.5,6.5Z"/>
  <path class="st0" d="M101.5,434c0,3.6-2.9,6.5-6.5,6.5s-6.5-2.9-6.5-6.5,2.9-6.5,6.5-6.5,6.5,2.9,6.5,6.5Z"/>
  <path class="st0" d="M84.1,467.5c0,3.6-2.9,6.5-6.5,6.5s-6.5-2.9-6.5-6.5,2.9-6.5,6.5-6.5,6.5,2.9,6.5,6.5Z"/>
  <path class="st0" d="M118.7,500.9c0,3.6-2.9,6.5-6.5,6.5s-6.5-2.9-6.5-6.5,2.9-6.5,6.5-6.5,6.5,2.9,6.5,6.5Z"/>
  <path class="st0" d="M172.2,534.4c0,3.6-2.9,6.5-6.5,6.5s-6.5-2.9-6.5-6.5,2.9-6.5,6.5-6.5,6.5,2.9,6.5,6.5Z"/>
  <path class="st0" d="M259.2,32.5c0,2.9-2.3,5.2-5.2,5.2s-5.2-2.3-5.2-5.2,2.3-5.2,5.2-5.2,5.2,2.3,5.2,5.2Z"/>
  <path class="st0" d="M202.3,66c0,2.9-2.3,5.2-5.2,5.2s-5.2-2.3-5.2-5.2,2.3-5.2,5.2-5.2,5.2,2.3,5.2,5.2Z"/>
  <path class="st0" d="M170.5,99.4c0,2.9-2.3,5.2-5.2,5.2s-5.2-2.3-5.2-5.2,2.3-5.2,5.2-5.2,5.2,2.3,5.2,5.2Z"/>
  <path class="st0" d="M155.4,132.9c0,2.9-2.3,5.2-5.2,5.2s-5.2-2.3-5.2-5.2,2.3-5.2,5.2-5.2,5.2,2.3,5.2,5.2Z"/>
  <path class="st0" d="M148.8,166.4c0,2.9-2.3,5.2-5.2,5.2s-5.2-2.3-5.2-5.2,2.3-5.2,5.2-5.2,5.2,2.3,5.2,5.2Z"/>
  <path class="st0" d="M145.4,199.8c0,2.9-2.3,5.2-5.2,5.2s-5.2-2.3-5.2-5.2,2.3-5.2,5.2-5.2,5.2,2.3,5.2,5.2Z"/>
  <path class="st0" d="M152.1,233.3c0,2.9-2.3,5.2-5.2,5.2s-5.2-2.3-5.2-5.2,2.3-5.2,5.2-5.2,5.2,2.3,5.2,5.2Z"/>
  <path class="st0" d="M170.5,266.7c0,2.9-2.3,5.2-5.2,5.2s-5.2-2.3-5.2-5.2,2.3-5.2,5.2-5.2,5.2,2.3,5.2,5.2Z"/>
  <path class="st0" d="M205.6,300.2c0,2.9-2.3,5.2-5.2,5.2s-5.2-2.3-5.2-5.2,2.3-5.2,5.2-5.2,5.2,2.3,5.2,5.2Z"/>
  <path class="st0" d="M289.3,333.7c0,2.9-2.3,5.2-5.2,5.2s-5.2-2.3-5.2-5.2,2.3-5.2,5.2-5.2,5.2,2.3,5.2,5.2Z"/>
  <path class="st0" d="M344.5,367.1c0,2.9-2.3,5.2-5.2,5.2s-5.2-2.3-5.2-5.2,2.3-5.2,5.2-5.2,5.2,2.3,5.2,5.2Z"/>
  <path class="st0" d="M356.2,400.6c0,2.9-2.3,5.2-5.2,5.2s-5.2-2.3-5.2-5.2,2.3-5.2,5.2-5.2,5.2,2.3,5.2,5.2Z"/>
  <path class="st0" d="M337.8,434c0,2.9-2.3,5.2-5.2,5.2s-5.2-2.3-5.2-5.2,2.3-5.2,5.2-5.2,5.2,2.3,5.2,5.2Z"/>
  <path class="st0" d="M84.2,434c0,2.9-2.3,5.2-5.2,5.2s-5.2-2.3-5.2-5.2,2.3-5.2,5.2-5.2,5.2,2.3,5.2,5.2Z"/>
  <path class="st0" d="M66.8,467.5c0,2.9-2.3,5.2-5.2,5.2s-5.2-2.3-5.2-5.2,2.3-5.2,5.2-5.2,5.2,2.3,5.2,5.2Z"/>
  <path class="st0" d="M101.4,500.9c0,2.9-2.3,5.2-5.2,5.2s-5.2-2.3-5.2-5.2,2.3-5.2,5.2-5.2,5.2,2.3,5.2,5.2Z"/>
  <path class="st0" d="M154.9,534.4c0,2.9-2.3,5.2-5.2,5.2s-5.2-2.3-5.2-5.2,2.3-5.2,5.2-5.2,5.2,2.3,5.2,5.2Z"/>
  <circle class="st0" cx="238.9" cy="32.5" r="4.2"/>
  <circle class="st0" cx="182.1" cy="66" r="4.2"/>
  <circle class="st0" cx="150.3" cy="99.4" r="4.2"/>
  <circle class="st0" cx="135.2" cy="132.9" r="4.2"/>
  <circle class="st0" cx="128.5" cy="166.4" r="4.2"/>
  <circle class="st0" cx="125.2" cy="199.8" r="4.2"/>
  <circle class="st0" cx="131.9" cy="233.3" r="4.2"/>
  <circle class="st0" cx="150.3" cy="266.7" r="4.2"/>
  <circle class="st0" cx="185.4" cy="300.2" r="4.2"/>
  <circle class="st0" cx="269.1" cy="333.7" r="4.2"/>
  <circle class="st0" cx="324.3" cy="367.1" r="4.2"/>
  <circle class="st0" cx="336" cy="400.6" r="4.2"/>
  <circle class="st0" cx="317.6" cy="434" r="4.2"/>
  <circle class="st0" cx="64" cy="434" r="4.2"/>
  <circle class="st0" cx="46.6" cy="467.5" r="4.2"/>
  <circle class="st0" cx="81.2" cy="500.9" r="4.2"/>
  <circle class="st0" cx="134.7" cy="534.4" r="4.2"/>
</svg>