<svg id="Layer_1" data-name="Layer 1" xmlns="http://www.w3.org/2000/svg" xmlns:xlink="http://www.w3.org/1999/xlink" viewBox="0 0 20 20"><defs><clipPath id="clip-path"><circle cx="-310" cy="-406" r="23" fill="none"/></clipPath><clipPath id="clip-path-2"><path d="M-306.29-396.75l-.56-2.36a6.67,6.67,0,0,0,5.15-6.52,6.65,6.65,0,0,0-5.15-6.51l.56-2.37a9.09,9.09,0,0,1,7,8.88,9.09,9.09,0,0,1-7,8.88" fill="none" clip-rule="evenodd"/></clipPath><clipPath id="clip-path-3"><path d="M-307.5-401l-.56-2.37a2.26,2.26,0,0,0,1.75-2.21,2.26,2.26,0,0,0-1.75-2.22l.56-2.37a4.69,4.69,0,0,1,3.62,4.59A4.69,4.69,0,0,1-307.5-401" fill="none" clip-rule="evenodd"/></clipPath><clipPath id="clip-path-4"><polygon points="-316.3 -409.28 -321.17 -409.28 -321.17 -401.98 -316.3 -401.98 -310.22 -397.19 -310.22 -414.07 -316.3 -409.28" fill="none" clip-rule="evenodd"/></clipPath><clipPath id="clip-path-5"><circle cx="-279" cy="-426" r="23" fill="none"/></clipPath><clipPath id="clip-path-6"><path d="M-275.29-416.75l-.56-2.36a6.67,6.67,0,0,0,5.15-6.52,6.65,6.65,0,0,0-5.15-6.51l.56-2.37a9.09,9.09,0,0,1,7,8.88,9.09,9.09,0,0,1-7,8.88" fill="none" clip-rule="evenodd"/></clipPath><clipPath id="clip-path-7"><path d="M-276.5-421l-.56-2.37a2.26,2.26,0,0,0,1.75-2.21,2.26,2.26,0,0,0-1.75-2.22l.56-2.37a4.69,4.69,0,0,1,3.62,4.59A4.69,4.69,0,0,1-276.5-421" fill="none" clip-rule="evenodd"/></clipPath><clipPath id="clip-path-8"><polygon points="-285.3 -429.28 -290.17 -429.28 -290.17 -421.98 -285.3 -421.98 -279.22 -417.19 -279.22 -434.07 -285.3 -429.28" fill="none" clip-rule="evenodd"/></clipPath></defs><title>svg_more</title><path d="M5,10A2,2,0,1,1,3,8,2,2,0,0,1,5,10Zm5-2a2,2,0,1,0,2,2A2,2,0,0,0,10,8Zm7,0a2,2,0,1,0,2,2A2,2,0,0,0,17,8Z"/></svg>