<svg id="Layer_1" data-name="Layer 1" xmlns="http://www.w3.org/2000/svg" xmlns:xlink="http://www.w3.org/1999/xlink" viewBox="0 0 20 20"><defs><clipPath id="clip-path"><circle cx="-340" cy="-228" r="23" fill="none"/></clipPath><clipPath id="clip-path-2"><path d="M-336.29-218.75l-.56-2.36a6.67,6.67,0,0,0,5.15-6.52,6.65,6.65,0,0,0-5.15-6.51l.56-2.37a9.09,9.09,0,0,1,7,8.88,9.09,9.09,0,0,1-7,8.88" fill="none" clip-rule="evenodd"/></clipPath><clipPath id="clip-path-3"><path d="M-337.5-223l-.56-2.37a2.26,2.26,0,0,0,1.75-2.21,2.26,2.26,0,0,0-1.75-2.22l.56-2.37a4.69,4.69,0,0,1,3.62,4.59A4.69,4.69,0,0,1-337.5-223" fill="none" clip-rule="evenodd"/></clipPath><clipPath id="clip-path-4"><polygon points="-346.3 -231.28 -351.17 -231.28 -351.17 -223.98 -346.3 -223.98 -340.22 -219.19 -340.22 -236.07 -346.3 -231.28" fill="none" clip-rule="evenodd"/></clipPath><clipPath id="clip-path-5"><circle cx="-309" cy="-248" r="23" fill="none"/></clipPath><clipPath id="clip-path-6"><path d="M-305.29-238.75l-.56-2.36a6.67,6.67,0,0,0,5.15-6.52,6.65,6.65,0,0,0-5.15-6.51l.56-2.37a9.09,9.09,0,0,1,7,8.88,9.09,9.09,0,0,1-7,8.88" fill="none" clip-rule="evenodd"/></clipPath><clipPath id="clip-path-7"><path d="M-306.5-243l-.56-2.37a2.26,2.26,0,0,0,1.75-2.21,2.26,2.26,0,0,0-1.75-2.22l.56-2.37a4.69,4.69,0,0,1,3.62,4.59A4.69,4.69,0,0,1-306.5-243" fill="none" clip-rule="evenodd"/></clipPath><clipPath id="clip-path-8"><polygon points="-315.3 -251.28 -320.17 -251.28 -320.17 -243.98 -315.3 -243.98 -309.22 -239.19 -309.22 -256.07 -315.3 -251.28" fill="none" clip-rule="evenodd"/></clipPath></defs><title>svg_replay-out</title><path d="M19.69,10A10,10,0,0,1,2.62,17.06a1,1,0,0,1,0-1.41,1,1,0,0,1,1.42,0A8,8,0,1,0,4.17,4.21L6,6H1V1L2.76,2.8A10,10,0,0,1,19.69,10ZM8.57,13.56l5.25-2.86c.48-.26.48-.69,0-.95L8.57,6.89a.54.54,0,0,0-.88.52V13A.54.54,0,0,0,8.57,13.56Z"/></svg>