<svg id="Layer_1" data-name="Layer 1" xmlns="http://www.w3.org/2000/svg" xmlns:xlink="http://www.w3.org/1999/xlink" viewBox="0 0 20 20"><defs><clipPath id="clip-path"><circle cx="-280" cy="-536" r="23" fill="none"/></clipPath><clipPath id="clip-path-2"><path d="M-276.29-526.75l-.56-2.36a6.67,6.67,0,0,0,5.15-6.52,6.65,6.65,0,0,0-5.15-6.51l.56-2.37a9.09,9.09,0,0,1,7,8.88,9.09,9.09,0,0,1-7,8.88" fill="none" clip-rule="evenodd"/></clipPath><clipPath id="clip-path-3"><path d="M-277.5-531l-.56-2.37a2.26,2.26,0,0,0,1.75-2.21,2.26,2.26,0,0,0-1.75-2.22l.56-2.37a4.69,4.69,0,0,1,3.62,4.59A4.69,4.69,0,0,1-277.5-531" fill="none" clip-rule="evenodd"/></clipPath><clipPath id="clip-path-4"><polygon points="-286.3 -539.28 -291.17 -539.28 -291.17 -531.98 -286.3 -531.98 -280.22 -527.19 -280.22 -544.07 -286.3 -539.28" fill="none" clip-rule="evenodd"/></clipPath><clipPath id="clip-path-5"><circle cx="-249" cy="-556" r="23" fill="none"/></clipPath><clipPath id="clip-path-6"><path d="M-245.29-546.75l-.56-2.36a6.67,6.67,0,0,0,5.15-6.52,6.65,6.65,0,0,0-5.15-6.51l.56-2.37a9.09,9.09,0,0,1,7,8.88,9.09,9.09,0,0,1-7,8.88" fill="none" clip-rule="evenodd"/></clipPath><clipPath id="clip-path-7"><path d="M-246.5-551l-.56-2.37a2.26,2.26,0,0,0,1.75-2.21,2.26,2.26,0,0,0-1.75-2.22l.56-2.37a4.69,4.69,0,0,1,3.62,4.59A4.69,4.69,0,0,1-246.5-551" fill="none" clip-rule="evenodd"/></clipPath><clipPath id="clip-path-8"><polygon points="-255.3 -559.28 -260.17 -559.28 -260.17 -551.98 -255.3 -551.98 -249.22 -547.19 -249.22 -564.07 -255.3 -559.28" fill="none" clip-rule="evenodd"/></clipPath></defs><title>svg_x-cl</title><path d="M3.64,3.64A9,9,0,1,1,16.36,16.36,9,9,0,1,1,3.64,3.64m-.71-.71A10,10,0,1,0,10,0,10,10,0,0,0,2.93,2.93Zm10.61,9.19-1.42,1.42L10,11.41,7.88,13.54,6.46,12.12,8.59,10,6.46,7.88,7.88,6.46,10,8.59l2.12-2.13,1.42,1.42L11.41,10Z"/></svg>