<svg id="Layer_1" data-name="Layer 1" xmlns="http://www.w3.org/2000/svg" xmlns:xlink="http://www.w3.org/1999/xlink" viewBox="0 0 20 20"><defs><clipPath id="clip-path"><circle cx="-340" cy="-466" r="23" fill="none"/></clipPath><clipPath id="clip-path-2"><path d="M-336.29-456.75l-.56-2.36a6.67,6.67,0,0,0,5.15-6.52,6.65,6.65,0,0,0-5.15-6.51l.56-2.37a9.09,9.09,0,0,1,7,8.88,9.09,9.09,0,0,1-7,8.88" fill="none" clip-rule="evenodd"/></clipPath><clipPath id="clip-path-3"><path d="M-337.5-461l-.56-2.37a2.26,2.26,0,0,0,1.75-2.21,2.26,2.26,0,0,0-1.75-2.22l.56-2.37a4.69,4.69,0,0,1,3.62,4.59A4.69,4.69,0,0,1-337.5-461" fill="none" clip-rule="evenodd"/></clipPath><clipPath id="clip-path-4"><polygon points="-346.3 -469.28 -351.17 -469.28 -351.17 -461.98 -346.3 -461.98 -340.22 -457.19 -340.22 -474.07 -346.3 -469.28" fill="none" clip-rule="evenodd"/></clipPath><clipPath id="clip-path-5"><circle cx="-309" cy="-486" r="23" fill="none"/></clipPath><clipPath id="clip-path-6"><path d="M-305.29-476.75l-.56-2.36a6.67,6.67,0,0,0,5.15-6.52,6.65,6.65,0,0,0-5.15-6.51l.56-2.37a9.09,9.09,0,0,1,7,8.88,9.09,9.09,0,0,1-7,8.88" fill="none" clip-rule="evenodd"/></clipPath><clipPath id="clip-path-7"><path d="M-306.5-481l-.56-2.37a2.26,2.26,0,0,0,1.75-2.21,2.26,2.26,0,0,0-1.75-2.22l.56-2.37a4.69,4.69,0,0,1,3.62,4.59A4.69,4.69,0,0,1-306.5-481" fill="none" clip-rule="evenodd"/></clipPath><clipPath id="clip-path-8"><polygon points="-315.3 -489.28 -320.17 -489.28 -320.17 -481.98 -315.3 -481.98 -309.22 -477.19 -309.22 -494.07 -315.3 -489.28" fill="none" clip-rule="evenodd"/></clipPath></defs><title>svg_undo</title><path d="M15,15A6.9,6.9,0,0,1,10,17H9.85v0A1,1,0,0,1,9.9,15v0A5,5,0,1,0,6.49,6.46v0L9,9H3V3L5.06,5.06h0A7,7,0,0,1,15,15Z"/></svg>