<svg id="Layer_1" data-name="Layer 1" xmlns="http://www.w3.org/2000/svg" xmlns:xlink="http://www.w3.org/1999/xlink" viewBox="0 0 20 20"><defs><clipPath id="clip-path"><circle cx="-480" cy="-496" r="23" fill="none"/></clipPath><clipPath id="clip-path-2"><path d="M-476.29-486.75l-.56-2.36a6.67,6.67,0,0,0,5.15-6.52,6.65,6.65,0,0,0-5.15-6.51l.56-2.37a9.09,9.09,0,0,1,7,8.88,9.09,9.09,0,0,1-7,8.88" fill="none" clip-rule="evenodd"/></clipPath><clipPath id="clip-path-3"><path d="M-477.5-491l-.56-2.37a2.26,2.26,0,0,0,1.75-2.21,2.26,2.26,0,0,0-1.75-2.22l.56-2.37a4.69,4.69,0,0,1,3.62,4.59A4.69,4.69,0,0,1-477.5-491" fill="none" clip-rule="evenodd"/></clipPath><clipPath id="clip-path-4"><polygon points="-486.3 -499.28 -491.17 -499.28 -491.17 -491.98 -486.3 -491.98 -480.22 -487.19 -480.22 -504.07 -486.3 -499.28" fill="none" clip-rule="evenodd"/></clipPath><clipPath id="clip-path-5"><circle cx="-449" cy="-516" r="23" fill="none"/></clipPath><clipPath id="clip-path-6"><path d="M-445.29-506.75l-.56-2.36a6.67,6.67,0,0,0,5.15-6.52,6.65,6.65,0,0,0-5.15-6.51l.56-2.37a9.09,9.09,0,0,1,7,8.88,9.09,9.09,0,0,1-7,8.88" fill="none" clip-rule="evenodd"/></clipPath><clipPath id="clip-path-7"><path d="M-446.5-511l-.56-2.37a2.26,2.26,0,0,0,1.75-2.21,2.26,2.26,0,0,0-1.75-2.22l.56-2.37a4.69,4.69,0,0,1,3.62,4.59A4.69,4.69,0,0,1-446.5-511" fill="none" clip-rule="evenodd"/></clipPath><clipPath id="clip-path-8"><polygon points="-455.3 -519.28 -460.17 -519.28 -460.17 -511.98 -455.3 -511.98 -449.22 -507.19 -449.22 -524.07 -455.3 -519.28" fill="none" clip-rule="evenodd"/></clipPath></defs><title>svg_minus-c</title><path d="M17.07,2.93a10,10,0,1,0,0,14.14A10,10,0,0,0,17.07,2.93ZM14,11H6V9h8Z"/></svg>