<svg xmlns="http://www.w3.org/2000/svg" viewBox="0 0 20 20"><title>svg_pistons</title><g id="Layer_2" data-name="Layer 2"><path d="M13,7.52l-6,5.9A2.79,2.79,0,0,0,4,14a2.72,2.72,0,0,0,0,3.89,2.79,2.79,0,0,0,3.92,0,2.71,2.71,0,0,0,.58-3l6-5.91A4.16,4.16,0,0,1,15.21,11l2.14-2.13L13.06,4.62,10.92,6.74A4.22,4.22,0,0,1,13,7.52M4.92,15.05a1.27,1.27,0,0,1,1.79,0,1.25,1.25,0,0,1,0,1.77,1.27,1.27,0,0,1-1.79,0,1.25,1.25,0,0,1,0-1.77M14.14,4.27a.5.5,0,0,1,0-.71.51.51,0,0,1,.71,0L18.42,7.1a.48.48,0,0,1,0,.7.5.5,0,0,1-.71,0Zm1.43-1.42a.48.48,0,0,1,0-.7.5.5,0,0,1,.71,0l3.57,3.53a.5.5,0,0,1,0,.71.51.51,0,0,1-.71,0ZM6.9,4.62,9,6.74A4.2,4.2,0,0,0,7,7.52L9.3,9.84,7.88,11.25,5.55,8.93A4.05,4.05,0,0,0,4.77,11L2.63,8.86Zm4.58,10.22-.76-.76,1.42-1.41.76.75A2.77,2.77,0,0,1,16,14a2.74,2.74,0,0,1,0,3.89,2.78,2.78,0,0,1-3.91,0A2.75,2.75,0,0,1,11.48,14.84Zm1.64.21a1.26,1.26,0,1,1,0,1.77A1.26,1.26,0,0,1,13.12,15.05ZM.86,6.39a.51.51,0,0,1-.71,0,.5.5,0,0,1,0-.71L3.7,2.15a.5.5,0,0,1,.71,0,.48.48,0,0,1,0,.7ZM2.28,7.8a.5.5,0,0,1-.71,0,.48.48,0,0,1,0-.7L5.12,3.56a.51.51,0,0,1,.71,0,.5.5,0,0,1,0,.71Z" fill-rule="evenodd"/></g></svg>