<svg id="Layer_1" data-name="Layer 1" xmlns="http://www.w3.org/2000/svg" xmlns:xlink="http://www.w3.org/1999/xlink" viewBox="0 0 20 20"><defs><clipPath id="clip-path"><circle cx="-370" cy="-466" r="23" fill="none"/></clipPath><clipPath id="clip-path-2"><path d="M-366.29-456.75l-.56-2.36a6.67,6.67,0,0,0,5.15-6.52,6.65,6.65,0,0,0-5.15-6.51l.56-2.37a9.09,9.09,0,0,1,7,8.88,9.09,9.09,0,0,1-7,8.88" fill="none" clip-rule="evenodd"/></clipPath><clipPath id="clip-path-3"><path d="M-367.5-461l-.56-2.37a2.26,2.26,0,0,0,1.75-2.21,2.26,2.26,0,0,0-1.75-2.22l.56-2.37a4.69,4.69,0,0,1,3.62,4.59A4.69,4.69,0,0,1-367.5-461" fill="none" clip-rule="evenodd"/></clipPath><clipPath id="clip-path-4"><polygon points="-376.3 -469.28 -381.17 -469.28 -381.17 -461.98 -376.3 -461.98 -370.22 -457.19 -370.22 -474.07 -376.3 -469.28" fill="none" clip-rule="evenodd"/></clipPath><clipPath id="clip-path-5"><circle cx="-339" cy="-486" r="23" fill="none"/></clipPath><clipPath id="clip-path-6"><path d="M-335.29-476.75l-.56-2.36a6.67,6.67,0,0,0,5.15-6.52,6.65,6.65,0,0,0-5.15-6.51l.56-2.37a9.09,9.09,0,0,1,7,8.88,9.09,9.09,0,0,1-7,8.88" fill="none" clip-rule="evenodd"/></clipPath><clipPath id="clip-path-7"><path d="M-336.5-481l-.56-2.37a2.26,2.26,0,0,0,1.75-2.21,2.26,2.26,0,0,0-1.75-2.22l.56-2.37a4.69,4.69,0,0,1,3.62,4.59A4.69,4.69,0,0,1-336.5-481" fill="none" clip-rule="evenodd"/></clipPath><clipPath id="clip-path-8"><polygon points="-345.3 -489.28 -350.17 -489.28 -350.17 -481.98 -345.3 -481.98 -339.22 -477.19 -339.22 -494.07 -345.3 -489.28" fill="none" clip-rule="evenodd"/></clipPath></defs><title>svg_reload</title><path d="M8,10,4,14,0,10H3A7,7,0,0,1,14.52,4.64a1,1,0,1,1-1.3,1.52A5,5,0,0,0,5,10Zm12,0L16,6l-4,4h3a5,5,0,0,1-8.24,3.83,1,1,0,1,0-1.3,1.52A7,7,0,0,0,17,10Z"/></svg>