<svg id="Layer_1" data-name="Layer 1" xmlns="http://www.w3.org/2000/svg" viewBox="0 0 20.08 20.08"><title>svg_timesfiler</title><path d="M10.09,16.82v-3a.76.76,0,0,0-1.52,0v3a.76.76,0,1,0,1.52,0Z"/><path d="M5.14,16.82v-3A.77.77,0,0,0,4.37,13a.76.76,0,0,0-.76.76v3a.77.77,0,0,0,.76.77A.78.78,0,0,0,5.14,16.82Z"/><path d="M20,16.82v-3a.76.76,0,0,0-1.52,0v3a.76.76,0,1,0,1.52,0Z"/><path d="M17.53,19.32v-8a.76.76,0,1,0-1.52,0v8.05a.76.76,0,0,0,1.52,0Z"/><path d="M12.57,19.32v-5.4a.76.76,0,0,0-1.52,0v5.4a.76.76,0,0,0,1.52,0Z"/><path d="M15.05,16.82v-3a.76.76,0,1,0-1.52,0v3a.76.76,0,1,0,1.52,0Z"/><path d="M11.7,2.09A6.86,6.86,0,0,0,2,11.79a.76.76,0,0,0,1.07-1.08,5.34,5.34,0,1,1,7.55,0,.76.76,0,0,0,.53,1.3.79.79,0,0,0,.54-.22A6.86,6.86,0,0,0,11.7,2.09Z"/><path d="M9.68,4A4,4,0,0,0,4,9.65a.55.55,0,0,0,.8,0,.56.56,0,0,0,0-.81,2.85,2.85,0,1,1,4,0,.57.57,0,1,0,.81.81A4,4,0,0,0,9.68,4Z"/><path d="M5.78,5.75a1.51,1.51,0,0,0,0,2.15,1.43,1.43,0,0,0,.31.24v4.45h0v5.33a.76.76,0,0,0,1.52,0V14.55h0V8.14a1.72,1.72,0,0,0,.31-.24A1.52,1.52,0,1,0,5.78,5.75Z"/></svg>