<svg id="Layer_1" data-name="Layer 1" xmlns="http://www.w3.org/2000/svg" xmlns:xlink="http://www.w3.org/1999/xlink" viewBox="0 0 20 20"><defs><clipPath id="clip-path"><circle cx="-310" cy="-436" r="23" fill="none"/></clipPath><clipPath id="clip-path-2"><path d="M-306.29-426.75l-.56-2.36a6.67,6.67,0,0,0,5.15-6.52,6.65,6.65,0,0,0-5.15-6.51l.56-2.37a9.09,9.09,0,0,1,7,8.88,9.09,9.09,0,0,1-7,8.88" fill="none" clip-rule="evenodd"/></clipPath><clipPath id="clip-path-3"><path d="M-307.5-431l-.56-2.37a2.26,2.26,0,0,0,1.75-2.21,2.26,2.26,0,0,0-1.75-2.22l.56-2.37a4.69,4.69,0,0,1,3.62,4.59A4.69,4.69,0,0,1-307.5-431" fill="none" clip-rule="evenodd"/></clipPath><clipPath id="clip-path-4"><polygon points="-316.3 -439.28 -321.17 -439.28 -321.17 -431.98 -316.3 -431.98 -310.22 -427.19 -310.22 -444.07 -316.3 -439.28" fill="none" clip-rule="evenodd"/></clipPath><clipPath id="clip-path-5"><circle cx="-279" cy="-456" r="23" fill="none"/></clipPath><clipPath id="clip-path-6"><path d="M-275.29-446.75l-.56-2.36a6.67,6.67,0,0,0,5.15-6.52,6.65,6.65,0,0,0-5.15-6.51l.56-2.37a9.09,9.09,0,0,1,7,8.88,9.09,9.09,0,0,1-7,8.88" fill="none" clip-rule="evenodd"/></clipPath><clipPath id="clip-path-7"><path d="M-276.5-451l-.56-2.37a2.26,2.26,0,0,0,1.75-2.21,2.26,2.26,0,0,0-1.75-2.22l.56-2.37a4.69,4.69,0,0,1,3.62,4.59A4.69,4.69,0,0,1-276.5-451" fill="none" clip-rule="evenodd"/></clipPath><clipPath id="clip-path-8"><polygon points="-285.3 -459.28 -290.17 -459.28 -290.17 -451.98 -285.3 -451.98 -279.22 -447.19 -279.22 -464.07 -285.3 -459.28" fill="none" clip-rule="evenodd"/></clipPath></defs><title>svg_favorite-off</title><path d="M10,2l2.2,5.39L18,7.81l-4.45,3.76L15,17.23,10,14.16,5.05,17.23l1.39-5.66L2,7.81,7.8,7.38,10,2m0-1a1,1,0,0,0-.92.62l-2,4.82-5.2.38a1,1,0,0,0-.57,1.75l4,3.36L4.09,17a1,1,0,0,0,.38,1,1,1,0,0,0,.58.19,1,1,0,0,0,.52-.15L10,15.32l4.43,2.75a1,1,0,0,0,.52.15,1,1,0,0,0,.58-.19,1,1,0,0,0,.38-1l-1.24-5.06,4-3.36a1,1,0,0,0-.57-1.75l-5.2-.38-2-4.82A1,1,0,0,0,10,1Z"/></svg>