<svg id="Layer_1" data-name="Layer 1" xmlns="http://www.w3.org/2000/svg" xmlns:xlink="http://www.w3.org/1999/xlink" viewBox="0 0 20 20"><defs><clipPath id="clip-path"><circle cx="-340" cy="-536" r="23" fill="none"/></clipPath><clipPath id="clip-path-2"><path d="M-336.29-526.75l-.56-2.36a6.67,6.67,0,0,0,5.15-6.52,6.65,6.65,0,0,0-5.15-6.51l.56-2.37a9.09,9.09,0,0,1,7,8.88,9.09,9.09,0,0,1-7,8.88" fill="none" clip-rule="evenodd"/></clipPath><clipPath id="clip-path-3"><path d="M-337.5-531l-.56-2.37a2.26,2.26,0,0,0,1.75-2.21,2.26,2.26,0,0,0-1.75-2.22l.56-2.37a4.69,4.69,0,0,1,3.62,4.59A4.69,4.69,0,0,1-337.5-531" fill="none" clip-rule="evenodd"/></clipPath><clipPath id="clip-path-4"><polygon points="-346.3 -539.28 -351.17 -539.28 -351.17 -531.98 -346.3 -531.98 -340.22 -527.19 -340.22 -544.07 -346.3 -539.28" fill="none" clip-rule="evenodd"/></clipPath><clipPath id="clip-path-5"><circle cx="-309" cy="-556" r="23" fill="none"/></clipPath><clipPath id="clip-path-6"><path d="M-305.29-546.75l-.56-2.36a6.67,6.67,0,0,0,5.15-6.52,6.65,6.65,0,0,0-5.15-6.51l.56-2.37a9.09,9.09,0,0,1,7,8.88,9.09,9.09,0,0,1-7,8.88" fill="none" clip-rule="evenodd"/></clipPath><clipPath id="clip-path-7"><path d="M-306.5-551l-.56-2.37a2.26,2.26,0,0,0,1.75-2.21,2.26,2.26,0,0,0-1.75-2.22l.56-2.37a4.69,4.69,0,0,1,3.62,4.59A4.69,4.69,0,0,1-306.5-551" fill="none" clip-rule="evenodd"/></clipPath><clipPath id="clip-path-8"><polygon points="-315.3 -559.28 -320.17 -559.28 -320.17 -551.98 -315.3 -551.98 -309.22 -547.19 -309.22 -564.07 -315.3 -559.28" fill="none" clip-rule="evenodd"/></clipPath></defs><title>svg_x-small</title><path d="M7.17,14.24,5.76,12.83,8.59,10,5.76,7.17,7.17,5.76,10,8.59l2.83-2.83,1.41,1.41L11.41,10l2.83,2.83-1.41,1.41L10,11.41Z"/></svg>