<svg id="Layer_1" data-name="Layer 1" xmlns="http://www.w3.org/2000/svg" xmlns:xlink="http://www.w3.org/1999/xlink" viewBox="0 0 30 30"><defs><clipPath id="clip-path"><circle cx="-430" cy="-566" r="23" fill="none"/></clipPath><clipPath id="clip-path-2"><path d="M-426.29-556.75l-.56-2.36a6.67,6.67,0,0,0,5.15-6.52,6.65,6.65,0,0,0-5.15-6.51l.56-2.37a9.09,9.09,0,0,1,7,8.88,9.09,9.09,0,0,1-7,8.88" fill="none" clip-rule="evenodd"/></clipPath><clipPath id="clip-path-3"><path d="M-427.5-561l-.56-2.37a2.26,2.26,0,0,0,1.75-2.21,2.26,2.26,0,0,0-1.75-2.22l.56-2.37a4.69,4.69,0,0,1,3.62,4.59A4.69,4.69,0,0,1-427.5-561" fill="none" clip-rule="evenodd"/></clipPath><clipPath id="clip-path-4"><polygon points="-436.3 -569.28 -441.17 -569.28 -441.17 -561.98 -436.3 -561.98 -430.22 -557.19 -430.22 -574.07 -436.3 -569.28" fill="none" clip-rule="evenodd"/></clipPath><clipPath id="clip-path-5"><circle cx="-399" cy="-586" r="23" fill="none"/></clipPath><clipPath id="clip-path-6"><path d="M-395.29-576.75l-.56-2.36a6.67,6.67,0,0,0,5.15-6.52,6.65,6.65,0,0,0-5.15-6.51l.56-2.37a9.09,9.09,0,0,1,7,8.88,9.09,9.09,0,0,1-7,8.88" fill="none" clip-rule="evenodd"/></clipPath><clipPath id="clip-path-7"><path d="M-396.5-581l-.56-2.37a2.26,2.26,0,0,0,1.75-2.21,2.26,2.26,0,0,0-1.75-2.22l.56-2.37a4.69,4.69,0,0,1,3.62,4.59A4.69,4.69,0,0,1-396.5-581" fill="none" clip-rule="evenodd"/></clipPath><clipPath id="clip-path-8"><polygon points="-405.3 -589.28 -410.17 -589.28 -410.17 -581.98 -405.3 -581.98 -399.22 -577.19 -399.22 -594.07 -405.3 -589.28" fill="none" clip-rule="evenodd"/></clipPath></defs><title>svg_newsagency</title><path d="M15,3.5A11.5,11.5,0,1,0,26.5,15,11.5,11.5,0,0,0,15,3.5Zm.5,22v-5h3.93a12.6,12.6,0,0,1-2.8,4.86A8.48,8.48,0,0,1,15.5,25.47Zm-2.13-.11a12.6,12.6,0,0,1-2.8-4.86H14.5v5A8.48,8.48,0,0,1,13.37,25.36ZM4.53,15.5H8.89a20,20,0,0,0,.56,4H5.53A10.13,10.13,0,0,1,4.53,15.5Zm10-11v5H10.38a11.05,11.05,0,0,1,2.8-4.83A9.52,9.52,0,0,1,14.5,4.53Zm2.32.14a11.05,11.05,0,0,1,2.8,4.83H15.5v-5A9.52,9.52,0,0,1,16.82,4.67Zm3.53,9.66c0,.06,0,.11,0,.17H15.5v-4h4.39A18.68,18.68,0,0,1,20.35,14.33ZM14.5,10.5v4H9.66c0-.06,0-.11,0-.17a18.68,18.68,0,0,1,.46-3.83Zm-5.64,4H4.53a10.13,10.13,0,0,1,1-4H9.3a18.67,18.67,0,0,0-.45,3.82C8.85,14.38,8.86,14.44,8.86,14.5Zm.82,1H14.5v4H10.28A19.78,19.78,0,0,1,9.68,15.5Zm5.82,4v-4h4.82a19.78,19.78,0,0,1-.6,4Zm5.61-4h4.36a10.13,10.13,0,0,1-1,4H20.55A20,20,0,0,0,21.11,15.5Zm-.41-5h3.77a10.13,10.13,0,0,1,1,4H21.14c0-.06,0-.12,0-.18A18.67,18.67,0,0,0,20.7,10.5Zm3.23-1H20.45A12.62,12.62,0,0,0,18.21,5,10.54,10.54,0,0,1,23.93,9.5ZM11.79,5A12.62,12.62,0,0,0,9.55,9.5H6.07A10.54,10.54,0,0,1,11.79,5ZM6.07,20.5H9.75a14.44,14.44,0,0,0,2.31,4.57A10.54,10.54,0,0,1,6.07,20.5Zm11.87,4.57a14.44,14.44,0,0,0,2.31-4.57h3.68A10.54,10.54,0,0,1,17.94,25.07Z"/></svg>