<svg id="Layer_1" data-name="Layer 1" xmlns="http://www.w3.org/2000/svg" xmlns:xlink="http://www.w3.org/1999/xlink" viewBox="0 0 40 40"><defs><clipPath id="clip-path"><circle cx="-250" cy="-286" r="23" fill="none"/></clipPath><clipPath id="clip-path-2"><path d="M-246.29-276.75l-.56-2.36a6.67,6.67,0,0,0,5.15-6.52,6.65,6.65,0,0,0-5.15-6.51l.56-2.37a9.09,9.09,0,0,1,7,8.88,9.09,9.09,0,0,1-7,8.88" fill="none" clip-rule="evenodd"/></clipPath><clipPath id="clip-path-3"><path d="M-247.5-281l-.56-2.37a2.26,2.26,0,0,0,1.75-2.21,2.26,2.26,0,0,0-1.75-2.22l.56-2.37a4.69,4.69,0,0,1,3.62,4.59A4.69,4.69,0,0,1-247.5-281" fill="none" clip-rule="evenodd"/></clipPath><clipPath id="clip-path-4"><polygon points="-256.3 -289.28 -261.17 -289.28 -261.17 -281.98 -256.3 -281.98 -250.22 -277.19 -250.22 -294.07 -256.3 -289.28" fill="none" clip-rule="evenodd"/></clipPath><clipPath id="clip-path-5"><circle cx="-219" cy="-306" r="23" fill="none"/></clipPath><clipPath id="clip-path-6"><path d="M-215.29-296.75l-.56-2.36a6.67,6.67,0,0,0,5.15-6.52,6.65,6.65,0,0,0-5.15-6.51l.56-2.37a9.09,9.09,0,0,1,7,8.88,9.09,9.09,0,0,1-7,8.88" fill="none" clip-rule="evenodd"/></clipPath><clipPath id="clip-path-7"><path d="M-216.5-301l-.56-2.37a2.26,2.26,0,0,0,1.75-2.21,2.26,2.26,0,0,0-1.75-2.22l.56-2.37a4.69,4.69,0,0,1,3.62,4.59A4.69,4.69,0,0,1-216.5-301" fill="none" clip-rule="evenodd"/></clipPath><clipPath id="clip-path-8"><polygon points="-225.3 -309.28 -230.17 -309.28 -230.17 -301.98 -225.3 -301.98 -219.22 -297.19 -219.22 -314.07 -225.3 -309.28" fill="none" clip-rule="evenodd"/></clipPath></defs><title>svg_play-40px</title><path d="M17.54,24.78c-.92.52-1.66.08-1.66-1V16.19c0-1.05.74-1.49,1.66-1l6.78,3.84a1,1,0,0,1,0,1.88Z"/><path d="M20,1.3A18.7,18.7,0,1,1,1.3,20,18.72,18.72,0,0,1,20,1.3M20,0A20,20,0,1,0,40,20,20,20,0,0,0,20,0Z"/></svg>