<?xml version="1.0" encoding="utf-8"?>
<!-- Generator: Adobe Illustrator 22.0.1, SVG Export Plug-In . SVG Version: 6.00 Build 0)  -->
<svg version="1.1" id="Layer_1" xmlns="http://www.w3.org/2000/svg" xmlns:xlink="http://www.w3.org/1999/xlink" x="0px" y="0px"
	 viewBox="0 0 20 20" style="enable-background:new 0 0 20 20;" xml:space="preserve">
<style type="text/css">
	.st0{fill-rule:evenodd;clip-rule:evenodd;}
	.st1{fill-rule:evenodd;clip-rule:evenodd;fill:#010202;}
</style>
<g>
	<path d="M8.9,15.1c0,0.3,0.2,0.5,0.5,0.5c0.3,0,0.5-0.2,0.5-0.5v-3.2c0-0.3-0.2-0.5-0.5-0.5c-0.3,0-0.5,0.2-0.5,0.5V15.1z"/>
	<path d="M9.3,8.1c0.3,0,0.5-0.2,0.5-0.5V6.7c0-0.3-0.2-0.5-0.5-0.5c-0.3,0-0.5,0.2-0.5,0.5v0.9C8.9,7.9,9.1,8.1,9.3,8.1z"/>
	<path d="M8.9,10c0,0.3,0.2,0.5,0.5,0.5c0.3,0,0.5-0.2,0.5-0.5V9.1c0-0.3-0.2-0.5-0.5-0.5c-0.3,0-0.5,0.2-0.5,0.5V10z"/>
	<path d="M7.1,11.1c0.3,0,0.5-0.2,0.5-0.5V7.2c0-0.3-0.2-0.5-0.5-0.5c-0.3,0-0.5,0.2-0.5,0.5v3.5C6.7,10.9,6.9,11.1,7.1,11.1z"/>
	<path d="M6.7,15.8c0,0.3,0.2,0.5,0.5,0.5c0.3,0,0.5-0.2,0.5-0.5V14c0-0.3-0.2-0.5-0.5-0.5c-0.3,0-0.5,0.2-0.5,0.5V15.8z"/>
	<path d="M15.9,3c0,0-0.7-0.5-1.8-0.7c-1-0.2-2.6,0-4.4,1.4c-3.3,2.6-5,0.8-5,0.7C4.5,4.3,4.2,4.3,4,4.4C3.9,4.5,3.9,4.6,3.9,4.7
		c0,0.1,0,0.2,0.1,0.3c0,0,0.9,1,2.4,1c1.2,0,2.5-0.5,3.8-1.6c2.9-2.3,5-0.8,5.1-0.7c0.1,0.1,0.2,0.1,0.3,0.1c0.1,0,0.2-0.1,0.3-0.2
		C16,3.6,16.1,3.5,16,3.3C16,3.2,16,3.1,15.9,3z"/>
	<path d="M14.6,18c-0.4-0.2-0.8-0.2-1.1-0.2c-0.1-0.5-0.3-1.1-0.7-1.5c-0.4-0.4-0.9-0.6-1.5-0.6c-1.3,0-1.9,0.7-2.1,1.2
		c-0.3-0.2-0.7-0.3-1.1-0.3c-1.1,0-1.5,0.9-1.7,1.3C6,18,5.7,18,5.4,18.2c-0.4,0.2-0.7,0.7-0.8,1.3C4.6,19.7,4.7,20,5,20
		c0,0,0,0,0.1,0c0.2,0,0.4-0.2,0.4-0.4c0.1-0.3,0.2-0.6,0.3-0.6c0.2-0.1,0.5,0,0.6,0.1c0.1,0.1,0.3,0.1,0.4,0
		C7,19,7.1,18.9,7.1,18.7c0,0,0-1,0.9-1c0.3,0,0.8,0.1,0.9,0.4c0.1,0.2,0.3,0.3,0.5,0.3c0.2,0,0.4-0.2,0.4-0.5
		c0-0.4,0.1-1.3,1.4-1.3c0.3,0,0.6,0.1,0.8,0.3c0.5,0.5,0.5,1.4,0.5,1.5c0,0.2,0.1,0.3,0.2,0.4c0.1,0.1,0.3,0.1,0.4,0
		c0,0,0.6-0.2,0.9,0c0.2,0.1,0.3,0.3,0.4,0.7c0,0.2,0.3,0.4,0.5,0.4c0.2,0,0.4-0.3,0.4-0.5C15.3,18.7,15,18.3,14.6,18z"/>
	<path d="M6.5,3.2c0.9,0,1.6-0.7,1.6-1.6S7.3,0,6.5,0S4.8,0.7,4.8,1.6S5.6,3.2,6.5,3.2z M6.5,0.8c0.4,0,0.8,0.3,0.8,0.8
		S6.9,2.4,6.5,2.4C6,2.4,5.7,2,5.7,1.6S6,0.8,6.5,0.8z"/>
	<path d="M11.5,10c0.3,0,0.5-0.2,0.5-0.5V4.8c0-0.3-0.2-0.5-0.5-0.5c-0.3,0-0.5,0.2-0.5,0.5v4.7C11.1,9.8,11.3,10,11.5,10z"/>
	<path d="M11.1,14.3c0,0.3,0.2,0.5,0.5,0.5c0.3,0,0.5-0.2,0.5-0.5V13c0-0.3-0.2-0.5-0.5-0.5c-0.3,0-0.5,0.2-0.5,0.5V14.3z"/>
</g>
</svg>
