<svg id="Layer_1" data-name="Layer 1" xmlns="http://www.w3.org/2000/svg" xmlns:xlink="http://www.w3.org/1999/xlink" viewBox="0 0 20 20"><defs><clipPath id="clip-path"><circle cx="-370" cy="-336" r="23" fill="none"/></clipPath><clipPath id="clip-path-2"><path d="M-366.29-326.75l-.56-2.36a6.67,6.67,0,0,0,5.15-6.52,6.65,6.65,0,0,0-5.15-6.51l.56-2.37a9.09,9.09,0,0,1,7,8.88,9.09,9.09,0,0,1-7,8.88" fill="none" clip-rule="evenodd"/></clipPath><clipPath id="clip-path-3"><path d="M-367.5-331l-.56-2.37a2.26,2.26,0,0,0,1.75-2.21,2.26,2.26,0,0,0-1.75-2.22l.56-2.37a4.69,4.69,0,0,1,3.62,4.59A4.69,4.69,0,0,1-367.5-331" fill="none" clip-rule="evenodd"/></clipPath><clipPath id="clip-path-4"><polygon points="-376.3 -339.28 -381.17 -339.28 -381.17 -331.98 -376.3 -331.98 -370.22 -327.19 -370.22 -344.07 -376.3 -339.28" fill="none" clip-rule="evenodd"/></clipPath><clipPath id="clip-path-5"><circle cx="-339" cy="-356" r="23" fill="none"/></clipPath><clipPath id="clip-path-6"><path d="M-335.29-346.75l-.56-2.36a6.67,6.67,0,0,0,5.15-6.52,6.65,6.65,0,0,0-5.15-6.51l.56-2.37a9.09,9.09,0,0,1,7,8.88,9.09,9.09,0,0,1-7,8.88" fill="none" clip-rule="evenodd"/></clipPath><clipPath id="clip-path-7"><path d="M-336.5-351l-.56-2.37a2.26,2.26,0,0,0,1.75-2.21,2.26,2.26,0,0,0-1.75-2.22l.56-2.37a4.69,4.69,0,0,1,3.62,4.59A4.69,4.69,0,0,1-336.5-351" fill="none" clip-rule="evenodd"/></clipPath><clipPath id="clip-path-8"><polygon points="-345.3 -359.28 -350.17 -359.28 -350.17 -351.98 -345.3 -351.98 -339.22 -347.19 -339.22 -364.07 -345.3 -359.28" fill="none" clip-rule="evenodd"/></clipPath></defs><title>svg_segment-dashed</title><path d="M8.28,11a2,2,0,0,1,0-2A2,2,0,0,1,10,8l1.07-1.85a4,4,0,0,0-3.86,6.68Z"/><path d="M12.8,7.17,11.73,9a2,2,0,0,1,0,2A2,2,0,0,1,10,12L8.94,13.85A4,4,0,0,0,12.8,7.17Z"/></svg>