<svg id="Layer_1" data-name="Layer 1" xmlns="http://www.w3.org/2000/svg" viewBox="0 0 20 20"><title>svg_folder</title><path d="M17,17.94H3a2.08,2.08,0,0,1-2-1.81L0,7.59A1.8,1.8,0,0,1,.44,6.21a1.79,1.79,0,0,1,1.32-.57H18.24a1.73,1.73,0,0,1,1.75,2l-1,8.54A2.08,2.08,0,0,1,17,17.94ZM1.76,6.9a.49.49,0,0,0-.38.15.56.56,0,0,0-.12.4l1,8.54a.83.83,0,0,0,.78.7H17a.83.83,0,0,0,.78-.7l1-8.54a.56.56,0,0,0-.12-.4.49.49,0,0,0-.38-.15Zm16.48-1"/><path d="M2.76,3.62l.32-.89a1.14,1.14,0,0,1,1-.47h1.6A2,2,0,0,1,7,2.88,3.14,3.14,0,0,0,9.44,4h8.39a.63.63,0,1,0,0-1.26H9.44a2,2,0,0,1-1.38-.62A3.16,3.16,0,0,0,5.66,1H4.06A2.3,2.3,0,0,0,1.89,2.31l-.32.89A.63.63,0,0,0,2,4a.52.52,0,0,0,.21,0A.62.62,0,0,0,2.76,3.62Z"/></svg>