<svg id="Layer_1" data-name="Layer 1" xmlns="http://www.w3.org/2000/svg" xmlns:xlink="http://www.w3.org/1999/xlink" viewBox="0 0 20 20"><defs><clipPath id="clip-path"><circle cx="-490" cy="-436" r="23" fill="none"/></clipPath><clipPath id="clip-path-2"><path d="M-486.29-426.75l-.56-2.36a6.67,6.67,0,0,0,5.15-6.52,6.65,6.65,0,0,0-5.15-6.51l.56-2.37a9.09,9.09,0,0,1,7,8.88,9.09,9.09,0,0,1-7,8.88" fill="none" clip-rule="evenodd"/></clipPath><clipPath id="clip-path-3"><path d="M-487.5-431l-.56-2.37a2.26,2.26,0,0,0,1.75-2.21,2.26,2.26,0,0,0-1.75-2.22l.56-2.37a4.69,4.69,0,0,1,3.62,4.59A4.69,4.69,0,0,1-487.5-431" fill="none" clip-rule="evenodd"/></clipPath><clipPath id="clip-path-4"><polygon points="-496.3 -439.28 -501.17 -439.28 -501.17 -431.98 -496.3 -431.98 -490.22 -427.19 -490.22 -444.07 -496.3 -439.28" fill="none" clip-rule="evenodd"/></clipPath><clipPath id="clip-path-5"><circle cx="-459" cy="-456" r="23" fill="none"/></clipPath><clipPath id="clip-path-6"><path d="M-455.29-446.75l-.56-2.36a6.67,6.67,0,0,0,5.15-6.52,6.65,6.65,0,0,0-5.15-6.51l.56-2.37a9.09,9.09,0,0,1,7,8.88,9.09,9.09,0,0,1-7,8.88" fill="none" clip-rule="evenodd"/></clipPath><clipPath id="clip-path-7"><path d="M-456.5-451l-.56-2.37a2.26,2.26,0,0,0,1.75-2.21,2.26,2.26,0,0,0-1.75-2.22l.56-2.37a4.69,4.69,0,0,1,3.62,4.59A4.69,4.69,0,0,1-456.5-451" fill="none" clip-rule="evenodd"/></clipPath><clipPath id="clip-path-8"><polygon points="-465.3 -459.28 -470.17 -459.28 -470.17 -451.98 -465.3 -451.98 -459.22 -447.19 -459.22 -464.07 -465.3 -459.28" fill="none" clip-rule="evenodd"/></clipPath></defs><title>svg_unlocked</title><path d="M14,9H7V6a3,3,0,0,1,3-3,3,3,0,0,1,2.6,1.5A1,1,0,0,0,14,4.87a1,1,0,0,0,.37-1.37A5,5,0,0,0,5,6V9.28A2,2,0,0,0,4,11v6a2,2,0,0,0,2,2h8a2,2,0,0,0,2-2V11A2,2,0,0,0,14,9Z"/></svg>