<svg id="Layer_1" data-name="Layer 1" xmlns="http://www.w3.org/2000/svg" xmlns:xlink="http://www.w3.org/1999/xlink" viewBox="0 0 20 20"><defs><clipPath id="clip-path"><circle cx="-530" cy="-286" r="23" fill="none"/></clipPath><clipPath id="clip-path-2"><path d="M-526.29-276.75l-.56-2.36a6.67,6.67,0,0,0,5.15-6.52,6.65,6.65,0,0,0-5.15-6.51l.56-2.37a9.09,9.09,0,0,1,7,8.88,9.09,9.09,0,0,1-7,8.88" fill="none" clip-rule="evenodd"/></clipPath><clipPath id="clip-path-3"><path d="M-527.5-281l-.56-2.37a2.26,2.26,0,0,0,1.75-2.21,2.26,2.26,0,0,0-1.75-2.22l.56-2.37a4.69,4.69,0,0,1,3.62,4.59A4.69,4.69,0,0,1-527.5-281" fill="none" clip-rule="evenodd"/></clipPath><clipPath id="clip-path-4"><polygon points="-536.3 -289.28 -541.17 -289.28 -541.17 -281.98 -536.3 -281.98 -530.22 -277.19 -530.22 -294.07 -536.3 -289.28" fill="none" clip-rule="evenodd"/></clipPath><clipPath id="clip-path-5"><circle cx="-499" cy="-306" r="23" fill="none"/></clipPath><clipPath id="clip-path-6"><path d="M-495.29-296.75l-.56-2.36a6.67,6.67,0,0,0,5.15-6.52,6.65,6.65,0,0,0-5.15-6.51l.56-2.37a9.09,9.09,0,0,1,7,8.88,9.09,9.09,0,0,1-7,8.88" fill="none" clip-rule="evenodd"/></clipPath><clipPath id="clip-path-7"><path d="M-496.5-301l-.56-2.37a2.26,2.26,0,0,0,1.75-2.21,2.26,2.26,0,0,0-1.75-2.22l.56-2.37a4.69,4.69,0,0,1,3.62,4.59A4.69,4.69,0,0,1-496.5-301" fill="none" clip-rule="evenodd"/></clipPath><clipPath id="clip-path-8"><polygon points="-505.3 -309.28 -510.17 -309.28 -510.17 -301.98 -505.3 -301.98 -499.22 -297.19 -499.22 -314.07 -505.3 -309.28" fill="none" clip-rule="evenodd"/></clipPath></defs><title>svg_playhead</title><path d="M15,7c.55,0,.73.36.4.8l-4.8,6.4a.71.71,0,0,1-1.2,0L4.6,7.8C4.27,7.36,4.45,7,5,7H15m0-1.8H5A2.32,2.32,0,0,0,2.86,6.43a2.31,2.31,0,0,0,.3,2.45L8,15.28a2.51,2.51,0,0,0,4.08,0l4.8-6.4a2.31,2.31,0,0,0,.3-2.45A2.32,2.32,0,0,0,15,5.2Z"/></svg>