<svg id="Layer_1" data-name="Layer 1" xmlns="http://www.w3.org/2000/svg" xmlns:xlink="http://www.w3.org/1999/xlink" viewBox="0 0 30 30"><defs><clipPath id="clip-path"><circle cx="-290" cy="-366" r="23" fill="none"/></clipPath><clipPath id="clip-path-2"><path d="M-286.29-356.75l-.56-2.36a6.67,6.67,0,0,0,5.15-6.52,6.65,6.65,0,0,0-5.15-6.51l.56-2.37a9.09,9.09,0,0,1,7,8.88,9.09,9.09,0,0,1-7,8.88" fill="none" clip-rule="evenodd"/></clipPath><clipPath id="clip-path-3"><path d="M-287.5-361l-.56-2.37a2.26,2.26,0,0,0,1.75-2.21,2.26,2.26,0,0,0-1.75-2.22l.56-2.37a4.69,4.69,0,0,1,3.62,4.59A4.69,4.69,0,0,1-287.5-361" fill="none" clip-rule="evenodd"/></clipPath><clipPath id="clip-path-4"><polygon points="-296.3 -369.28 -301.17 -369.28 -301.17 -361.98 -296.3 -361.98 -290.22 -357.19 -290.22 -374.07 -296.3 -369.28" fill="none" clip-rule="evenodd"/></clipPath><clipPath id="clip-path-5"><circle cx="-259" cy="-386" r="23" fill="none"/></clipPath><clipPath id="clip-path-6"><path d="M-255.29-376.75l-.56-2.36a6.67,6.67,0,0,0,5.15-6.52,6.65,6.65,0,0,0-5.15-6.51l.56-2.37a9.09,9.09,0,0,1,7,8.88,9.09,9.09,0,0,1-7,8.88" fill="none" clip-rule="evenodd"/></clipPath><clipPath id="clip-path-7"><path d="M-256.5-381l-.56-2.37a2.26,2.26,0,0,0,1.75-2.21,2.26,2.26,0,0,0-1.75-2.22l.56-2.37a4.69,4.69,0,0,1,3.62,4.59A4.69,4.69,0,0,1-256.5-381" fill="none" clip-rule="evenodd"/></clipPath><clipPath id="clip-path-8"><polygon points="-265.3 -389.28 -270.17 -389.28 -270.17 -381.98 -265.3 -381.98 -259.22 -377.19 -259.22 -394.07 -265.3 -389.28" fill="none" clip-rule="evenodd"/></clipPath></defs><title>svg_radio-theatre-30px</title><path d="M21,7.5a2.66,2.66,0,0,0-2.09.88A5.26,5.26,0,0,0,18,7.61,4.47,4.47,0,0,0,15.84,7h-10l-.35-.56s-.33-.6-.67-.6a.6.6,0,0,0-.6.6V7H3v6.05H9v3.6a3.59,3.59,0,1,0,7.17,0V15.57A3.67,3.67,0,0,1,18,12.36a8,8,0,0,1,3.33-1.28,3.48,3.48,0,0,1-.76-.67c-.25-.3-.53-.67-.83-1A2.48,2.48,0,0,1,21.69,8.2c.33,0,.45.12.45-.21S21.3,7.5,21,7.5ZM10.87,9.41H15v1.2H10.87Zm0,2.4H15V13H10.87Zm4.74,4.85a3,3,0,1,1-6,0V15.57h4a2.37,2.37,0,0,1-.55,2c-.23.24-.41.24-.17.48s.94-.25,1.18-.49a2.69,2.69,0,0,0,.85-2h.65Zm1.47-.94A3,3,0,0,1,18.57,13a6.34,6.34,0,0,1,3.84-1.21s1.93,0,1.73,1.51c-.26,2,.91,2.66,2,4.79,1.3,2.53,1.5,5.65.13,6.56-1.16.77-5,.73-6.11-.37-.81-.8-1.09-1.61-1.09-3.51s0-3.36-.55-4.21C18.28,16.18,17.16,16.43,17.08,15.72Z"/></svg>