<svg id="Layer_1" data-name="Layer 1" xmlns="http://www.w3.org/2000/svg" xmlns:xlink="http://www.w3.org/1999/xlink" viewBox="0 0 20 20"><defs><clipPath id="clip-path"><circle cx="-460" cy="-336" r="23" fill="none"/></clipPath><clipPath id="clip-path-2"><path d="M-456.29-326.75l-.56-2.36a6.67,6.67,0,0,0,5.15-6.52,6.65,6.65,0,0,0-5.15-6.51l.56-2.37a9.09,9.09,0,0,1,7,8.88,9.09,9.09,0,0,1-7,8.88" fill="none" clip-rule="evenodd"/></clipPath><clipPath id="clip-path-3"><path d="M-457.5-331l-.56-2.37a2.26,2.26,0,0,0,1.75-2.21,2.26,2.26,0,0,0-1.75-2.22l.56-2.37a4.69,4.69,0,0,1,3.62,4.59A4.69,4.69,0,0,1-457.5-331" fill="none" clip-rule="evenodd"/></clipPath><clipPath id="clip-path-4"><polygon points="-466.3 -339.28 -471.17 -339.28 -471.17 -331.98 -466.3 -331.98 -460.22 -327.19 -460.22 -344.07 -466.3 -339.28" fill="none" clip-rule="evenodd"/></clipPath><clipPath id="clip-path-5"><circle cx="-429" cy="-356" r="23" fill="none"/></clipPath><clipPath id="clip-path-6"><path d="M-425.29-346.75l-.56-2.36a6.67,6.67,0,0,0,5.15-6.52,6.65,6.65,0,0,0-5.15-6.51l.56-2.37a9.09,9.09,0,0,1,7,8.88,9.09,9.09,0,0,1-7,8.88" fill="none" clip-rule="evenodd"/></clipPath><clipPath id="clip-path-7"><path d="M-426.5-351l-.56-2.37a2.26,2.26,0,0,0,1.75-2.21,2.26,2.26,0,0,0-1.75-2.22l.56-2.37a4.69,4.69,0,0,1,3.62,4.59A4.69,4.69,0,0,1-426.5-351" fill="none" clip-rule="evenodd"/></clipPath><clipPath id="clip-path-8"><polygon points="-435.3 -359.28 -440.17 -359.28 -440.17 -351.98 -435.3 -351.98 -429.22 -347.19 -429.22 -364.07 -435.3 -359.28" fill="none" clip-rule="evenodd"/></clipPath></defs><title>svg_sound-low</title><path d="M5,7l5-4V17L5,13H1V7Zm10,3a3,3,0,0,0-3-3v6A3,3,0,0,0,15,10Z"/></svg>