<svg id="Layer_1" data-name="Layer 1" xmlns="http://www.w3.org/2000/svg" viewBox="0 0 20 20"><title>svg_copyright-unknown</title><path d="M15.66,4.34a8,8,0,1,0,0,11.32A8,8,0,0,0,15.66,4.34ZM15,15a7,7,0,1,1,0-9.9A7,7,0,0,1,15,15Z"/><path d="M10.5,12.38h-1V12A3,3,0,0,1,11,9.22c.52-.38.83-.61.83-1.32,0-1-.58-1.57-1.72-1.57a1.78,1.78,0,0,0-1.88,2h-1a2.77,2.77,0,0,1,2.88-3A2.43,2.43,0,0,1,12.8,7.9,2.41,2.41,0,0,1,11.56,10a2,2,0,0,0-1.06,2Z"/><path d="M10,14a.46.46,0,0,1,.49.48A.5.5,0,1,1,10,14Z"/></svg>