<svg id="Layer_1" data-name="Layer 1" xmlns="http://www.w3.org/2000/svg" xmlns:xlink="http://www.w3.org/1999/xlink" viewBox="0 0 40 40"><defs><clipPath id="clip-path"><circle cx="-486" cy="-228" r="23" fill="none"/></clipPath><clipPath id="clip-path-2"><path d="M-482.29-218.75l-.56-2.36a6.67,6.67,0,0,0,5.15-6.52,6.65,6.65,0,0,0-5.15-6.51l.56-2.37a9.09,9.09,0,0,1,7,8.88,9.09,9.09,0,0,1-7,8.88" fill="none" clip-rule="evenodd"/></clipPath><clipPath id="clip-path-3"><path d="M-483.5-223l-.56-2.37a2.26,2.26,0,0,0,1.75-2.21,2.26,2.26,0,0,0-1.75-2.22l.56-2.37a4.69,4.69,0,0,1,3.62,4.59A4.69,4.69,0,0,1-483.5-223" fill="none" clip-rule="evenodd"/></clipPath><clipPath id="clip-path-4"><polygon points="-492.3 -231.28 -497.17 -231.28 -497.17 -223.98 -492.3 -223.98 -486.22 -219.19 -486.22 -236.07 -492.3 -231.28" fill="none" clip-rule="evenodd"/></clipPath><clipPath id="clip-path-5"><circle cx="-455" cy="-248" r="23" fill="none"/></clipPath><clipPath id="clip-path-6"><path d="M-451.29-238.75l-.56-2.36a6.67,6.67,0,0,0,5.15-6.52,6.65,6.65,0,0,0-5.15-6.51l.56-2.37a9.09,9.09,0,0,1,7,8.88,9.09,9.09,0,0,1-7,8.88" fill="none" clip-rule="evenodd"/></clipPath><clipPath id="clip-path-7"><path d="M-452.5-243l-.56-2.37a2.26,2.26,0,0,0,1.75-2.21,2.26,2.26,0,0,0-1.75-2.22l.56-2.37a4.69,4.69,0,0,1,3.62,4.59A4.69,4.69,0,0,1-452.5-243" fill="none" clip-rule="evenodd"/></clipPath><clipPath id="clip-path-8"><polygon points="-461.3 -251.28 -466.17 -251.28 -466.17 -243.98 -461.3 -243.98 -455.22 -239.19 -455.22 -256.07 -461.3 -251.28" fill="none" clip-rule="evenodd"/></clipPath></defs><title>svg_user-40px</title><path d="M30.27,30.8a.9.9,0,0,1-.9-.9,9.31,9.31,0,0,0-5.94-8.71.9.9,0,0,1-.11-1.63,6.83,6.83,0,1,0-6.64,0,.9.9,0,0,1-.11,1.63,9.31,9.31,0,0,0-5.94,8.71.9.9,0,0,1-1.8,0,11.07,11.07,0,0,1,5.63-9.69,8.63,8.63,0,1,1,11.08,0,11.07,11.07,0,0,1,5.63,9.69A.9.9,0,0,1,30.27,30.8Z"/></svg>