<svg id="Layer_1" data-name="Layer 1" xmlns="http://www.w3.org/2000/svg" viewBox="0 0 20 20"><title>svg_settings</title><path d="M19,10.9V9.1l-2.88-.58a6.35,6.35,0,0,0-.75-1.8L17,4.27,15.73,3,13.28,4.63a6.35,6.35,0,0,0-1.8-.75L10.9,1H9.1L8.52,3.88a6.35,6.35,0,0,0-1.8.75L4.27,3,3,4.27,4.63,6.72a6.35,6.35,0,0,0-.75,1.8L1,9.1v1.8l2.88.58a6.35,6.35,0,0,0,.75,1.8L3,15.73,4.27,17l2.45-1.63a6.35,6.35,0,0,0,1.8.75L9.1,19h1.8l.58-2.88a6.35,6.35,0,0,0,1.8-.75L15.73,17,17,15.73l-1.63-2.45a6.35,6.35,0,0,0,.75-1.8ZM10,14a4,4,0,1,1,4-4A4,4,0,0,1,10,14Z"/></svg>