<svg id="Layer_1" data-name="Layer 1" xmlns="http://www.w3.org/2000/svg" xmlns:xlink="http://www.w3.org/1999/xlink" viewBox="0 0 20 20"><defs><clipPath id="clip-path"><circle cx="-440" cy="-366" r="23" fill="none"/></clipPath><clipPath id="clip-path-2"><path d="M-436.29-356.75l-.56-2.36a6.67,6.67,0,0,0,5.15-6.52,6.65,6.65,0,0,0-5.15-6.51l.56-2.37a9.09,9.09,0,0,1,7,8.88,9.09,9.09,0,0,1-7,8.88" fill="none" clip-rule="evenodd"/></clipPath><clipPath id="clip-path-3"><path d="M-437.5-361l-.56-2.37a2.26,2.26,0,0,0,1.75-2.21,2.26,2.26,0,0,0-1.75-2.22l.56-2.37a4.69,4.69,0,0,1,3.62,4.59A4.69,4.69,0,0,1-437.5-361" fill="none" clip-rule="evenodd"/></clipPath><clipPath id="clip-path-4"><polygon points="-446.3 -369.28 -451.17 -369.28 -451.17 -361.98 -446.3 -361.98 -440.22 -357.19 -440.22 -374.07 -446.3 -369.28" fill="none" clip-rule="evenodd"/></clipPath><clipPath id="clip-path-5"><circle cx="-409" cy="-386" r="23" fill="none"/></clipPath><clipPath id="clip-path-6"><path d="M-405.29-376.75l-.56-2.36a6.67,6.67,0,0,0,5.15-6.52,6.65,6.65,0,0,0-5.15-6.51l.56-2.37a9.09,9.09,0,0,1,7,8.88,9.09,9.09,0,0,1-7,8.88" fill="none" clip-rule="evenodd"/></clipPath><clipPath id="clip-path-7"><path d="M-406.5-381l-.56-2.37a2.26,2.26,0,0,0,1.75-2.21,2.26,2.26,0,0,0-1.75-2.22l.56-2.37a4.69,4.69,0,0,1,3.62,4.59A4.69,4.69,0,0,1-406.5-381" fill="none" clip-rule="evenodd"/></clipPath><clipPath id="clip-path-8"><polygon points="-415.3 -389.28 -420.17 -389.28 -420.17 -381.98 -415.3 -381.98 -409.22 -377.19 -409.22 -394.07 -415.3 -389.28" fill="none" clip-rule="evenodd"/></clipPath></defs><title>svg_radio-theatre</title><path d="M12.48,8.6a6.6,6.6,0,0,1,2.78-1.17A11,11,0,0,0,14.45,6a1.86,1.86,0,0,1,1.31-.65c.28,0,.38.1.38-.18s-.69-.4-1-.4a2.3,2.3,0,0,0-1.39.43,4.19,4.19,0,0,0-.68-.57,4.68,4.68,0,0,0-2-.64H2.22l-.74-.74H.74V4H0V8.45H5.19v3.69a3,3,0,1,0,5.91,0v-.9A3.12,3.12,0,0,1,12.48,8.6ZM6.67,6.22h3V7h-3Zm0,2.23h3v.74h-3Zm3.94,3.69a2.47,2.47,0,1,1-4.93,0v-.9H9a2,2,0,0,1-.45,1.68c-.19.19-.34.19-.15.39s.78-.21,1-.4a2.22,2.22,0,0,0,.7-1.67h.54Zm8.62,6.24c-1,.64-4.13.61-5-.3-.67-.66-.91-1.33-.91-2.9s0-2.77-.44-3.47c-.21-.32-1.14-.11-1.2-.7a2.49,2.49,0,0,1,1.23-2.23,5.14,5.14,0,0,1,3.16-1s1.6,0,1.43,1.25c-.22,1.65.75,2.19,1.65,3.94C20.19,15.06,20.36,17.64,19.23,18.38Z"/></svg>