<svg id="Layer_1" data-name="Layer 1" xmlns="http://www.w3.org/2000/svg" xmlns:xlink="http://www.w3.org/1999/xlink" viewBox="0 0 30 30"><defs><clipPath id="clip-path"><circle cx="-330" cy="-366" r="23" fill="none"/></clipPath><clipPath id="clip-path-2"><path d="M-326.29-356.75l-.56-2.36a6.67,6.67,0,0,0,5.15-6.52,6.65,6.65,0,0,0-5.15-6.51l.56-2.37a9.09,9.09,0,0,1,7,8.88,9.09,9.09,0,0,1-7,8.88" fill="none" clip-rule="evenodd"/></clipPath><clipPath id="clip-path-3"><path d="M-327.5-361l-.56-2.37a2.26,2.26,0,0,0,1.75-2.21,2.26,2.26,0,0,0-1.75-2.22l.56-2.37a4.69,4.69,0,0,1,3.62,4.59A4.69,4.69,0,0,1-327.5-361" fill="none" clip-rule="evenodd"/></clipPath><clipPath id="clip-path-4"><polygon points="-336.3 -369.28 -341.17 -369.28 -341.17 -361.98 -336.3 -361.98 -330.22 -357.19 -330.22 -374.07 -336.3 -369.28" fill="none" clip-rule="evenodd"/></clipPath><clipPath id="clip-path-5"><circle cx="-299" cy="-386" r="23" fill="none"/></clipPath><clipPath id="clip-path-6"><path d="M-295.29-376.75l-.56-2.36a6.67,6.67,0,0,0,5.15-6.52,6.65,6.65,0,0,0-5.15-6.51l.56-2.37a9.09,9.09,0,0,1,7,8.88,9.09,9.09,0,0,1-7,8.88" fill="none" clip-rule="evenodd"/></clipPath><clipPath id="clip-path-7"><path d="M-296.5-381l-.56-2.37a2.26,2.26,0,0,0,1.75-2.21,2.26,2.26,0,0,0-1.75-2.22l.56-2.37a4.69,4.69,0,0,1,3.62,4.59A4.69,4.69,0,0,1-296.5-381" fill="none" clip-rule="evenodd"/></clipPath><clipPath id="clip-path-8"><polygon points="-305.3 -389.28 -310.17 -389.28 -310.17 -381.98 -305.3 -381.98 -299.22 -377.19 -299.22 -394.07 -305.3 -389.28" fill="none" clip-rule="evenodd"/></clipPath></defs><title>svg_recital-30px</title><path d="M12,15V9a3,3,0,0,1,6,0v6a3,3,0,0,1-6,0Zm8.6-1v1A5.61,5.61,0,0,1,16,20.51V25a1,1,0,0,1-2,0V20.51A5.61,5.61,0,0,1,9.4,15V14a.6.6,0,0,1,1.2,0v1a4.4,4.4,0,1,0,8.8,0V14a.6.6,0,0,1,1.2,0Z"/></svg>