<svg id="Layer_1" data-name="Layer 1" xmlns="http://www.w3.org/2000/svg" xmlns:xlink="http://www.w3.org/1999/xlink" viewBox="0 0 23 20"><defs><clipPath id="clip-path"><circle cx="-520.89" cy="-335.64" r="23" fill="none"/></clipPath><clipPath id="clip-path-2"><path d="M-517.18-326.38l-.55-2.37a6.67,6.67,0,0,0,5.14-6.52,6.65,6.65,0,0,0-5.14-6.51l.55-2.37a9.09,9.09,0,0,1,7,8.88,9.1,9.1,0,0,1-7,8.89" fill="none" clip-rule="evenodd"/></clipPath><clipPath id="clip-path-3"><path d="M-518.39-330.63l-.56-2.36a2.28,2.28,0,0,0,1.75-2.22,2.27,2.27,0,0,0-1.75-2.22l.56-2.37a4.7,4.7,0,0,1,3.62,4.59,4.69,4.69,0,0,1-3.62,4.58" fill="none" clip-rule="evenodd"/></clipPath><clipPath id="clip-path-4"><polygon points="-527.19 -338.92 -532.06 -338.92 -532.06 -331.62 -527.19 -331.62 -521.11 -326.82 -521.11 -343.71 -527.19 -338.92" fill="none" clip-rule="evenodd"/></clipPath><clipPath id="clip-path-5"><circle cx="-489.89" cy="-355.64" r="23" fill="none"/></clipPath><clipPath id="clip-path-6"><path d="M-486.18-346.38l-.55-2.37a6.67,6.67,0,0,0,5.14-6.52,6.65,6.65,0,0,0-5.14-6.51l.55-2.37a9.09,9.09,0,0,1,7,8.88,9.1,9.1,0,0,1-7,8.89" fill="none" clip-rule="evenodd"/></clipPath><clipPath id="clip-path-7"><path d="M-487.39-350.63l-.56-2.36a2.28,2.28,0,0,0,1.75-2.22,2.27,2.27,0,0,0-1.75-2.22l.56-2.37a4.7,4.7,0,0,1,3.62,4.59,4.69,4.69,0,0,1-3.62,4.58" fill="none" clip-rule="evenodd"/></clipPath><clipPath id="clip-path-8"><polygon points="-496.19 -358.92 -501.06 -358.92 -501.06 -351.62 -496.19 -351.62 -490.11 -346.82 -490.11 -363.71 -496.19 -358.92" fill="none" clip-rule="evenodd"/></clipPath></defs><title>svg_lyd</title><polyline points="6.72 13.59 2.33 13.59 2.33 7.01 6.72 7.01 12.2 2.7 12.2 17.9 6.72 13.59"/><path d="M15.74,18.3l-.51-2.13a6,6,0,0,0,0-11.74l.51-2.13a8.22,8.22,0,0,1,0,16Z"/><path d="M14.64,14.48l-.5-2.13a2.06,2.06,0,0,0,0-4l.5-2.13a4.24,4.24,0,0,1,0,8.26Z"/></svg>