<?xml version="1.0" encoding="utf-8"?>
<!-- Generator: Adobe Illustrator 20.1.0, SVG Export Plug-In . SVG Version: 6.00 Build 0)  -->
<svg version="1.1" id="Layer_1" xmlns="http://www.w3.org/2000/svg" xmlns:xlink="http://www.w3.org/1999/xlink" x="0px" y="0px"
	 viewBox="0 0 20 20" style="enable-background:new 0 0 20 20;" xml:space="preserve">
<g>
	<path d="M11.6,16.6H5.3c-0.2,0-0.4-0.2-0.4-0.4V3.9c0-0.2,0.2-0.4,0.4-0.4h9.4c0.2,0,0.4,0.2,0.4,0.4v8.8c0.4,0,0.8,0.1,1.2,0.3
		c0.1,0,0.2,0.1,0.3,0.1V3.9c0-1-0.9-1.9-1.9-1.9H5.3c-1,0-1.9,0.9-1.9,1.9v12.3c0,1,0.9,1.9,1.9,1.9h6.8c-0.1-0.2-0.2-0.3-0.3-0.5
		C11.7,17.2,11.6,16.9,11.6,16.6z"/>
	<path d="M15,13.3c-1.6,0-2.9,1.3-2.9,2.9c0,1.6,1.3,2.9,2.9,2.9c1.6,0,2.9-1.3,2.9-2.9C17.9,14.6,16.6,13.3,15,13.3z M16.6,15.6
		l-1.7,1.9c-0.1,0.1-0.3,0.1-0.5,0c0,0,0,0-0.1-0.1c0,0,0,0,0,0l-0.7-1c-0.1-0.1-0.1-0.3,0.1-0.4c0.1-0.1,0.3-0.1,0.4,0.1l0.5,0.7
		l1.4-1.6c0.1-0.1,0.3-0.1,0.5,0h0C16.7,15.2,16.7,15.4,16.6,15.6z"/>
	<path d="M13.5,5.2H6.7c-0.2,0-0.4,0.2-0.4,0.4S6.5,6,6.7,6h6.8c0.2,0,0.4-0.2,0.4-0.4S13.7,5.2,13.5,5.2z"/>
	<path d="M13.5,7.4H6.7c-0.2,0-0.4,0.2-0.4,0.4c0,0.2,0.2,0.4,0.4,0.4h6.8c0.2,0,0.4-0.2,0.4-0.4C13.9,7.6,13.7,7.4,13.5,7.4z"/>
	<path d="M13.5,9.7H6.7c-0.2,0-0.4,0.2-0.4,0.4c0,0.2,0.2,0.4,0.4,0.4h6.8c0.2,0,0.4-0.2,0.4-0.4C13.9,9.8,13.7,9.7,13.5,9.7z"/>
	<path d="M13.5,12.7c0.2,0,0.4-0.2,0.4-0.4s-0.2-0.4-0.4-0.4h-0.1H6.7H6.6c-0.2,0-0.4,0.2-0.4,0.4s0.2,0.4,0.4,0.4h0.1H13.5
		L13.5,12.7z"/>
	<path d="M6.6,14.1c-0.2,0-0.4,0.2-0.4,0.4c0,0.2,0.2,0.4,0.4,0.4h4.8c0.2,0,0.4-0.2,0.4-0.4c0-0.2-0.2-0.4-0.4-0.4H6.6z"/>
</g>
</svg>
