<svg id="Layer_1" data-name="Layer 1" xmlns="http://www.w3.org/2000/svg" xmlns:xlink="http://www.w3.org/1999/xlink" viewBox="0 0 30 30"><defs><clipPath id="clip-path"><circle cx="-400" cy="-496" r="23" fill="none"/></clipPath><clipPath id="clip-path-2"><path d="M-396.29-486.75l-.56-2.36a6.67,6.67,0,0,0,5.15-6.52,6.65,6.65,0,0,0-5.15-6.51l.56-2.37a9.09,9.09,0,0,1,7,8.88,9.09,9.09,0,0,1-7,8.88" fill="none" clip-rule="evenodd"/></clipPath><clipPath id="clip-path-3"><path d="M-397.5-491l-.56-2.37a2.26,2.26,0,0,0,1.75-2.21,2.26,2.26,0,0,0-1.75-2.22l.56-2.37a4.69,4.69,0,0,1,3.62,4.59A4.69,4.69,0,0,1-397.5-491" fill="none" clip-rule="evenodd"/></clipPath><clipPath id="clip-path-4"><polygon points="-406.3 -499.28 -411.17 -499.28 -411.17 -491.98 -406.3 -491.98 -400.22 -487.19 -400.22 -504.07 -406.3 -499.28" fill="none" clip-rule="evenodd"/></clipPath><clipPath id="clip-path-5"><circle cx="-369" cy="-516" r="23" fill="none"/></clipPath><clipPath id="clip-path-6"><path d="M-365.29-506.75l-.56-2.36a6.67,6.67,0,0,0,5.15-6.52,6.65,6.65,0,0,0-5.15-6.51l.56-2.37a9.09,9.09,0,0,1,7,8.88,9.09,9.09,0,0,1-7,8.88" fill="none" clip-rule="evenodd"/></clipPath><clipPath id="clip-path-7"><path d="M-366.5-511l-.56-2.37a2.26,2.26,0,0,0,1.75-2.21,2.26,2.26,0,0,0-1.75-2.22l.56-2.37a4.69,4.69,0,0,1,3.62,4.59A4.69,4.69,0,0,1-366.5-511" fill="none" clip-rule="evenodd"/></clipPath><clipPath id="clip-path-8"><polygon points="-375.3 -519.28 -380.17 -519.28 -380.17 -511.98 -375.3 -511.98 -369.22 -507.19 -369.22 -524.07 -375.3 -519.28" fill="none" clip-rule="evenodd"/></clipPath></defs><title>svg_plus-cl-30px</title><path d="M16,20H14V16H10V14h4V10h2v4h4v2H16ZM15,1.4A13.6,13.6,0,1,1,1.4,15,13.61,13.61,0,0,1,15,1.4M15,0A15,15,0,1,0,30,15,15,15,0,0,0,15,0Z"/></svg>