<svg id="Layer_1" data-name="Layer 1" xmlns="http://www.w3.org/2000/svg" xmlns:xlink="http://www.w3.org/1999/xlink" viewBox="0 0 20 20"><defs><clipPath id="clip-path"><circle cx="-340" cy="-566" r="23" fill="none"/></clipPath><clipPath id="clip-path-2"><path d="M-336.29-556.75l-.56-2.36a6.67,6.67,0,0,0,5.15-6.52,6.65,6.65,0,0,0-5.15-6.51l.56-2.37a9.09,9.09,0,0,1,7,8.88,9.09,9.09,0,0,1-7,8.88" fill="none" clip-rule="evenodd"/></clipPath><clipPath id="clip-path-3"><path d="M-337.5-561l-.56-2.37a2.26,2.26,0,0,0,1.75-2.21,2.26,2.26,0,0,0-1.75-2.22l.56-2.37a4.69,4.69,0,0,1,3.62,4.59A4.69,4.69,0,0,1-337.5-561" fill="none" clip-rule="evenodd"/></clipPath><clipPath id="clip-path-4"><polygon points="-346.3 -569.28 -351.17 -569.28 -351.17 -561.98 -346.3 -561.98 -340.22 -557.19 -340.22 -574.07 -346.3 -569.28" fill="none" clip-rule="evenodd"/></clipPath><clipPath id="clip-path-5"><circle cx="-309" cy="-586" r="23" fill="none"/></clipPath><clipPath id="clip-path-6"><path d="M-305.29-576.75l-.56-2.36a6.67,6.67,0,0,0,5.15-6.52,6.65,6.65,0,0,0-5.15-6.51l.56-2.37a9.09,9.09,0,0,1,7,8.88,9.09,9.09,0,0,1-7,8.88" fill="none" clip-rule="evenodd"/></clipPath><clipPath id="clip-path-7"><path d="M-306.5-581l-.56-2.37a2.26,2.26,0,0,0,1.75-2.21,2.26,2.26,0,0,0-1.75-2.22l.56-2.37a4.69,4.69,0,0,1,3.62,4.59A4.69,4.69,0,0,1-306.5-581" fill="none" clip-rule="evenodd"/></clipPath><clipPath id="clip-path-8"><polygon points="-315.3 -589.28 -320.17 -589.28 -320.17 -581.98 -315.3 -581.98 -309.22 -577.19 -309.22 -594.07 -315.3 -589.28" fill="none" clip-rule="evenodd"/></clipPath></defs><title>svg_show-down</title><path d="M13.5,5,10,10,6.5,5ZM17,15V13H3v2Z"/></svg>