<?xml version="1.0" encoding="utf-8"?>
<!-- Generator: Adobe Illustrator 22.0.1, SVG Export Plug-In . SVG Version: 6.00 Build 0)  -->
<svg version="1.1" id="Layer_1" xmlns="http://www.w3.org/2000/svg" xmlns:xlink="http://www.w3.org/1999/xlink" x="0px" y="0px"
	 viewBox="0 0 20 20" style="enable-background:new 0 0 20 20;" xml:space="preserve">
<style type="text/css">
	.st0{fill-rule:evenodd;clip-rule:evenodd;}
	.st1{fill:#010202;}
</style>
<path d="M10,0C4.5,0,0,4.5,0,10s4.5,10,10,10s10-4.5,10-10S15.5,0,10,0z M19,10c0,2.3-0.9,4.5-2.4,6.1c-0.2-0.1-0.4-0.2-0.7-0.3
	c-0.1-0.6-0.5-1.6-1.6-1.8c-0.3-2.1-0.7-4-1.3-5.6c0,0,0,0,0,0c0,0,0,0,0,0c-0.2-0.4-0.3-0.8-0.5-1.2c0,0,0,0,0,0c0,0,0,0,0,0
	c-0.6-1.3-1.3-2.3-2.1-3c0,0,0,0,0,0C10.3,4.1,10.3,4,10.2,4C9.6,3.5,9.4,3.3,8.8,3.2c1.5-1.5,3.8-1.6,5.6-1.1
	C17.1,3.7,19,6.6,19,10z M8.1,3.4c1.5,0.2,2,1.5,1.1,1.4C8.4,4.7,7.9,4.1,7.2,4C6.3,4,6,3.6,6,3.6C5.8,3.4,7.8,3.3,8.1,3.4z
	 M8.5,5.4c0.3,0.3,0.6,0.5,0.9,0.5c0.1,0,0.2,0,0.3,0c0.2,0,0.4-0.1,0.4-0.2c0.2-0.2,0.3-0.6,0.3-0.9c0.6,0.6,1.2,1.5,1.7,2.6
	c0.4,0.8,0.3,1.6,0,1.9c-0.1,0.1-0.2,0.1-0.4,0.1c-0.3,0-0.4-0.1-0.5-0.4c-0.2-0.3-0.5-0.9-1-0.8C9.9,8.2,9.6,8.5,9.5,8.8
	C9.3,9.1,9.4,9.1,9.2,9.4C9,9.6,8.8,9.6,8.6,9.6C8.3,9.5,8.1,9.2,8,8.7C7.8,7.2,7.6,5.9,7.2,5C7.6,4.7,8,5,8.5,5.4z M8.5,11
	c0.1-0.1,0.4-0.5,0.6-0.1c0.2,0.2,0.3,0.5,0.7,0.5c0.2,0,0.4-0.4,0.4-0.7c0-0.2,0.1-0.4,0.2-0.4c0,0,0,0,0,0c0.4-0.1,0.8,0.7,1,1.1
	c0.2,0.5,0.5,1.1,1.1,1c0.2,0,0.3-0.1,0.4-0.3c0.2-0.3,0.3-0.8,0.3-1.3c0.3,1,0.5,2.1,0.6,3.2c0,0,0,0,0,0c0,0-0.1,0-0.1,0
	c-1.5,0-1.9,0.8-2,1.1c-0.1,0-0.1,0-0.2,0c-0.6,0-0.9,0.2-1.1,0.4c-0.3-0.5-0.9-1.1-1.9-1.1c-0.1,0-0.2,0-0.4,0
	c0-0.6-0.1-2.2-0.2-2.4C8.2,11.8,8.3,11.3,8.5,11z M1,10c0-2.6,1.1-5,2.9-6.6C4.4,3.2,5,3.2,5.5,3.8C5.6,3.9,5.6,4,5.7,4
	c0,0,0.1,0,0.1,0c0.4,0,0.7,0.4,1,1c0,0,0,0.1,0,0.1C7.4,6.6,8,14.5,8,14.6c-1,0.3-1.5,1.1-1.6,1.7c-0.4,0-1,0-1.4,0.4
	c-0.2,0.1-0.3,0.3-0.3,0.5C2.4,15.6,1,12.9,1,10z"/>
</svg>
