<svg id="Layer_1" data-name="Layer 1" xmlns="http://www.w3.org/2000/svg" viewBox="0 0 20 20"><title>svg_video-object-dotted</title><path d="M9.81,20a10.76,10.76,0,0,1-2-.19,10,10,0,0,1-2.15-.7.51.51,0,0,1-.26-.67.52.52,0,0,1,.68-.25,8.53,8.53,0,0,0,1.93.62A8.68,8.68,0,0,0,9.81,19H10a.49.49,0,0,1,.52.5.5.5,0,0,1-.49.52ZM14.13,19a.51.51,0,0,1-.23-1A9.06,9.06,0,0,0,17,15.43a.5.5,0,0,1,.71-.1.51.51,0,0,1,.1.71,10.3,10.3,0,0,1-3.41,2.85A.53.53,0,0,1,14.13,19ZM2.55,16.6a.51.51,0,0,1-.39-.18,10.13,10.13,0,0,1-2-4,.51.51,0,0,1,1-.26,9.09,9.09,0,0,0,1.83,3.56.51.51,0,0,1-.06.71A.52.52,0,0,1,2.55,16.6Zm16.57-4.22H19a.48.48,0,0,1-.41-.57v-.06A9.06,9.06,0,0,0,18.8,10a8.88,8.88,0,0,0-.29-2.24.51.51,0,0,1,.37-.62.51.51,0,0,1,.62.36,10.08,10.08,0,0,1,.32,2.5,9.85,9.85,0,0,1-.2,2A.52.52,0,0,1,19.12,12.38ZM.51,8.63H.41A.51.51,0,0,1,0,8,9.88,9.88,0,0,1,1.84,4a.51.51,0,0,1,.81.61A8.91,8.91,0,0,0,1,8.22.51.51,0,0,1,.51,8.63ZM17.07,4.4a.5.5,0,0,1-.39-.18A9,9,0,0,0,13.5,1.8a.51.51,0,0,1-.26-.67.52.52,0,0,1,.68-.25,10.2,10.2,0,0,1,3.54,2.68.52.52,0,0,1-.06.72A.54.54,0,0,1,17.07,4.4ZM5.48,2.07a.51.51,0,0,1-.23-1A10,10,0,0,1,9.55,0a.52.52,0,0,1,.53.49.53.53,0,0,1-.5.53A9.06,9.06,0,0,0,5.71,2,.46.46,0,0,1,5.48,2.07Z"/><path d="M8.82,12.68c-.45.24-.82,0-.82-.56v-4c0-.55.37-.8.82-.55l3.84,2.11c.45.24.45.64,0,.89Z"/></svg>