<svg id="Layer_1" data-name="Layer 1" xmlns="http://www.w3.org/2000/svg" xmlns:xlink="http://www.w3.org/1999/xlink" viewBox="0 0 20 20"><defs><clipPath id="clip-path"><circle cx="-460" cy="-536" r="23" fill="none"/></clipPath><clipPath id="clip-path-2"><path d="M-456.29-526.75l-.56-2.36a6.67,6.67,0,0,0,5.15-6.52,6.65,6.65,0,0,0-5.15-6.51l.56-2.37a9.09,9.09,0,0,1,7,8.88,9.09,9.09,0,0,1-7,8.88" fill="none" clip-rule="evenodd"/></clipPath><clipPath id="clip-path-3"><path d="M-457.5-531l-.56-2.37a2.26,2.26,0,0,0,1.75-2.21,2.26,2.26,0,0,0-1.75-2.22l.56-2.37a4.69,4.69,0,0,1,3.62,4.59A4.69,4.69,0,0,1-457.5-531" fill="none" clip-rule="evenodd"/></clipPath><clipPath id="clip-path-4"><polygon points="-466.3 -539.28 -471.17 -539.28 -471.17 -531.98 -466.3 -531.98 -460.22 -527.19 -460.22 -544.07 -466.3 -539.28" fill="none" clip-rule="evenodd"/></clipPath><clipPath id="clip-path-5"><circle cx="-429" cy="-556" r="23" fill="none"/></clipPath><clipPath id="clip-path-6"><path d="M-425.29-546.75l-.56-2.36a6.67,6.67,0,0,0,5.15-6.52,6.65,6.65,0,0,0-5.15-6.51l.56-2.37a9.09,9.09,0,0,1,7,8.88,9.09,9.09,0,0,1-7,8.88" fill="none" clip-rule="evenodd"/></clipPath><clipPath id="clip-path-7"><path d="M-426.5-551l-.56-2.37a2.26,2.26,0,0,0,1.75-2.21,2.26,2.26,0,0,0-1.75-2.22l.56-2.37a4.69,4.69,0,0,1,3.62,4.59A4.69,4.69,0,0,1-426.5-551" fill="none" clip-rule="evenodd"/></clipPath><clipPath id="clip-path-8"><polygon points="-435.3 -559.28 -440.17 -559.28 -440.17 -551.98 -435.3 -551.98 -429.22 -547.19 -429.22 -564.07 -435.3 -559.28" fill="none" clip-rule="evenodd"/></clipPath></defs><title>svg_arrow-left</title><path d="M7,10l4,3.5v-7Z"/></svg>