<svg id="Layer_1" data-name="Layer 1" xmlns="http://www.w3.org/2000/svg" xmlns:xlink="http://www.w3.org/1999/xlink" viewBox="0 0 20 20"><defs><clipPath id="clip-path"><circle cx="-250" cy="-466" r="23" fill="none"/></clipPath><clipPath id="clip-path-2"><path d="M-246.29-456.75l-.56-2.36a6.67,6.67,0,0,0,5.15-6.52,6.65,6.65,0,0,0-5.15-6.51l.56-2.37a9.09,9.09,0,0,1,7,8.88,9.09,9.09,0,0,1-7,8.88" fill="none" clip-rule="evenodd"/></clipPath><clipPath id="clip-path-3"><path d="M-247.5-461l-.56-2.37a2.26,2.26,0,0,0,1.75-2.21,2.26,2.26,0,0,0-1.75-2.22l.56-2.37a4.69,4.69,0,0,1,3.62,4.59A4.69,4.69,0,0,1-247.5-461" fill="none" clip-rule="evenodd"/></clipPath><clipPath id="clip-path-4"><polygon points="-256.3 -469.28 -261.17 -469.28 -261.17 -461.98 -256.3 -461.98 -250.22 -457.19 -250.22 -474.07 -256.3 -469.28" fill="none" clip-rule="evenodd"/></clipPath><clipPath id="clip-path-5"><circle cx="-219" cy="-486" r="23" fill="none"/></clipPath><clipPath id="clip-path-6"><path d="M-215.29-476.75l-.56-2.36a6.67,6.67,0,0,0,5.15-6.52,6.65,6.65,0,0,0-5.15-6.51l.56-2.37a9.09,9.09,0,0,1,7,8.88,9.09,9.09,0,0,1-7,8.88" fill="none" clip-rule="evenodd"/></clipPath><clipPath id="clip-path-7"><path d="M-216.5-481l-.56-2.37a2.26,2.26,0,0,0,1.75-2.21,2.26,2.26,0,0,0-1.75-2.22l.56-2.37a4.69,4.69,0,0,1,3.62,4.59A4.69,4.69,0,0,1-216.5-481" fill="none" clip-rule="evenodd"/></clipPath><clipPath id="clip-path-8"><polygon points="-225.3 -489.28 -230.17 -489.28 -230.17 -481.98 -225.3 -481.98 -219.22 -477.19 -219.22 -494.07 -225.3 -489.28" fill="none" clip-rule="evenodd"/></clipPath></defs><title>svg_tag</title><path d="M10.61.71A2.79,2.79,0,0,0,8.9,0H3.83A2.79,2.79,0,0,0,2.12.71L.71,2.12A2.79,2.79,0,0,0,0,3.83V8.9a2.79,2.79,0,0,0,.71,1.71l8.48,8.48a1,1,0,0,0,1.42,0l8.48-8.48a1,1,0,0,0,0-1.42Zm-4.95,5a2,2,0,1,1,0-2.83A2,2,0,0,1,5.66,5.66Z"/></svg>