<svg id="Layer_1" data-name="Layer 1" xmlns="http://www.w3.org/2000/svg" viewBox="0 0 20 20"><title>svg_right-hand-path</title><path d="M14.73,8V2.64A1.59,1.59,0,0,0,13.15,1a1.5,1.5,0,0,0-1,.33A1.59,1.59,0,0,0,9,1.6V7.73a1.49,1.49,0,0,0-.93-.31A1.58,1.58,0,0,0,6.55,8.81a1.53,1.53,0,0,0-1-.33A1.6,1.6,0,0,0,4,10.08v3.85A6.05,6.05,0,0,0,10,20a6.05,6.05,0,0,0,6-6.07V9.57A1.6,1.6,0,0,0,14.73,8ZM7.21,9A.92.92,0,1,1,9,9v3.29a.92.92,0,1,1-1.83,0V9ZM4.64,10.08a1,1,0,0,1,1.93,0v3.29a1,1,0,0,1-1.93,0V10.08Zm10.72,3.85A5.4,5.4,0,0,1,10,19.35,5.38,5.38,0,0,1,4.74,14.7a1.48,1.48,0,0,0,.87.28,1.59,1.59,0,0,0,1.56-1.39,1.57,1.57,0,0,0,.94.32,1.59,1.59,0,0,0,1.57-1.6V1.6a1,1,0,0,1,1.93,0v7h0a.35.35,0,0,0,.3.21.34.34,0,0,0,.3-.21h.06v-6a.92.92,0,1,1,1.84,0l0,5.36a1.61,1.61,0,0,0-1.27,1.57v2a1.73,1.73,0,0,1-.32,1.19,1.28,1.28,0,0,1-1,.38.33.33,0,0,0,0,.66,1.89,1.89,0,0,0,1.48-.6,2.42,2.42,0,0,0,.48-1.68v-2a1,1,0,0,1,1.93,0Z"/></svg>