<svg id="Layer_1" data-name="Layer 1" xmlns="http://www.w3.org/2000/svg" xmlns:xlink="http://www.w3.org/1999/xlink" viewBox="0 0 20 20"><defs><clipPath id="clip-path"><circle cx="-410" cy="-286" r="23" fill="none"/></clipPath><clipPath id="clip-path-2"><path d="M-406.29-276.75l-.56-2.36a6.67,6.67,0,0,0,5.15-6.52,6.65,6.65,0,0,0-5.15-6.51l.56-2.37a9.09,9.09,0,0,1,7,8.88,9.09,9.09,0,0,1-7,8.88" fill="none" clip-rule="evenodd"/></clipPath><clipPath id="clip-path-3"><path d="M-407.5-281l-.56-2.37a2.26,2.26,0,0,0,1.75-2.21,2.26,2.26,0,0,0-1.75-2.22l.56-2.37a4.69,4.69,0,0,1,3.62,4.59A4.69,4.69,0,0,1-407.5-281" fill="none" clip-rule="evenodd"/></clipPath><clipPath id="clip-path-4"><polygon points="-416.3 -289.28 -421.17 -289.28 -421.17 -281.98 -416.3 -281.98 -410.22 -277.19 -410.22 -294.07 -416.3 -289.28" fill="none" clip-rule="evenodd"/></clipPath><clipPath id="clip-path-5"><circle cx="-379" cy="-306" r="23" fill="none"/></clipPath><clipPath id="clip-path-6"><path d="M-375.29-296.75l-.56-2.36a6.67,6.67,0,0,0,5.15-6.52,6.65,6.65,0,0,0-5.15-6.51l.56-2.37a9.09,9.09,0,0,1,7,8.88,9.09,9.09,0,0,1-7,8.88" fill="none" clip-rule="evenodd"/></clipPath><clipPath id="clip-path-7"><path d="M-376.5-301l-.56-2.37a2.26,2.26,0,0,0,1.75-2.21,2.26,2.26,0,0,0-1.75-2.22l.56-2.37a4.69,4.69,0,0,1,3.62,4.59A4.69,4.69,0,0,1-376.5-301" fill="none" clip-rule="evenodd"/></clipPath><clipPath id="clip-path-8"><polygon points="-385.3 -309.28 -390.17 -309.28 -390.17 -301.98 -385.3 -301.98 -379.22 -297.19 -379.22 -314.07 -385.3 -309.28" fill="none" clip-rule="evenodd"/></clipPath></defs><title>svg_pause-cl</title><path d="M10,0A10,10,0,1,0,20,10,10,10,0,0,0,10,0Zm0,18.9A8.9,8.9,0,1,1,18.9,10,8.91,8.91,0,0,1,10,18.9ZM9,8.5v3a1.5,1.5,0,0,1-3,0v-3a1.5,1.5,0,0,1,3,0Zm5,0v3a1.5,1.5,0,0,1-3,0v-3a1.5,1.5,0,0,1,3,0Z"/></svg>