<svg id="Layer_1" data-name="Layer 1" xmlns="http://www.w3.org/2000/svg" xmlns:xlink="http://www.w3.org/1999/xlink" viewBox="0 0 20 20"><defs><clipPath id="clip-path"><circle cx="-370" cy="-406" r="23" fill="none"/></clipPath><clipPath id="clip-path-2"><path d="M-366.29-396.75l-.56-2.36a6.67,6.67,0,0,0,5.15-6.52,6.65,6.65,0,0,0-5.15-6.51l.56-2.37a9.09,9.09,0,0,1,7,8.88,9.09,9.09,0,0,1-7,8.88" fill="none" clip-rule="evenodd"/></clipPath><clipPath id="clip-path-3"><path d="M-367.5-401l-.56-2.37a2.26,2.26,0,0,0,1.75-2.21,2.26,2.26,0,0,0-1.75-2.22l.56-2.37a4.69,4.69,0,0,1,3.62,4.59A4.69,4.69,0,0,1-367.5-401" fill="none" clip-rule="evenodd"/></clipPath><clipPath id="clip-path-4"><polygon points="-376.3 -409.28 -381.17 -409.28 -381.17 -401.98 -376.3 -401.98 -370.22 -397.19 -370.22 -414.07 -376.3 -409.28" fill="none" clip-rule="evenodd"/></clipPath><clipPath id="clip-path-5"><circle cx="-339" cy="-426" r="23" fill="none"/></clipPath><clipPath id="clip-path-6"><path d="M-335.29-416.75l-.56-2.36a6.67,6.67,0,0,0,5.15-6.52,6.65,6.65,0,0,0-5.15-6.51l.56-2.37a9.09,9.09,0,0,1,7,8.88,9.09,9.09,0,0,1-7,8.88" fill="none" clip-rule="evenodd"/></clipPath><clipPath id="clip-path-7"><path d="M-336.5-421l-.56-2.37a2.26,2.26,0,0,0,1.75-2.21,2.26,2.26,0,0,0-1.75-2.22l.56-2.37a4.69,4.69,0,0,1,3.62,4.59A4.69,4.69,0,0,1-336.5-421" fill="none" clip-rule="evenodd"/></clipPath><clipPath id="clip-path-8"><polygon points="-345.3 -429.28 -350.17 -429.28 -350.17 -421.98 -345.3 -421.98 -339.22 -417.19 -339.22 -434.07 -345.3 -429.28" fill="none" clip-rule="evenodd"/></clipPath></defs><title>svg_cut</title><path d="M6.65,12.36l11.84-7.6a.9.9,0,1,0-1-1.52l-14,9-.09.09a3.51,3.51,0,0,0-.63.34,4,4,0,1,0,3.86-.31Zm-.43,5.47A2.24,2.24,0,0,1,5,18.2a2.2,2.2,0,0,1-1.22-4A2.24,2.24,0,0,1,5,13.8a2.2,2.2,0,0,1,1.22,4Zm12.55-1.36a.91.91,0,0,1-1.24.3L10.7,12.58a.89.89,0,0,1-.3-1.23.9.9,0,0,1,1.24-.3l6.83,4.18A.91.91,0,0,1,18.77,16.47Zm-16-9.14.08,0h0L5.64,9.12a.91.91,0,0,0,.48.13.87.87,0,0,0,.76-.42.88.88,0,0,0-.24-1.19A4,4,0,0,0,8.33,6.21,4,4,0,1,0,2.79,7.33Zm.38-4.55A2.2,2.2,0,0,1,5,1.8a2.24,2.24,0,0,1,1.22.37A2.2,2.2,0,0,1,5,6.2a2.24,2.24,0,0,1-1.22-.37A2.2,2.2,0,0,1,3.17,2.78Z"/></svg>