<svg id="Layer_1" data-name="Layer 1" xmlns="http://www.w3.org/2000/svg" viewBox="0 0 20 20"><title>svg_skip-back-time</title><path d="M11,2.05H4V0L0,3,4,6V4.05h7a7,7,0,0,1,7,7,6.73,6.73,0,0,1-6.5,7H11a1,1,0,0,0,0,2h.5A8.73,8.73,0,0,0,20,11.05,9,9,0,0,0,11,2.05Z"/><path d="M7.59,11.46,8,7.13h4.13V8.26H9.12l-.23,2a2,2,0,0,1,.53-.28,2.35,2.35,0,0,1,.68-.12,2.13,2.13,0,0,1,1.73.7,2.86,2.86,0,0,1,.62,1.94,2.71,2.71,0,0,1-.65,1.87,2.42,2.42,0,0,1-1.9.74,2.68,2.68,0,0,1-1.74-.57,1.89,1.89,0,0,1-.69-1.61v0l1.22,0A1.12,1.12,0,0,0,9,13.7,1.2,1.2,0,0,0,9.9,14a1.08,1.08,0,0,0,.93-.43,1.85,1.85,0,0,0,.32-1.13,1.87,1.87,0,0,0-.33-1.15,1.08,1.08,0,0,0-.94-.44,1.41,1.41,0,0,0-.79.17,1,1,0,0,0-.38.51Z"/></svg>