<?xml version="1.0" encoding="utf-8"?>
<!-- Generator: Adobe Illustrator 22.0.1, SVG Export Plug-In . SVG Version: 6.00 Build 0)  -->
<svg version="1.1" id="Layer_1" xmlns="http://www.w3.org/2000/svg" xmlns:xlink="http://www.w3.org/1999/xlink" x="0px" y="0px"
	 viewBox="0 0 20 20" style="enable-background:new 0 0 20 20;" xml:space="preserve">
<style type="text/css">
	.st0{fill-rule:evenodd;clip-rule:evenodd;}
	.st1{fill:#010202;}
</style>
<path d="M17.3,18.7l-4.2-3.4H1.3C0.6,15.3,0,14.7,0,14V3.3C0,2.6,0.6,2,1.3,2h17.3C19.4,2,20,2.6,20,3.3V14c0,0.7-0.6,1.3-1.3,1.3
	h-1.3V18.7z M8,11.3h1.3v-0.7H8V11.3z M4,12.7h1.3V12H4V12.7z M10.7,11.3h2.7v-0.7h-2.7V11.3z M4,11.3h2.7v-0.7H4V11.3z M6.7,12.7h4
	V12h-4V12.7z"/>
</svg>
