<svg id="Layer_1" data-name="Layer 1" xmlns="http://www.w3.org/2000/svg" xmlns:xlink="http://www.w3.org/1999/xlink" viewBox="0 0 20 20"><defs><clipPath id="clip-path"><circle cx="-380" cy="-286" r="23" fill="none"/></clipPath><clipPath id="clip-path-2"><path d="M-376.29-276.75l-.56-2.36a6.67,6.67,0,0,0,5.15-6.52,6.65,6.65,0,0,0-5.15-6.51l.56-2.37a9.09,9.09,0,0,1,7,8.88,9.09,9.09,0,0,1-7,8.88" fill="none" clip-rule="evenodd"/></clipPath><clipPath id="clip-path-3"><path d="M-377.5-281l-.56-2.37a2.26,2.26,0,0,0,1.75-2.21,2.26,2.26,0,0,0-1.75-2.22l.56-2.37a4.69,4.69,0,0,1,3.62,4.59A4.69,4.69,0,0,1-377.5-281" fill="none" clip-rule="evenodd"/></clipPath><clipPath id="clip-path-4"><polygon points="-386.3 -289.28 -391.17 -289.28 -391.17 -281.98 -386.3 -281.98 -380.22 -277.19 -380.22 -294.07 -386.3 -289.28" fill="none" clip-rule="evenodd"/></clipPath><clipPath id="clip-path-5"><circle cx="-349" cy="-306" r="23" fill="none"/></clipPath><clipPath id="clip-path-6"><path d="M-345.29-296.75l-.56-2.36a6.67,6.67,0,0,0,5.15-6.52,6.65,6.65,0,0,0-5.15-6.51l.56-2.37a9.09,9.09,0,0,1,7,8.88,9.09,9.09,0,0,1-7,8.88" fill="none" clip-rule="evenodd"/></clipPath><clipPath id="clip-path-7"><path d="M-346.5-301l-.56-2.37a2.26,2.26,0,0,0,1.75-2.21,2.26,2.26,0,0,0-1.75-2.22l.56-2.37a4.69,4.69,0,0,1,3.62,4.59A4.69,4.69,0,0,1-346.5-301" fill="none" clip-rule="evenodd"/></clipPath><clipPath id="clip-path-8"><polygon points="-355.3 -309.28 -360.17 -309.28 -360.17 -301.98 -355.3 -301.98 -349.22 -297.19 -349.22 -314.07 -355.3 -309.28" fill="none" clip-rule="evenodd"/></clipPath></defs><title>svg_play-cl</title><path d="M8.82,12.55c-.45.25-.82,0-.82-.55V8c0-.55.37-.8.82-.55l3.84,2.1c.45.25.45.65,0,.9ZM10,1.1A8.9,8.9,0,1,0,18.9,10,8.91,8.91,0,0,0,10,1.1M10,0A10,10,0,1,1,0,10,10,10,0,0,1,10,0Z"/></svg>