<svg id="Layer_1" data-name="Layer 1" xmlns="http://www.w3.org/2000/svg" viewBox="0 0 20 19.5"><title>svg_podcast</title><path d="M4.58,19.5H4.44a2,2,0,0,1-1.83-2.09V13.8a2,2,0,0,1,1.8-2.11h.16a2,2,0,0,1,1.82,2.1h0v3.61A2,2,0,0,1,4.58,19.5Z"/><path d="M15.57,19.5h-.15a2,2,0,0,1-1.82-2.1h0V13.8a2,2,0,0,1,1.81-2.11h.16a2,2,0,0,1,1.81,2.1h0v3.61A2,2,0,0,1,15.57,19.5Z"/><path d="M19.16,16.84a.9.9,0,0,1-.85-.94V9.24c0-4.08-3.73-7.39-8.31-7.39S1.69,5.16,1.69,9.24V15.9a.9.9,0,0,1-.84.94A.9.9,0,0,1,0,15.9V9.24C0,4.16,4.49,0,10,0S20,4.16,20,9.28v6.66A.9.9,0,0,1,19.16,16.84Z"/></svg>