<svg id="Layer_1" data-name="Layer 1" xmlns="http://www.w3.org/2000/svg" viewBox="0 0 40 40"><title>svg_series-40px</title><path d="M20,0A20,20,0,1,0,40,20,20,20,0,0,0,20,0ZM9.05,10.86,9.46,9.7A3,3,0,0,1,12.27,8h2.09a4.13,4.13,0,0,1,3.12,1.5,2.58,2.58,0,0,0,1.79.81H30.18a.82.82,0,0,1,0,1.64H19.27a4.11,4.11,0,0,1-3.12-1.5,2.58,2.58,0,0,0-1.79-.81H12.27a1.51,1.51,0,0,0-1.27.61l-.41,1.15a.81.81,0,0,1-.77.55.86.86,0,0,1-.27,0A.81.81,0,0,1,9.05,10.86ZM33,16.53,31.71,27.65A2.71,2.71,0,0,1,29.08,30H10.92a2.71,2.71,0,0,1-2.63-2.35L7,16.54a2.31,2.31,0,0,1,.56-1.79A2.28,2.28,0,0,1,9.28,14H30.72A2.26,2.26,0,0,1,33,16.53Z"/><path d="M30.72,15.64H9.28a.61.61,0,0,0-.64.71L9.92,27.46a1.06,1.06,0,0,0,1,.9H29.08a1.06,1.06,0,0,0,1-.89l1.28-11.12a.61.61,0,0,0-.64-.71Z"/></svg>