<svg id="Layer_1" data-name="Layer 1" xmlns="http://www.w3.org/2000/svg" xmlns:xlink="http://www.w3.org/1999/xlink" viewBox="0 0 20 20"><defs><clipPath id="clip-path"><circle cx="-250" cy="-406" r="23" fill="none"/></clipPath><clipPath id="clip-path-2"><path d="M-246.29-396.75l-.56-2.36a6.67,6.67,0,0,0,5.15-6.52,6.65,6.65,0,0,0-5.15-6.51l.56-2.37a9.09,9.09,0,0,1,7,8.88,9.09,9.09,0,0,1-7,8.88" fill="none" clip-rule="evenodd"/></clipPath><clipPath id="clip-path-3"><path d="M-247.5-401l-.56-2.37a2.26,2.26,0,0,0,1.75-2.21,2.26,2.26,0,0,0-1.75-2.22l.56-2.37a4.69,4.69,0,0,1,3.62,4.59A4.69,4.69,0,0,1-247.5-401" fill="none" clip-rule="evenodd"/></clipPath><clipPath id="clip-path-4"><polygon points="-256.3 -409.28 -261.17 -409.28 -261.17 -401.98 -256.3 -401.98 -250.22 -397.19 -250.22 -414.07 -256.3 -409.28" fill="none" clip-rule="evenodd"/></clipPath><clipPath id="clip-path-5"><circle cx="-219" cy="-426" r="23" fill="none"/></clipPath><clipPath id="clip-path-6"><path d="M-215.29-416.75l-.56-2.36a6.67,6.67,0,0,0,5.15-6.52,6.65,6.65,0,0,0-5.15-6.51l.56-2.37a9.09,9.09,0,0,1,7,8.88,9.09,9.09,0,0,1-7,8.88" fill="none" clip-rule="evenodd"/></clipPath><clipPath id="clip-path-7"><path d="M-216.5-421l-.56-2.37a2.26,2.26,0,0,0,1.75-2.21,2.26,2.26,0,0,0-1.75-2.22l.56-2.37a4.69,4.69,0,0,1,3.62,4.59A4.69,4.69,0,0,1-216.5-421" fill="none" clip-rule="evenodd"/></clipPath><clipPath id="clip-path-8"><polygon points="-225.3 -429.28 -230.17 -429.28 -230.17 -421.98 -225.3 -421.98 -219.22 -417.19 -219.22 -434.07 -225.3 -429.28" fill="none" clip-rule="evenodd"/></clipPath></defs><title>svg_maximize</title><path d="M17,11,13.71,7.71l-1,1a1,1,0,0,1-1.42,0,1,1,0,0,1,0-1.42l1-1L9,3h8ZM8.71,12.71a1,1,0,0,0-1.42-1.42l-1,1L3,9v8h8L7.71,13.71Z"/></svg>