<?xml version="1.0" encoding="utf-8"?>
<!-- Generator: Adobe Illustrator 19.1.0, SVG Export Plug-In . SVG Version: 6.00 Build 0)  -->
<!DOCTYPE svg PUBLIC "-//W3C//DTD SVG 1.1//EN" "http://www.w3.org/Graphics/SVG/1.1/DTD/svg11.dtd">
<svg version="1.1" id="Layer_1" xmlns="http://www.w3.org/2000/svg" xmlns:xlink="http://www.w3.org/1999/xlink" x="0px" y="0px"
	 viewBox="0 0 20 20" enable-background="new 0 0 20 20" xml:space="preserve">
<path d="M10,5.1c1.3,0,2.5,0.5,3.5,1.4c1.9,1.9,1.9,5,0,6.9c-0.9,0.9-2.2,1.4-3.5,1.4c-1.3,0-2.5-0.5-3.5-1.4c-1.9-1.9-1.9-5,0-6.9
	C7.5,5.6,8.7,5.1,10,5.1 M10,4C8.5,4,6.9,4.6,5.8,5.8c-2.3,2.3-2.3,6.1,0,8.5C6.9,15.4,8.5,16,10,16s3.1-0.6,4.2-1.8
	c2.3-2.3,2.3-6.1,0-8.5C13.1,4.6,11.5,4,10,4L10,4z M12,11.9c0.3-0.3,0.3-0.7,0-1s-0.7-0.3-1,0c-0.5,0.5-1.3,0.5-1.8,0
	c-0.5-0.5-0.5-1.3,0-1.8c0.5-0.5,1.3-0.5,1.8,0c0.3,0.3,0.7,0.3,1,0c0.3-0.3,0.3-0.7,0-1c-1-1-2.8-1-3.8,0c-1.1,1.1-1.1,2.8,0,3.8
	c0.5,0.5,1.2,0.8,1.9,0.8S11.5,12.4,12,11.9z"/>
</svg>
