<svg id="Layer_1" data-name="Layer 1" xmlns="http://www.w3.org/2000/svg" viewBox="0 0 30 30"><title>svg_podcast-30px</title><path d="M8,27.5H7.8a2.58,2.58,0,0,1-2.39-2.73V20a2.57,2.57,0,0,1,2.36-2.76H8A2.57,2.57,0,0,1,10.36,20h0v4.73A2.57,2.57,0,0,1,8,27.5Z"/><path d="M22.35,27.5h-.19a2.56,2.56,0,0,1-2.37-2.75h0V20a2.57,2.57,0,0,1,2.36-2.76h.2A2.57,2.57,0,0,1,24.73,20h0v4.73A2.57,2.57,0,0,1,22.35,27.5Z"/><path d="M27.05,24a1.19,1.19,0,0,1-1.11-1.23V14.08c0-5.33-4.87-9.66-10.86-9.66S4.21,8.75,4.21,14.08v8.71A1.18,1.18,0,0,1,3.11,24,1.18,1.18,0,0,1,2,22.79V14.08C2,7.44,7.87,2,15.08,2S28.15,7.44,28.15,14.14v8.71A1.17,1.17,0,0,1,27.05,24Z"/></svg>