<svg id="Layer_1" data-name="Layer 1" xmlns="http://www.w3.org/2000/svg" viewBox="0 0 20 20"><title>svg_apps</title><path d="M5.5,4A1.5,1.5,0,0,1,4,5.5H4A1.5,1.5,0,0,1,2.5,4h0A1.5,1.5,0,0,1,4,2.5H4A1.5,1.5,0,0,1,5.5,4Z"/><path d="M11.5,4A1.5,1.5,0,0,1,10,5.5h0A1.5,1.5,0,0,1,8.5,4h0A1.5,1.5,0,0,1,10,2.5h0A1.5,1.5,0,0,1,11.5,4Z"/><path d="M17.5,4A1.5,1.5,0,0,1,16,5.5h0A1.5,1.5,0,0,1,14.5,4h0A1.5,1.5,0,0,1,16,2.5h0A1.5,1.5,0,0,1,17.5,4Z"/><path d="M5.5,10A1.5,1.5,0,0,1,4,11.5H4A1.5,1.5,0,0,1,2.5,10h0A1.5,1.5,0,0,1,4,8.5H4A1.5,1.5,0,0,1,5.5,10Z"/><path d="M11.5,10A1.5,1.5,0,0,1,10,11.5h0A1.5,1.5,0,0,1,8.5,10h0A1.5,1.5,0,0,1,10,8.5h0A1.5,1.5,0,0,1,11.5,10Z"/><path d="M17.5,10A1.5,1.5,0,0,1,16,11.5h0A1.5,1.5,0,0,1,14.5,10h0A1.5,1.5,0,0,1,16,8.5h0A1.5,1.5,0,0,1,17.5,10Z"/><path d="M5.5,16A1.5,1.5,0,0,1,4,17.5H4A1.5,1.5,0,0,1,2.5,16h0A1.5,1.5,0,0,1,4,14.5H4A1.5,1.5,0,0,1,5.5,16Z"/><path d="M11.5,16A1.5,1.5,0,0,1,10,17.5h0A1.5,1.5,0,0,1,8.5,16h0A1.5,1.5,0,0,1,10,14.5h0A1.5,1.5,0,0,1,11.5,16Z"/><path d="M17.5,16A1.5,1.5,0,0,1,16,17.5h0A1.5,1.5,0,0,1,14.5,16h0A1.5,1.5,0,0,1,16,14.5h0A1.5,1.5,0,0,1,17.5,16Z"/></svg>