<svg id="Layer_1" data-name="Layer 1" xmlns="http://www.w3.org/2000/svg" xmlns:xlink="http://www.w3.org/1999/xlink" viewBox="0 0 20 20"><defs><clipPath id="clip-path"><circle cx="-490" cy="-466" r="23" fill="none"/></clipPath><clipPath id="clip-path-2"><path d="M-486.29-456.75l-.56-2.36a6.67,6.67,0,0,0,5.15-6.52,6.65,6.65,0,0,0-5.15-6.51l.56-2.37a9.09,9.09,0,0,1,7,8.88,9.09,9.09,0,0,1-7,8.88" fill="none" clip-rule="evenodd"/></clipPath><clipPath id="clip-path-3"><path d="M-487.5-461l-.56-2.37a2.26,2.26,0,0,0,1.75-2.21,2.26,2.26,0,0,0-1.75-2.22l.56-2.37a4.69,4.69,0,0,1,3.62,4.59A4.69,4.69,0,0,1-487.5-461" fill="none" clip-rule="evenodd"/></clipPath><clipPath id="clip-path-4"><polygon points="-496.3 -469.28 -501.17 -469.28 -501.17 -461.98 -496.3 -461.98 -490.22 -457.19 -490.22 -474.07 -496.3 -469.28" fill="none" clip-rule="evenodd"/></clipPath><clipPath id="clip-path-5"><circle cx="-459" cy="-486" r="23" fill="none"/></clipPath><clipPath id="clip-path-6"><path d="M-455.29-476.75l-.56-2.36a6.67,6.67,0,0,0,5.15-6.52,6.65,6.65,0,0,0-5.15-6.51l.56-2.37a9.09,9.09,0,0,1,7,8.88,9.09,9.09,0,0,1-7,8.88" fill="none" clip-rule="evenodd"/></clipPath><clipPath id="clip-path-7"><path d="M-456.5-481l-.56-2.37a2.26,2.26,0,0,0,1.75-2.21,2.26,2.26,0,0,0-1.75-2.22l.56-2.37a4.69,4.69,0,0,1,3.62,4.59A4.69,4.69,0,0,1-456.5-481" fill="none" clip-rule="evenodd"/></clipPath><clipPath id="clip-path-8"><polygon points="-465.3 -489.28 -470.17 -489.28 -470.17 -481.98 -465.3 -481.98 -459.22 -477.19 -459.22 -494.07 -465.3 -489.28" fill="none" clip-rule="evenodd"/></clipPath></defs><title>svg_checkbox</title><path d="M16,2a2,2,0,0,1,2,2V16a2,2,0,0,1-2,2H4a2,2,0,0,1-2-2V4A2,2,0,0,1,4,2H16m0-1H4A3,3,0,0,0,1,4V16a3,3,0,0,0,3,3H16a3,3,0,0,0,3-3V4a3,3,0,0,0-3-3Z"/></svg>