<svg id="Layer_1" data-name="Layer 1" xmlns="http://www.w3.org/2000/svg" xmlns:xlink="http://www.w3.org/1999/xlink" viewBox="0 0 20 20"><defs><clipPath id="clip-path"><circle cx="-460" cy="-406" r="23" fill="none"/></clipPath><clipPath id="clip-path-2"><path d="M-456.29-396.75l-.56-2.36a6.67,6.67,0,0,0,5.15-6.52,6.65,6.65,0,0,0-5.15-6.51l.56-2.37a9.09,9.09,0,0,1,7,8.88,9.09,9.09,0,0,1-7,8.88" fill="none" clip-rule="evenodd"/></clipPath><clipPath id="clip-path-3"><path d="M-457.5-401l-.56-2.37a2.26,2.26,0,0,0,1.75-2.21,2.26,2.26,0,0,0-1.75-2.22l.56-2.37a4.69,4.69,0,0,1,3.62,4.59A4.69,4.69,0,0,1-457.5-401" fill="none" clip-rule="evenodd"/></clipPath><clipPath id="clip-path-4"><polygon points="-466.3 -409.28 -471.17 -409.28 -471.17 -401.98 -466.3 -401.98 -460.22 -397.19 -460.22 -414.07 -466.3 -409.28" fill="none" clip-rule="evenodd"/></clipPath><clipPath id="clip-path-5"><circle cx="-429" cy="-426" r="23" fill="none"/></clipPath><clipPath id="clip-path-6"><path d="M-425.29-416.75l-.56-2.36a6.67,6.67,0,0,0,5.15-6.52,6.65,6.65,0,0,0-5.15-6.51l.56-2.37a9.09,9.09,0,0,1,7,8.88,9.09,9.09,0,0,1-7,8.88" fill="none" clip-rule="evenodd"/></clipPath><clipPath id="clip-path-7"><path d="M-426.5-421l-.56-2.37a2.26,2.26,0,0,0,1.75-2.21,2.26,2.26,0,0,0-1.75-2.22l.56-2.37a4.69,4.69,0,0,1,3.62,4.59A4.69,4.69,0,0,1-426.5-421" fill="none" clip-rule="evenodd"/></clipPath><clipPath id="clip-path-8"><polygon points="-435.3 -429.28 -440.17 -429.28 -440.17 -421.98 -435.3 -421.98 -429.22 -417.19 -429.22 -434.07 -435.3 -429.28" fill="none" clip-rule="evenodd"/></clipPath></defs><title>svg_popout</title><path d="M17,0H7A3,3,0,0,0,4,3V13a3,3,0,0,0,3,3H17a3,3,0,0,0,3-3V3A3,3,0,0,0,17,0Zm1,13a1,1,0,0,1-1,1H7a1,1,0,0,1-1-1V3A1,1,0,0,1,7,2H17a1,1,0,0,1,1,1Zm-7.8,4.4A2.61,2.61,0,0,1,7.6,20h-5A2.61,2.61,0,0,1,0,17.4v-5A2.61,2.61,0,0,1,2.6,9.8a.6.6,0,1,1,0,1.2,1.4,1.4,0,0,0-1.4,1.4v5a1.4,1.4,0,0,0,1.4,1.4h5A1.4,1.4,0,0,0,9,17.4a.6.6,0,0,1,1.2,0Z"/></svg>