<svg id="Layer_1" data-name="Layer 1" xmlns="http://www.w3.org/2000/svg" xmlns:xlink="http://www.w3.org/1999/xlink" viewBox="0 0 20 20"><defs><clipPath id="clip-path"><circle cx="-310" cy="-228" r="23" fill="none"/></clipPath><clipPath id="clip-path-2"><path d="M-306.29-218.75l-.56-2.36a6.67,6.67,0,0,0,5.15-6.52,6.65,6.65,0,0,0-5.15-6.51l.56-2.37a9.09,9.09,0,0,1,7,8.88,9.09,9.09,0,0,1-7,8.88" fill="none" clip-rule="evenodd"/></clipPath><clipPath id="clip-path-3"><path d="M-307.5-223l-.56-2.37a2.26,2.26,0,0,0,1.75-2.21,2.26,2.26,0,0,0-1.75-2.22l.56-2.37a4.69,4.69,0,0,1,3.62,4.59A4.69,4.69,0,0,1-307.5-223" fill="none" clip-rule="evenodd"/></clipPath><clipPath id="clip-path-4"><polygon points="-316.3 -231.28 -321.17 -231.28 -321.17 -223.98 -316.3 -223.98 -310.22 -219.19 -310.22 -236.07 -316.3 -231.28" fill="none" clip-rule="evenodd"/></clipPath><clipPath id="clip-path-5"><circle cx="-279" cy="-248" r="23" fill="none"/></clipPath><clipPath id="clip-path-6"><path d="M-275.29-238.75l-.56-2.36a6.67,6.67,0,0,0,5.15-6.52,6.65,6.65,0,0,0-5.15-6.51l.56-2.37a9.09,9.09,0,0,1,7,8.88,9.09,9.09,0,0,1-7,8.88" fill="none" clip-rule="evenodd"/></clipPath><clipPath id="clip-path-7"><path d="M-276.5-243l-.56-2.37a2.26,2.26,0,0,0,1.75-2.21,2.26,2.26,0,0,0-1.75-2.22l.56-2.37a4.69,4.69,0,0,1,3.62,4.59A4.69,4.69,0,0,1-276.5-243" fill="none" clip-rule="evenodd"/></clipPath><clipPath id="clip-path-8"><polygon points="-285.3 -251.28 -290.17 -251.28 -290.17 -243.98 -285.3 -243.98 -279.22 -239.19 -279.22 -256.07 -285.3 -251.28" fill="none" clip-rule="evenodd"/></clipPath></defs><title>svg_replay-in</title><path d="M19,6H14l1.83-1.83A8,8,0,1,0,16,15.65a1,1,0,0,1,1.42,0,1,1,0,0,1,0,1.41A10,10,0,1,1,17.24,2.8L19,1ZM8.88,6.88A.55.55,0,0,0,8,7.41V13a.54.54,0,0,0,.88.52l5.24-2.86c.48-.26.48-.69,0-.95Z"/></svg>