<svg id="Layer_1" data-name="Layer 1" xmlns="http://www.w3.org/2000/svg" xmlns:xlink="http://www.w3.org/1999/xlink" viewBox="0 0 20 20"><defs><clipPath id="clip-path"><circle cx="-460" cy="-436" r="23" fill="none"/></clipPath><clipPath id="clip-path-2"><path d="M-456.29-426.75l-.56-2.36a6.67,6.67,0,0,0,5.15-6.52,6.65,6.65,0,0,0-5.15-6.51l.56-2.37a9.09,9.09,0,0,1,7,8.88,9.09,9.09,0,0,1-7,8.88" fill="none" clip-rule="evenodd"/></clipPath><clipPath id="clip-path-3"><path d="M-457.5-431l-.56-2.37a2.26,2.26,0,0,0,1.75-2.21,2.26,2.26,0,0,0-1.75-2.22l.56-2.37a4.69,4.69,0,0,1,3.62,4.59A4.69,4.69,0,0,1-457.5-431" fill="none" clip-rule="evenodd"/></clipPath><clipPath id="clip-path-4"><polygon points="-466.3 -439.28 -471.17 -439.28 -471.17 -431.98 -466.3 -431.98 -460.22 -427.19 -460.22 -444.07 -466.3 -439.28" fill="none" clip-rule="evenodd"/></clipPath><clipPath id="clip-path-5"><circle cx="-429" cy="-456" r="23" fill="none"/></clipPath><clipPath id="clip-path-6"><path d="M-425.29-446.75l-.56-2.36a6.67,6.67,0,0,0,5.15-6.52,6.65,6.65,0,0,0-5.15-6.51l.56-2.37a9.09,9.09,0,0,1,7,8.88,9.09,9.09,0,0,1-7,8.88" fill="none" clip-rule="evenodd"/></clipPath><clipPath id="clip-path-7"><path d="M-426.5-451l-.56-2.37a2.26,2.26,0,0,0,1.75-2.21,2.26,2.26,0,0,0-1.75-2.22l.56-2.37a4.69,4.69,0,0,1,3.62,4.59A4.69,4.69,0,0,1-426.5-451" fill="none" clip-rule="evenodd"/></clipPath><clipPath id="clip-path-8"><polygon points="-435.3 -459.28 -440.17 -459.28 -440.17 -451.98 -435.3 -451.98 -429.22 -447.19 -429.22 -464.07 -435.3 -459.28" fill="none" clip-rule="evenodd"/></clipPath></defs><title>svg_locked</title><path d="M15,9.28V7A5,5,0,0,0,5,7V9.28A2,2,0,0,0,4,11v6a2,2,0,0,0,2,2h8a2,2,0,0,0,2-2V11A2,2,0,0,0,15,9.28ZM10,4a3,3,0,0,1,3,3V9H7V7A3,3,0,0,1,10,4Z"/></svg>