<svg id="Layer_1" data-name="Layer 1" xmlns="http://www.w3.org/2000/svg" viewBox="0 0 20 20"><title>svg_copyright-partial</title><path d="M3.12,5.92A8.05,8.05,0,0,0,2,10a7.85,7.85,0,0,0,.25,2A8.17,8.17,0,0,0,3,13.88l.88-.49a7,7,0,0,1-.66-1.66A6.78,6.78,0,0,1,3,10,7,7,0,0,1,4,6.42Z"/><path d="M12.62,7.53a.51.51,0,0,0,.71,0,.5.5,0,0,0,0-.71,4.5,4.5,0,1,0,0,6.36.48.48,0,0,0,0-.7.5.5,0,0,0-.71,0,3.59,3.59,0,0,1-4.95,0,3.51,3.51,0,0,1,0-4.95A3.59,3.59,0,0,1,12.62,7.53Z"/><path d="M8,2.25A8.1,8.1,0,0,0,6.11,3l.48.88a6.78,6.78,0,0,1,1.68-.67A7,7,0,0,1,13.58,4l.52-.86A8,8,0,0,0,8,2.25Z"/><path d="M17.75,8A8,8,0,0,0,17,6.09l-.87.49a7.26,7.26,0,0,1,.67,1.69A6.8,6.8,0,0,1,17,10a7.05,7.05,0,0,1-1,3.57l.4.3.46.2A8,8,0,0,0,18,10,7.87,7.87,0,0,0,17.75,8Z"/><path d="M11.73,16.78A7,7,0,0,1,6.39,16l-.51.85A8,8,0,0,0,10,18a7.87,7.87,0,0,0,2-.25A8.27,8.27,0,0,0,13.86,17l-.48-.88A7.36,7.36,0,0,1,11.73,16.78Z"/></svg>