<?xml version="1.0" encoding="utf-8"?>
<!-- Generator: Adobe Illustrator 22.0.1, SVG Export Plug-In . SVG Version: 6.00 Build 0)  -->
<svg version="1.1" id="Layer_1" xmlns="http://www.w3.org/2000/svg" xmlns:xlink="http://www.w3.org/1999/xlink" x="0px" y="0px"
	 viewBox="0 0 20 20" style="enable-background:new 0 0 20 20;" xml:space="preserve">
<style type="text/css">
	.st0{fill-rule:evenodd;clip-rule:evenodd;}
	.st1{fill:#010202;}
</style>
<path class="st0" d="M9,1v8L2,5.2c0.4-0.7,0.8-1.3,1.4-1.9C5,1.8,7,1,9,1z"/>
<path d="M11.4,4.8C12.8,5,14,5.6,15.1,6.7c1.3,1.3,1.9,2.9,1.9,4.7s-0.7,3.4-1.9,4.7c-1.3,1.3-2.9,1.9-4.7,1.9S6.9,17.3,5.7,16
	c-1.8-1.8-2.4-4.5-1.6-6.9l5.8,3.1l1.5,0.8v-1.7V4.8 M10.4,3.7v7.6L3.6,7.8c-1.5,2.9-1.1,6.6,1.3,9c1.5,1.5,3.4,2.2,5.4,2.2
	c2,0,3.9-0.7,5.4-2.2c3-3,3-7.8,0-10.8C14.3,4.5,12.3,3.7,10.4,3.7L10.4,3.7z"/>
</svg>
