<svg id="Layer_1" data-name="Layer 1" xmlns="http://www.w3.org/2000/svg" xmlns:xlink="http://www.w3.org/1999/xlink" viewBox="0 0 20 20"><defs><clipPath id="clip-path"><circle cx="-520" cy="-466" r="23" fill="none"/></clipPath><clipPath id="clip-path-2"><path d="M-516.29-456.75l-.56-2.36a6.67,6.67,0,0,0,5.15-6.52,6.65,6.65,0,0,0-5.15-6.51l.56-2.37a9.09,9.09,0,0,1,7,8.88,9.09,9.09,0,0,1-7,8.88" fill="none" clip-rule="evenodd"/></clipPath><clipPath id="clip-path-3"><path d="M-517.5-461l-.56-2.37a2.26,2.26,0,0,0,1.75-2.21,2.26,2.26,0,0,0-1.75-2.22l.56-2.37a4.69,4.69,0,0,1,3.62,4.59A4.69,4.69,0,0,1-517.5-461" fill="none" clip-rule="evenodd"/></clipPath><clipPath id="clip-path-4"><polygon points="-526.3 -469.28 -531.17 -469.28 -531.17 -461.98 -526.3 -461.98 -520.22 -457.19 -520.22 -474.07 -526.3 -469.28" fill="none" clip-rule="evenodd"/></clipPath><clipPath id="clip-path-5"><circle cx="-489" cy="-486" r="23" fill="none"/></clipPath><clipPath id="clip-path-6"><path d="M-485.29-476.75l-.56-2.36a6.67,6.67,0,0,0,5.15-6.52,6.65,6.65,0,0,0-5.15-6.51l.56-2.37a9.09,9.09,0,0,1,7,8.88,9.09,9.09,0,0,1-7,8.88" fill="none" clip-rule="evenodd"/></clipPath><clipPath id="clip-path-7"><path d="M-486.5-481l-.56-2.37a2.26,2.26,0,0,0,1.75-2.21,2.26,2.26,0,0,0-1.75-2.22l.56-2.37a4.69,4.69,0,0,1,3.62,4.59A4.69,4.69,0,0,1-486.5-481" fill="none" clip-rule="evenodd"/></clipPath><clipPath id="clip-path-8"><polygon points="-495.3 -489.28 -500.17 -489.28 -500.17 -481.98 -495.3 -481.98 -489.22 -477.19 -489.22 -494.07 -495.3 -489.28" fill="none" clip-rule="evenodd"/></clipPath></defs><title>svg_checkbox-on</title><path d="M16,1.08H4a3,3,0,0,0-3,3v13c0,1.65,1.35,2,3,2H16a3,3,0,0,0,3-3v-12A3,3,0,0,0,16,1.08ZM8,15.36,3.59,11.08,5,9.66l3,2.8L15.47,4,17,5.37Z"/></svg>