<svg xmlns="http://www.w3.org/2000/svg" viewBox="0 0 35 26">
  <defs>
    <style>
      .cls-1 {
        fill: #4A90E2;
      }
    </style>
  </defs>
  <g id="svg_waveform" transform="translate(35) rotate(90)">
    <path id="Shape" class="cls-1" d="M12.618,35c-.633,0-1.148-.981-1.148-2.188V2.188C11.471.981,11.985,0,12.618,0s1.147.981,1.147,2.188V32.812C13.765,34.019,13.25,35,12.618,35Zm7.646-5.185c-.632,0-1.147-.969-1.147-2.161V12.531c0-1.191.514-2.16,1.147-2.16s1.148.969,1.148,2.16V27.654C21.412,28.846,20.9,29.815,20.264,29.815Zm4.588-6.482c-.632,0-1.147-.969-1.147-2.161V12.531c0-1.191.514-2.16,1.147-2.16S26,11.34,26,12.531v8.642C26,22.364,25.485,23.333,24.853,23.333Zm-8.411,0c-.633,0-1.148-.969-1.148-2.161V12.531c0-1.191.515-2.16,1.148-2.16s1.147.969,1.147,2.16v8.642C17.588,22.364,17.073,23.333,16.441,23.333Zm-7.647,0c-.632,0-1.147-.969-1.147-2.161V12.531c0-1.191.514-2.16,1.147-2.16s1.148.969,1.148,2.16v8.642C9.941,22.364,9.427,23.333,8.794,23.333Zm-3.823,0c-.633,0-1.148-.969-1.148-2.161V6.05c0-1.192.515-2.161,1.148-2.161s1.147.969,1.147,2.161V21.172C6.117,22.364,5.6,23.333,4.971,23.333Zm-3.823,0C.515,23.333,0,22.364,0,21.172V12.531c0-1.191.515-2.16,1.147-2.16s1.147.969,1.147,2.16v8.642C2.294,22.364,1.78,23.333,1.148,23.333Z"/>
  </g>
</svg>
