<svg enable-background="new 0 0 38 38" viewBox="0 0 38 38" xmlns="http://www.w3.org/2000/svg" xmlns:xlink="http://www.w3.org/1999/xlink"><linearGradient id="a" gradientTransform="matrix(-1 0 0 -1 39.2196 46.7575)" gradientUnits="userSpaceOnUse" x1="30.4155" x2="9.4369" y1="36.3128" y2="18.7098"><stop offset="0" stop-color="#009dff"/><stop offset=".1805" stop-color="#cce6ff"/><stop offset=".3024" stop-color="#009dff"/></linearGradient><path d="m29 4h-10c-.6 0-1-.4-1-1 0-.6.4-1 1-1h10c.6 0 1 .4 1 1 0 .6-.4 1-1 1zm5 4h-21c-.6 0-1-.4-1-1 0-.6.4-1 1-1h21c.6 0 1 .4 1 1 0 .6-.4 1-1 1zm-16 4h-8c-.6 0-1-.4-1-1 0-.6.4-1 1-1h8c.6 0 1 .4 1 1 0 .6-.4 1-1 1zm-1 4h-7c-.6 0-1-.4-1-1 0-.6.4-1 1-1h7c.6 0 1 .4 1 1 0 .6-.4 1-1 1zm9 4h-11c-.6 0-1-.4-1-1 0-.6.4-1 1-1h11c.6 0 1 .4 1 1 0 .6-.4 1-1 1zm3 4h-8c-.6 0-1-.4-1-1 0-.6.4-1 1-1h8c.6 0 1 .4 1 1 0 .6-.4 1-1 1zm-1 4h-8c-.6 0-1-.4-1-1 0-.6.4-1 1-1h8c.6 0 1 .4 1 1 0 .6-.4 1-1 1zm-2 4h-22c-.6 0-1-.4-1-1 0-.6.4-1 1-1h22c.6 0 1 .4 1 1 0 .6-.4 1-1 1zm-5 4h-12c-.6 0-1-.4-1-1 0-.6.4-1 1-1h12c.6 0 1 .4 1 1 0 .6-.4 1-1 1zm-11-8h-7c-.6 0-1-.4-1-1 0-.6.4-1 1-1h7c.6 0 1 .4 1 1 0 .6-.4 1-1 1zm24-16h-5c-.6 0-1-.4-1-1 0-.6.4-1 1-1h5c.6 0 1 .4 1 1 0 .6-.4 1-1 1z" fill="url(#a)"/></svg>