<svg enable-background="new 0 0 35 35" version="1.1" viewBox="0 0 35 35" xmlns="http://www.w3.org/2000/svg" xmlns:xlink="http://www.w3.org/1999/xlink"><defs><linearGradient id="linearGradient23608"><stop stop-color="#56da00" stop-opacity=".5" offset="0"/><stop stop-color="#2e7700" offset="1"/></linearGradient></defs><linearGradient id="b" x1="15.38" x2="28.264" y1="2.078" y2="2.078" gradientUnits="userSpaceOnUse" xlink:href="#linearGradient23608"/><linearGradient id="c" x1="11.921" x2="31.045" y1="4.077" y2="4.077" gradientUnits="userSpaceOnUse" xlink:href="#linearGradient23608"/><linearGradient id="d" x1="10.077" x2="32.077" y1="6.077" y2="6.077" gradientUnits="userSpaceOnUse" xlink:href="#linearGradient23608"/><linearGradient id="e" x1="9.17" x2="17.827" y1="8.078" y2="8.078" gradientUnits="userSpaceOnUse" xlink:href="#linearGradient23608"/><linearGradient id="f" x1="8.702" x2="16.248" y1="10.078" y2="10.078" gradientUnits="userSpaceOnUse" xlink:href="#linearGradient23608"/><linearGradient id="g" x1="8.545" x2="17.17" y1="12.078" y2="12.078" gradientUnits="userSpaceOnUse" xlink:href="#linearGradient23608"/><linearGradient id="h" x1="8.92" x2="21.264" y1="14.078" y2="14.078" gradientUnits="userSpaceOnUse" xlink:href="#linearGradient23608"/><linearGradient id="i" x1="10.077" x2="26.264" y1="16.078" y2="16.078" gradientUnits="userSpaceOnUse" xlink:href="#linearGradient23608"/><linearGradient id="j" x1="12.17" x2="28.264" y1="18.078" y2="18.078" gradientUnits="userSpaceOnUse" xlink:href="#linearGradient23608"/><linearGradient id="k" x1="17.17" x2="29.045" y1="20.078" y2="20.078" gradientUnits="userSpaceOnUse" xlink:href="#linearGradient23608"/><linearGradient id="l" x1="20.483" x2="29.764" y1="22.078" y2="22.078" gradientUnits="userSpaceOnUse" xlink:href="#linearGradient23608"/><linearGradient id="m" x1="21.174" x2="29.764" y1="24.078" y2="24.078" gradientUnits="userSpaceOnUse" xlink:href="#linearGradient23608"/><linearGradient id="n" x1="20.077" x2="28.764" y1="26.078" y2="26.078" gradientUnits="userSpaceOnUse" xlink:href="#linearGradient23608"/><linearGradient id="o" x1="5.412" x2="12.624" y1="26.078" y2="26.078" gradientUnits="userSpaceOnUse" xlink:href="#linearGradient23608"/><linearGradient id="p" x1="3.827" x2="27.858" y1="28.078" y2="28.078" gradientUnits="userSpaceOnUse" xlink:href="#linearGradient23608"/><linearGradient id="q" x1="6.317" x2="25.465" y1="30.078" y2="30.078" gradientUnits="userSpaceOnUse" xlink:href="#linearGradient23608"/><linearGradient id="r" x1="9.552" x2="20.764" y1="32.078" y2="32.078" gradientUnits="userSpaceOnUse" xlink:href="#linearGradient23608"/><linearGradient id="s" x1="24.421" x2="31.045" y1="8.078" y2="8.078" gradientUnits="userSpaceOnUse" xlink:href="#linearGradient23608"/><ellipse cx="17.531" cy="17.407" rx="16.206" ry="16.298" fill="#f00" stroke-width=".93165"/><path d="m32.132 10.342a16.206 16.298 0 0 1 0.91437 5.391 16.206 16.298 0 0 1-16.207 16.297 16.206 16.298 0 0 1-14.523-9.1252 16.206 16.298 0 0 0 15.215 10.8 16.206 16.298 0 0 0 16.205-16.299 16.206 16.298 0 0 0-1.6042-7.0642z" fill="#800000" stroke-width=".93165"/><rect transform="matrix(.69174 .72214 -.74593 .66603 0 0)" x="19.531" y="-18.706" width="7.8681" height="3.5504" fill="#f00" stroke-width="1.3221"/><path d="m27.034 2.0056 0.87002-0.76106 5.4283 5.6945-0.74606 0.68561s-0.10692-0.63762-0.54363-0.7157c-0.4367-0.078079-0.90576-0.32793-0.88959-0.81202 0.016175-0.48409-0.40436-0.74955-0.87341-0.78079-0.46906-0.031231-0.79254-0.64024-0.80872-1.015-0.016175-0.37478-0.58228-0.85886-1.116-0.90571-0.53375-0.046847-0.6955-0.56217-0.66315-1.0306 0.032348-0.46847-0.65771-0.35916-0.65771-0.35916z" fill="#fc0" stroke-width="1.3216"/><ellipse transform="matrix(.68845 .72528 -.74893 .66265 0 0)" cx="23.385" cy="-19.384" rx="3.8991" ry=".42549" fill="#dbaf00" stroke-width="1.3221"/><path d="m31.096 3.619c1.1735-0.032371 1.7435-0.50174 1.8944-1.133 0.15088-0.63122 0.33528-1.7156 1.3579-1.7804" fill="none" stroke="#fc0" stroke-linecap="round" stroke-width="1.4538"/><g transform="matrix(.75869 .085167 -.085317 .73283 4.533 2.608)"><path d="m27.7 2.6h-11.8c-0.3 0-0.5-0.2-0.5-0.5s0.2-0.5 0.5-0.5h11.8c0.3 0 0.5 0.2 0.5 0.5 0.1 0.3-0.2 0.5-0.5 0.5z" fill="url(#b)"/><path d="m30.5 4.6h-18c-0.3 0-0.5-0.2-0.5-0.5s0.2-0.5 0.5-0.5h18c0.3 0 0.5 0.2 0.5 0.5s-0.2 0.5-0.5 0.5z" fill="url(#c)"/><path d="m31.5 6.6h-20.9c-0.3 0-0.5-0.2-0.5-0.5s0.2-0.5 0.5-0.5h20.9c0.3 0 0.5 0.2 0.5 0.5 0.1 0.3-0.2 0.5-0.5 0.5z" fill="url(#d)"/><path d="m17.3 8.6h-7.6c-0.3 0-0.5-0.2-0.5-0.5s0.2-0.5 0.5-0.5h7.6c0.3 0 0.5 0.2 0.5 0.5s-0.2 0.5-0.5 0.5z" fill="url(#e)"/><path d="m15.7 10.6h-6.4c-0.3 0-0.5-0.2-0.5-0.5s0.2-0.5 0.5-0.5h6.4c0.3 0 0.6 0.2 0.6 0.5-0.1 0.3-0.3 0.5-0.6 0.5z" fill="url(#f)"/><path d="m16.6 12.6h-7.5c-0.3 0-0.5-0.2-0.5-0.5s0.2-0.5 0.5-0.5h7.5c0.3 0 0.5 0.2 0.5 0.5 0.1 0.3-0.2 0.5-0.5 0.5z" fill="url(#g)"/><path d="m20.7 14.6h-11.2c-0.3 0-0.5-0.2-0.5-0.5s0.2-0.5 0.5-0.5h11.2c0.3 0 0.5 0.2 0.5 0.5 0.1 0.3-0.2 0.5-0.5 0.5z" fill="url(#h)"/><path d="m25.7 16.6h-15.1c-0.3 0-0.5-0.2-0.5-0.5s0.2-0.5 0.5-0.5h15.1c0.3 0 0.5 0.2 0.5 0.5 0.1 0.3-0.2 0.5-0.5 0.5z" fill="url(#i)"/><path d="m27.7 18.6h-15c-0.3 0-0.5-0.2-0.5-0.5s0.2-0.5 0.5-0.5h15c0.3 0 0.5 0.2 0.5 0.5 0.1 0.3-0.2 0.5-0.5 0.5z" fill="url(#j)"/><path d="m28.5 20.6h-10.8c-0.3 0-0.5-0.2-0.5-0.5s0.2-0.5 0.5-0.5h10.8c0.3 0 0.5 0.2 0.5 0.5s-0.2 0.5-0.5 0.5z" fill="url(#k)"/><path d="m29.2 22.6h-8.2c-0.3 0-0.5-0.2-0.5-0.5s0.2-0.5 0.5-0.5h8.2c0.3 0 0.5 0.2 0.5 0.5 0.1 0.3-0.2 0.5-0.5 0.5z" fill="url(#l)"/><path d="m29.2 24.6h-7.5c-0.3 0-0.5-0.2-0.5-0.5s0.2-0.5 0.5-0.5h7.5c0.3 0 0.5 0.2 0.5 0.5 0.1 0.3-0.2 0.5-0.5 0.5z" fill="url(#m)"/><path d="m28.2 26.6h-7.6c-0.3 0-0.5-0.2-0.5-0.5s0.2-0.5 0.5-0.5h7.6c0.3 0 0.5 0.2 0.5 0.5 0.1 0.3-0.2 0.5-0.5 0.5z" fill="url(#n)"/><path d="m12.1 26.6h-6.1c-0.3 0-0.5-0.2-0.5-0.5s0.2-0.5 0.5-0.5h6.1c0.3 0 0.5 0.2 0.5 0.5s-0.2 0.5-0.5 0.5z" fill="url(#o)"/><path d="m27.3 28.6h-22.9c-0.3 0-0.5-0.2-0.5-0.5s0.2-0.5 0.5-0.5h22.9c0.3 0 0.5 0.2 0.5 0.5 0.1 0.3-0.2 0.5-0.5 0.5z" fill="url(#p)"/><path d="m24.9 30.6h-18c-0.3 0-0.5-0.2-0.5-0.5s0.2-0.5 0.5-0.5h18c0.3 0 0.5 0.2 0.5 0.5 0.1 0.3-0.2 0.5-0.5 0.5z" fill="url(#q)"/><path d="m20.2 32.6h-10.1c-0.3 0-0.5-0.2-0.5-0.5s0.2-0.6 0.5-0.6h10.1c0.3 0 0.5 0.2 0.5 0.6 0.1 0.3-0.2 0.5-0.5 0.5z" fill="url(#r)"/><path d="m30.5 8.6h-5.5c-0.3 0-0.5-0.2-0.5-0.5s0.2-0.5 0.5-0.5h5.5c0.3 0 0.5 0.2 0.5 0.5s-0.2 0.5-0.5 0.5z" fill="url(#s)"/></g></svg>
