<svg enable-background="new 0 0 35 35" viewBox="0 0 35 35" xmlns="http://www.w3.org/2000/svg" xmlns:xlink="http://www.w3.org/1999/xlink"><linearGradient id="a"><stop offset="0" stop-color="#9ccdff" stop-opacity=".5"/><stop offset="1" stop-color="#5ec1ff"/></linearGradient><linearGradient id="b" gradientUnits="userSpaceOnUse" x1="15.3796" x2="28.2641" xlink:href="#a" y1="2.0775" y2="2.0775"/><linearGradient id="c" gradientUnits="userSpaceOnUse" x1="11.9205" x2="31.0453" xlink:href="#a" y1="4.0775" y2="4.0775"/><linearGradient id="d" gradientUnits="userSpaceOnUse" x1="10.0767" x2="32.0767" xlink:href="#a" y1="6.0775" y2="6.0775"/><linearGradient id="e" gradientUnits="userSpaceOnUse" x1="9.1704" x2="17.8267" xlink:href="#a" y1="8.0775" y2="8.0775"/><linearGradient id="f" gradientUnits="userSpaceOnUse" x1="8.7017" x2="16.2485" xlink:href="#a" y1="10.0775" y2="10.0775"/><linearGradient id="g" gradientUnits="userSpaceOnUse" x1="8.5453" x2="17.1704" xlink:href="#a" y1="12.0775" y2="12.0775"/><linearGradient id="h" gradientUnits="userSpaceOnUse" x1="8.9204" x2="21.2642" xlink:href="#a" y1="14.0775" y2="14.0775"/><linearGradient id="i" gradientUnits="userSpaceOnUse" x1="10.0767" x2="26.2641" xlink:href="#a" y1="16.0775" y2="16.0775"/><linearGradient id="j" gradientUnits="userSpaceOnUse" x1="12.1703" x2="28.2642" xlink:href="#a" y1="18.0775" y2="18.0775"/><linearGradient id="k" gradientUnits="userSpaceOnUse" x1="17.1704" x2="29.0453" xlink:href="#a" y1="20.0775" y2="20.0775"/><linearGradient id="l" gradientUnits="userSpaceOnUse" x1="20.4828" x2="29.7642" xlink:href="#a" y1="22.0775" y2="22.0775"/><linearGradient id="m" gradientUnits="userSpaceOnUse" x1="21.1741" x2="29.7642" xlink:href="#a" y1="24.0775" y2="24.0775"/><linearGradient id="n" gradientUnits="userSpaceOnUse" x1="20.0768" x2="28.7642" xlink:href="#a" y1="26.0775" y2="26.0775"/><linearGradient id="o" gradientUnits="userSpaceOnUse" x1="5.4116" x2="12.6241" xlink:href="#a" y1="26.0775" y2="26.0775"/><linearGradient id="p" gradientUnits="userSpaceOnUse" x1="3.8267" x2="27.8579" xlink:href="#a" y1="28.0775" y2="28.0775"/><linearGradient id="q" gradientUnits="userSpaceOnUse" x1="6.3171" x2="25.4645" xlink:href="#a" y1="30.0775" y2="30.0775"/><linearGradient id="r" gradientUnits="userSpaceOnUse" x1="9.5519" x2="20.7642" xlink:href="#a" y1="32.0775" y2="32.0775"/><linearGradient id="s" gradientUnits="userSpaceOnUse" x1="24.4205" x2="31.0453" xlink:href="#a" y1="8.0775" y2="8.0775"/><path d="m27.7 2.6h-11.8c-.3 0-.5-.2-.5-.5s.2-.5.5-.5h11.8c.3 0 .5.2.5.5.1.3-.2.5-.5.5z" fill="url(#b)"/><path d="m30.5 4.6h-18c-.3 0-.5-.2-.5-.5s.2-.5.5-.5h18c.3 0 .5.2.5.5s-.2.5-.5.5z" fill="url(#c)"/><path d="m31.5 6.6h-20.9c-.3 0-.5-.2-.5-.5s.2-.5.5-.5h20.9c.3 0 .5.2.5.5.1.3-.2.5-.5.5z" fill="url(#d)"/><path d="m17.3 8.6h-7.6c-.3 0-.5-.2-.5-.5s.2-.5.5-.5h7.6c.3 0 .5.2.5.5s-.2.5-.5.5z" fill="url(#e)"/><path d="m15.7 10.6h-6.4c-.3 0-.5-.2-.5-.5s.2-.5.5-.5h6.4c.3 0 .6.2.6.5-.1.3-.3.5-.6.5z" fill="url(#f)"/><path d="m16.6 12.6h-7.5c-.3 0-.5-.2-.5-.5s.2-.5.5-.5h7.5c.3 0 .5.2.5.5.1.3-.2.5-.5.5z" fill="url(#g)"/><path d="m20.7 14.6h-11.2c-.3 0-.5-.2-.5-.5s.2-.5.5-.5h11.2c.3 0 .5.2.5.5.1.3-.2.5-.5.5z" fill="url(#h)"/><path d="m25.7 16.6h-15.1c-.3 0-.5-.2-.5-.5s.2-.5.5-.5h15.1c.3 0 .5.2.5.5.1.3-.2.5-.5.5z" fill="url(#i)"/><path d="m27.7 18.6h-15c-.3 0-.5-.2-.5-.5s.2-.5.5-.5h15c.3 0 .5.2.5.5.1.3-.2.5-.5.5z" fill="url(#j)"/><path d="m28.5 20.6h-10.8c-.3 0-.5-.2-.5-.5s.2-.5.5-.5h10.8c.3 0 .5.2.5.5s-.2.5-.5.5z" fill="url(#k)"/><path d="m29.2 22.6h-8.2c-.3 0-.5-.2-.5-.5s.2-.5.5-.5h8.2c.3 0 .5.2.5.5.1.3-.2.5-.5.5z" fill="url(#l)"/><path d="m29.2 24.6h-7.5c-.3 0-.5-.2-.5-.5s.2-.5.5-.5h7.5c.3 0 .5.2.5.5.1.3-.2.5-.5.5z" fill="url(#m)"/><path d="m28.2 26.6h-7.6c-.3 0-.5-.2-.5-.5s.2-.5.5-.5h7.6c.3 0 .5.2.5.5.1.3-.2.5-.5.5z" fill="url(#n)"/><path d="m12.1 26.6h-6.1c-.3 0-.5-.2-.5-.5s.2-.5.5-.5h6.1c.3 0 .5.2.5.5s-.2.5-.5.5z" fill="url(#o)"/><path d="m27.3 28.6h-22.9c-.3 0-.5-.2-.5-.5s.2-.5.5-.5h22.9c.3 0 .5.2.5.5.1.3-.2.5-.5.5z" fill="url(#p)"/><path d="m24.9 30.6h-18c-.3 0-.5-.2-.5-.5s.2-.5.5-.5h18c.3 0 .5.2.5.5.1.3-.2.5-.5.5z" fill="url(#q)"/><path d="m20.2 32.6h-10.1c-.3 0-.5-.2-.5-.5s.2-.6.5-.6h10.1c.3 0 .5.2.5.6.1.3-.2.5-.5.5z" fill="url(#r)"/><path d="m30.5 8.6h-5.5c-.3 0-.5-.2-.5-.5s.2-.5.5-.5h5.5c.3 0 .5.2.5.5s-.2.5-.5.5z" fill="url(#s)"/></svg>