<svg enable-background="new 0 0 35 35" viewBox="0 0 35 35" xmlns="http://www.w3.org/2000/svg" xmlns:xlink="http://www.w3.org/1999/xlink"><linearGradient id="a" gradientUnits="userSpaceOnUse" x1="3.9" x2="32.0196" y1="17.0999" y2="17.0999"><stop offset="0" stop-color="#9ccdff" stop-opacity=".5"/><stop offset="1" stop-color="#5ec1ff"/></linearGradient><path d="m27.7 2.6h-11.8c-.3 0-.5-.2-.5-.5s.2-.5.5-.5h11.8c.3 0 .5.2.5.5.1.3-.2.5-.5.5zm2.8 2h-18c-.3 0-.5-.2-.5-.5s.2-.5.5-.5h18c.3 0 .5.2.5.5s-.2.5-.5.5zm1 2h-20.9c-.3 0-.5-.2-.5-.5s.2-.5.5-.5h20.9c.3 0 .5.2.5.5.1.3-.2.5-.5.5zm-14.2 2h-7.6c-.3 0-.5-.2-.5-.5s.2-.5.5-.5h7.6c.3 0 .5.2.5.5s-.2.5-.5.5zm-1.6 2h-6.4c-.3 0-.5-.2-.5-.5s.2-.5.5-.5h6.4c.3 0 .6.2.6.5-.1.3-.3.5-.6.5zm.9 2h-7.5c-.3 0-.5-.2-.5-.5s.2-.5.5-.5h7.5c.3 0 .5.2.5.5.1.3-.2.5-.5.5zm4.1 2h-11.2c-.3 0-.5-.2-.5-.5s.2-.5.5-.5h11.2c.3 0 .5.2.5.5.1.3-.2.5-.5.5zm5 2h-15.1c-.3 0-.5-.2-.5-.5s.2-.5.5-.5h15.1c.3 0 .5.2.5.5.1.3-.2.5-.5.5zm2 2h-15c-.3 0-.5-.2-.5-.5s.2-.5.5-.5h15c.3 0 .5.2.5.5.1.3-.2.5-.5.5zm.8 2h-10.8c-.3 0-.5-.2-.5-.5s.2-.5.5-.5h10.8c.3 0 .5.2.5.5s-.2.5-.5.5zm.7 2h-8.2c-.3 0-.5-.2-.5-.5s.2-.5.5-.5h8.2c.3 0 .5.2.5.5.1.3-.2.5-.5.5zm0 2h-7.5c-.3 0-.5-.2-.5-.5s.2-.5.5-.5h7.5c.3 0 .5.2.5.5.1.3-.2.5-.5.5zm-1 2h-7.6c-.3 0-.5-.2-.5-.5s.2-.5.5-.5h7.6c.3 0 .5.2.5.5.1.3-.2.5-.5.5zm-16.1 0h-6.1c-.3 0-.5-.2-.5-.5s.2-.5.5-.5h6.1c.3 0 .5.2.5.5s-.2.5-.5.5zm15.2 2h-22.9c-.3 0-.5-.2-.5-.5s.2-.5.5-.5h22.9c.3 0 .5.2.5.5.1.3-.2.5-.5.5zm-2.4 2h-18c-.3 0-.5-.2-.5-.5s.2-.5.5-.5h18c.3 0 .5.2.5.5.1.3-.2.5-.5.5zm-4.7 2h-10.1c-.3 0-.5-.2-.5-.5s.2-.6.5-.6h10.1c.3 0 .5.2.5.6.1.3-.2.5-.5.5zm10.3-24h-5.5c-.3 0-.5-.2-.5-.5s.2-.5.5-.5h5.5c.3 0 .5.2.5.5s-.2.5-.5.5z" fill="url(#a)"/></svg>