<svg width="46" height="35" viewBox="0 0 46 35" fill="none" xmlns="http://www.w3.org/2000/svg">
<g clip-path="url(#clip0)" filter="url(#filter0_d)">
<g filter="url(#filter1_d)">
<path fill-rule="evenodd" clip-rule="evenodd" d="M18.9088 18.0239L18.0222 16.6692C17.4168 15.7443 16.1273 15.4068 15.1409 15.9139L15.3707 15.7957C15.126 15.9216 15.0086 16.2353 15.1094 16.4961L16.3366 19.6713C16.5312 20.1747 17.0281 20.8866 17.4399 21.2442C17.4399 21.2442 19.9088 23.2878 19.9088 24.0539V25.0239H23.9088H25.0026H25.9088H26.9088V24.0539C26.9088 23.2878 28.4176 20.8746 28.4176 20.8746C28.6954 20.4055 28.8387 19.5413 28.8387 18.9926L28.758 14.9452C28.7533 14.7129 28.758 11.2196 28.758 10.9771C28.758 10.3076 28.1559 10.048 27.7049 10.0024C27.0691 9.93809 26.6724 10.2811 26.6724 10.728C26.6724 11.1749 26.6724 14.5105 26.6724 14.5105H25.9631C25.9631 14.5105 25.9631 9.30553 25.9631 9.24739C25.9631 8.45642 25.5002 8.24561 25.0705 8.24561C24.6018 8.24561 24.0951 8.44831 24.0951 9.24739V13.9023H23.3779C23.3779 13.9023 23.3779 8.04324 23.3779 7.90526C23.3779 7.36105 22.9984 6.97607 22.4723 6.97607C21.8981 6.97607 21.5021 7.31414 21.5021 7.90526L21.5341 13.4541H20.8873L20.8479 8.89231C20.8129 8.32886 20.4611 8.02391 19.9088 8.02391C19.3527 8.02391 18.9088 8.47154 18.9088 9.02372V13.0239V18.0239Z" fill="white"/>
<path d="M15.0964 15.2621L14.8666 15.3803C14.8666 15.3803 14.8666 15.3803 14.8666 15.3803L14.8804 15.4072C14.5131 15.7217 14.3722 16.253 14.5497 16.7124L15.777 19.8876C16.0064 20.4813 16.56 21.2747 17.0464 21.6972L17.0518 21.7019L17.0572 21.7064L15.0964 15.2621ZM15.0964 15.2621L15.0964 15.2621L15.1021 15.2732C16.2102 14.8325 17.5316 15.1573 18.3088 16.0553M15.0964 15.2621L18.3088 16.0553M18.3088 16.0553V13.0239V9.02372C18.3088 8.14157 19.0199 7.42391 19.9088 7.42391C20.2656 7.42391 20.6213 7.51639 20.9089 7.7458C20.9416 7.37223 21.0907 7.03241 21.3639 6.77908C21.6694 6.49575 22.0697 6.37607 22.4723 6.37607C23.3424 6.37607 23.9779 7.04242 23.9779 7.90526V7.90614V7.90714V7.90827V7.90954V7.91093V7.91245V7.9141V7.91588V7.91778V7.91981V7.92196V7.92424V7.92665V7.92918V7.93183V7.9346V7.9375V7.94052V7.94367V7.94693V7.95031V7.95382V7.95744V7.96118V7.96505V7.96902V7.97312V7.97734V7.98167V7.98611V7.99067V7.99535V8.00014V8.00504V8.01006V8.01519V8.02044V8.02457C23.9944 8.00977 24.0113 7.99531 24.0287 7.98122C24.3626 7.70981 24.764 7.64561 25.0705 7.64561C25.3728 7.64561 25.7607 7.71886 26.078 8.00273C26.4084 8.29834 26.5631 8.73247 26.5631 9.24739V9.24779V9.24831V9.24894V9.24969V9.25056V9.25154V9.25264V9.25385V9.25517V9.25661V9.25816V9.25983V9.26161V9.26349V9.26549V9.2676V9.26983V9.27216V9.2746V9.27715V9.27981V9.28257V9.28545V9.28843V9.29152V9.29471V9.29801V9.30141V9.30492V9.30854V9.31226V9.31608V9.32V9.32403V9.32816V9.33239V9.33672V9.34116V9.34569V9.35032V9.35505V9.35989V9.36481V9.36984V9.37497V9.38019V9.38551V9.39092V9.39643V9.40203V9.40773V9.41353V9.41941V9.4254V9.43147V9.43764V9.44389V9.45024V9.45668V9.46321V9.46983V9.47654V9.48334V9.49023V9.49721V9.50427V9.51142V9.51866V9.52599V9.5334V9.54089V9.54847V9.55614V9.56389V9.57172V9.57963V9.58763V9.59571V9.60387V9.61212V9.62044V9.62885V9.63733V9.6459V9.65454V9.66326V9.67206V9.68093V9.68989V9.69892V9.70803V9.71434C26.5722 9.7071 26.5815 9.69997 26.5909 9.69294C26.9143 9.45115 27.3312 9.36154 27.7653 9.40545C28.0638 9.43565 28.4408 9.53731 28.7593 9.7748C29.1001 10.029 29.358 10.4316 29.358 10.9771C29.358 11.0245 29.3579 11.1866 29.3576 11.4199C29.3566 12.4247 29.3542 14.7511 29.3579 14.933L29.3579 14.9332L29.4385 18.9807L29.4388 18.9926H29.4387C29.4387 19.3119 29.3978 19.7058 29.32 20.0842C29.2441 20.4539 29.1222 20.8622 28.9339 21.1803L28.9302 21.1865L28.9264 21.1926L28.9264 21.1926L28.9264 21.1927L28.9263 21.1928L28.9256 21.1938L28.9228 21.1985L28.9109 21.2176L28.8647 21.2927C28.8246 21.3583 28.767 21.4534 28.6978 21.57C28.559 21.8036 28.3748 22.1217 28.1912 22.4619C28.0067 22.8039 27.828 23.1587 27.697 23.4679C27.6315 23.6226 27.5816 23.7573 27.5489 23.8677C27.5327 23.9225 27.5221 23.9668 27.5157 24.0011C27.5126 24.018 27.5108 24.031 27.5098 24.0404C27.509 24.0483 27.5088 24.0526 27.5088 24.0537L27.5088 24.0539V25.0239V25.6239H26.9088H25.9088H25.0026H23.9088H19.9088H19.3088V25.0239V24.0764C19.3054 24.0662 19.2958 24.0386 19.2709 23.9911C19.2258 23.9048 19.1523 23.7931 19.0484 23.6587C18.8412 23.3908 18.5546 23.0854 18.2537 22.7897C17.9556 22.4966 17.6557 22.2251 17.4294 22.0261C17.3165 21.9268 17.2227 21.8462 17.1574 21.7907C17.1247 21.763 17.0993 21.7415 17.0822 21.7272L17.063 21.7112L17.0584 21.7074L17.0574 21.7065L17.0573 21.7064L18.3088 16.0553Z" stroke="#363B3E" stroke-width="1.2"/>
</g>
<g filter="url(#filter2_d)">
<path d="M6 16L11 12V20L6 16Z" fill="black"/>
<path d="M11.5 12V10.9597L10.6877 11.6096L5.68765 15.6096L5.19961 16L5.68765 16.3904L10.6877 20.3904L11.5 21.0403V20V12Z" stroke="white"/>
</g>
<g filter="url(#filter3_d)">
<path d="M39 16L34 20L34 12L39 16Z" fill="black"/>
<path d="M33.5 20L33.5 21.0403L34.3123 20.3904L39.3123 16.3904L39.8004 16L39.3123 15.6096L34.3123 11.6096L33.5 10.9597L33.5 12L33.5 20Z" stroke="white"/>
</g>
</g>
<defs>
<filter id="filter0_d" x="-1" y="0" width="51" height="40" filterUnits="userSpaceOnUse" color-interpolation-filters="sRGB">
<feFlood flood-opacity="0" result="BackgroundImageFix"/>
<feColorMatrix in="SourceAlpha" type="matrix" values="0 0 0 0 0 0 0 0 0 0 0 0 0 0 0 0 0 0 127 0"/>
<feOffset dy="4"/>
<feGaussianBlur stdDeviation="2"/>
<feColorMatrix type="matrix" values="0 0 0 0 0 0 0 0 0 0 0 0 0 0 0 0 0 0 0.25 0"/>
<feBlend mode="normal" in2="BackgroundImageFix" result="effect1_dropShadow"/>
<feBlend mode="normal" in="SourceGraphic" in2="effect1_dropShadow" result="shape"/>
</filter>
<filter id="filter1_d" x="10.8734" y="3.77612" width="22.1652" height="26.4478" filterUnits="userSpaceOnUse" color-interpolation-filters="sRGB">
<feFlood flood-opacity="0" result="BackgroundImageFix"/>
<feColorMatrix in="SourceAlpha" type="matrix" values="0 0 0 0 0 0 0 0 0 0 0 0 0 0 0 0 0 0 127 0"/>
<feOffset dy="1"/>
<feGaussianBlur stdDeviation="1.5"/>
<feColorMatrix type="matrix" values="0 0 0 0 0 0 0 0 0 0 0 0 0 0 0 0 0 0 0.2 0"/>
<feBlend mode="normal" in2="BackgroundImageFix" result="effect1_dropShadow"/>
<feBlend mode="normal" in="SourceGraphic" in2="effect1_dropShadow" result="shape"/>
</filter>
<filter id="filter2_d" x="1.39922" y="7.91943" width="13.6008" height="18.1613" filterUnits="userSpaceOnUse" color-interpolation-filters="sRGB">
<feFlood flood-opacity="0" result="BackgroundImageFix"/>
<feColorMatrix in="SourceAlpha" type="matrix" values="0 0 0 0 0 0 0 0 0 0 0 0 0 0 0 0 0 0 127 0"/>
<feOffset dy="1"/>
<feGaussianBlur stdDeviation="1.5"/>
<feColorMatrix type="matrix" values="0 0 0 0 0 0 0 0 0 0 0 0 0 0 0 0 0 0 0.25 0"/>
<feBlend mode="normal" in2="BackgroundImageFix" result="effect1_dropShadow"/>
<feBlend mode="normal" in="SourceGraphic" in2="effect1_dropShadow" result="shape"/>
</filter>
<filter id="filter3_d" x="30" y="7.91943" width="13.6008" height="18.1613" filterUnits="userSpaceOnUse" color-interpolation-filters="sRGB">
<feFlood flood-opacity="0" result="BackgroundImageFix"/>
<feColorMatrix in="SourceAlpha" type="matrix" values="0 0 0 0 0 0 0 0 0 0 0 0 0 0 0 0 0 0 127 0"/>
<feOffset dy="1"/>
<feGaussianBlur stdDeviation="1.5"/>
<feColorMatrix type="matrix" values="0 0 0 0 0 0 0 0 0 0 0 0 0 0 0 0 0 0 0.25 0"/>
<feBlend mode="normal" in2="BackgroundImageFix" result="effect1_dropShadow"/>
<feBlend mode="normal" in="SourceGraphic" in2="effect1_dropShadow" result="shape"/>
</filter>
<clipPath id="clip0">
<rect width="43" height="32" fill="white" transform="translate(3)"/>
</clipPath>
</defs>
</svg>
